<svg width="18" height="18" viewBox="0 0 18 18" fill="none" xmlns="http://www.w3.org/2000/svg">
    <g clip-path="url(#clip0_38_4252)">
        <mask id="mask0_38_4252" style="mask-type:luminance" maskUnits="userSpaceOnUse" x="0" y="0" width="18"
              height="18">
            <path d="M18 0H0V18H18V0Z" fill="white"/>
        </mask>
        <g mask="url(#mask0_38_4252)">
            <path d="M5.66262 16.313C12.4534 16.313 16.1687 10.6856 16.1687 5.80694C16.1687 5.64875 16.1652 5.48703 16.1581 5.32882C16.8808 4.80614 17.5047 4.15874 18 3.41703C17.3269 3.7165 16.6122 3.91208 15.8804 3.9971C16.651 3.53523 17.2279 2.80965 17.5043 1.95488C16.7794 2.38447 15.9867 2.68751 15.1601 2.85101C14.6032 2.25922 13.8667 1.86739 13.0647 1.73609C12.2628 1.60479 11.4399 1.74134 10.7233 2.12462C10.0067 2.5079 9.43635 3.11657 9.10038 3.85653C8.76442 4.59649 8.68157 5.42651 8.86465 6.21828C7.39688 6.14461 5.96095 5.76333 4.64998 5.09913C3.33902 4.43492 2.18228 3.50263 1.25472 2.36269C0.783299 3.17548 0.639043 4.13729 0.851273 5.05262C1.0635 5.96795 1.6163 6.76813 2.39731 7.29054C1.81097 7.27192 1.23748 7.11406 0.724219 6.82999V6.87569C0.723693 7.72866 1.01857 8.55549 1.55873 9.21563C2.09889 9.87577 2.851 10.3285 3.68719 10.4968C3.14404 10.6454 2.57399 10.667 2.02113 10.5601C2.25709 11.2936 2.71618 11.9352 3.33433 12.3953C3.95247 12.8554 4.69884 13.111 5.46925 13.1265C4.16132 14.1538 2.54563 14.7112 0.882422 14.7085C0.587465 14.708 0.292799 14.69 0 14.6544C1.68964 15.7384 3.65515 16.3141 5.66262 16.313Z"
                  fill="white"/>
        </g>
    </g>
    <defs>
        <clipPath id="clip0_38_4252">
            <rect width="18" height="18" fill="white"/>
        </clipPath>
    </defs>
</svg>
