<svg width="29" height="31" viewBox="0 0 29 31" fill="none" xmlns="http://www.w3.org/2000/svg">
    <path d="M15.0742 1.71143C16.6408 0.771911 18.6287 1.24662 19.6221 2.80225L19.7148 2.95654L21.1885 5.58936L21.3984 5.96338L21.8135 6.06982L24.5 6.7583L24.5049 6.75928C26.2709 7.20341 27.413 9.00778 27.0801 10.8706L27.043 11.0513V11.0522L26.3271 14.1733L26.2402 14.5503L26.4297 14.8872L27.5273 16.8384L27.5303 16.8442C28.4639 18.48 27.9635 20.5929 26.4053 21.6362L26.251 21.7339L26.2451 21.7378L24.6553 22.7017L24.292 22.9224L24.1982 23.3364L23.7295 25.4214C23.303 27.2749 21.5801 28.3873 19.832 28.0425L19.6631 28.0044L17.4277 27.4312L17.0195 27.3267L16.6602 27.5454L13.9072 29.2202C12.3626 30.1566 10.3615 29.6809 9.3877 28.1333L9.29688 27.98L9.29492 27.978L7.79492 25.3149L7.58496 24.9438L7.17188 24.8374L4.48438 24.1489L4.48047 24.1479L4.31152 24.1001C2.64203 23.5866 1.58276 21.8386 1.90527 20.0356L1.94141 19.855L2.6582 16.7329L2.74512 16.356L2.55566 16.019L1.45801 14.0679C0.539372 12.4269 1.04683 10.3357 2.58008 9.31592L2.73145 9.22021L2.73926 9.21533L4.33008 8.25146L4.69336 8.03076L4.78711 7.61572L5.25586 5.53174C5.68179 3.68048 7.42608 2.56223 9.16113 2.89111L9.3291 2.92725L11.5576 3.49854L11.9648 3.60303L12.3252 3.38428L15.0742 1.71143Z"
          fill="#FD89ED" stroke="#232D39" stroke-width="2"/>
</svg>
