<svg width="32" height="34" viewBox="0 0 32 34" fill="none" xmlns="http://www.w3.org/2000/svg">
    <path d="M26.5059 2.71875L27.2539 4.30957V4.31055L27.457 4.76172C28.9165 8.16553 28.9655 11.8833 27.8428 15.1709L28.25 15.7012L28.9688 16.6367L28.9727 16.6426L29.2627 17.0469C32.1477 21.2841 31.3789 27.1983 27.4033 30.4658L27.4004 30.4678C23.2402 33.8594 17.2646 33.0782 14.0264 28.7988V28.7979L13.3125 27.8691L12.7227 27.1006L13.4717 26.4863L15.8027 24.5732C10.4919 24.8862 5.29607 21.9161 2.84277 16.6709L2.84375 16.6699L2.09473 15.082L1.68262 14.2051L2.5459 13.7656L25.1465 2.25391L26.0664 1.78516L26.5059 2.71875Z"
          fill="#6DE0E7" stroke="#2F3843" stroke-width="2"/>
</svg>
