<svg width="146" height="117" viewBox="0 0 146 117" fill="none" xmlns="http://www.w3.org/2000/svg">
    <path d="M32.9297 85.251L50.1857 97.576L42.3947 98.6708L25.1387 86.3457L32.9297 85.251Z" fill="#28CE61"/>
    <path d="M81.4958 16.4507L98.7518 28.7757L99.0711 39.7187L81.8106 27.3936L81.4958 16.4507Z" fill="#28CE61"/>
    <path d="M51.2665 93.6763L68.5225 105.997L50.5048 108.533L33.2442 96.2079L51.2665 93.6763Z" fill="#28CE61"/>
    <path d="M99.8459 24.8616L117.106 37.1821L117.421 48.1387L100.165 35.8136L99.8459 24.8616Z" fill="#28CE61"/>
    <path d="M83.9179 100.076L101.174 112.401L68.8423 116.944L51.5818 104.619L83.9179 100.076Z" fill="#28CE61"/>
    <path d="M83.5984 89.1282L100.859 101.453L101.174 112.401L83.9177 100.076L83.5984 89.1282Z" fill="#28CE61"/>
    <path d="M107.938 34.7195L125.194 47.0445L126.348 86.8751L109.092 74.5501L107.938 34.7195Z" fill="#28CE61"/>
    <path d="M109.092 74.5493L126.348 86.8744L118.575 87.9646L101.319 75.6395L109.092 74.5493Z" fill="#28CE61"/>
    <path d="M101.319 75.6399L118.575 87.9649L118.89 98.9216L101.634 86.5965L101.319 75.6399Z" fill="#28CE61"/>
    <path d="M101.634 86.5962L118.89 98.9212L100.859 101.453L83.5984 89.1278L101.634 86.5962Z" fill="#28CE61"/>
    <path d="M81.4967 16.4512L81.8114 27.3941L99.8474 24.8625L100.167 35.8145L107.939 34.7198L109.093 74.5504L101.321 75.6406L101.635 86.5972L83.5995 89.1288L83.9188 100.076L51.5827 104.62L51.2679 93.6766L33.2456 96.2082L32.9309 85.2516L25.1399 86.3463L23.9859 46.5203L31.7768 45.4255L31.4621 34.4735L49.4798 31.9373L49.1605 20.9944L81.4967 16.4512Z"
          fill="#28CE61"/>
    <path d="M64.5685 34.72L66.3703 41.7629L71.0047 50.2517L88.507 50.4068L79.6532 58.8227L76.2595 64.8119L79.7536 82.2321L63.9299 75.9966L48.234 83.19L51.0529 68.3516L48.234 62.7592L38.9879 55.6479L53.0645 52.0124L58.7299 44.6229L64.5685 34.72Z"
          fill="white"/>
    <mask id="mask0_38_5070" style="mask-type:luminance" maskUnits="userSpaceOnUse" x="25" y="16" width="102"
          height="101">
        <path d="M81.8094 27.3977L81.4946 16.4502L98.7506 28.7661L99.0699 39.7136L81.8094 27.3977ZM118.575 87.9692L126.329 86.8745L125.18 47.0484L117.225 41.3557L117.106 37.1866L99.8454 24.8706L100.165 35.8181L108.134 41.5108L103.691 51.7787L109.091 74.554L101.337 75.6487L101.652 86.5962L83.6157 89.1324L83.935 100.08L64.1429 102.862L51.2841 93.6802L45.8104 94.4465L32.9288 85.2552L25.1379 86.3499L38.0057 95.5367L33.2481 96.2072L50.5041 108.523L55.9779 107.752L68.8366 116.934L101.168 112.373L100.853 101.426L118.889 98.8894L118.575 87.9692Z"
              fill="white"/>
    </mask>
    <g mask="url(#mask0_38_5070)">
        <g opacity="0.42">
            <path d="M74.5609 147.948L68.07 143.579C63.8126 140.705 59.6374 137.711 55.5442 134.597C57.0647 136.057 58.6004 137.512 60.1513 138.962L66.3823 144.851L59.0383 140.408C50.3085 135.116 42.1475 128.937 34.6847 121.971C35.7243 123.256 36.8296 124.486 37.9963 125.657L36.783 127.025C30.3635 121.871 23.6931 117.034 16.7719 112.515C14.3178 111.653 11.8546 110.791 9.39146 109.947C9.87041 110.773 10.3311 111.521 10.7599 112.155L11.216 112.825C17.3101 117.022 22.4691 122.194 23.5685 129.703L23.9607 132.243L22.0723 130.515C18.268 127.03 15.1982 122.267 12.2241 117.665C11.435 116.442 10.6823 115.275 9.94339 114.143C7.13354 112.228 4.11385 110.494 1.21733 108.866C-1.0634 107.575 -3.20728 106.353 -5.1687 105.089L-10.9754 101.362L-4.43887 103.433C-1.12421 104.485 2.195 105.576 5.51878 106.704L5.12194 105.965L4.66579 105.098C2.75606 104.073 0.861538 103.009 -1.01778 101.905L-0.105489 100.313C0.943645 100.879 1.98822 101.454 3.02823 102.037C0.555922 97.5854 -2.10341 93.3706 -4.77186 91.619L-3.77746 90.0909C4.58216 95.5221 12.7928 101.218 20.8544 107.178C19.6593 105.725 18.4946 104.245 17.3603 102.74C14.9671 101.502 12.5495 100.312 10.1076 99.1682L10.8694 97.5079C12.1952 98.1161 13.5196 98.7167 14.8424 99.3096C13.3766 97.2479 11.9641 95.1511 10.6048 93.0194L9.09952 90.652L11.2343 91.4913C9.31847 88.4503 7.50454 85.3546 5.79247 82.2042L3.96789 78.8789L7.09248 81.0182C14.26 85.9355 21.3364 91.0215 28.3215 96.2763C25.2805 92.4964 22.4357 88.5781 19.787 84.5214L17.8575 81.5656L20.9775 83.2168C22.1088 83.8189 23.2583 84.4211 24.3713 85.0414C21.0566 80.3614 17.9214 75.5475 14.9656 70.5998L11.3757 64.6107L16.3933 69.4777C26.5106 79.3122 36.8849 88.9536 47.5161 98.4019C49.7056 99.7491 51.8814 101.117 54.0435 102.507L52.0365 100.45L53.7242 101.194C52.7389 99.857 51.781 98.4977 50.8505 97.1293C49.6493 96.4359 48.4557 95.7319 47.2698 95.0173L48.1821 93.4299L48.5607 93.6261C48.068 92.8506 47.5799 92.0706 47.1056 91.286C39.6056 80.8424 33.2053 69.6515 28.0067 57.8916L27.026 55.6793L81.4077 80.8357L69.817 66.6177C68.9412 65.7921 68.0746 64.9619 67.217 64.118L67.4952 63.7713L67.3949 63.6436L67.5363 63.7212L68.3574 62.704C71.7024 64.8996 75.0369 67.1301 78.3606 69.3956C77.5578 67.9633 76.7656 66.5204 75.9841 65.0668L77.4985 64.0633C79.5998 66.6724 81.7285 69.2573 83.8846 71.8178L84.1765 71.2795L83.474 70.4493L84.3179 71.0195L84.3179 70.983C79.9724 66.2208 75.6633 61.445 71.3907 56.6555L72.6725 55.36C77.8634 59.9215 83.1167 64.4297 88.4323 68.8847L85.0432 64.7338L86.4344 63.5524C90.2417 67.8493 94.0095 72.2024 97.7377 76.6118L98.6773 77.3827L99.2156 77.6336C95.2199 72.9654 91.6192 67.9732 88.4506 62.7085L87.2646 60.738L89.4815 61.3629L89.7597 61.4404C88.6832 60.6468 87.6189 59.85 86.5667 59.0503L87.6386 57.5723C89.3507 58.7705 91.0232 60.0127 92.6562 61.299L94.4808 62.6173C92.4859 60.0446 90.4865 57.4811 88.4825 54.9267C81.0808 47.4277 73.1439 39.8344 64.6717 32.1468L65.844 30.7464L102.719 59.2874L110.437 62.9868L100.689 49.1747L100.475 49.0515L100.525 48.9421L97.6601 44.8824L77.7357 28.7804L85.0021 32.3201C86.9818 33.2841 88.9584 34.2633 90.932 35.2577L85.2712 27.2295L88.9432 29.4145C89.667 29.8433 90.3877 30.2766 91.1053 30.7145L89.5818 29.2913L90.6857 27.8499C93.6415 29.6988 96.5943 31.5644 99.544 33.4468C98.1573 31.9263 96.7646 30.4058 95.3657 28.8854L92.4236 25.6923L92.0997 25.446L92.1453 25.3867L91.7166 24.9306L92.2685 25.2225L93.1808 23.9727C96.5259 26.2351 99.8147 28.5797 103.047 31.0064C109.493 34.5005 116.102 38.1862 122.579 42.223L121.859 41.5981C112.193 35.5811 102.908 28.9727 94.0566 21.8105L95.1194 20.3281L106.377 27.9229C96.1868 18.6935 86.2261 9.26654 76.495 -0.358127L77.7038 -1.72656L90.818 8.62338L91.1053 8.2539C94.4899 10.6502 97.8046 13.1377 101.049 15.7164C98.5344 12.6177 96.0515 9.50526 93.6004 6.37914L89.4951 1.15628L104.548 12.1996L93.9608 1.25207L99.4984 4.40403C122.817 17.6733 146.938 31.3987 168.253 48.5361L167.19 50.0094C155.928 42.3188 144.415 34.7924 132.792 27.5078C142.452 35.53 151.284 44.4984 159.158 54.279L162.684 58.6534L154.719 53.54L153.187 52.874C148.99 51.0495 144.859 49.0911 140.793 46.9989L145.154 51.5056L143.932 52.874L134.923 45.7627C136.103 46.8727 137.272 47.9918 138.43 49.12L139.799 50.4565L151.659 58.4618C160.111 64.1636 159.65 68.8802 158.619 71.1883L158.309 71.8771L157.579 71.7037C155.299 71.1746 153.032 70.6059 150.778 69.9977L150.217 70.6409L148.502 69.3683C146.373 68.7601 144.252 68.126 142.139 67.4661L143.11 68.5381L140.953 67.0875C138.447 66.2817 135.958 65.4256 133.486 64.5194C133.782 64.8205 134.074 65.1215 134.366 65.4317C142.925 71.3536 150.817 78.1855 157.903 85.8077L161.146 89.3155L142.901 80.5575C147.234 85.788 151.529 91.0504 155.787 96.3447L154.377 97.5033C148.599 90.5699 142.546 83.8661 136.218 77.3919L135.675 77.0908L127.2 73.0265C127.711 73.6347 128.225 74.2247 128.742 74.7964C133.988 79.3578 139.147 84.0333 144.169 88.7727L148.119 92.504L147.011 92.0022C150.103 94.6296 153.089 97.3801 155.969 100.254L160.075 104.359L154.911 101.718C150.824 99.6289 146.766 97.4775 142.736 95.2636C142.56 95.5044 142.346 95.7153 142.102 95.8885L141.728 96.1577L141.272 96.0163C140.314 95.7122 139.358 95.4081 138.403 95.104L140.857 96.9787L137.012 96.217L136.679 96.1531C143.977 102.341 151.116 108.682 158.095 115.174L162.1 118.897L157.082 116.675C148.812 112.999 140.766 108.834 132.906 104.359L136.145 108.921L131.447 105.395C130.428 104.634 129.415 103.874 128.409 103.114L128.354 103.114L129.942 105.089C134.463 108.86 138.821 112.813 143.015 116.949C149.951 121.094 156.775 125.407 163.486 129.89L162.547 131.454C158.095 129.046 153.757 126.461 149.533 123.7C151.358 125.689 153.156 127.714 154.929 129.776L156.754 131.938L153.99 131.253C144.809 128.97 135.712 126.385 126.698 123.499C129.052 126.336 131.429 129.149 133.828 131.938L132.505 133.188L126.338 127.135L124.057 126.432L121.941 125.762C125.924 129.998 130.039 134.118 134.284 138.123L133.094 139.491C131.573 138.299 130.092 137.083 128.651 135.842L138.289 147.666L131.857 142.443L132.628 143.455L130.598 143.3C121.055 142.546 111.635 140.661 102.536 137.685L106.774 142.224L101.61 139.309C98.6272 137.621 95.6911 135.865 92.8022 134.041C91.008 133.277 89.2351 132.474 87.4835 131.632C89.9711 134.119 91.981 137.041 93.4134 140.253L94.1387 141.904L92.378 141.508C84.3265 139.613 76.5739 136.62 69.3381 132.613L69.0872 132.959L64.9317 130.099L64.5622 129.88C67.2991 132.724 69.9402 135.664 72.4855 138.702L74.8209 141.503L71.4455 140.135C69.0674 139.171 66.7213 138.144 64.4071 137.056C66.0401 138.743 67.6549 140.451 69.2514 142.178L74.5609 147.948ZM99.877 134.875C109.166 138.207 118.833 140.372 128.655 141.321C127.396 139.727 126.09 138.175 124.737 136.663C117.387 130.624 110.089 124.495 102.842 118.276L101.838 117.82L102.751 118.481L97.6875 117.026C96.1488 116.585 94.6192 116.129 93.0987 115.658C99.6094 122.6 106.284 129.357 113.123 135.929L111.983 137.343C103.718 131.778 95.3201 126.117 86.699 120.771L99.877 134.875ZM67.9468 129.776C75.1402 133.881 82.7989 137.252 90.9138 139.304C88.82 135.377 85.7867 132.23 82.247 129.402L81.873 129.885C80.8922 129.137 79.9161 128.375 78.9536 127.604L78.648 127.572L78.1189 128.12L77.3708 127.445C75.2056 127.22 73.0435 126.96 70.8844 126.665C71.6142 127.23 72.341 127.799 73.0648 128.371L72.0658 129.89C69.5935 128.549 67.1136 127.217 64.6261 125.894L67.477 128.43L67.0209 129.037L67.9468 129.776ZM60.4752 133.105C63.1299 134.483 65.8303 135.772 68.5763 136.974C64.8818 132.755 60.9736 128.728 56.8671 124.909L55.4348 123.9C54.5225 123.703 53.6239 123.499 52.7389 123.289L53.2909 123.723L57.6015 127.116L52.4242 125.292L52.2782 125.242C55.0698 127.817 57.8067 130.439 60.4889 133.105L60.4752 133.105ZM56.5523 133.078C58.2279 134.355 59.9187 135.614 61.6247 136.855C60.8811 136.098 60.1376 135.345 59.385 134.597C58.4499 134.1 57.5011 133.594 56.566 133.078L56.5523 133.078ZM112.631 122.459C116.849 125.989 120.843 129.777 124.591 133.803L119.295 127.285C118.079 126.087 116.885 124.87 115.714 123.636C114.688 123.257 113.666 122.86 112.645 122.459L112.631 122.459ZM93.6324 132.444C94.4215 132.777 95.2106 133.101 96.0089 133.416L82.4477 118.897L82.0965 118.755C84.365 121.392 86.5849 124.063 88.7562 126.77L90.0288 128.352L88.0035 128.252L87.2144 128.211C89.337 129.662 91.4809 131.073 93.6461 132.444L93.6324 132.444ZM101.09 127.851L104.74 130.273C102.45 127.992 100.18 125.69 97.9293 123.367L101.341 127.632L101.09 127.851ZM45.0483 123.768C48.0893 125.897 51.2291 127.905 54.4677 129.794C52.2965 127.723 50.0933 125.685 47.8582 123.681L42.9045 121.912L45.0483 123.768ZM134.813 124.019C140.406 125.698 146.031 127.262 151.691 128.713C148.561 125.152 145.309 121.699 141.934 118.354C140.769 117.669 139.609 116.979 138.453 116.283C139.955 117.615 141.446 118.951 142.923 120.292L146.226 123.285L142.011 121.834C137.842 120.393 133.726 118.769 129.663 116.962L130.512 118.121L134.813 124.019ZM14.2585 117.464C16.375 120.739 18.56 124.046 21.0049 126.824C19.7323 123.148 17.2828 120.105 14.2585 117.464ZM84.3681 126.213L86.0649 126.323C83.5561 123.239 80.9865 120.198 78.3561 117.2C74.9198 115.783 71.4956 114.326 68.0837 112.83C72.7059 115.904 77.1762 119.199 81.4944 122.714L80.8603 123.627C82.0189 124.515 83.1882 125.377 84.3681 126.213ZM80.6915 125.93L80.8786 125.93C78.5248 124.203 76.2061 122.426 73.9223 120.598L73.1697 120.197C74.082 121.03 75.0049 121.854 75.9385 122.669C77.5441 123.736 79.1543 124.808 80.6915 125.93ZM67.9195 124.389C70.2884 124.753 72.6603 125.076 75.0353 125.356C74.1778 124.589 73.3111 123.823 72.4444 123.075C69.8778 121.345 67.3736 119.52 64.9317 117.601C63.0667 116.271 61.2788 114.837 59.5766 113.304C55.1672 111.175 50.7182 109.13 46.2298 107.169C47.1877 108.464 48.1775 109.746 49.1856 111.005C55.5777 115.281 61.8299 119.742 67.9423 124.389L67.9195 124.389ZM124.582 120.812C127.927 121.907 131.284 122.962 134.654 123.978L129.152 119.362C126.853 117.434 124.573 115.477 122.31 113.491C120.182 112.415 118.082 111.29 116.011 110.116C118.851 113.707 121.716 117.273 124.605 120.812L124.582 120.812ZM90.1018 120.717C91.5706 121.629 93.0363 122.564 94.4991 123.522C91.525 120.785 88.4719 118.126 85.3397 115.544L84.5049 116.415C85.7456 117.355 86.9803 118.304 88.2088 119.261L90.1018 120.717ZM119.368 122.997L120.919 123.522C119.751 122.427 118.565 121.354 117.361 120.301L116.741 120.087C117.585 121.045 118.465 122.017 119.345 122.979L119.368 122.997ZM58.7008 120.717C60.1483 121.471 61.5912 122.231 63.0296 122.997C59.9612 120.72 56.8549 118.486 53.7105 116.296L54.2123 116.848L54.7688 117.382C56.0703 118.471 57.3734 119.576 58.678 120.698L58.7008 120.717ZM49.1354 120.52C49.9899 120.739 50.8444 120.954 51.6989 121.164C51.0649 120.685 50.44 120.206 49.8151 119.727L41.5634 114.052C39.7875 113.176 38.01 112.304 36.2311 111.434L37.0111 112.059C41.1498 114.741 45.1913 117.562 49.1354 120.52ZM107.673 118.449C109.418 119.207 111.176 119.93 112.946 120.621C112.129 119.708 111.317 118.796 110.519 117.857C108.086 116.966 105.653 116.053 103.221 115.12C104.73 116.205 106.213 117.327 107.673 118.449ZM23.7418 114.987C26.2688 116.739 28.7655 118.536 31.2317 120.379C30.4289 119.239 29.6686 118.068 28.951 116.867L23.7418 114.987ZM121.243 119.686L121.398 119.736C118.165 115.749 114.972 111.718 111.819 107.643C108.96 105.91 106.16 104.085 103.417 102.17L102.719 101.887L121.243 119.686ZM85.0249 112.93C87.3634 114.822 89.6654 116.76 91.931 118.746L88.145 114.02C87.0821 113.678 86.0376 113.3 85.0021 112.93L85.0249 112.93ZM37.6816 117.195C39.1017 117.657 40.5264 118.101 41.9557 118.527C39.9699 116.836 37.9644 115.173 35.9391 113.537C34.2514 112.448 32.55 111.384 30.8349 110.344C33.1065 112.634 35.3887 114.917 37.6816 117.195ZM137.92 118.408L138.198 118.513L137.646 118.021L137.92 118.408ZM127.405 113.934C130.313 115.299 133.252 116.57 136.223 117.747L128.555 110.654C126.73 109.641 124.895 108.641 123.049 107.653C123.715 108.142 124.377 108.636 125.033 109.135L130.804 113.509L125.389 111.229C126.064 112.132 126.739 113.03 127.405 113.934ZM96.7387 110.576C100.522 112.118 104.323 113.604 108.142 115.033C107.923 114.764 107.686 114.495 107.481 114.221C103.33 112.701 99.2338 111.055 95.1924 109.286L96.4878 110.412L96.7387 110.576ZM109.716 111.945C110.932 112.812 112.123 113.703 113.288 114.618L106.874 108.46C107.814 109.612 108.761 110.766 109.716 111.922L109.716 111.945ZM64.0559 109.089C67.7355 110.747 71.4348 112.358 75.1539 113.925C70.9118 111.53 66.6103 109.244 62.2313 107.119C62.8334 107.748 63.4447 108.414 64.0559 109.067L64.0559 109.089ZM90.558 112.907L92.9573 113.683L90.6766 112.032L88.7334 110.941L90.558 112.907ZM91.6436 110.49C93.532 111.557 95.4402 112.587 97.3682 113.578C96.8026 113.091 96.2385 112.602 95.6759 112.109C94.271 111.54 92.8691 110.96 91.4702 110.367L91.6436 110.49ZM78.6389 112.123C79.2471 112.567 79.8659 113.011 80.4954 113.455C79.428 112.506 78.3515 111.571 77.2659 110.649L78.6389 112.123ZM6.00686 103.752C12.1873 107.049 18.5416 110.01 25.0418 112.62C17.2782 106.72 9.3504 101.058 1.25839 95.6331C2.92332 98.0917 4.5107 100.965 6.00686 103.752ZM130.357 100.724C137.628 104.966 145.049 108.962 152.644 112.583C146.224 106.711 139.67 100.967 132.979 95.3503C130.319 94.7968 127.659 94.216 125.001 93.6078C126.835 95.9798 128.62 98.3517 130.357 100.724ZM90.4302 105.121C95.2289 107.377 100.11 109.459 105.073 111.366C104.546 110.864 104.017 110.368 103.485 109.879C97.4362 105.968 91.0544 102.597 84.4137 99.8068C86.4146 101.586 88.4202 103.357 90.4302 105.121ZM80.3449 109.226C82.209 109.953 84.0868 110.652 85.9783 111.325L82.7168 107.247C81.5734 106.514 80.4346 105.767 79.3003 105.007C75.9187 103.459 72.5585 101.867 69.2195 100.231L72.7364 103.534C75.2999 105.407 77.8361 107.31 80.3449 109.244L80.3449 109.226ZM2.94156 107.748C4.48333 108.624 6.04791 109.523 7.59424 110.485C7.32968 110.029 7.06512 109.55 6.79599 109.057C5.50966 108.624 4.22789 108.204 2.94156 107.748ZM44.1908 104.254C48.5607 106.118 52.8971 108.066 57.2001 110.097C55.0288 108.325 52.8439 106.568 50.6452 104.829C47.6377 103.385 44.6515 101.914 41.6865 100.418L42.4666 98.7714L43.3788 99.1865C41.834 98.0005 40.2816 96.8267 38.7216 95.665C40.4367 98.6117 42.2598 101.481 44.1908 104.272L44.1908 104.254ZM59.1341 103.593C63.3945 105.55 67.5774 107.662 71.7055 109.892L70.7932 108.939C67.1014 106.494 63.3504 104.136 59.5401 101.864C58.4681 101.312 57.4053 100.751 56.3471 100.181L57.5467 101.727C58.0606 102.357 58.5898 102.985 59.1341 103.611L59.1341 103.593ZM22.3642 98.6254L37.116 108.77L38.0283 107.593L39.2827 108.446C38.9405 108.104 38.5939 107.762 38.2563 107.415C31.191 102.821 23.7543 98.8252 16.0238 95.4689C16.5073 96.1714 16.9954 96.8723 17.488 97.5717L19.9877 99.2914L20.0288 99.2595L20.2112 99.451C21.1235 100.076 22.0084 100.71 22.9025 101.349C22.866 101.175 22.8295 101.007 22.7976 100.838L22.3642 98.6254ZM113.05 106.248C114.221 106.95 115.403 107.64 116.595 108.319L115.067 106.914L112.868 106.001C112.909 106.102 112.991 106.179 113.05 106.261L113.05 106.248ZM8.05495 107.561L9.90234 108.204C9.15882 107.748 8.4153 107.292 7.66723 106.863L8.05495 107.561ZM29.3843 106.106L31.4187 107.078L25.0874 102.731C25.0874 102.813 25.1285 102.89 25.1467 102.972C26.5699 104 27.9824 105.045 29.3843 106.106ZM122.999 103.032C124.463 104.25 125.927 105.472 127.378 106.704L126.867 105.983C125.216 104.463 123.594 102.921 122 101.358L120.851 101.048L122.999 103.032ZM84.5049 105.372L86.9179 106.435C85.2849 105.428 83.6504 104.438 82.0144 103.465L82.0645 103.524L82.2835 103.775L84.5049 105.372ZM119.788 103.857C120.896 104.437 121.995 105.021 123.099 105.609L121.795 104.405C120.358 103.21 118.907 102.024 117.457 100.842C118.237 101.846 119.017 102.854 119.788 103.857ZM38.0602 103.766C38.8904 104.286 39.716 104.802 40.5371 105.326L39.6749 104.355L37.8504 103.616L38.0602 103.766ZM88.5144 96.3036C92.6565 98.8446 96.6191 101.667 100.374 104.751C99.4619 103.459 98.5816 102.154 97.7331 100.838L96.6292 99.4693C93.9258 98.411 91.2209 97.3558 88.5144 96.3036ZM67.1805 102.598L68.3346 103.766L67.3903 102.758L67.1805 102.598ZM110.683 103.16L111.326 103.42C110.788 102.913 110.25 102.398 109.716 101.887L110.683 103.16ZM40.7651 102.831L41.1072 102.972C39.0181 99.816 37.081 96.5728 35.296 93.2429C33.7968 92.3701 32.2915 91.5111 30.7801 90.6657C33.964 94.8349 37.2923 98.89 40.7651 102.831ZM80.4498 96.2763C85.3011 98.0862 90.0345 100.198 94.6222 102.598C88.4704 98.0928 81.8387 94.2821 74.8483 91.2359C76.7094 92.9236 78.5765 94.6037 80.4498 96.2763ZM60.3794 100.268C61.6201 100.906 62.8669 101.531 64.1198 102.142C61.9364 99.9771 59.7195 97.8485 57.4692 95.7563C54.7323 93.9317 51.9529 92.1725 49.1308 90.4787C50.4932 92.4066 51.8814 94.3209 53.2954 96.2215C55.6917 97.52 58.0606 98.8687 60.4022 100.268L60.3794 100.268ZM78.4564 99.0451C80.357 100.091 82.2744 101.104 84.2084 102.083C82.6271 100.681 81.0473 99.2762 79.4691 97.8682C78.5568 97.5307 77.6445 97.2053 76.7322 96.8921L78.4564 99.0451ZM115.527 101.659L115.915 101.859C115.185 100.92 114.452 99.9817 113.716 99.0451L112.768 98.7714L115.527 101.659ZM104.261 100.569L107.362 101.818C106.496 100.663 105.634 99.5058 104.776 98.3472C101.936 96.9787 99.0848 95.6377 96.2233 94.324L96.6338 94.8987C99.1274 96.8632 101.677 98.7531 104.283 100.569L104.261 100.569ZM33.8682 100.067C34.9173 100.474 35.9634 100.888 37.0065 101.308C33.479 97.1566 30.0989 92.8826 26.8664 88.4853C25.7032 87.8467 24.5355 87.2081 23.3678 86.5786C26.6078 91.2773 30.1217 95.7811 33.891 100.067L33.8682 100.067ZM14.1673 92.6955C18.8717 94.6418 23.459 96.8115 27.9292 99.2047L28.2531 98.5205C22.0191 93.807 15.703 89.2258 9.30479 84.7768C10.8466 87.4651 12.4674 90.1046 14.1673 92.6955ZM64.5896 95.8885C66.7365 96.9772 68.8941 98.0416 71.0623 99.0816C68.365 97.0259 65.7376 94.8972 63.1801 92.6955L60.4432 90.3053L55.8818 87.0348L56.94 85.5523C62.21 89.2866 67.6291 92.7837 73.1971 96.0436C73.0192 95.8338 72.8367 95.624 72.6588 95.4096L70.6563 93.0376L71.5686 93.3204L63.7685 83.5726L65.0959 82.3319C67.03 84.1109 68.9701 85.8883 70.9163 87.6642C78.6982 90.5562 86.4846 93.5318 94.2755 96.591L91.0825 92.659C90.5899 92.2348 90.1018 91.8152 89.6183 91.391C85.3305 89.91 81.0732 88.3743 76.8462 86.7839L77.4255 85.0551C80.1046 85.8457 82.7503 86.7079 85.3625 87.6414L84.9611 87.2902L87.6979 88.4853L84.0396 84.0288L30.6752 59.3969C34.6451 68.0739 39.2796 76.431 44.5375 84.3937L45.3996 84.9411C47.4674 86.3004 49.5383 87.6688 51.6123 89.0464L54.6 90.6657L57.5787 92.2622L54.2442 88.6906L55.5351 87.4042L64.5896 95.8885ZM117.927 98.3426L118.105 98.3928L117.872 98.2879L117.927 98.3426ZM123.04 95.5738C123.974 96.2763 124.904 96.9833 125.832 97.6949C124.637 96.1075 123.42 94.5216 122.183 92.9373L121.27 92.7183C121.875 93.6641 122.465 94.6159 123.04 95.5738ZM143.275 93.4527C145.543 94.6965 147.816 95.9235 150.094 97.1338C147.929 95.145 145.707 93.2247 143.43 91.3727L142.928 91.9338C143.132 92.4156 143.25 92.9299 143.275 93.4527ZM74.6704 94.2829L75.9659 94.7026C74.8073 93.6626 73.6517 92.6195 72.4992 91.5734L74.6704 94.2829ZM104.744 94.4426L104.899 94.4882C104.443 94.0092 103.987 93.5348 103.531 93.0513L103.216 92.9054C103.724 93.4223 104.233 93.9347 104.744 94.4426ZM133.937 91.6053C135.856 92.2713 137.78 92.9206 139.708 93.5531C136.667 91.8532 133.641 90.1183 130.63 88.3485L131.748 89.9313L133.937 91.6053ZM37.0156 92.1254L39.2279 93.4208C32.8601 87.643 26.5836 81.7967 20.3982 75.882C22.8523 79.6954 25.4189 83.4282 28.098 87.0804C29.9682 88.1113 31.8323 89.1558 33.6903 90.2141L33.2342 89.3383L36.4546 91.7057L37.0156 92.1254ZM93.8833 90.9257C96.2552 91.7255 98.6348 92.5055 101.022 93.2657C100.21 92.4401 99.4026 91.6053 98.5998 90.7706L91.5888 87.532C92.346 88.6662 93.1108 89.7975 93.8833 90.9257ZM123.223 91.3089C125.476 91.838 127.731 92.3489 129.987 92.8415L128.518 91.6282C126.128 90.7615 123.744 89.8705 121.366 88.9551C121.992 89.7397 122.611 90.5304 123.223 91.3271L123.223 91.3089ZM128.035 84.6947C132.335 87.2917 136.677 89.8066 141.062 92.2394C140.688 91.5304 140.198 90.889 139.612 90.3418L138.097 88.9369L134.804 86.3779C131.955 85.0186 129.114 83.6304 126.283 82.2133L128.035 84.6947ZM119.824 90.4878L120.362 90.6201C119.569 89.6211 118.771 88.6222 117.959 87.6232L117.813 87.5639C118.492 88.5309 119.163 89.5025 119.82 90.4878L119.824 90.4878ZM114.04 89.0464L114.629 89.1969C113.602 87.8057 112.567 86.419 111.536 85.0277C109.93 84.3587 108.328 83.676 106.728 82.9796C108.021 84.2568 109.341 85.5021 110.688 86.7155C111.81 87.4727 112.927 88.2496 114.04 89.0464ZM87.8211 85.7849L90.1018 88.6039C89.5423 87.7646 88.9888 86.9238 88.4414 86.0814L87.8211 85.7849ZM119.076 86.1042C120.773 86.7732 122.474 87.4301 124.18 88.0748C120.835 85.3379 117.452 82.6512 114.031 80.0147C115.743 82.0461 117.423 84.0759 119.072 86.1042L119.076 86.1042ZM89.7004 84.6446L95.2106 87.1898C94.4778 86.4114 93.7479 85.6268 93.0211 84.8362L92.8569 84.7768C91.5615 84.3602 90.266 83.9391 88.9706 83.5133L89.7004 84.6446ZM126.301 85.7758L126.885 86.2319L126.771 86.0632C126.593 85.9674 126.452 85.8533 126.297 85.7758L126.301 85.7758ZM141.646 77.9027L153.118 83.4039C149.295 79.5828 145.256 75.984 141.021 72.6251C141.733 73.4371 142.44 74.2536 143.142 75.0746L141.852 76.3564C138.795 73.7108 135.744 71.0514 132.697 68.3784C134.746 70.793 136.785 73.212 138.814 75.6357L141.646 77.9027ZM85.1846 82.56L86.6169 83.2214C86.4846 83.0116 86.3523 82.8063 86.22 82.5919L84.8242 82.1358L85.1846 82.56ZM92.5832 81.6477L93.8011 82.9842L93.1853 82.0719L92.5832 81.6477ZM119.062 79.1571C120.744 80.2215 122.433 81.2737 124.13 82.3137L122.812 80.4389C121.024 79.5266 119.24 78.6143 117.466 77.661L119.062 79.1571ZM103.371 79.4628C105.311 80.3325 107.257 81.187 109.21 82.0263L98.0524 68.1184C96.684 66.8868 95.2867 65.6872 93.8605 64.5194C93.0059 64.2518 92.1514 63.9888 91.2969 63.7303C94.8338 69.3329 98.8753 74.6004 103.371 79.4673L103.371 79.4628ZM124.044 79.0066C125.26 79.63 126.487 80.2504 127.725 80.8677L123.556 77.6427L122.753 77.1866L124.044 79.0066ZM78.1234 73.8978L83.5972 80.6168L83.8435 79.8505L84.66 80.0968C84.2449 79.4308 83.8389 78.7603 83.433 78.0852C81.6358 76.7259 79.8659 75.3301 78.1234 73.8978ZM130.183 79.5585L131.05 80.115C129.834 78.7801 128.638 77.4344 127.465 76.0782C124.849 73.8066 122.216 71.5623 119.564 69.3454L115.997 67.6349L117.334 69.5279C121.728 72.73 126.011 76.0736 130.183 79.5585ZM84.8151 76.8445C85.7852 77.5743 86.7644 78.295 87.7527 79.0066C87.0913 78.2631 86.439 77.515 85.7821 76.7669L84.0214 75.5217L84.8151 76.8445ZM112.293 72.8213C115.03 74.3113 117.776 75.7786 120.531 77.2231L119.099 75.1887C116.152 73.6195 113.157 72.1477 110.113 70.7732L112.293 72.8213ZM85.8369 74.062C86.3477 74.3676 86.8586 74.6732 87.3649 74.9743L85.8642 73.2136L84.4 72.3743L85.8369 74.062ZM91.452 73.8704L91.8717 74.0757L89.9057 72.4427L91.452 73.8704ZM78.534 71.8816C79.3064 72.5202 80.0833 73.1543 80.8649 73.7837L80.4087 73.0174L80.0073 72.7392C79.5375 72.4518 79.0448 72.169 78.5477 71.8816L78.534 71.8816ZM122.867 67.9268L131.611 72.7483C130.486 71.6383 129.35 70.536 128.204 69.4412L116.221 59.7892C118.407 62.5261 120.627 65.2386 122.88 67.9268L122.867 67.9268ZM106.186 67.0967C109.163 68.313 112.102 69.6343 115.003 71.0606L104.58 62.9913C102.704 61.775 100.812 60.5905 98.9054 59.438L99.2247 58.8495L88.8429 50.8123L106.186 67.0967ZM154.624 69.0946C155.481 69.3074 156.34 69.5173 157.201 69.7241C158.268 65.6415 153.036 61.5727 150.637 59.9534L147.9 58.1015L153.538 62.7678L146.463 59.2509L144.981 58.5074L146.463 60.0082C149.467 62.7688 152.309 65.7006 154.975 68.7889L154.624 69.0946ZM129.426 68.0637L131.383 69.6419C128.841 66.6496 126.288 63.668 123.724 60.6969L123.355 60.478C121.959 59.885 120.569 59.2768 119.186 58.6534C122.661 61.7187 126.075 64.8555 129.426 68.0637ZM104.055 68.1914L105.711 69.1402L105.191 68.6475L104.055 68.1914ZM150.089 67.8903L152.115 68.4377C149.825 66.0566 147.521 63.6877 145.204 61.331C144.47 60.6513 143.726 59.9853 142.974 59.3239L137.65 54.9221C141.753 59.3042 145.899 63.6284 150.089 67.8949L150.089 67.8903ZM82.4796 66.1661C82.5435 66.2345 82.6119 66.3075 82.6712 66.3805L82.6028 66.271L82.4796 66.1661ZM111.878 65.6507L112.841 66.3212L112.622 66.011L111.878 65.6507ZM139.703 64.7384C141.199 65.2341 142.7 65.7145 144.205 66.1798C141.103 63.9112 137.983 61.664 134.845 59.438C135.946 60.6057 137.036 61.7871 138.116 62.9822L139.703 64.7384ZM116.28 64.2822L118.524 65.5184C115.623 61.9848 112.786 58.404 110.013 54.7762L108.069 53.207C106.853 52.5684 105.637 51.9177 104.42 51.2547L113.821 64.5742L115.505 65.3815L116.28 64.2822ZM100.662 64.9391L101.619 65.2949L96.31 60.3092C97.7787 61.854 99.2262 63.3958 100.652 64.9345L100.662 64.9391ZM130.411 61.3857C131.981 61.9969 133.563 62.5854 135.146 63.1556C132.203 61.2002 129.233 59.2753 126.238 57.3808C127.643 58.6914 129.031 60.0249 130.402 61.3812L130.411 61.3857ZM127.839 52.2902C132.756 55.7021 137.635 59.1612 142.476 62.6675C139.01 59.0487 135.573 55.3996 132.168 51.72C127.606 49.1656 123.099 46.5078 118.647 43.7466C121.777 46.5047 124.837 49.3511 127.83 52.2856L127.839 52.2902ZM125.129 59.2555L125.914 59.5839C124.697 58.4253 123.46 57.2819 122.201 56.1537C122.83 56.8744 123.458 57.5982 124.085 58.325L125.129 59.2555ZM118.447 50.4473C122.856 53.0869 127.212 55.801 131.515 58.5895C129.922 56.9383 128.307 55.3083 126.671 53.6997C121.234 49.9289 115.76 46.2189 110.25 42.5697C111.466 43.9473 112.695 45.3294 113.935 46.7161C115.436 47.934 116.951 49.1793 118.438 50.4428L118.447 50.4473ZM111.386 51.9617C113.657 53.0717 115.883 54.2151 118.064 55.392C114.87 52.5274 111.69 49.6537 108.521 46.7708C104.616 44.5448 100.681 42.3903 96.7159 40.3072L99.0331 43.5915L105.538 48.828L102.45 44.6817L108.101 49.2659C109.196 50.1539 110.288 51.051 111.376 51.9572L111.386 51.9617ZM153.05 50.2968L153.962 50.8852C142.674 37.731 129.606 26.2163 115.135 16.6743L115.696 15.7621C113.142 14.275 110.586 12.8001 108.028 11.3374L113.73 15.8989C122.479 22.919 131.1 30.231 139.502 37.7574L144.52 41.4065L144.164 41.9448C147.15 44.7273 150.112 47.5113 153.05 50.2968ZM80.1898 44.1069C81.1842 45.0648 82.171 46.0243 83.1502 46.9852L83.4968 46.6659L80.1898 44.1069ZM136.647 42.7385C138.897 43.9792 141.17 45.1773 143.466 46.3329L134.635 40.6448L136.647 42.7385ZM105.469 37.2647C109.611 39.956 113.735 42.6929 117.84 45.4754C113.698 41.7897 109.441 38.2455 105.068 34.8426C103.666 33.8817 102.273 32.907 100.89 31.9187L100.361 31.6313C102.06 33.4955 103.763 35.3733 105.469 37.2647ZM129.089 34.911L144.52 44.8231C143.218 43.628 141.912 42.4359 140.602 41.2469C133.675 37.0558 127.189 32.1761 121.243 26.6822L120.832 26.3811L129.089 34.911ZM94.4215 37.0458C97.1858 38.4781 99.9378 39.9408 102.678 41.4339L98.6591 37.7346C96.3814 36.1958 94.0748 34.7012 91.7394 33.2507L94.4215 37.0458ZM99.7949 36.2977C101.963 37.7665 104.102 39.2718 106.213 40.8136L104.279 38.6651C102.168 37.2936 100.053 35.9252 97.9338 34.5598L99.7949 36.2977ZM126.251 36.576C127.805 37.5582 129.374 38.5191 130.959 39.4588L127.93 36.3296L117.229 29.4601L126.251 36.576ZM91.7667 37.7346L93.865 39.4223L93.1853 38.4644L91.7667 37.7346ZM117.648 35.504L117.699 35.5405C116.23 33.8467 114.766 32.1468 113.306 30.4408C112.357 29.565 111.399 28.6892 110.446 27.818C108.977 26.6959 107.52 25.554 106.076 24.3923L106.322 24.073C103.394 21.4274 100.453 18.8076 97.5005 16.2136L90.5306 10.7399C99.3859 19.1543 108.424 27.409 117.644 35.504L117.648 35.504ZM108.088 21.4228L122.374 30.5959L112.097 19.9814L99.2247 10.5483C102.138 14.1914 105.092 17.8162 108.088 21.4228ZM113.301 18.5993L114.027 19.1284C113.488 18.4989 112.961 17.8634 112.444 17.2217L107.476 11.0455L104.16 9.14794L113.301 18.5993Z"
                  fill="#1D1D1B"/>
        </g>
    </g>
    <mask id="mask1_38_5070" style="mask-type:luminance" maskUnits="userSpaceOnUse" x="25" y="74" width="102"
          height="43">
        <path d="M83.9168 100.078L101.173 112.394L68.8412 116.955L55.9824 107.75L50.5087 108.521L33.2527 96.2054L38.0103 95.5348L25.1379 86.3526L32.9288 85.2579L45.7967 94.4447L51.2704 93.6783L64.1292 102.861L83.9168 100.078ZM126.338 86.8772L109.082 74.5613L101.328 75.656L118.584 87.972L126.338 86.8772ZM83.5883 89.1351L100.849 101.451L118.885 98.9149L101.624 86.599L83.5883 89.1351Z"
              fill="white"/>
    </mask>
    <g mask="url(#mask1_38_5070)">
        <g opacity="0.42">
            <path d="M91.6885 183.752L89.2162 175.842L89.2983 177.11L87.6972 175.856C80.1616 169.946 73.3553 163.161 67.4216 155.644L68.4433 161.77L65.7521 156.484C64.2012 153.443 62.7278 150.356 61.332 147.224C60.2555 145.595 59.2246 143.949 58.2302 142.27C58.9316 145.727 58.995 149.282 58.4173 152.761L58.1025 154.54L56.8572 153.236C51.1999 147.203 46.3975 140.422 42.5844 133.083L42.183 133.229L40.3037 128.558C40.2444 128.426 40.1806 128.294 40.1167 128.166C40.8283 132.046 41.4015 135.956 41.8364 139.894L42.2332 143.515L40.176 140.509C38.7255 138.381 37.3373 136.228 36.0114 134.05C36.4402 136.365 36.8416 138.682 37.2156 141.002L38.4609 148.725L35.4731 141.504C33.5087 136.751 31.6841 131.946 29.9994 127.09C30.4707 129.154 30.9451 131.216 31.4226 133.275L33.3657 141.636L29.7166 133.882C25.3688 124.63 21.9846 114.956 19.6175 105.012C19.7768 106.658 20.0189 108.294 20.3428 109.916L18.5775 110.372C16.0733 102.535 13.1768 94.7991 9.91075 87.2225C8.3477 85.1425 6.77247 83.067 5.18509 80.9961C5.12579 81.9495 5.09842 82.8207 5.1121 83.6053C5.1121 83.8744 5.1121 84.1435 5.1121 84.4126C7.84898 91.2822 9.30408 98.4437 6.06545 105.313L4.9707 107.63L4.3549 105.14C3.11419 100.122 3.18717 94.4706 3.26015 88.9923C3.26015 87.5372 3.29665 86.146 3.28752 84.7867C2.01944 81.6484 0.45486 78.5557 -1.04586 75.5771C-2.22727 73.2416 -3.32658 71.0156 -4.28449 68.89L-7.02136 62.6134L-2.71991 67.9503C-0.539536 70.6599 1.62563 73.3967 3.7756 76.161C3.7756 75.8873 3.82577 75.609 3.85314 75.3262C3.88051 75.0434 3.91244 74.6785 3.94437 74.3546C2.91044 72.4419 1.913 70.5124 0.952058 68.5661L2.57594 67.736C3.13547 68.7912 3.68741 69.8479 4.23174 70.9062C4.63771 65.8338 4.76087 60.839 3.50191 57.9197L5.18053 57.1944C9.13379 66.3478 12.8255 75.6379 16.2557 85.0649C16.0702 83.1917 15.9182 81.3139 15.7996 79.4315C14.4859 77.0778 13.1296 74.7484 11.7308 72.4434L13.2817 71.4855C14.0571 72.7125 14.828 73.9487 15.5989 75.1803C15.5168 72.6532 15.5001 70.1262 15.5487 67.5991L15.6034 64.7938L16.9217 66.6959C17.0008 63.1076 17.2015 59.5238 17.5238 55.9446L17.8614 52.1768L19.2754 55.6846C22.5293 63.7432 25.6128 71.8945 28.526 80.1386C28.0851 75.3095 27.8814 70.4728 27.9148 65.6286L27.9422 62.098L29.6299 65.1998C30.2412 66.3265 30.8478 67.4531 31.4545 68.5889C31.2812 62.8415 31.3283 57.088 31.5959 51.3284L31.9198 44.3448L33.3977 51.187C36.39 64.9763 39.7062 78.7747 43.328 92.4955C44.4105 94.8249 45.4749 97.1649 46.521 99.5156L45.9827 96.7149L46.9726 98.2612C46.895 96.6054 46.8448 94.945 46.8266 93.2892C46.2184 92.0485 45.6102 90.8017 45.002 89.5488L46.6259 88.7232L46.8312 89.0973C46.8312 88.185 46.8722 87.2727 46.9087 86.3604C46.4513 73.4997 47.3211 60.6261 49.5042 47.9438L49.9147 45.5582L81.2975 96.578L79.5049 78.3322C79.2312 77.1614 78.9712 75.9892 78.7248 74.8153L79.1491 74.6785L79.1491 74.5188L79.2266 74.6602L80.4719 74.2634C82.0562 77.9491 83.601 81.653 85.1063 85.3751C85.2295 83.7375 85.3709 82.0954 85.5214 80.4533L87.346 80.4533C87.6501 83.7984 88.0013 87.1313 88.3997 90.452L88.9425 90.1646L88.8148 89.0836L89.2025 90.0278L89.2435 90.005C88.2583 83.6372 87.3095 77.2755 86.3972 70.9199L88.1807 70.5549C90.0053 77.2147 91.8892 83.8744 93.8324 90.5341L93.2941 85.1881L95.1187 84.9737C95.9124 90.6603 96.6437 96.3712 97.3128 102.107L97.6686 103.27L97.9787 103.776C97.2206 97.6813 96.9719 91.534 97.2352 85.3979L97.3401 83.1172L98.8409 84.8597C98.9001 84.9372 98.964 85.0056 99.0279 85.0832C98.5717 83.8303 98.1156 82.5728 97.6594 81.3108L99.37 80.6722C100.127 82.6154 100.837 84.5768 101.5 86.5565C101.759 87.259 102.02 87.9614 102.285 88.6639C102.048 85.4222 101.8 82.1806 101.541 78.9389C99.519 68.5996 97.106 57.8832 94.3022 46.7898L96.0538 46.2743L111.002 90.4155L115.381 97.7686L114.925 80.8912L114.815 80.6677L114.92 80.6084L114.779 75.641L107.024 51.2144L111.129 58.1843C112.242 60.0818 113.343 61.9885 114.432 63.9043L114.154 54.0835L116.006 57.9334C116.371 58.6906 116.735 59.4524 117.091 60.2141L116.612 58.198L118.327 57.6095C119.778 60.7843 121.209 63.9773 122.62 67.1886C122.316 65.1511 121.996 63.1122 121.662 61.0717L120.982 56.7839C120.937 56.6516 120.891 56.5239 120.85 56.3962L120.918 56.3688L120.818 55.7485L121.114 56.2958L122.556 55.753C124.076 59.4904 125.518 63.2627 126.88 67.07C130.319 73.5427 133.786 80.2708 136.952 87.2225C136.865 86.9169 136.783 86.6067 136.696 86.3102C131.968 75.9286 127.885 65.265 124.472 54.38L126.187 53.7551L131.364 66.2945C127.961 53.0116 124.878 39.6055 122.109 26.2313L123.87 25.7751L129.07 41.649L129.526 41.503C131.016 45.3772 132.398 49.2834 133.672 53.2214C133.292 49.2529 132.945 45.286 132.632 41.3206L132.108 34.7019L138.553 52.2361L135.784 37.27L138.653 42.9581C150.741 66.9149 163.239 91.6836 171.523 117.766L169.808 118.386C164.681 105.756 159.253 93.1159 153.597 80.6175C157.207 92.6426 159.604 104.999 160.753 117.501L161.26 123.071L157.456 114.404L156.543 113.004C154.053 109.163 151.694 105.245 149.468 101.249L150.609 107.416L148.844 107.872L145.295 96.9566C145.663 98.5349 146.017 100.115 146.358 101.696L146.763 103.566L152.237 116.794C156.128 126.223 153.15 129.899 150.997 131.25L150.358 131.651L149.842 131.104C148.24 129.401 146.666 127.672 145.121 125.917L144.3 126.145L143.575 124.138C142.128 122.46 140.71 120.758 139.324 119.034L139.543 120.466L138.548 118.062C136.906 116.001 135.307 113.91 133.75 111.79C133.827 112.206 133.905 112.621 133.978 113.036C137.831 122.703 140.627 132.759 142.316 143.027L143.078 147.744L132.71 130.346C133.43 137.122 134.099 143.888 134.717 150.645L132.892 150.827C131.904 141.875 130.564 132.945 128.873 124.038L128.586 123.486L123.774 115.412C123.874 116.188 123.974 116.968 124.079 117.743C125.904 124.444 127.637 131.19 129.202 137.918L130.429 143.21L129.786 142.179C130.908 146.077 131.875 150.022 132.687 154.011L133.841 159.699L130.995 154.641C128.75 150.639 126.561 146.602 124.426 142.53C124.148 142.631 123.855 142.688 123.559 142.699L123.103 142.699L122.811 142.339C122.185 141.554 121.561 140.766 120.941 139.976L121.945 142.895L119.162 140.158L118.925 139.916C121.571 149.112 124.003 158.343 126.223 167.609L127.505 172.923L124.567 168.307C119.719 160.662 115.321 152.752 111.234 144.697L111.421 150.275L109.455 144.697C109.031 143.502 108.607 142.311 108.187 141.112L108.151 141.07L108.379 143.593C110.061 149.24 111.502 154.949 112.703 160.721C116.188 168.02 119.486 175.389 122.597 182.831L120.95 183.611C118.575 179.14 116.392 174.579 114.4 169.926C114.832 172.599 115.21 175.281 115.536 177.973L115.878 180.796L113.958 178.698C107.571 171.704 101.424 164.515 95.5155 157.131C95.9017 160.799 96.326 164.457 96.7882 168.106L94.991 168.416L93.1117 159.982L91.5927 158.13C91.1366 157.56 90.6576 156.981 90.1969 156.401C91.1731 162.137 92.321 167.846 93.6408 173.53L91.8846 174.018C91.2916 172.193 90.7291 170.369 90.1969 168.544L91.6885 183.752ZM101.892 162.112C105.624 166.604 109.445 171.013 113.355 175.341C112.723 170.642 111.925 165.965 110.961 161.31C110.377 160.092 109.784 158.869 109.191 157.66C109.702 159.601 110.203 161.539 110.696 163.476L111.786 167.791L109.086 164.252C106.41 160.755 103.883 157.125 101.505 153.364C101.528 153.843 101.55 154.321 101.569 154.8L101.892 162.112ZM66.7693 151.831C72.664 159.746 79.5209 166.897 87.1818 173.119C87.0084 171.094 86.7788 169.078 86.493 167.071C83.7288 157.975 81.036 148.829 78.4147 139.634L77.8399 138.689L78.2459 139.752L74.8294 135.738C73.7985 134.525 72.7767 133.293 71.7732 132.057C73.356 141.44 75.1852 150.759 77.2469 160.023L75.5136 160.566C71.7048 151.357 67.8412 141.996 63.6127 132.778L66.7693 151.831ZM84.2716 148.551C85.8342 153.825 87.0666 159.19 87.9618 164.617L87.1407 156.251C86.8001 154.578 86.4824 152.906 86.1874 151.233C85.5397 150.339 84.9147 149.445 84.2852 148.551L84.2716 148.551ZM111.084 140.24C114.801 147.794 118.77 155.229 123.108 162.432C121 153.996 118.72 145.591 116.266 137.216C114.356 135.282 112.461 133.324 110.582 131.341C110.768 134.333 110.935 137.3 111.084 140.24ZM95.1643 153.792C97.3417 156.557 99.554 159.293 101.801 162.003L99.7714 155.115C98.923 152.238 98.108 149.349 97.3264 146.448C96.1587 144.368 95.032 142.264 93.9464 140.135C94.2961 144.697 94.7021 149.249 95.1643 153.792ZM107.581 159.157L107.758 159.398L107.567 158.682L107.581 159.157ZM101.299 149.614C102.963 152.351 104.708 155.036 106.536 157.67L104.068 147.516C103.104 145.661 102.13 143.812 101.144 141.969C101.427 142.744 101.705 143.521 101.979 144.3L104.365 151.142L101.117 146.252C101.181 147.371 101.242 148.492 101.299 149.614ZM89.5811 152.688C89.9141 153.145 90.2471 153.555 90.5846 153.984C90.2197 152.424 89.8244 150.875 89.3986 149.336L89.0018 148.811C89.1888 150.107 89.3804 151.398 89.5811 152.688ZM92.9657 150.982L93.066 151.11C92.5734 146.001 92.1477 140.88 91.7888 135.747C90.3596 132.725 89.0368 129.661 87.8204 126.556L87.3962 125.936L92.9657 150.982ZM71.6911 146.658C72.2613 148.004 72.8223 149.349 73.3879 150.691C72.7402 147.525 72.1214 144.352 71.5314 141.171L72.0195 146.613L71.6911 146.658ZM43.0132 129.931C46.7354 137.335 51.2512 144.373 56.8755 150.572C57.3043 146.143 56.5197 141.841 55.1421 137.535L54.5628 137.727C54.1553 136.562 53.7646 135.391 53.3905 134.215L53.1533 134.018L52.4098 134.183L52.1635 133.206C50.4818 131.82 48.823 130.406 47.187 128.964C47.491 129.84 47.783 130.716 48.0627 131.592L46.3887 132.303C45.075 129.822 43.7446 127.342 42.3974 124.864C42.7319 126.08 43.0573 127.31 43.3736 128.554L42.662 128.809C42.776 129.188 42.8946 129.557 43.0132 129.931ZM62.9376 146.353C63.3938 147.069 63.891 147.776 64.3745 148.478L61.1131 128.864C61.0401 128.764 60.9671 128.659 60.8987 128.554C61.3275 132.008 61.7 135.463 62.0162 138.917L62.1987 140.934L60.5657 139.734L59.9316 139.278C60.8865 141.656 61.8885 144.016 62.9376 146.357L62.9376 146.353ZM125.849 141.335C127.044 143.625 128.261 145.906 129.498 148.177C128.796 145.326 128.002 142.494 127.136 139.693L126.406 139.884C126.304 140.395 126.116 140.884 125.849 141.33L125.849 141.335ZM82.3466 142.462C83.3866 144.052 84.451 145.627 85.5397 147.187C85.3572 145.971 85.1915 144.755 85.0425 143.538C83.5068 141.449 81.9863 139.346 80.481 137.23C81.1409 138.963 81.7628 140.707 82.3466 142.462ZM103.644 138.096C104.191 139.921 104.731 141.746 105.263 143.57C105.263 143.278 105.263 142.982 105.231 142.69C104.693 140.519 104.196 138.335 103.74 136.14C103.475 135.843 103.215 135.542 102.955 135.227L103.644 138.096ZM87.679 138.151C88.2051 139.544 88.7038 140.944 89.1751 142.352L87.2411 133.685C87.3749 135.172 87.5193 136.661 87.6744 138.151L87.679 138.151ZM100.533 137.006C101.141 138.101 101.737 139.197 102.321 140.295L101.902 138.575C101.363 136.781 100.816 134.99 100.259 133.202L100.533 137.006ZM77.6118 129.854C79.9108 133.229 82.2569 136.574 84.6502 139.889C84.6182 139.538 84.5817 139.191 84.5498 138.84C81.9376 135.276 79.4349 131.639 77.0417 127.929L77.4978 129.589L77.6118 129.854ZM119.08 134.616C120.312 136.231 121.555 137.835 122.811 139.428C121.215 136.327 119.653 133.206 118.127 130.068L118.186 132.011L119.08 134.616ZM66.4545 134.616C67.1661 136.203 67.8701 137.792 68.5665 139.383C67.6131 135.451 66.5321 131.546 65.3507 127.673L64.1875 127.952C64.7075 129.421 65.2138 130.892 65.7065 132.367L66.4545 134.616ZM117.999 125.598C120.155 130.132 122.383 134.627 124.681 139.082C124.766 138.283 124.713 137.477 124.526 136.696C124.367 136.025 124.207 135.36 124.043 134.689L122.711 130.748C121.081 128.041 119.481 125.315 117.912 122.569L117.999 125.598ZM93.5861 135.277C94.1699 136.512 94.7781 137.741 95.4106 138.963L94.8952 136.942C94.4542 136.285 94.0103 135.63 93.5632 134.976C93.5724 135.081 93.5769 135.182 93.5861 135.277ZM133.084 127.464L139.593 138.411C138.528 133.115 137.157 127.885 135.488 122.747C135.634 123.819 135.77 124.886 135.898 125.94L134.115 126.296C133.032 122.403 131.968 118.5 130.922 114.587C131.29 117.728 131.65 120.871 132.003 124.015L133.084 127.464ZM58.6544 136.03C59.1106 136.377 59.5667 136.719 60.0229 137.061C59.6397 133.108 59.1836 129.154 58.6544 125.201C56.5775 122.118 54.5309 119.01 52.5147 115.878C54.6677 120.995 56.5699 126.214 58.2211 131.532L57.1765 131.957C57.6448 133.325 58.1375 134.683 58.6544 136.03ZM34.9349 128.568C36.3854 131.183 37.9226 133.751 39.5465 136.272C38.8029 130.712 37.7737 125.195 36.463 119.741C36.2486 119.198 36.0388 118.655 35.8289 118.108C35.1842 117.445 34.5487 116.779 33.9222 116.11L34.1412 116.776L35.8563 121.985L32.5492 117.606L32.4535 117.483C33.3597 121.169 34.1899 124.865 34.944 128.572L34.9349 128.568ZM107.818 131.925C108.21 133.029 108.595 134.132 108.972 135.236C108.853 133.257 108.716 131.262 108.561 129.252L107.927 128.572C107.891 129.667 107.891 130.784 107.818 131.925ZM75.3722 121.839C78.109 126.38 81.0238 130.813 84.1165 135.141C83.9568 134.434 83.7926 133.731 83.6193 133.024C80.7406 126.422 77.2864 120.086 73.2967 114.089C73.9809 116.656 74.6728 119.232 75.3722 121.817L75.3722 121.839ZM66.5275 125.343C67.4398 128.216 68.2852 131.105 69.0637 134.009L68.5254 127.956C67.8549 127.08 67.1889 126.205 66.5275 125.32L66.5275 125.343ZM55.7488 133.749L55.8948 133.863C54.8852 131.126 53.9364 128.364 53.0484 125.575L52.647 124.823C52.9435 126.022 53.2537 127.222 53.5593 128.412C54.3393 130.196 55.0783 131.975 55.7488 133.749ZM110.331 128.431C111.916 130.118 113.51 131.791 115.116 133.448C114.934 132.842 114.751 132.23 114.564 131.624C113.044 129.58 111.551 127.52 110.085 125.443C110.172 126.451 110.254 127.459 110.331 128.449L110.331 128.431ZM98.2114 132.837C98.2798 132.965 98.3528 133.092 98.4258 133.216C98.3345 132.034 98.2433 130.844 98.1475 129.658L97.5089 128.905C97.7415 130.205 97.9742 131.519 98.2114 132.837ZM73.4016 126.966C74.3869 128.9 75.4087 130.813 76.4669 132.705L75.8648 130.556C75.0118 129.297 74.1679 128.043 73.3241 126.775L73.4016 126.966ZM31.7145 126.373C32.4018 128.368 33.1149 130.353 33.8538 132.326C33.6531 131.286 33.4478 130.248 33.238 129.211C32.7028 128.283 32.195 127.337 31.7145 126.373ZM93.3489 131.391L93.7411 131.966C93.5769 131.241 93.4127 130.52 93.2531 129.799L93.3489 131.391ZM102.052 131.391L102.171 131.528L102.034 131.313L102.052 131.391ZM71.1848 128.376C71.7048 129.037 72.2248 129.694 72.7539 130.351L71.7504 127.701C71.4174 127.044 71.0844 126.383 70.7605 125.721C70.8822 126.6 71.016 127.482 71.1619 128.367L71.1848 128.376ZM46.001 125.438C47.7708 127.053 49.5696 128.634 51.3972 130.182C51.1052 129.065 50.8087 127.952 50.5077 126.834C49.3187 123.976 48.2406 121.068 47.2736 118.113C46.4569 115.975 45.7609 113.792 45.189 111.576C42.6833 107.355 40.1015 103.191 37.4437 99.0823C37.5258 100.692 37.6398 102.307 37.7812 103.913C40.731 111.01 43.4633 118.183 45.9782 125.429L46.001 125.438ZM148.812 127.327C149.409 127.984 150.007 128.631 150.609 129.279C153.756 126.465 151.649 120.188 150.545 117.511L149.277 114.441L151.371 121.433L147.425 114.591C147.147 114.135 146.873 113.633 146.599 113.154C146.736 113.848 146.868 114.523 147.001 115.225C147.981 119.186 148.727 123.201 149.236 127.249L148.812 127.327ZM89.4534 125.698L91.3418 128.435C91.2597 126.998 91.1822 125.552 91.1092 124.116C89.5036 121.403 87.8706 118.709 86.2102 116.033C86.2102 116.265 86.2102 116.489 86.233 116.735C87.2 119.752 88.2659 122.736 89.4306 125.689L89.4534 125.698ZM78.6701 113.423C80.7185 117.83 82.4591 122.374 83.8793 127.021C83.8474 125.447 83.8337 123.874 83.8474 122.3L83.674 120.562C81.9984 118.169 80.3229 115.786 78.6473 113.414L78.6701 113.423ZM107.973 125.894L108.347 126.3C108.237 125.028 108.123 123.755 108.005 122.473L107.891 122.346C107.927 123.523 107.947 124.702 107.95 125.885L107.973 125.894ZM109.797 121.826C110.837 123.322 111.891 124.812 112.959 126.296C111.669 122.166 110.336 118.061 108.958 113.98C109.238 116.604 109.502 119.217 109.752 121.817L109.797 121.826ZM115.951 125.539L116.193 126.241L116.193 126.036L115.951 125.539ZM145.664 123.805C146.12 124.334 146.576 124.859 147.033 125.379C146.446 122.131 145.838 118.884 145.208 115.636C144.971 114.666 144.72 113.696 144.455 112.726L142.457 106.121C143.461 112.038 144.53 117.933 145.664 123.805ZM64.6847 119.673C65.8433 121.315 67.0232 122.937 68.2244 124.54L67.7682 119.34C67.2148 118.093 66.6796 116.84 66.1626 115.581C64.2012 112.425 62.2823 109.239 60.406 106.025L61.5099 110.723C62.6077 113.688 63.666 116.671 64.6847 119.673ZM122.615 122.514C122.752 122.825 122.893 123.139 123.026 123.45C122.767 121.671 122.516 119.89 122.273 118.108C121.361 114.763 120.409 111.436 119.418 108.128L117.392 104.729L117.456 107.047C119.354 112.146 121.078 117.302 122.629 122.514L122.615 122.514ZM61.6559 121.123C61.9296 121.835 62.1987 122.548 62.4633 123.263C62.0983 121.894 61.7152 120.526 61.3229 119.134L61.6559 121.123ZM27.2488 112.251C28.6173 115.718 30.1226 119.127 31.7647 122.478C31.0987 119.553 30.3886 116.636 29.6345 113.729C28.5853 112.327 27.5377 110.924 26.4916 109.519C26.738 110.431 26.9934 111.339 27.2488 112.251ZM117.803 118.697C118.478 119.892 119.171 121.087 119.842 122.282L118.154 117.287L117.739 116.461L117.803 118.697ZM71.9511 108.93C74.9898 113.122 77.764 117.499 80.2575 122.036C77.6239 114.879 74.2064 108.036 70.0672 101.632C70.6876 104.068 71.3155 106.501 71.9511 108.93ZM103.945 121.47L104.351 121.926C104.266 120.196 104.175 118.467 104.077 116.74C103.115 115.294 102.157 113.834 101.208 112.374C101.579 114.153 101.99 115.92 102.44 117.675C102.951 118.934 103.452 120.197 103.945 121.47ZM40.3037 117.232C41.0883 118.66 41.8774 120.088 42.6574 121.515C41.3589 117.921 40.0057 114.343 38.5977 110.782L38.7072 111.512C38.7665 111.768 38.8212 112.019 38.8805 112.274C39.361 113.925 39.8354 115.578 40.3037 117.232ZM113.574 116.037C114.389 117.862 115.216 119.673 116.056 121.47L115.992 119.189C115.007 117.438 114.034 115.678 113.073 113.912L113.574 116.037ZM70.2953 118.747C70.7514 119.49 71.2441 120.229 71.7184 120.968C70.9156 119.226 70.1006 117.497 69.2735 115.782L69.2735 115.864C69.2735 115.973 69.3054 116.083 69.3191 116.192L70.2953 118.747ZM93.2029 120.836L93.3032 120.964C93.1892 120.316 93.0797 119.664 92.9657 119.016L92.7832 118.719C92.9201 119.426 93.0615 120.133 93.2029 120.836ZM51.2147 110.518C53.3677 113.93 55.5587 117.319 57.7878 120.685C55.5755 116.338 53.2537 112.06 50.7859 107.863C50.9228 108.748 51.0657 109.633 51.2147 110.518ZM138.754 115.417C139.721 116.661 140.704 117.892 141.705 119.112C140.373 115.508 139.017 111.909 137.636 108.315C137.905 109.897 138.161 111.508 138.398 113.077L138.754 115.417ZM86.1007 111.9C87.6212 113.88 89.1706 115.847 90.7488 117.802C90.5344 116.662 90.3201 115.522 90.1148 114.381L86.0688 107.804C86.0688 109.172 86.0794 110.538 86.1007 111.9ZM122.976 108.775L127.592 117.634C127.269 116.086 126.935 114.54 126.588 112.995L121.94 98.3205C122.241 101.809 122.586 105.293 122.976 108.775ZM68.7672 96.4822C73.6479 103.197 78.4876 109.983 83.2863 116.84L82.8028 111.79C82.6249 111.17 82.4515 110.55 82.2828 109.925C79.5459 106.321 76.8486 102.687 74.1908 99.023L75.6322 97.9008C77.4263 100.03 79.1536 102.213 80.814 104.451L80.6726 103.936L82.2737 106.431L81.7126 100.72L50.8726 50.6533C49.3793 60.0773 48.6168 69.6026 48.5919 79.1442L48.9978 80.1021C49.9649 82.3797 50.9349 84.6605 51.9081 86.9442L53.5 89.9411C54.0291 90.9355 54.5628 91.9284 55.1011 92.9198L54.3165 88.1348L56.1046 87.779L58.9464 99.8668C60.1324 101.962 61.3351 104.048 62.5545 106.125C61.4567 102.905 60.4517 99.6631 59.5394 96.4001L58.5632 92.8833L56.579 87.6421L58.285 86.9899C60.6022 93.0201 63.187 98.9302 66.0394 104.72L65.9436 103.895L65.5833 100.811L66.1991 101.559L65.0907 89.1201L66.8879 88.8236C67.5021 91.378 68.1286 93.9309 68.7672 96.4822ZM68.7672 110.167C69.7737 112.082 70.8092 113.986 71.8735 115.878C71.3307 113.829 70.797 111.772 70.2633 109.742C69.6932 108.962 69.1093 108.187 68.5209 107.421L68.7672 110.167ZM50.1245 103.265C52.5877 107.258 54.9171 111.327 57.1127 115.472C57.0397 115.038 56.9621 114.605 56.8892 114.176C55.1649 110.08 53.3404 106.029 51.4154 102.024C50.8316 100.975 50.2522 99.917 49.6866 98.8588C49.7322 99.5065 49.7779 100.154 49.828 100.806C49.9284 101.609 50.0287 102.426 50.1336 103.247L50.1245 103.265ZM135.743 98.503C137.951 104.068 140.102 109.65 142.197 115.248C141.306 110.316 140.466 105.369 139.675 100.41C137.285 95.757 135.004 91.0435 132.833 86.2691C133.909 90.3167 134.882 94.3885 135.752 98.4847L135.743 98.503ZM111.444 107.019C112.889 109.774 114.363 112.511 115.869 115.23L115.8 112.744C114.213 109.806 112.533 106.917 110.76 104.077L111.444 107.019ZM128.322 112.539L129.083 114.933C128.624 111.038 128.147 107.142 127.651 103.247L127.464 102.864C126.628 101.59 125.808 100.311 125.005 99.0275C126.219 103.495 127.333 107.992 128.349 112.52L128.322 112.539ZM32.4535 111.809C33.0419 112.461 33.6349 113.113 34.2324 113.756C33.9679 113.008 33.7079 112.26 33.4524 111.512L29.7211 102.234C28.7267 100.519 27.7278 98.8071 26.7243 97.098C26.8292 97.4128 26.9295 97.7321 27.0253 98.0468C28.9928 102.572 30.8022 107.159 32.4535 111.809ZM100.337 107.612C101.468 109.409 102.618 111.197 103.785 112.976L102.18 95.2233C101.721 93.4352 101.22 91.6623 100.679 89.9046C100.12 89.2052 99.5524 88.5119 98.9777 87.8246C98.8296 94.448 99.2845 101.071 100.337 107.612ZM157.857 110.773L158.313 111.777C156.181 94.5766 151.662 77.7578 144.884 61.8061L145.847 61.3727C144.536 58.718 143.222 56.0754 141.906 53.4449L144.127 60.4103C147.53 71.0978 150.668 81.9586 153.505 92.8741L155.645 98.6945L155.052 98.95C156.022 102.888 156.957 106.829 157.857 110.773ZM132.865 107.489C133.835 108.867 134.823 110.235 135.83 111.594C134.461 108.334 133.052 105.087 131.601 101.851C132.048 103.718 132.469 105.598 132.865 107.489ZM86.087 104.355L89.28 109.519C89.1037 108.464 88.9303 107.407 88.76 106.349L88.6551 106.207C87.8067 105.143 86.9613 104.079 86.119 103.014C86.0962 103.457 86.0916 103.904 86.087 104.355ZM57.3955 106.837L57.7102 108.447L57.4822 107.078L57.3955 106.837ZM83.8884 104.246L84.2442 107.868C84.2442 106.861 84.2442 105.853 84.2442 104.843L83.8884 104.246ZM37.316 95.5335C39.9282 99.4867 42.4628 103.508 44.9199 107.599C44.0928 104.922 43.2459 102.251 42.3792 99.584C40.6732 96.7194 39.0007 93.8427 37.3616 90.9538L38.9262 90.0141C39.1041 90.3015 39.2865 90.5888 39.469 90.8717C38.8364 89.0288 38.1933 87.1921 37.5395 85.3614C37.3053 88.746 37.2308 92.1367 37.316 95.5335ZM109.537 98.8588C111.344 101.532 113.062 104.26 114.692 107.042L110.473 94.5482C109.579 92.5046 108.666 90.4748 107.736 88.4586L108.329 88.1439L104.123 75.7048L109.537 98.8588ZM24.7446 102.699C25.6751 103.867 26.6178 105.024 27.5727 106.171C26.852 103.668 26.0917 101.173 25.292 98.6854C24.4952 96.8426 23.6711 95.018 22.8197 93.2117C23.4552 96.3712 24.0969 99.5338 24.7446 102.699ZM128.951 91.752C131.159 96.3864 133.287 101.056 135.337 105.76C134.92 103.504 134.476 101.252 134.005 99.0047C131.572 92.8559 129.06 86.7344 126.47 80.6403C126.731 82.4649 126.99 84.2895 127.245 86.1141C127.838 88.0116 128.417 89.8818 128.951 91.7839L128.951 91.752ZM90.1422 103.457L90.4158 105.24C90.4158 104.88 90.4158 104.515 90.4158 104.155C90.3109 103.931 90.2243 103.698 90.1422 103.466L90.1422 103.457ZM68.2472 104.063C68.533 104.419 68.8158 104.775 69.0956 105.131C68.7064 103.61 68.3217 102.102 67.9416 100.606L68.2472 104.063ZM53.053 101.158C53.7311 102.374 54.4245 103.591 55.133 104.807C54.5066 101.79 53.8391 98.7858 53.1305 95.7935C51.8564 92.7525 50.5138 89.7495 49.1028 86.7846C49.1757 89.1474 49.2746 91.5103 49.3993 93.8731C50.646 96.2815 51.8594 98.7128 53.0393 101.167L53.053 101.158ZM119.504 102.07L120.686 104.351C120.23 99.7893 119.848 95.237 119.541 90.6938L118.788 88.3127C118.131 87.0963 117.485 85.8799 116.849 84.6635L117.306 100.966L118.259 102.572L119.504 102.07ZM129.658 102.777C129.813 103.014 129.973 103.233 130.114 103.484C129.731 101.842 129.331 100.204 128.915 98.5714L129.284 101.427L129.658 102.777ZM148.406 95.3829C149.592 97.6606 150.822 99.9155 152.096 102.148L147.876 92.5411L148.406 95.3829ZM115.08 100.788C115.226 101.153 115.372 101.518 115.536 101.883L115.536 101.5L115.08 100.788ZM14.3354 93.1524C15.4727 96.0078 16.5583 98.8846 17.5922 101.783C17.5512 100.414 17.5922 98.9956 17.647 97.6044C16.5492 96.1143 15.4453 94.6303 14.3354 93.1524ZM146.412 84.7228L153.784 101.518C153.364 99.803 152.937 98.0879 152.502 96.3728C149.046 89.0534 146.341 81.4028 144.428 73.5381L144.25 73.0546L146.412 84.7228ZM5.08474 89.9594C5.03456 93.8594 5.02544 97.8187 5.54088 101.486C6.50335 97.7138 6.14299 93.8457 5.08474 89.9594ZM83.4824 100.113L84.3081 101.454L84.3081 100.711L83.3958 99.5475L83.4824 100.113ZM107.147 98.5805C107.43 99.1507 107.717 99.7209 108.005 100.291L107.841 99.5931L107.147 98.5805ZM86.3333 95.1457C86.7393 96.2907 87.1544 97.4265 87.5832 98.5714C87.4463 97.5861 87.3141 96.6054 87.1818 95.6156C86.9263 94.9435 86.6663 94.273 86.4018 93.604L86.3333 95.1457ZM83.8656 97.1163L84.4084 97.7731C84.4358 96.9886 84.4632 96.204 84.4951 95.4194C83.7531 93.2907 83.0506 91.1469 82.3877 88.9878L83.2589 97.6226L83.8656 97.1163ZM93.5176 96.3454L93.7548 96.7514C93.5085 95.9349 93.2667 95.1184 93.0204 94.3019L93.5176 96.3454ZM30.3461 94.8994C30.5376 95.3556 30.7292 95.8117 30.9162 96.3043C30.8205 95.8482 30.7247 95.351 30.6334 94.8766C27.2902 87.14 23.3047 79.6971 18.7189 72.6258C18.7189 73.4788 18.7508 74.3318 18.7782 75.1894C19.1614 76.1017 19.5354 77.0641 19.9095 78.0038L19.9596 78.0038C19.9596 78.0905 19.9916 78.1817 20.0098 78.2684C20.4112 79.2901 20.8081 80.3119 21.2004 81.3337C21.2642 81.174 21.3281 81.0143 21.3965 80.8547L22.2495 78.7792L28.932 95.3784L30.3461 94.8994ZM122.241 89.1109C123.518 91.2913 124.735 93.4747 125.89 95.6612C124.814 91.5163 123.749 87.3624 122.697 83.1993C120.672 79.1974 118.587 75.2304 116.444 71.2985L116.558 75.3171L119.08 83.2768L118.811 78.0996L120.987 85.0421C121.411 86.406 121.821 87.7562 122.227 89.1109L122.241 89.1109ZM88.7327 93.4078L89.4944 95.0226L89.2207 92.7419C88.9699 92.2355 88.7144 91.7338 88.4635 91.232C88.5548 91.9482 88.646 92.6962 88.7327 93.4078ZM106.112 93.9962L106.709 94.8173L105.049 87.7425C105.423 89.8286 105.779 91.9132 106.116 93.9962L106.112 93.9962ZM32.4854 91.7155C32.8868 92.6004 33.2867 93.4899 33.685 94.384L33.5072 93.0976L32.4078 91.4783C32.4398 91.565 32.4626 91.6471 32.4899 91.7246L32.4854 91.7155ZM35.2542 92.4317L35.4595 92.7373C35.4595 88.9513 35.6465 85.1698 36.0068 81.4158C35.2375 79.8618 34.4575 78.314 33.6668 76.7722C34.0165 82.0148 34.5472 87.2377 35.2587 92.4408L35.2542 92.4317ZM5.79632 73.9943C9.11877 80.1603 12.7733 86.1416 16.7438 91.9117C13.5417 82.7036 10.0704 73.5974 6.33001 64.5931C6.35738 67.5581 6.08826 70.8332 5.79632 73.9943ZM23.96 88.8737L25.1232 90.8123L22.254 83.6782L22.1719 83.9154C22.7862 85.5636 23.3822 87.2164 23.96 88.8737ZM83.8519 87.5555C84.1378 88.5134 84.4343 89.4713 84.7414 90.4292L84.7961 89.5397C84.7368 89.3892 84.6775 89.2387 84.6137 89.0836C84.3674 88.5909 84.1119 88.0664 83.8565 87.5555L83.8519 87.5555ZM143.119 84.5221C143.872 86.2053 144.647 87.8702 145.445 89.5397L144.652 85.2565L139.543 73.6157L143.119 84.5221ZM31.0576 86.3467C31.7054 87.259 32.3485 88.1819 32.9871 89.1155C32.3364 83.6995 31.8802 78.2653 31.6187 72.8129C31.0105 71.636 30.3902 70.4622 29.7576 69.2914C29.8602 74.9925 30.2958 80.6827 31.0622 86.333L31.0576 86.3467ZM125.43 73.6202C127.391 78.1513 129.316 82.7051 131.204 87.2818C129.79 81.9175 128.198 76.6065 126.429 71.3486C125.796 69.7704 125.176 68.1875 124.567 66.6002L124.312 66.0573C124.686 68.5722 125.06 71.0886 125.434 73.6065L125.43 73.6202ZM90.3064 84.9828L90.3474 85.2702L90.3474 85.1379L90.3064 84.9828ZM38.0595 81.4477C38.4335 82.214 38.8121 82.9803 39.1862 83.7284C37.0757 75.4144 35.0793 67.0791 33.197 58.7225C33.1392 63.2566 33.2137 67.7861 33.4205 72.3111C34.4058 74.2056 35.3804 76.1077 36.3444 78.0175L36.4402 77.0276L37.8086 80.7817L38.0595 81.4477ZM18.7098 69.2868C21.5501 73.5108 24.1699 77.8548 26.5692 82.3189L27.2215 81.9266C24.6336 74.5523 21.9059 67.2418 19.0382 59.9952C18.8375 63.0878 18.728 66.1851 18.7098 69.2868ZM1.02048 75.6273C1.81873 77.2101 2.62611 78.8203 3.39244 80.467C3.42893 79.9424 3.46998 79.395 3.5156 78.8385C2.68541 77.762 1.85371 76.6916 1.02048 75.6273ZM5.39491 78.2866L6.58545 79.8329C6.2175 79.0484 5.84498 78.2653 5.4679 77.4838C5.44053 77.7529 5.41772 78.022 5.39491 78.2866ZM136.55 78.875L136.573 78.9298C136.269 76.7068 135.989 74.4808 135.734 72.2518L134.822 68.4886C134.213 66.74 133.631 64.9824 133.075 63.2156L133.453 63.0833C132.477 59.2638 131.477 55.455 130.452 51.6568L127.687 43.2273C130.394 55.1509 133.348 67.0335 136.55 78.875ZM136.377 61.8562L143.219 77.4017L140.528 62.8734L135.022 47.8936C135.424 52.5463 135.875 57.2005 136.377 61.8562ZM121.233 69.6609C122.23 72.0937 123.182 74.5264 124.089 76.9592L123.664 74.0946C122.664 71.7865 121.654 69.4815 120.635 67.1795C120.836 68.0142 121.037 68.8398 121.233 69.6609ZM116.343 67.3117C117.864 70.0304 119.348 72.7672 120.795 75.5224L119.495 70.2174C118.449 67.6751 117.354 65.1557 116.211 62.6591L116.343 67.3117ZM100.592 65.3275C100.897 66.6777 101.188 68.0233 101.468 69.3644L101.924 69.2868L100.592 65.3275ZM113.757 66.4177L114.569 68.9858L114.537 67.8135L113.757 66.4177ZM142.284 62.3945L142.594 63.2384C142.499 62.4127 142.407 61.5917 142.334 60.7752L141.609 52.8884C141.039 51.7435 140.469 50.6077 139.894 49.4719L142.284 62.3945Z"
                  fill="#1D1D1B"/>
        </g>
    </g>
    <path d="M33.4001 13.4087L33.3727 12.1954C33.3727 11.9582 33.2359 6.416 33.3727 4.28124L33.3727 4.03948L36.0138 0.0983887L48.7357 8.55076L33.4001 13.4087ZM35.179 4.65984C35.1015 6.2153 35.1426 9.25779 35.179 10.9546L44.562 7.98058L36.5201 2.62543L35.179 4.65984Z"
          fill="#F96432"/>
    <path d="M23.3196 94.1738L20.1676 80.1884L13.0883 57.1302L18.3795 43.7515L27.2607 40.6223L27.7168 41.9132L19.4196 44.8371L14.5388 57.1895L21.495 79.8645L24.6515 93.8727L23.3196 94.1738Z"
          fill="#28CE61"/>
    <path d="M68.4721 14.8983L43.4941 16.6274L43.5886 17.9926L68.5666 16.2635L68.4721 14.8983Z" fill="#28CE61"/>
    <path d="M118.002 48.5001L116.843 47.7748L123.758 36.686L106.251 24.2377L107.045 23.1248L125.601 36.3165L118.002 48.5001Z"
          fill="#28CE61"/>
    <path d="M118.449 110.786L118.129 110.727L0.69928 88.9095L25.5911 75.6038L26.4532 77.214L6.14566 88.0657L118.143 108.87L142.113 95.7563L125.569 87.1123L126.413 85.4976L145.986 95.7198L118.449 110.786Z"
          fill="#F96432"/>
    <path d="M121.072 73.7932L126.682 48.5684L128.461 48.9606L123.603 70.8191L138.127 65.0124L138.802 66.7093L121.072 73.7932Z"
          fill="#F96432"/>
    <path d="M67.1624 36.2255L65.9156 36.7896L79.0268 65.7736L80.2736 65.2096L67.1624 36.2255Z" fill="white"/>
    <path d="M40.9219 61.7668L39.95 62.7302L47.7504 70.5989L48.7222 69.6355L40.9219 61.7668Z" fill="white"/>
</svg>
