<svg width="114" height="124" viewBox="0 0 114 124" fill="none" xmlns="http://www.w3.org/2000/svg">
    <path d="M16.3205 18.0642C16.2073 18.1721 16.1005 18.2866 16.0009 18.4071C15.9486 18.4652 15.9021 18.5233 15.8556 18.5844C15.8091 18.6425 15.7655 18.7035 15.7248 18.7645C15.6841 18.8256 15.6609 18.8517 15.6318 18.8953C15.6028 18.9389 15.5592 19.0057 15.5301 19.0609C15.454 19.1797 15.3851 19.3029 15.3238 19.43C15.2947 19.4823 15.2715 19.5346 15.2453 19.5898C15.1429 19.8099 15.0564 20.0372 14.9867 20.2698C14.9664 20.3308 14.9489 20.3918 14.9344 20.4558C14.9168 20.5111 14.9023 20.5674 14.8908 20.6243C14.8734 20.6853 14.8618 20.7463 14.8501 20.8074C14.8237 20.9225 14.8033 21.0389 14.7891 21.1561C14.7891 21.2229 14.7717 21.2897 14.7659 21.3566C14.76 21.4234 14.7659 21.4932 14.7455 21.5629L14.7455 21.7402C14.7177 22.4263 14.7971 23.1126 14.9809 23.7743L4.02568 34.2965C3.41253 32.0386 3.99953 29.9173 5.39435 28.5777L16.3205 18.0642Z"
          fill="#28CE61"/>
    <path d="M90.7156 106.498L83.9304 118.927L79.7866 116.988C78.9526 117.779 77.8813 118.274 76.7383 118.395L34.5883 123.384C31.1913 123.788 27.6578 121.254 26.6988 117.723L16.9234 97.2776L4.01251 34.2895L14.9677 23.7585L37.6511 107.201C38.6101 110.732 42.1436 113.266 45.5406 112.862L87.6993 107.873C87.8506 107.856 88.0009 107.832 88.1497 107.8C88.2137 107.8 88.2747 107.777 88.3357 107.759L88.5101 107.716C88.5653 107.716 88.6176 107.687 88.6699 107.672L88.8181 107.626L88.9954 107.562C89.0622 107.538 89.129 107.512 89.193 107.483C89.3237 107.428 89.4516 107.37 89.5765 107.303C89.623 107.28 89.6695 107.256 89.7131 107.23C89.9796 107.083 90.2316 106.911 90.4657 106.716C90.5529 106.646 90.6372 106.577 90.7156 106.498Z"
          fill="#28CE61"/>
    <path d="M90.7171 106.497C90.6387 106.573 90.5544 106.646 90.4701 106.715C90.236 106.91 89.984 107.082 89.7175 107.23L89.5809 107.302C89.456 107.366 89.3281 107.427 89.1973 107.483C89.1334 107.512 89.0666 107.538 88.9997 107.561L88.8225 107.625L88.6743 107.671C88.622 107.686 88.5697 107.703 88.5144 107.715L88.3401 107.759C88.2791 107.776 88.218 107.788 88.1541 107.799C88.0053 107.831 87.855 107.855 87.7037 107.872L45.545 112.861C42.148 113.259 38.6145 110.731 37.6526 107.201L14.9692 23.758C14.7854 23.0963 14.706 22.41 14.7338 21.7239L14.7338 21.5466C14.7338 21.4769 14.7338 21.4071 14.7542 21.3403C14.7745 21.2735 14.7687 21.2066 14.7774 21.1398C14.7916 21.0226 14.812 20.9062 14.8384 20.7911C14.8384 20.7301 14.8617 20.669 14.8791 20.608C14.8906 20.5511 14.9051 20.4948 14.9227 20.4395C14.9227 20.3755 14.9547 20.3145 14.975 20.2535C15.0441 20.023 15.1295 19.7977 15.2307 19.5793L15.3092 19.4195C15.3705 19.2925 15.4394 19.1692 15.5155 19.0504C15.5446 18.9952 15.5823 18.94 15.6172 18.8848C15.6521 18.8296 15.6753 18.7976 15.7102 18.754C15.7451 18.7105 15.7945 18.632 15.841 18.5739C15.8875 18.5129 15.934 18.4547 15.9863 18.3966C16.0859 18.2761 16.1927 18.1616 16.3059 18.0537C17.1406 17.2529 18.2182 16.7529 19.3687 16.6327L61.542 11.652C64.9389 11.251 68.4754 13.7879 69.4344 17.3185L77.1727 51.364L85.5533 76.6017L92.1207 100.764C92.7396 103.031 92.1352 105.164 90.7171 106.497Z"
          fill="#28CE61"/>
    <mask id="mask0_38_6030" style="mask-type:luminance" maskUnits="userSpaceOnUse" x="3" y="18" width="88"
          height="106">
        <path d="M87.6987 107.87L45.5429 112.862C42.1459 113.263 38.6123 110.729 37.6505 107.198L26.6953 78.0407L14.9671 23.7586C14.351 21.4978 14.9409 19.3794 16.3328 18.0398L5.39506 28.5708C4.00023 29.9104 3.41033 32.0288 4.02638 34.2895L5.59847 40.0781L16.9315 97.2661L26.6953 117.721C27.6571 121.254 31.1907 123.785 34.5877 123.384L76.7464 118.392C77.886 118.27 78.9539 117.777 79.7859 116.988L83.3049 119.522L90.7411 106.466C89.9083 107.255 88.8393 107.748 87.6987 107.87Z"
              fill="white"/>
    </mask>
    <g mask="url(#mask0_38_6030)">
        <g opacity="0.42">
            <path d="M-26.483 158.298L-31.7368 153.907C-35.6385 150.647 -39.451 147.217 -43.1744 143.618C-41.5413 145.617 -39.9034 147.606 -38.2606 149.584L-33.6286 155.166L-39.4404 150.839C-47.1927 145.029 -54.2338 138.327 -60.418 130.87C-59.4266 132.531 -58.3348 134.13 -57.1489 135.658L-58.4565 136.806C-63.8441 131.36 -69.5311 126.218 -75.4909 121.405C-77.5889 120.566 -79.6918 119.738 -81.7996 118.921C-81.323 120.025 -80.8668 121.016 -80.4367 121.841C-80.3088 122.088 -80.1781 122.335 -80.0502 122.585C-74.8603 127.022 -70.4927 132.636 -69.6355 141.159L-69.3449 143.923L-71.1524 141.813C-74.3808 138.035 -76.9642 132.747 -79.4778 127.627C-80.1432 126.267 -80.7796 124.965 -81.4218 123.709C-83.8134 121.675 -86.3822 119.903 -88.8493 118.188C-90.7933 116.84 -92.6269 115.573 -94.3182 114.23L-98.3864 111.014L-93.4987 112.725C-90.6529 113.721 -87.8051 114.759 -84.9554 115.84C-85.121 115.425 -85.2925 115.003 -85.461 114.579L-85.8562 113.597C-87.4835 112.539 -89.0953 111.443 -90.6916 110.307L-89.7094 108.855C-88.8241 109.436 -87.9426 110.025 -87.065 110.621C-89.1486 105.6 -91.514 100.526 -93.8242 98.6606L-92.7315 97.3007C-85.5307 103.083 -78.4646 109.186 -71.5331 115.608C-72.6954 113.795 -73.8161 111.948 -74.8952 110.069C-76.9293 108.804 -78.9838 107.594 -81.0586 106.44L-80.2246 104.908C-79.0622 105.524 -77.9057 106.143 -76.7549 106.765C-78.1052 104.338 -79.3935 101.852 -80.6198 99.3086L-81.6659 97.1379L-79.841 97.969C-81.538 94.4471 -83.1392 90.8389 -84.6444 87.1446L-85.9899 83.8348L-83.27 86.1595C-77.1036 91.4133 -71.0197 96.8735 -65.018 102.54C-67.7302 98.185 -70.2651 93.6383 -72.6228 88.8997L-74.0147 86.0897L-71.3732 87.7781C-70.3852 88.4077 -69.3992 89.045 -68.415 89.6901C-71.3209 84.3297 -74.0621 78.8027 -76.6387 73.1091L-79.4749 66.8411L-75.1654 72.2025C-66.5698 82.8962 -57.7552 93.3506 -48.7218 103.566C-46.74 105.065 -44.7707 106.587 -42.8141 108.131L-44.6332 105.748L-43.3633 106.408C-44.2932 104.767 -45.1969 103.097 -46.0745 101.398C-47.0916 100.683 -48.1038 99.9528 -49.1112 99.2069L-48.129 97.7685L-47.7861 97.9865C-48.283 96.9636 -48.7712 95.9378 -49.239 94.9004C-55.717 82.9838 -61.0883 70.4982 -65.2854 57.6004L-65.9741 55.5023L-19.2822 81.0742L-29.4528 64.8651C-30.1967 63.974 -30.9329 63.0693 -31.6613 62.151L-36.6013 55.9382L-30.435 60.9305C-27.5872 63.2359 -24.7579 65.5819 -21.9469 67.9686C-22.6831 66.2251 -23.4086 64.4689 -24.1234 62.7002L-22.5717 61.9156C-20.8688 64.6704 -19.1369 67.3952 -17.3759 70.0899L-16.9982 69.5087L-17.312 69.0292L-16.9052 69.3692L-16.8035 69.2152C-20.554 63.9071 -24.2726 58.5797 -27.9592 53.2328L-26.5934 52.1547C-22.1164 57.1374 -17.5822 62.0677 -12.9909 66.9457L-16.3007 61.6715L-14.8478 60.7155C-11.6184 65.4308 -8.4219 70.2119 -5.25835 75.059L-4.47376 75.8726L-3.87515 76.201C-7.48961 70.7765 -10.655 65.0658 -13.3396 59.126L-14.1358 57.3824L-12.2935 57.9433L-11.5612 58.167C-12.6945 57.1306 -13.822 56.0825 -14.9437 55.0228L-13.7813 53.7326C-12.3226 55.0054 -10.8929 56.3305 -9.49224 57.7079L-7.83588 59.2102C-9.63753 56.1707 -11.4469 53.1437 -13.2641 50.1293C-19.5524 41.9521 -26.298 33.7004 -33.5007 25.374L-32.2337 24.1768L-0.821053 54.7235L5.81601 58.5157L4.02016 55.1768L3.89812 55.0519L3.98239 55.1071L-2.70116 42.6989L-2.8668 42.5827L-2.81158 42.4926L-5.26416 37.9333L-21.4442 21.483L-15.8184 24.758C-14.1058 25.7537 -12.3991 26.7688 -10.6982 27.8033L-15.4813 18.9113L-12.3923 21.1547C-11.6174 21.7184 -10.8425 22.2909 -10.0676 22.872L-12.0552 20.4979L-17.1144 14.4566L-10.8638 19.2426C-8.25433 21.2438 -5.65258 23.2682 -3.05859 25.3159C-4.39723 23.4154 -5.73879 21.5218 -7.08325 19.6349L-9.5765 16.1478L-9.84966 15.8892L-8.6873 14.5902C-5.83372 16.977 -3.03146 19.4654 -0.280556 22.0555C5.46439 25.8331 11.3605 29.8258 17.117 34.2864L15.5653 32.5864C7.17518 26.1446 -0.746834 19.1149 -8.14099 11.5507L-6.9583 10.2721L3.31984 18.859C-5.66711 8.54308 -14.4419 -2.04696 -23.0046 -12.9111L-21.7057 -14.0735L-10.6343 -3.07468L-10.2972 -3.42048C-7.34672 -0.816801 -4.4631 1.89924 -1.64632 4.72764C-3.91486 1.09527 -6.15627 -2.5584 -8.37056 -6.23339L-11.4799 -11.4059L1.65768 0.639051L-7.48135 -11.4989L-3.03243 -8.41571C16.8875 5.39309 37.4873 19.6872 55.6666 38.0815L54.481 39.3601C44.601 30.9708 34.4652 22.7965 24.2423 14.9302C33.1657 24.1725 41.058 34.3574 47.78 45.3055L50.3953 49.5423L43.7466 44.2681L42.4535 43.6114C38.7727 41.7303 35.1471 39.6797 31.5768 37.4596L35.7612 43.0186L34.4507 44.1606L25.7359 35.5127C27.1734 37.2097 28.5934 38.9329 29.9959 40.6823L31.1583 42.1352L41.2795 50.5972C42.7877 51.8583 44.8712 53.8983 46.2195 56.4438C47.687 59.1928 47.9892 61.904 47.1262 64.5048L46.8734 65.2603L46.0946 65.0772C44.1941 64.6239 42.3043 64.1289 40.4252 63.5923L39.6726 64.2752L38.2312 62.9501C36.3521 62.3689 34.4836 61.7558 32.6258 61.1107L33.3261 62.1074L31.7627 60.8056C29.5523 60.0074 27.3496 59.1502 25.1547 58.2338C25.5422 58.7453 25.9296 59.2606 26.3171 59.7798C33.8392 66.3027 40.5689 73.6869 46.3678 81.7803L48.6925 85.0262L36.9439 78.3136L39.7278 81.1439L33.8114 77.1803C37.3914 82.7983 40.9318 88.4377 44.4324 94.0984L42.9562 95.0283C38.0666 87.4032 32.9328 80.0581 27.555 72.9929L27.1162 72.7023L19.7149 68.4684C20.2748 69.3072 20.8366 70.1432 21.4003 70.9762C25.856 75.9085 30.2294 80.9541 34.5204 86.113L37.3595 89.5216L36.2756 88.9404C39.1427 91.9858 41.9043 95.2065 44.5603 98.6025L47.5301 102.418L43.4066 99.8898C39.9796 97.786 36.5778 95.6104 33.2011 93.3632C33.0696 93.5936 32.9095 93.8064 32.7246 93.9967L32.3352 94.4035L31.8034 94.2146C30.8212 93.864 29.84 93.5065 28.8597 93.1423L31.0682 95.2636L28.1827 94.7144L27.5521 94.5924C33.9218 101.427 40.1511 108.453 46.2399 115.669L49.1022 119.069L45.1676 117.008C37.9984 113.208 31.0693 108.971 24.4195 104.321L24.5532 104.565L27.1453 109.334L23.1903 105.606L20.6361 103.197L20.5256 103.165L20.5024 103.165L22.1442 105.829C25.9916 109.886 29.6957 114.172 33.2564 118.688C39.1786 123.01 45.002 127.543 50.7266 132.288L49.6921 133.688C45.7482 131.106 41.9421 128.319 38.2894 125.34C40.0329 127.746 41.729 130.204 43.3776 132.715L44.6242 134.607L42.4332 134.025C34.5001 131.974 26.6445 129.559 18.8664 126.781C20.9644 130.074 23.0857 133.337 25.2303 136.568L23.8296 137.6L18.5525 131.134L16.6521 130.492C15.9721 130.262 15.2921 130.027 14.618 129.783C18.1167 134.601 21.7393 139.263 25.486 143.769L24.2016 144.931C22.8455 143.589 21.5185 142.214 20.2205 140.808L28.4064 153.864L23.0044 148.343L23.7512 149.624L22.182 149.578C13.8384 149.327 5.59241 147.709 -2.22751 144.789L1.3264 149.697L-2.84355 146.832C-5.44724 145.038 -8.01023 143.157 -10.5325 141.188C-10.9539 140.976 -11.3782 140.761 -11.7995 140.54C-12.9619 139.936 -14.1107 139.304 -15.2459 138.646C-12.7805 141.692 -10.8962 145.165 -9.68693 148.892L-9.21327 150.345L-10.7098 150.005C-17.6839 148.412 -24.2629 145.292 -30.4321 141.255L-30.7488 141.604L-34.294 138.576L-34.9043 138.126C-32.3858 141.446 -29.9642 144.907 -27.6395 148.508L-26.0006 151.057L-28.7438 149.769C-30.8748 148.77 -32.9709 147.688 -35.0321 146.524C-33.4823 148.565 -31.9577 150.636 -30.4583 152.736L-26.483 158.298ZM-29.1157 140.026C-23.673 143.545 -17.9251 146.323 -11.8751 147.918C-13.6186 143.359 -16.2136 139.826 -19.2647 136.722L-19.7123 137.178C-20.5317 136.403 -21.3434 135.608 -22.1474 134.792L-22.1968 134.792L-22.9291 135.374L-23.5103 134.702C-25.4688 134.578 -27.4235 134.406 -29.3744 134.185C-28.5898 134.95 -27.8081 135.718 -27.0293 136.487L-28.1219 137.835C-30.3808 136.367 -32.6396 134.909 -34.8985 133.462L-34.9275 133.462C-33.893 134.624 -32.8614 135.786 -31.8327 136.949L-29.1157 140.026ZM-4.12505 142.182C3.75131 145.435 12.1233 147.326 20.6332 147.773C19.4708 145.859 18.2736 144.002 17.0415 142.203C10.7977 135.722 4.59069 129.132 -1.57949 122.431C-2.14324 122.12 -2.70117 121.809 -3.2591 121.489L-2.09674 122.535L-5.91509 121.344C-7.30604 120.91 -8.69021 120.455 -10.0676 119.978C-4.42242 127.754 1.37289 135.297 7.31835 142.606L6.08335 143.827C-1.04772 137.864 -8.29501 131.808 -15.7428 126.142L-4.12505 142.182ZM-42.4247 141.926C-40.4875 143.808 -38.5308 145.64 -36.5548 147.424C-37.3995 146.305 -38.2519 145.197 -39.112 144.1C-40.2221 143.407 -41.3234 142.686 -42.416 141.938L-42.4247 141.926ZM-37.9293 142.784C-35.6162 144.225 -33.2634 145.559 -30.8709 146.785C-34.0562 142.027 -37.5 137.447 -41.1868 133.066C-41.5743 132.727 -41.9617 132.385 -42.3492 132.041C-43.2384 131.843 -44.1276 131.637 -45.011 131.422C-44.671 131.753 -44.3339 132.084 -43.9968 132.421L-40.9631 135.426L-44.9325 133.851L-45.3713 133.674C-42.8374 136.649 -40.3538 139.69 -37.9206 142.795L-37.9293 142.784ZM-9.60265 139.701C-8.82388 140.09 -8.0422 140.462 -7.25761 140.822L-19.1049 124.471L-19.5263 124.273C-17.4767 127.344 -15.4755 130.464 -13.5227 133.633L-12.7149 134.944L-14.255 134.961L-15.368 134.961C-13.4733 136.598 -11.5515 138.178 -9.60265 139.701ZM6.43496 126.447C10.534 130.733 14.3131 135.314 17.7418 140.154L12.4647 131.727C11.4418 130.425 10.4354 129.101 9.44547 127.754C8.43809 127.342 7.43458 126.908 6.43496 126.453L6.43496 126.447ZM-51.0959 133.017C-48.3991 135.36 -45.5866 137.567 -42.6688 139.628C-44.7088 137.123 -46.7826 134.669 -48.8903 132.264C-50.4072 131.65 -51.9241 131.034 -53.441 130.416C-52.6661 131.296 -51.8844 132.163 -51.0959 133.017ZM-77.7342 127.278C-75.9297 130.968 -74.0728 134.723 -71.9806 137.847C-73.0325 133.598 -75.1306 130.181 -77.7342 127.284L-77.7342 127.278ZM-3.00919 134.011C-1.80809 134.993 -0.611833 135.978 0.579589 136.966C-1.68895 134.078 -3.93713 131.153 -6.16499 128.193L-2.71569 133.807L-3.00919 134.011ZM-17.3759 133.215C-16.8616 133.215 -16.3443 133.215 -15.8271 133.215C-18.0336 129.675 -20.2983 126.2 -22.6211 122.788C-25.8524 121.238 -29.0721 119.629 -32.2803 117.959L-32.2338 118.025C-27.8442 121.573 -23.6715 125.381 -19.7384 129.428L-20.5114 130.344C-19.4769 131.324 -18.4317 132.283 -17.3759 133.22L-17.3759 133.215ZM-20.5317 133.127L-20.061 133.145C-22.2346 131.167 -24.3656 129.12 -26.4539 127.005L-27.3054 126.453L-26.8869 127.034C-26.112 127.952 -25.3206 128.854 -24.5128 129.739C-23.1732 130.843 -21.8336 131.959 -20.5317 133.133L-20.5317 133.127ZM-31.4666 132.189C-29.3666 132.466 -27.2598 132.688 -25.1463 132.854C-26.0335 131.847 -26.9237 130.843 -27.8168 129.844C-29.973 128.052 -32.0672 126.148 -34.0993 124.134C-35.7322 122.684 -37.2706 121.131 -38.7052 119.484C-42.4887 117.301 -46.3089 115.225 -50.166 113.257C-49.2652 114.869 -48.3372 116.451 -47.3822 118.005C-41.9598 122.517 -36.6546 127.247 -31.4666 132.195L-31.4666 132.189ZM-54.7283 132.102L-54.5568 132.279L-54.6149 132.206L-54.7283 132.102ZM17.3379 124.384C25.0249 127.197 32.7943 129.656 40.646 131.762C37.8912 127.678 35.0212 123.738 32.0359 119.94C30.8735 119.086 29.7025 118.241 28.5227 117.404C30.057 119.13 31.5806 120.867 33.0936 122.614L35.398 125.273L32.1289 124.009C28.4821 122.585 24.9178 120.958 21.4526 119.136C21.7868 119.717 22.121 120.327 22.4551 120.923L25.9015 127.089L21.0574 121.946C19.1047 119.871 17.1674 117.764 15.2456 115.625C13.3975 114.5 11.5726 113.316 9.77093 112.074C12.2564 116.224 14.7788 120.329 17.3379 124.389L17.3379 124.384ZM-39.3561 128.58C-37.8218 129.548 -36.2904 130.517 -34.7619 131.486C-37.8208 128.617 -40.9204 125.821 -44.0607 123.099C-43.7702 123.538 -43.4563 123.971 -43.1541 124.407L-42.6775 124.988C-41.5655 126.179 -40.4584 127.377 -39.3561 128.58ZM-70.1876 123.555C-67.7234 125.657 -65.3019 127.826 -62.9229 130.062C-63.7075 128.636 -64.4398 127.16 -65.1197 125.633C-66.7994 124.938 -68.4886 124.245 -70.1876 123.555ZM-12.3604 126.551C-10.9287 127.665 -9.50289 128.788 -8.08288 129.919C-10.8319 126.627 -13.6767 123.48 -16.5913 120.446L-16.3007 120.783L-17.3759 121.687C-16.2136 122.774 -15.0657 123.877 -13.9324 124.997L-12.3604 126.551ZM-47.5943 128.972C-46.7371 129.202 -45.8769 129.425 -45.0139 129.637C-45.752 128.952 -46.4814 128.259 -47.202 127.56L-54.2256 121.556C-55.9381 120.541 -57.6545 119.534 -59.3748 118.534C-58.8808 119.028 -58.3897 119.522 -57.9015 120.022C-54.3738 122.841 -50.9341 125.824 -47.5827 128.972L-47.5943 128.972ZM12.7785 127.228C13.2958 127.432 13.813 127.627 14.3332 127.81C13.2173 126.438 12.0676 125.105 10.8839 123.811L10.2155 123.547C11.0699 124.788 11.9281 126.018 12.7902 127.234L12.7785 127.228ZM-57.3726 125.889C-56.0592 126.362 -54.7399 126.812 -53.4148 127.24C-55.2726 125.227 -57.1518 123.253 -59.0522 121.318C-60.6021 120.08 -62.1596 118.877 -63.7249 117.709C-61.6211 120.446 -59.5036 123.173 -57.3726 125.889ZM2.79678 122.774C4.34659 123.549 5.90124 124.292 7.46074 125.003C6.63934 123.84 5.83054 122.655 5.03432 121.446C2.7561 120.493 0.485633 119.507 -1.77709 118.488C-0.233094 119.882 1.29153 121.311 2.79678 122.774ZM-45.6096 124.703L-45.2405 124.93C-46.2285 123.899 -47.2301 122.888 -48.2452 121.896C-47.3754 122.849 -46.4968 123.785 -45.6096 124.703ZM-17.2452 117.264C-14.9766 119.562 -12.7488 121.931 -10.5616 124.372L-14.1853 118.488C-15.2081 118.087 -16.2281 117.68 -17.2452 117.264ZM14.4291 123.306L14.6528 123.39C11.8012 118.833 8.99699 114.219 6.24027 109.546C3.81094 107.739 1.43198 105.828 -0.8966 103.813L-1.76837 103.412L14.4291 123.306ZM-84.4585 112.452C-79.089 115.922 -73.4801 119.007 -67.674 121.684C-74.5397 115.113 -81.5555 108.846 -88.7214 102.883C-87.2191 105.702 -85.7952 109.136 -84.4585 112.452ZM28.8132 120.748L29.3508 120.984L28.296 119.786L28.8132 120.748ZM19.8253 116.276C22.398 117.71 25.0026 119.028 27.6393 120.231L20.6128 111.938C18.8577 110.756 17.0938 109.594 15.3212 108.451L15.4665 108.698C16.2627 109.414 17.0531 110.147 17.8377 110.894L21.9582 114.82L17.829 112.786C18.4993 113.949 19.1647 115.112 19.8253 116.276ZM-88.3233 116.465L-87.8816 116.756C-86.3415 117.822 -84.7636 118.915 -83.206 120.077C-83.4966 119.438 -83.7872 118.755 -84.0778 118.043C-85.4881 117.516 -86.9033 116.986 -88.3233 116.453L-88.3233 116.465ZM-34.605 114.791C-31.2942 116.535 -27.9698 118.233 -24.6319 119.885L-24.9225 119.461C-28.7351 116.828 -32.6057 114.341 -36.5461 112.06C-35.901 112.978 -35.2539 113.888 -34.605 114.791ZM-22.0922 117.38C-21.2437 118.132 -20.399 118.892 -19.5583 119.662C-21.0209 117.984 -22.5048 116.337 -24.0101 114.722L-22.0922 117.38ZM-6.51951 114.39C-3.24748 115.94 0.0458747 117.422 3.36053 118.836C3.068 118.375 2.77741 117.91 2.48876 117.441C-1.19204 115.892 -4.82343 114.194 -8.40543 112.347L-6.69676 114.233L-6.51951 114.39ZM4.65366 115.117C5.95937 116.291 7.2399 117.505 8.49525 118.761L1.75357 110.493C2.70476 112.049 3.66662 113.59 4.63912 115.117L4.65366 115.117ZM-11.8576 117.482C-11.0149 117.792 -10.1693 118.094 -9.32079 118.389L-11.9768 116.006C-12.6015 115.576 -13.2234 115.134 -13.8395 114.701C-13.1924 115.631 -12.5366 116.558 -11.8722 117.482L-11.8576 117.482ZM-10.8958 114.634C-9.129 115.845 -7.34091 117.007 -5.5315 118.121L-7.65862 115.797C-9.08638 115.117 -10.5103 114.425 -11.9303 113.722L-10.8958 114.634ZM-82.7295 116.703L-80.3321 117.627C-81.3007 116.901 -82.2694 116.186 -83.238 115.483C-83.0724 115.895 -82.9096 116.302 -82.744 116.703L-82.7295 116.703ZM-51.619 110.552C-47.8897 112.415 -44.1915 114.377 -40.5243 116.436L-40.3848 116.328C-42.3434 114.304 -44.3145 112.303 -46.2983 110.325C-48.8613 108.858 -51.4078 107.36 -53.9379 105.829L-53.0835 104.31C-52.607 104.56 -52.1314 104.812 -51.6567 105.068C-53.2317 103.545 -54.8135 102.04 -56.4021 100.552C-54.9356 103.985 -53.346 107.318 -51.6335 110.552L-51.619 110.552ZM-56.9629 114.812C-56.4515 115.239 -55.9458 115.669 -55.4402 116.108C-55.9672 115.445 -56.4873 114.778 -57.0007 114.105C-62.8923 109.345 -69.2577 105.203 -75.9965 101.744C-75.5054 102.694 -75.0085 103.633 -74.5029 104.568C-73.7938 105.171 -73.0867 105.777 -72.3816 106.387L-72.3351 106.355L-72.1811 106.559C-71.4749 107.175 -70.7717 107.791 -70.0685 108.416C-70.1092 108.145 -70.1498 107.875 -70.1876 107.605L-70.5073 105.327L-58.0671 115.957L-56.9629 114.812ZM-20.6015 113.919C-18.9703 114.65 -17.3323 115.346 -15.6876 116.009L-18.7591 111.008C-19.7278 110.244 -20.6964 109.463 -21.665 108.663C-24.6697 107.035 -27.656 105.349 -30.6239 103.604L-27.0729 107.864C-24.8954 109.84 -22.7431 111.858 -20.616 113.919L-20.6015 113.919ZM-38.7749 108.811C-35.0554 110.845 -31.4056 113.054 -27.811 115.413L-29.0315 113.742C-32.1815 111.15 -35.3837 108.67 -38.6383 106.303C-39.5818 105.722 -40.5223 105.124 -41.46 104.51C-41.0183 105.26 -40.5746 106.008 -40.1291 106.754C-39.6845 107.445 -39.2341 108.128 -38.7749 108.811ZM-64.3933 113.635C-63.4789 114.152 -62.5645 114.673 -61.6501 115.198L-68.1099 109.677C-68.0721 109.88 -68.0373 110.081 -67.9995 110.284C-66.7926 111.385 -65.5915 112.501 -64.3962 113.635L-64.3933 113.635ZM-11.8838 108.509C-7.70511 110.833 -3.45089 112.952 0.87889 114.864C0.282218 114.12 -0.324143 113.391 -0.940186 112.676C-6.07165 108.555 -11.6467 105.02 -17.5619 102.136C-15.6769 104.267 -13.7852 106.391 -11.8867 108.509L-11.8838 108.509ZM22.5016 100.831C28.7345 105.31 35.2036 109.45 41.881 113.234C36.2494 106.662 30.4948 100.252 24.6171 94.0025C22.306 93.5259 19.9987 93.0174 17.6953 92.4769C19.3458 95.2607 20.948 98.0455 22.5016 100.831ZM24.283 112.315L24.373 112.376L24.2423 112.237L24.283 112.315ZM-56.8874 110.374C-56.1124 110.973 -55.3375 111.576 -54.5626 112.185C-54.9501 111.617 -55.3424 111.047 -55.7395 110.476L-57.7737 109.511L-56.8874 110.374ZM-16.9807 109.189C-15.8997 109.756 -14.8158 110.315 -13.729 110.865C-15.6198 109.407 -17.5193 107.986 -19.4275 106.602L-19.0352 107.239L-18.8492 107.515L-16.9807 109.189ZM7.57988 108.366C8.72287 109.213 9.87553 110.033 11.0379 110.828C10.3812 110.069 9.72735 109.302 9.07642 108.535L7.12947 107.602C7.26314 107.846 7.42878 108.102 7.56535 108.355L7.57988 108.366ZM-54.5539 109.122L-54.2633 109.267C-56.1173 105.606 -57.8289 101.828 -59.398 97.9342C-60.7018 97.012 -62.0104 96.1025 -63.3239 95.2055C-60.5401 99.9867 -57.6216 104.622 -54.5685 109.11L-54.5539 109.122ZM-30.2926 109.139L-30.1531 109.215L-31.8967 106.812L-32.5796 106.169C-31.8221 107.144 -31.0646 108.13 -30.3071 109.128L-30.2926 109.139ZM16.1465 103.984C17.4134 105.313 18.6726 106.65 19.9241 107.994L19.1831 106.64C17.7922 105.015 16.4225 103.352 15.0742 101.651L13.8595 101.296L16.1465 103.984ZM-60.4616 106.358C-59.5259 106.783 -58.5912 107.212 -57.6574 107.646C-60.788 102.919 -63.7734 98.0271 -66.6134 92.9709C-67.613 92.3025 -68.6146 91.641 -69.6181 90.9862C-66.8632 96.2833 -63.803 101.416 -60.4529 106.358L-60.4616 106.358ZM-14.7141 97.5244C-10.6159 100.496 -6.79291 103.83 -3.29106 107.486C-4.14733 105.882 -4.98423 104.255 -5.80175 102.607L-6.72873 101.128C-9.38278 99.915 -12.0417 98.7139 -14.7054 97.5244L-14.7141 97.5244ZM13.3742 105.138C14.4455 105.814 15.511 106.499 16.5707 107.192L14.8272 105.158C13.5757 103.823 12.3136 102.5 11.0408 101.189C11.8215 102.502 12.6022 103.819 13.3829 105.138L13.3742 105.138ZM-37.6765 104.847C-36.5258 105.56 -35.3634 106.256 -34.1894 106.934C-36.21 104.369 -38.2615 101.842 -40.3441 99.3522C-42.6882 97.415 -45.071 95.5552 -47.4926 93.7729C-46.2508 96.086 -44.9848 98.3768 -43.6946 100.645C-41.6702 102.005 -39.6612 103.409 -37.6678 104.856L-37.6765 104.847ZM-20.3922 98.928C-15.8567 100.876 -11.4964 103.209 -7.35931 105.902C-12.8029 100.682 -18.9814 96.2873 -25.6984 92.8576C-23.9297 94.8917 -22.1581 96.9181 -20.3835 98.9367L-20.3922 98.928ZM-22.098 102.273C-20.337 103.435 -18.5606 104.563 -16.7686 105.658C-18.3281 103.903 -19.8847 102.143 -21.4384 100.378C-22.2443 100.039 -23.0521 99.7135 -23.8619 99.4016L-22.098 102.273ZM5.54285 104.908L6.35651 105.292C5.68524 104.484 5.0227 103.673 4.35725 102.857L5.54285 104.908ZM-72.4717 101.166L-66.1513 103.862C-71.2463 99.0539 -76.4043 94.388 -81.6252 89.8645C-80.2691 93.0184 -78.8404 96.1083 -77.339 99.1343C-74.5687 100.471 -71.8498 101.932 -69.1822 103.516L-72.4717 101.166ZM0.0507119 102.328L2.77935 103.609C1.95214 102.17 1.12783 100.725 0.306434 99.2738C-2.12871 97.8731 -4.5745 96.5054 -7.03095 95.1707L-6.4178 96.3098C-4.312 98.4078 -2.15292 100.417 0.0594399 102.337L0.0507119 102.328ZM-34.0151 99.5382C-31.9499 100.799 -29.8742 102.031 -27.7877 103.235C-30.4127 100.765 -32.9612 98.1724 -35.4331 95.4583L-37.7782 92.8808L-41.6547 89.3937L-40.4923 88.0919C-36.0192 92.0554 -31.34 95.7802 -26.4743 99.2505L-27.3199 97.9545L-28.6886 95.8506L-27.9214 96.1093L-34.8316 84.8635L-33.4252 83.8435C-31.7901 85.7633 -30.1434 87.6802 -28.4852 89.5942C-21.7919 92.442 -15.0958 95.3857 -8.39671 98.4253L-11.4392 93.5695C-11.8479 93.1278 -12.2538 92.6813 -12.6568 92.2299C-16.3143 90.806 -19.9467 89.3153 -23.5538 87.7577L-22.9407 86.1275C-20.5191 86.9024 -18.1276 87.7742 -15.7661 88.7428L-16.0566 88.4319L-14.0545 89.4693L-14.0022 89.4925L-17.3963 84.076L-62.9374 59.1231C-59.6605 68.8505 -55.7146 78.3396 -51.1279 87.5223L-50.4014 88.1035C-48.6404 89.5371 -46.8756 90.9774 -45.1069 92.4246L-42.5613 94.0955C-41.6372 94.6999 -40.7122 95.2995 -39.7862 95.8942L-43.0698 91.361L-41.6953 90.2917L-34.0151 99.5382ZM9.75349 102.874L10.1632 103.127C9.44644 101.922 8.72578 100.718 8.00124 99.515L7.03648 99.2244L9.75349 102.874ZM3.65111 99.204L3.77607 99.2796C3.3983 98.7836 3.02248 98.2848 2.64858 97.7831L2.47713 97.7249C2.87234 98.2218 3.26463 98.7275 3.65111 99.204ZM11.808 98.864L12.8541 99.1779L12.5054 98.8437C12.084 98.6316 11.6656 98.4165 11.2442 98.1986L11.808 98.864ZM-57.6836 96.9839C-56.8874 97.5477 -56.0921 98.1163 -55.2978 98.6897C-60.9546 92.1747 -66.5301 85.557 -72.0241 78.8366C-69.8835 83.2458 -67.6382 87.5485 -65.2883 91.7446C-63.7133 92.7985 -62.1431 93.8688 -60.5778 94.9556L-60.9789 93.9502L-58.163 96.5422L-57.6836 96.9839ZM16.2685 95.3537C17.0938 96.1286 17.9152 96.9132 18.7327 97.7075C17.6207 95.7702 16.4864 93.833 15.3299 91.8957L14.5569 91.7068C15.142 92.9157 15.7125 94.1342 16.2685 95.3625L16.2685 95.3537ZM-25.3294 97.0014C-24.8663 97.1641 -24.4072 97.3307 -23.952 97.5012C-25.1666 96.1083 -26.3813 94.7115 -27.5959 93.3109L-25.3294 97.0014ZM5.26388 96.798L6.55701 97.2251L4.90936 96.3214L5.26388 96.798ZM33.6603 91.5673C35.7293 92.9447 37.8051 94.3008 39.8876 95.6356C37.9387 93.3186 35.9337 91.0947 33.8724 88.9637L33.2912 89.4867C33.5334 90.1548 33.6583 90.8597 33.6603 91.5703L33.6603 91.5673ZM0.533088 95.2201L0.823684 95.3218C0.31224 94.6302 -0.19822 93.9366 -0.707719 93.2411L-1.20463 92.968C-0.635071 93.7264 -0.0568015 94.4732 0.524375 95.223L0.533088 95.2201ZM-8.76576 91.8754C-6.70258 92.6503 -4.63358 93.4068 -2.55878 94.1449C-2.60527 94.0577 -2.65758 93.9647 -2.70698 93.8775C-3.45088 92.8973 -4.19286 91.9131 -4.93289 90.9251L-10.9365 87.6415C-10.2216 89.0634 -9.49902 90.4757 -8.76867 91.8783L-8.76576 91.8754ZM25.64 90.0388C27.616 90.8138 29.5998 91.5586 31.5913 92.2735C28.5672 90.2394 25.5645 88.149 22.583 86.0026L23.8064 88.2779L25.64 90.0388ZM16.437 90.3876C18.4576 90.8757 20.4791 91.3387 22.5016 91.7766C21.9456 91.1799 21.3771 90.5803 20.7959 89.9778C18.7153 89.1216 16.6443 88.2353 14.5831 87.3189C15.2127 88.3379 15.8307 89.3608 16.437 90.3876ZM20.6738 82.4545C24.312 85.1298 27.9841 87.7228 31.6901 90.2335C31.3962 89.3143 30.9319 88.4587 30.3214 87.7112C29.8942 87.1998 29.4671 86.6942 29.037 86.1885L26.2532 83.4802C23.8006 82.0912 21.3587 80.6654 18.9274 79.2028L20.6738 82.4545ZM13.5312 89.6669L14.0542 89.7977C13.289 88.5423 12.5141 87.2831 11.7295 86.02L11.5726 85.9474C12.2467 87.1756 12.8996 88.4154 13.5312 89.6669ZM-14.2579 85.8224L-11.9564 89.4954C-12.5144 88.3941 -13.0694 87.2841 -13.6186 86.174L-14.2579 85.8224ZM8.55336 88.3476L9.12001 88.5016C8.16494 86.8104 7.206 85.1192 6.24318 83.4279C4.79604 82.7189 3.35084 81.9953 1.90758 81.2572C3.14743 82.8574 4.42409 84.4072 5.73755 85.9067C6.67131 86.7048 7.61088 87.5185 8.55627 88.3476L8.55336 88.3476ZM-12.2993 84.907L-7.39127 87.5892C-8.15262 86.5489 -8.90912 85.5018 -9.66077 84.4479L-9.74214 84.413C-10.8735 84.012 -12.001 83.6033 -13.1246 83.1867C-12.8573 83.7621 -12.5754 84.3375 -12.2964 84.907L-12.2993 84.907ZM12.95 84.6658C14.5347 85.3904 16.1232 86.0965 17.7156 86.7842C14.5773 83.5645 11.4118 80.3952 8.21918 77.2762C9.82323 79.7404 11.4002 82.2036 12.95 84.6658ZM0.262847 83.6546L2.5091 85.4824L2.34927 85.3255C1.63248 84.723 0.912795 84.1273 0.1902 83.5384C0.21054 83.5761 0.233787 83.6168 0.257034 83.6546L0.262847 83.6546ZM18.2561 82.9514L19.7091 84.3549L19.3255 83.6372C18.8838 83.3146 18.4537 82.9892 18.0091 82.6637L18.2561 82.9514ZM-16.1496 82.7945L-14.935 83.4599C-15.1209 83.0734 -15.304 82.6869 -15.49 82.2975L-16.7628 81.8065L-16.1496 82.7945ZM-10.2972 80.5308C-9.75861 81.3057 -9.21908 82.0699 -8.67858 82.8235C-8.95367 82.3005 -9.22877 81.7774 -9.50385 81.2543L-10.2972 80.5308ZM-14.287 80.7661L-13.8133 80.9405L-14.4875 80.3448C-14.4264 80.4872 -14.3654 80.6267 -14.2957 80.7661L-14.287 80.7661ZM-0.47815 78.0433C1.21114 78.9383 2.9043 79.8101 4.60134 80.6586L-5.18279 64.8012C-6.34515 63.4819 -7.52398 62.1985 -8.71927 60.9509C-9.44865 60.6951 -10.1722 60.4452 -10.919 60.204C-7.98067 66.4497 -4.48936 72.4199 -0.48687 78.0433L-0.47815 78.0433ZM-22.56 72.5744L-17.62 80.4523L-17.3556 79.7142L-16.5971 79.9641C-17.0195 79.0652 -17.4369 78.1634 -17.8496 77.2587C-19.4498 75.7419 -21.0199 74.1804 -22.56 72.5744ZM13.0139 76.6746C14.461 77.8002 15.914 78.9122 17.3727 80.0106L15.9808 77.4244C14.3477 76.4131 12.7088 75.3835 11.0641 74.3354L13.0139 76.6746ZM32.4195 73.7368L42.4738 79.4846C39.0776 75.0527 35.3885 70.853 31.4315 66.9138C32.218 68.0587 32.9929 69.2162 33.7562 70.3863L32.3846 71.4528C29.6957 68.4849 27.0077 65.5005 24.3207 62.4997C26.2386 65.425 28.1459 68.3599 30.0424 71.3046L32.4195 73.7368ZM-16.3995 76.2417C-15.4929 77.0999 -14.5775 77.9406 -13.6535 78.764C-14.3761 77.712 -15.0958 76.6553 -15.8126 75.5937L-17.2655 74.3064C-16.9807 74.9369 -16.6901 75.5849 -16.3995 76.2271L-16.3995 76.2417ZM17.3088 76.201C18.5758 76.9759 19.8476 77.744 21.1243 78.5054L16.6637 74.164L15.9372 73.6554L17.3088 76.201ZM22.583 76.4073C22.9056 76.6601 23.2281 76.9158 23.5478 77.1745C22.368 75.4871 21.1979 73.7862 20.0375 72.0717C17.8174 69.6211 15.5817 67.2063 13.3306 64.8273L10.2446 63.0634L11.6452 65.6642C15.3783 69.066 19.0204 72.6422 22.5714 76.3928L22.583 76.4073ZM7.26896 69.7877C9.61111 71.3375 11.9668 72.8602 14.3361 74.3557L12.857 71.6039C10.2475 69.9204 7.59151 68.3638 4.88903 66.9341L7.26896 69.7877ZM-15.4755 72.9551L-14.0225 74.0361L-14.0574 73.9838L-15.6847 71.4993C-16.1496 71.1738 -16.6146 70.8483 -17.0795 70.5287C-16.5594 71.3278 -16.0247 72.1327 -15.4871 72.9406L-15.4755 72.9551ZM-22.6298 69.9591C-21.6999 70.9529 -20.7603 71.9303 -19.8111 72.8912C-20.0048 72.4572 -20.1985 72.0242 -20.3922 71.5922L-20.7206 71.3017C-21.3522 70.8561 -21.9885 70.4086 -22.6298 69.9591ZM-10.6691 72.3391L-9.79736 72.8476C-11.1767 71.4101 -12.5502 69.963 -13.9179 68.5062L-10.6691 72.3391ZM5.65037 70.7931L6.26642 71.29L6.09498 71.0866L5.65037 70.7931ZM16.4022 63.4267L24.1754 68.6311C23.048 67.1917 21.905 65.763 20.7465 64.3449L10.3957 53.8285C12.3659 57.0676 14.3719 60.2689 16.4138 63.4325L16.4022 63.4267ZM2.05288 63.5429C4.83478 64.8796 7.57117 66.3452 10.262 67.9395L0.504043 58.446C-1.09032 57.1732 -2.7002 55.9314 -4.32556 54.7206L-3.93617 54.1249L-13.793 44.5355L2.05288 63.5429ZM-0.518837 64.4525C0.323867 65.0491 1.17046 65.641 2.02092 66.228L0.968978 64.9581C0.414917 64.6946 -0.143006 64.435 -0.704812 64.1793L-0.518837 64.4525ZM22.0338 63.1739L23.9284 65.0976C21.6212 61.564 19.2964 58.0459 16.9543 54.5434L16.6637 54.3371C15.3328 53.6706 14.0116 52.9839 12.7001 52.2768C15.8849 55.8142 19 59.4485 22.0454 63.1797L22.0338 63.1739ZM-18.9771 63.1012L-18.1518 64.2781L-18.4337 63.665L-18.9771 63.1012ZM43.5636 62.6392C44.261 62.8329 44.9603 63.0111 45.6616 63.1739C46.176 60.7794 45.8127 56.6734 40.1404 51.9252L36.6534 49.0193L37.6326 50.048L42.0525 54.6741L36.5749 51.4079L35.0348 50.4896C35.6159 51.2452 36.1971 52.0065 36.7783 52.765C39.3766 55.815 41.7909 59.0171 44.0082 62.3544L43.5636 62.6392ZM5.73173 60.4772C6.4369 61.07 7.13916 61.6696 7.83851 62.2759L7.37647 61.4042L5.73173 60.4772ZM39.7917 61.5931C40.4213 61.7868 41.0519 61.967 41.6834 62.1336C39.6183 59.3633 37.5367 56.6095 35.4387 53.8721C34.811 53.1321 34.1746 52.4037 33.5295 51.6869L28.7377 46.68L28.5721 46.5173C32.2684 51.62 36.0082 56.6453 39.7917 61.5931ZM-2.67792 61.4158C-2.31759 61.5669 -1.96016 61.7064 -1.60273 61.8749L-7.70511 54.5463C-5.99645 56.8419 -4.32072 59.1318 -2.67792 61.4158ZM7.07717 57.1732L12.7989 61.009C10.2184 56.9291 7.7 52.7882 5.24355 48.5863L3.59299 46.9183C2.54494 46.25 1.49882 45.5671 0.454635 44.8696L7.07717 57.1732ZM8.67541 60.143L9.05317 60.3581L8.47199 59.7536L8.67541 60.143ZM30.8939 58.6261C32.3197 59.1589 33.7542 59.6665 35.1975 60.1488C32.2219 57.4231 29.2249 54.7255 26.2067 52.0559C27.34 53.5941 28.4587 55.1517 29.563 56.7286L30.8939 58.6261ZM22.9404 55.3686C24.5038 56.068 26.0769 56.7363 27.6596 57.3737C24.6956 54.9153 21.6977 52.5092 18.6659 50.1555C20.113 51.8583 21.5379 53.596 22.9404 55.3686ZM20.8337 45.044C25.1576 48.781 29.4448 52.5741 33.6951 56.4235C30.5394 52.2022 27.4155 47.9266 24.3236 43.5969C20.2108 40.8014 16.1552 37.8684 12.1567 34.7978C15.1265 38.0912 18.0188 41.5066 20.8337 45.044ZM18.4189 53.2502L19.3633 53.7094C18.0363 52.0956 16.6918 50.511 15.3299 48.9553C16.0719 50.0557 16.8119 51.1599 17.55 52.2681C17.8387 52.5974 18.1283 52.9248 18.4189 53.2502ZM12.7756 43.5155C16.6501 46.3575 20.4714 49.2915 24.2394 52.3175C22.707 50.2562 21.1514 48.2327 19.5725 46.247C14.8611 42.1788 10.1148 38.1919 5.33363 34.2864C6.5328 36.0299 7.73099 37.7735 8.92822 39.517C10.2262 40.8266 11.5087 42.1594 12.7756 43.5155ZM6.67325 45.7153C8.76743 46.9416 10.819 48.2163 12.8279 49.5394C9.89104 46.1938 6.9619 42.8297 4.0405 39.4473C0.702606 37.1361 -2.66629 34.9005 -6.06619 32.7405L-3.83447 36.8872L1.78553 42.5972L-0.829773 38.0117L3.89812 42.8501C4.83188 43.7993 5.75886 44.7583 6.67906 45.7269L6.67325 45.7153ZM42.5291 41.0891L43.4822 41.8446C33.8201 27.135 22.5917 14.5089 10.0441 4.28595L10.7531 3.37059C7.31255 0.912204 3.871 -1.50937 0.428482 -3.89414L8.69575 7.09013L9.52103 7.84567C8.90498 6.9274 8.30054 6.00042 7.71937 5.05891L3.68599 -1.47644L9.08804 3.99536C16.5387 11.5216 23.8761 19.3966 31.0217 27.5505L35.2818 31.4531L34.8604 31.9733C37.4467 34.9838 40.0048 38.0263 42.5349 41.1007L42.5291 41.0891ZM-21.0373 37.4858C-19.9234 38.8419 -18.825 40.2038 -17.7421 41.5715L-17.219 41.1966L-21.0373 37.4858ZM22.8794 37.942C23.0392 38.1134 23.1962 38.2791 23.3531 38.4505L23.0305 38.0495L22.8794 37.942ZM1.7652 29.1575C5.54092 32.1874 9.29533 35.2695 13.0284 38.404C9.20815 34.022 5.26195 29.8462 1.18983 25.8767C-0.00158715 24.85 -1.18623 23.8155 -2.36408 22.7732L-3.01791 22.349C-1.41967 24.6078 0.174705 26.8773 1.7652 29.1575ZM28.5139 33.4175C30.9239 35.0274 33.361 36.553 35.8252 37.9943L26.2532 30.4157L28.5139 33.4175ZM22.0977 24.8945L35.8019 35.7597C34.4458 34.1556 33.0772 32.5613 31.6959 30.9766C25.6211 26.434 20.0853 21.2122 15.1962 15.4126L14.4378 14.7152L22.0977 24.8945ZM-7.73998 29.6253C-5.24092 31.1751 -2.75444 32.7724 -0.280556 34.4171C-1.63664 32.8305 -2.99272 31.243 -4.34881 29.6544C-6.29769 28.0193 -8.27467 26.4405 -10.2797 24.9178L-7.73998 29.6253ZM-3.11089 28.4049C-1.17363 30.038 0.741348 31.7195 2.63406 33.4495C1.91727 32.4111 1.19951 31.3815 0.480789 30.3605C-1.49135 28.7778 -3.46832 27.2076 -5.45014 25.6501L-3.11089 28.4049ZM-10.8783 29.7416L-8.20492 32.4557L-9.07669 30.8603C-9.66077 30.4826 -10.2623 30.1106 -10.8783 29.7416ZM19.6335 26.9984C21.0535 28.1026 22.4871 29.1788 23.9342 30.2269L20.8395 26.1208L10.4654 17.8942L19.6335 26.9984ZM12.2526 26.3271L12.4967 26.5306C11.096 24.4538 9.70506 22.3664 8.32379 20.2684C7.51595 19.3172 6.70618 18.3698 5.89447 17.4264C4.643 16.2214 3.40315 14.999 2.17493 13.7592L2.46551 13.4686C-0.0509874 10.5704 -2.57912 7.70328 -5.11887 4.86713L-11.9158 -1.88326C-4.03497 7.74686 4.02016 17.1503 12.2497 26.3271L12.2526 26.3271ZM4.18289 10.6789L16.6782 20.5909L7.39972 8.26702L-3.7037 -1.90361C-1.11164 2.3235 1.51722 6.51767 4.18289 10.6789ZM16.4632 14.2067L16.9601 14.6629L15.9837 13.6284L16.4632 14.2067Z"
                  fill="#1D1D1B"/>
        </g>
        <g opacity="0.42">
            <path d="M24.2819 244.74L19.031 240.346C15.1313 237.085 11.3187 233.656 7.59338 230.056C9.22649 232.059 10.8644 234.048 12.5072 236.022L17.1392 241.604L11.3274 237.28C3.57635 231.469 -3.46454 224.767 -9.6502 217.311C-8.65804 218.971 -7.56633 220.569 -6.38107 222.097L-7.68581 223.259C-13.0734 217.813 -18.7603 212.671 -24.7202 207.858C-26.8182 207.021 -28.9221 206.194 -31.0318 205.376C-30.5552 206.478 -30.099 207.472 -29.6689 208.282C-29.5381 208.529 -29.4103 208.776 -29.2824 209.026C-24.0925 213.466 -19.7249 219.078 -18.8677 227.604L-18.5771 230.367L-20.3846 228.257C-23.6159 224.48 -26.1964 219.191 -28.7099 214.071C-29.3783 212.708 -30.0147 211.406 -30.654 210.151C-33.0455 208.117 -35.6173 206.344 -38.0815 204.63C-40.0284 203.284 -41.8591 202.014 -43.5503 200.675L-47.6186 197.458L-42.7309 199.169C-39.8831 200.167 -37.0344 201.204 -34.1847 202.282L-34.7077 201.018C-34.8356 200.692 -34.9692 200.367 -35.1 200.035C-36.7273 198.974 -38.3401 197.877 -39.9383 196.746L-38.9532 195.293C-38.0698 195.874 -37.1884 196.463 -36.3089 197.06C-38.3953 192.038 -40.7578 186.968 -43.068 185.102L-41.9753 183.742C-34.7765 189.527 -27.7113 195.629 -20.7798 202.049C-21.9305 200.236 -23.0502 198.39 -24.139 196.51C-26.1828 195.253 -28.2411 194.043 -30.314 192.881L-29.48 191.35C-28.3177 191.962 -27.1611 192.58 -26.0104 193.204C-27.3471 190.767 -28.6296 188.274 -29.8578 185.727L-30.9039 183.556L-29.0761 184.387C-30.7751 180.865 -32.3762 177.257 -33.8795 173.563L-35.2279 170.253L-32.508 172.578C-26.3416 177.835 -20.2577 183.295 -14.256 188.958C-16.9682 184.605 -19.5021 180.058 -21.8579 175.318L-23.2498 172.508L-20.6083 174.196C-19.6203 174.83 -18.6342 175.467 -17.6501 176.108C-20.556 170.75 -23.2972 165.223 -25.8738 159.527L-28.7099 153.259L-24.4005 158.623C-15.8068 169.317 -6.99227 179.772 2.04312 189.987C4.023 191.486 5.99126 193.008 7.94789 194.552L6.1288 192.169L7.39868 192.829C6.47073 191.184 5.56797 189.514 4.69039 187.819C3.67526 187.102 2.66498 186.368 1.65954 185.616L2.64464 184.178L2.98463 184.393C2.48675 183.374 2.00244 182.346 1.53168 181.31C-4.94834 169.397 -10.3216 156.916 -14.5205 144.021L-15.2092 141.923L31.4798 167.495L21.3092 151.286C20.5653 150.391 19.8291 149.485 19.1007 148.569L14.1607 142.359L20.327 147.349C23.1709 149.652 26.0003 151.999 28.8151 154.39C28.077 152.646 27.3515 150.889 26.6386 149.118L28.1874 148.334C29.8942 151.088 31.6271 153.813 33.3861 156.508L33.7638 155.927L33.4471 155.447L33.8539 155.787L33.9585 155.63C30.2196 150.336 26.5098 145.017 22.829 139.674L24.1947 138.596C28.6756 143.583 33.2098 148.514 37.7972 153.39L34.4903 148.113L35.9433 147.157C39.1746 151.874 42.3711 156.656 45.5327 161.503L46.3173 162.314L46.913 162.645C43.2995 157.221 40.1351 151.51 37.4514 145.57L36.6523 143.827L38.4975 144.387L39.2269 144.611C38.0975 143.571 36.971 142.523 35.8474 141.467L37.0097 140.177C38.4646 141.45 39.8943 142.775 41.2988 144.152C41.8509 144.655 42.4002 145.155 42.9523 145.652C41.1506 142.614 39.3422 139.587 37.527 136.571C31.2328 128.392 24.4844 120.137 17.2816 111.807L18.5486 110.612L49.9322 141.153L56.5867 144.934L54.7938 141.604L54.6747 141.479L54.7589 141.534L48.0754 129.129L47.9097 129.009L47.962 128.919L45.5124 124.363L29.3265 107.913L34.9524 111.188C36.661 112.181 38.3668 113.196 40.0696 114.23L35.2894 105.341L38.3755 107.581C39.1543 108.163 39.9272 108.718 40.7002 109.299L38.7126 106.928L33.6621 100.889L39.9127 105.675C42.5203 107.672 45.122 109.695 47.7179 111.743C46.3793 109.842 45.0377 107.95 43.6933 106.065L41.1971 102.563L40.9269 102.304L42.0892 101.008C44.9409 103.403 47.7412 105.895 50.4902 108.485C56.2351 112.263 62.1283 116.256 67.8877 120.716L66.3302 119.016C57.942 112.569 50.0211 105.535 42.6268 97.9687L43.8095 96.6902L54.0906 105.286C45.0997 94.9737 36.3259 84.3847 27.769 73.5186L29.0679 72.3562L40.1394 83.355L40.4852 83.0034C43.4318 85.6071 46.3125 88.3192 49.1273 91.1399C46.8568 87.5095 44.6164 83.8558 42.406 80.1789L39.2938 75.0122L52.4313 87.0542L43.2952 74.9134L47.7441 77.9994C67.664 91.8083 88.261 106.088 106.426 124.494L105.24 125.769C95.3601 117.383 85.2272 109.206 75.0188 101.34C83.9411 110.583 91.8332 120.768 98.5565 131.715L101.172 135.955L94.4941 130.695L93.2039 130.038C89.5231 128.157 85.8975 126.106 82.3271 123.883L86.5116 129.442L85.2011 130.587L76.4834 121.934C77.9228 123.633 79.3437 125.358 80.7463 127.109L81.9087 128.562L92.027 137.024C93.5352 138.288 95.6187 140.325 96.967 142.871C98.42 145.62 98.7367 148.334 97.8707 150.932L97.6179 151.69L96.8421 151.504C94.9416 151.051 93.0508 150.557 91.1698 150.022L90.42 150.705L88.9903 149.38C87.1151 148.808 85.2534 148.198 83.4052 147.549L84.1026 148.546L82.5422 147.241C80.3221 146.445 78.1194 145.588 75.9342 144.669C76.3216 145.183 76.7091 145.698 77.0965 146.215C84.6123 152.739 91.3352 160.123 97.1268 168.216L99.4516 171.465L87.7059 164.752L90.4898 167.579L84.5792 163.607C88.1593 169.225 91.6996 174.865 95.2002 180.528L93.727 181.458C88.8334 173.831 83.6997 166.485 78.3257 159.42L77.8898 159.129L70.4856 154.895C71.0435 155.736 71.6054 156.573 72.171 157.406C76.6267 162.334 81.0001 167.38 85.2912 172.543L88.1186 175.951L87.0347 175.37C89.9038 178.414 92.6653 181.634 95.3194 185.032L98.295 188.842L94.1745 186.311C90.7513 184.207 87.3504 182.031 83.9719 179.784C83.8396 180.014 83.6795 180.227 83.4953 180.418L83.1059 180.822L82.5741 180.633C81.5919 180.284 80.6097 179.927 79.6276 179.56L81.8389 181.682L78.9505 181.133L78.3228 181.013C84.6925 187.848 90.9208 194.873 97.0077 202.087L99.8729 205.484L95.9383 203.424C88.7687 199.623 81.8396 195.385 75.1903 190.734C75.2338 190.815 75.2774 190.896 75.3239 190.978L77.9131 195.746L73.9727 192.033C73.1222 191.234 72.2718 190.431 71.4213 189.624L71.308 189.594L71.2876 189.594L72.9266 192.256C76.774 196.325 80.479 200.611 84.0416 205.115C89.9638 209.45 95.7843 213.987 101.503 218.723L100.469 220.124C96.5213 217.539 92.7113 214.751 89.0543 211.769C90.7978 214.172 92.4939 216.63 94.1425 219.145L95.3862 221.033L93.1952 220.452C85.2621 218.399 77.4065 215.984 69.6284 213.208C71.7303 216.511 73.8565 219.777 76.0068 223.006L74.6033 224.041L69.3233 217.564L67.4228 216.921C66.7457 216.692 66.0658 216.454 65.3887 216.21C68.8913 221.028 72.5149 225.693 76.2596 230.207L74.9723 231.37C73.6162 230.027 72.2902 228.652 70.9941 227.243L79.1771 240.302L73.7751 234.781L74.5219 236.066L72.9527 236.019C64.6093 235.766 56.3636 234.149 48.5432 231.23L52.0884 236.127L47.9214 233.273C45.3138 231.479 42.7508 229.599 40.2324 227.633C39.8081 227.42 39.3867 227.203 38.9654 226.985C37.803 226.38 36.6533 225.748 35.5161 225.087C37.9809 228.125 39.868 231.589 41.0838 235.307L41.5575 236.76L40.0609 236.417C33.0868 234.828 26.5049 231.704 20.3357 227.667L20.019 228.042L16.4767 225.009C16.2733 224.86 16.067 224.718 15.8665 224.558C18.3849 227.881 20.8065 231.342 23.1312 234.944L24.7701 237.492L22.0269 236.202C19.8959 235.204 17.7998 234.123 15.7386 232.959C17.2884 234.999 18.813 237.069 20.3125 239.169L24.2819 244.74ZM21.6666 226.467C27.1094 229.983 32.8543 232.762 38.9073 234.357C37.1637 229.798 34.5659 226.267 31.5147 223.163L31.0672 223.62C30.2477 222.845 29.437 222.048 28.6349 221.231L28.5855 221.231L27.8533 221.827L27.2721 221.155C25.3116 221.031 23.3569 220.859 21.408 220.638C22.1926 221.399 22.9743 222.167 23.753 222.94L22.6604 224.285C20.4113 222.809 18.1524 221.344 15.8839 219.891L15.8548 219.891C16.8932 221.054 17.9248 222.216 18.9496 223.378L21.6666 226.467ZM46.6573 228.624C54.533 231.879 62.9053 233.769 71.4155 234.214C70.2531 232.3 69.0559 230.444 67.8238 228.644C61.5703 222.154 55.3566 215.561 49.1825 208.863C48.6207 208.555 48.0618 208.243 47.5058 207.925L48.6682 208.968L44.8469 207.78C43.4579 207.346 42.0737 206.889 40.6944 206.411C46.3396 214.189 52.1368 221.733 58.0862 229.042L56.8512 230.262C49.7201 224.294 42.4728 218.238 35.0337 212.571L46.6573 228.624ZM8.36053 228.371C10.2978 230.248 12.2544 232.08 14.2304 233.866C13.3819 232.75 12.5285 231.642 11.6703 230.541C10.5545 229.844 9.44927 229.119 8.35472 228.368L8.36053 228.371ZM12.8559 229.242C15.1671 230.684 17.5189 232.018 19.9115 233.244C16.7288 228.484 13.2859 223.903 9.59844 219.522C9.20615 219.182 8.81385 218.842 8.43608 218.496C7.54688 218.299 6.66058 218.095 5.77428 217.878L6.79135 218.877L9.8222 221.885L5.85565 220.307L5.41686 220.133C7.93724 223.081 10.415 226.112 12.8501 229.225L12.8559 229.242ZM41.1739 226.154C41.9497 226.54 42.7343 226.915 43.516 227.275L31.6629 210.898L31.2444 210.7C33.2902 213.771 35.2904 216.891 37.2451 220.06L38.0529 221.373L36.5128 221.391L35.4028 221.391C37.2974 223.03 39.2192 224.611 41.1681 226.136L41.1739 226.154ZM57.2115 212.897C61.308 217.18 65.0861 221.756 68.5154 226.589L63.2354 218.162C62.2125 216.86 61.2061 215.535 60.2162 214.187C59.2088 213.771 58.2053 213.335 57.2057 212.879L57.2115 212.897ZM-0.325185 219.467C2.37012 221.812 5.18277 224.018 8.1019 226.078C6.05422 223.565 3.9765 221.106 1.86876 218.7C0.351886 218.086 -1.16499 217.469 -2.68186 216.849C-1.90308 217.724 -1.11752 218.591 -0.325185 219.45L-0.325185 219.467ZM-26.9664 213.731C-25.1589 217.418 -23.3021 221.173 -21.2127 224.3C-22.2647 220.022 -24.3598 216.608 -26.9664 213.713L-26.9664 213.731ZM47.7586 220.461C48.9617 221.431 50.1579 222.409 51.3474 223.393C49.0808 220.508 46.8336 217.585 44.6057 214.623L48.055 220.234L47.7586 220.461ZM33.3919 219.665C33.9091 219.665 34.4264 219.665 34.9407 219.665C32.7361 216.125 30.4724 212.648 28.1497 209.232C24.9183 207.683 21.6976 206.073 18.4876 204.403L18.537 204.47C22.9273 208.017 27.0999 211.826 31.0323 215.875L30.2623 216.788C31.2909 217.758 32.34 218.712 33.3919 219.647L33.3919 219.665ZM30.239 219.577L30.7098 219.598C28.5361 217.608 26.4003 215.556 24.3023 213.44L23.4537 212.888L23.8693 213.469C24.6442 214.388 25.4365 215.289 26.2463 216.175C27.5946 217.273 28.9313 218.389 30.239 219.56L30.239 219.577ZM19.3041 218.642C21.4041 218.917 23.5109 219.138 25.6244 219.304C24.7372 218.299 23.847 217.296 22.9539 216.297C20.7978 214.493 18.7026 212.583 16.6685 210.566C15.0371 209.115 13.4987 207.562 12.0626 205.917C8.27916 203.73 4.45888 201.649 0.601794 199.675C1.50262 201.285 2.43154 202.867 3.38855 204.42C8.80707 208.932 14.1123 213.667 19.3041 218.624L19.3041 218.642ZM-3.94302 218.552L-3.77157 218.729C-3.79252 218.706 -3.81194 218.682 -3.82969 218.656L-3.94302 218.552ZM68.1231 210.834C75.8102 213.647 83.5796 216.106 91.4313 218.212C88.6649 214.111 85.789 210.165 82.8037 206.376C81.6413 205.522 80.4703 204.677 79.2905 203.842C80.8248 205.564 82.3484 207.3 83.8614 209.049L86.1658 211.708L82.888 210.433C79.2397 209.01 75.6744 207.383 72.2088 205.559L73.2113 207.347L76.6606 213.513L71.8165 208.369C69.8638 206.295 67.9265 204.188 66.0047 202.049C64.1585 200.924 62.3336 199.741 60.53 198.501C63.0233 202.655 65.5485 206.76 68.1057 210.816L68.1231 210.834ZM11.4204 215.007C12.9547 215.975 14.4852 216.944 16.0117 217.912C12.9509 215.045 9.85126 212.25 6.71289 209.526C7.00348 209.965 7.31441 210.398 7.61953 210.831C7.77645 211.025 7.93627 211.22 8.0961 211.412C9.20033 212.603 10.3084 213.802 11.4204 215.007ZM-19.4169 209.985C-16.9566 212.083 -14.535 214.251 -12.1522 216.489C-12.9271 215.065 -13.6594 213.588 -14.349 212.06L-19.4169 209.985ZM38.4104 212.981C39.8439 214.095 41.2698 215.218 42.6878 216.349C39.9389 213.057 37.0911 209.907 34.1765 206.873L34.4671 207.21L33.389 208.114C34.5513 209.204 35.6992 210.308 36.8325 211.424L38.4104 212.981ZM3.18513 215.399C4.0569 215.631 4.90251 215.852 5.76557 216.067C5.02941 215.381 4.30003 214.688 3.57743 213.987L-3.44321 207.992C-5.15769 206.975 -6.8741 205.967 -8.59245 204.97C-8.10136 205.461 -7.60735 205.958 -7.11916 206.454C-3.60303 209.271 -0.168267 212.253 3.18513 215.399ZM63.558 213.655C64.0752 213.849 64.5944 214.043 65.1155 214.236C63.9842 212.859 62.8296 211.52 61.6517 210.22L60.9833 209.959C61.8357 211.209 62.6939 212.444 63.558 213.664L63.558 213.655ZM-6.61063 212.31C-5.29717 212.781 -3.97886 213.23 -2.65571 213.658C-4.50967 211.647 -6.38784 209.673 -8.29024 207.736C-9.84005 206.502 -11.3976 205.299 -12.9629 204.127C-10.859 206.874 -8.74162 209.604 -6.61063 212.319L-6.61063 212.31ZM53.5646 209.192C55.1144 209.967 56.67 210.711 58.2315 211.424C57.4081 210.261 56.5984 209.075 55.8021 207.864C53.5239 206.915 51.2534 205.933 48.9907 204.92C50.5347 206.309 52.0594 207.736 53.5646 209.201L53.5646 209.192ZM5.15824 211.13L5.53019 211.36C4.54025 210.325 3.53772 209.313 2.52259 208.323C3.39242 209.276 4.27097 210.212 5.15824 211.13ZM33.5227 203.691C35.7931 205.99 38.021 208.36 40.2062 210.799L36.5855 204.906C35.5597 204.505 34.5426 204.109 33.5227 203.691ZM65.1969 209.735L65.4177 209.819C62.57 205.263 59.7667 200.648 57.0081 195.973C54.5788 194.165 52.1988 192.255 49.8683 190.242L48.9965 189.841L65.1969 209.735ZM-33.6906 198.879C-28.3213 202.348 -22.7124 205.431 -16.9062 208.105C-23.7699 201.534 -30.7857 195.268 -37.9536 189.307C-36.4512 192.14 -35.0274 195.566 -33.6906 198.879ZM79.584 207.178L80.1187 207.411L79.0667 206.216L79.584 207.178ZM70.596 202.703C73.1648 204.138 75.7685 205.455 78.4071 206.652L71.3806 198.364C69.6255 197.185 67.8626 196.022 66.0919 194.877C66.1413 194.959 66.1849 195.04 66.2343 195.121C67.0305 195.842 67.8209 196.575 68.6055 197.321L72.7348 201.247L68.6026 199.213C69.2768 200.377 69.9412 201.541 70.596 202.703ZM-37.5555 202.895C-37.4073 202.994 -37.2649 203.098 -37.1138 203.185C-35.5737 204.252 -33.9929 205.344 -32.4382 206.507C-32.7288 205.865 -33.0194 205.185 -33.31 204.473C-34.7222 203.944 -36.1374 203.418 -37.5555 202.895ZM16.1658 201.218C19.4727 202.962 22.796 204.661 26.1359 206.315L25.8453 205.891C22.0328 203.255 18.1621 200.768 14.2217 198.489C14.8581 199.408 15.509 200.314 16.1658 201.218ZM28.6756 203.807C29.5261 204.561 30.3707 205.321 31.2096 206.088C29.7469 204.411 28.263 202.764 26.7577 201.148L28.6756 203.807ZM44.2367 200.817C47.5087 202.367 50.8021 203.85 54.1167 205.266C53.8261 204.804 53.5355 204.336 53.2449 203.871C49.5641 202.321 45.9337 200.622 42.3537 198.774L44.0594 200.66L44.2367 200.817ZM55.4069 201.544C56.7107 202.717 57.9922 203.933 59.2514 205.19L52.5243 196.923C53.4755 198.479 54.4364 200.019 55.4069 201.544ZM38.8986 203.923C39.7413 204.234 40.5869 204.534 41.4354 204.827L38.7794 202.444C38.1556 202.016 37.5338 201.581 36.9138 201.14C37.5744 202.062 38.236 202.99 38.8986 203.923ZM39.8604 201.073C41.6272 202.287 43.4153 203.45 45.2247 204.56C44.5127 203.781 43.8066 203.005 43.0976 202.235C41.6679 201.557 40.244 200.866 38.8259 200.163L39.8604 201.073ZM-31.9762 203.142C-31.1771 203.45 -30.375 203.758 -29.5788 204.069C-30.5474 203.342 -31.5161 202.627 -32.4847 201.924C-32.3045 202.325 -32.1389 202.732 -31.9762 203.13L-31.9762 203.142ZM-0.862775 196.981C2.86645 198.841 6.56372 200.802 10.229 202.863L10.3685 202.755C8.40799 200.733 6.43683 198.733 4.45501 196.755C1.89589 195.284 -0.649674 193.785 -3.18168 192.256L-2.32735 190.739C-1.85078 190.985 -1.37615 191.237 -0.903458 191.495C-2.47845 189.976 -4.06023 188.472 -5.64878 186.982C-4.16871 190.411 -2.57338 193.744 -0.862775 196.981ZM-6.20671 201.241C-5.69721 201.669 -5.18965 202.1 -4.68402 202.534C-5.20902 201.876 -5.73015 201.208 -6.2474 200.532C-12.1374 195.772 -18.5019 191.63 -25.2403 188.173C-24.7492 189.124 -24.2552 190.062 -23.7496 190.998C-23.0386 191.597 -22.3305 192.202 -21.6254 192.814L-21.5818 192.782C-21.5295 192.852 -21.4772 192.919 -21.4278 192.989C-20.7187 193.602 -20.0184 194.218 -19.3152 194.843C-19.3559 194.572 -19.3966 194.302 -19.4343 194.032L-19.7511 191.756L-7.31386 202.386L-6.20671 201.241ZM30.1547 200.349C31.782 201.078 33.42 201.773 35.0686 202.436L31.9971 197.437C31.0284 196.663 30.0598 195.881 29.0912 195.092C26.0962 193.463 23.1147 191.777 20.1468 190.033L23.7007 194.293C25.8763 196.258 28.0276 198.276 30.1547 200.349ZM11.99 195.238C15.7095 197.272 19.3593 199.483 22.9568 201.843C22.55 201.281 22.1422 200.723 21.7335 200.169C18.5893 197.577 15.387 195.098 12.1266 192.733C11.1831 192.152 10.2426 191.554 9.30494 190.94C9.74664 191.69 10.1864 192.434 10.6242 193.172C11.0834 193.872 11.5367 194.558 11.99 195.238ZM-13.6284 200.062C-12.712 200.581 -11.7977 201.102 -10.8852 201.625L-17.3421 196.104C-17.3072 196.307 -17.2724 196.51 -17.2346 196.711C-16.0257 197.821 -14.8198 198.931 -13.6284 200.062ZM38.884 194.936C43.0627 197.272 47.316 199.39 51.6438 201.291C51.0491 200.547 50.4446 199.815 49.8305 199.097C44.6979 194.98 39.123 191.448 33.2088 188.566C35.0938 190.697 36.9855 192.82 38.884 194.936ZM73.2724 187.261C79.5055 191.738 85.9746 195.877 92.6518 199.66C87.0201 193.093 81.2645 186.683 75.3849 180.429C73.0738 179.955 70.7675 179.447 68.466 178.907C70.1146 181.69 71.7167 184.475 73.2724 187.261ZM75.0333 198.742L75.1205 198.803C75.0798 198.76 75.0333 198.713 74.9927 198.667L75.0333 198.742ZM-6.13116 196.804C-5.35626 197.403 -4.58135 198.005 -3.80645 198.611C-4.20165 198.048 -4.59394 197.475 -4.98624 196.906C-5.6604 196.58 -6.33845 196.259 -7.02036 195.941L-6.13116 196.804ZM33.7755 195.607C34.8536 196.171 35.9404 196.731 37.0243 197.281C35.1335 195.822 33.235 194.401 31.3287 193.018L31.7181 193.657L31.907 193.93L33.7755 195.607ZM58.3332 194.784C59.4762 195.627 60.6288 196.448 61.7912 197.246C61.1374 196.484 60.4806 195.717 59.8297 194.95L57.8828 194.017L58.3332 194.784ZM-3.79773 195.537L-3.50714 195.682C-5.36304 192.023 -7.07557 188.245 -8.64476 184.349C-9.94659 183.431 -11.2552 182.522 -12.5706 181.621C-9.77515 186.415 -6.85085 191.054 -3.79773 195.537ZM20.4607 195.557L20.6002 195.633L18.8566 193.23L18.1795 192.59C18.9428 193.571 19.7032 194.56 20.4607 195.557ZM66.9259 190.414C68.1929 191.743 69.4521 193.08 70.7036 194.424L69.9655 193.07C68.5706 191.445 67.2 189.78 65.8536 188.078L64.639 187.723L66.9259 190.414ZM-9.68216 192.788C-8.74646 193.21 -7.8127 193.638 -6.88088 194.072C-10.0076 189.347 -12.9871 184.457 -15.8194 179.401C-16.819 178.732 -17.8206 178.071 -18.8241 177.416C-16.0772 182.713 -13.0247 187.845 -9.68216 192.788ZM36.0653 183.951C40.1624 186.923 43.9845 190.257 47.4855 193.913C46.6311 192.309 45.7942 190.682 44.9748 189.034L44.042 187.555C41.3899 186.34 38.731 185.139 36.0653 183.951ZM64.1508 191.565C65.2221 192.245 66.2876 192.929 67.3473 193.619L65.6037 191.585C64.3368 190.258 63.064 188.938 61.7854 187.624C62.5855 188.934 63.3739 190.247 64.1508 191.565ZM13.1 191.274C14.2508 191.989 15.4131 192.685 16.5871 193.363C14.5685 190.783 12.5179 188.252 10.4353 185.77C8.08931 183.833 5.70745 181.974 3.28974 180.194C4.52959 182.507 5.79463 184.798 7.08485 187.066C9.10347 188.424 11.1085 189.83 13.1 191.283L13.1 191.274ZM30.3843 185.363C34.9184 187.313 39.2776 189.646 43.4143 192.338C37.9721 187.119 31.7944 182.726 25.0781 179.299C26.843 181.323 28.6117 183.345 30.3843 185.363ZM28.6756 188.708C30.4366 189.871 32.2131 190.999 34.005 192.094C32.4436 190.338 30.888 188.578 29.3382 186.814C28.5323 186.476 27.7235 186.151 26.9118 185.837L28.6756 188.708ZM56.3194 191.344L57.1301 191.73C56.4618 190.922 55.7954 190.11 55.1309 189.292C55.528 189.978 55.9252 190.662 56.3223 191.344L56.3194 191.344ZM-21.6951 187.601L-15.3748 190.301C-20.4679 185.492 -25.6258 180.831 -30.8487 176.317C-29.4926 179.469 -28.0629 182.559 -26.5596 185.587C-23.7932 186.922 -21.0752 188.383 -18.4057 189.969L-21.6951 187.601ZM50.8273 188.763L53.553 190.039C52.7219 188.598 51.8966 187.153 51.0772 185.703C48.642 184.301 46.1972 182.932 43.7427 181.597C43.9461 181.981 44.1495 182.356 44.3558 182.737C46.4597 184.835 48.6168 186.844 50.8273 188.763ZM16.7644 185.977C18.8314 187.236 20.9072 188.472 22.9917 189.685C20.3648 187.207 17.8163 184.61 15.3463 181.894L13.0012 179.319L9.12188 175.832L10.2842 174.53C14.7571 178.495 19.4373 182.22 24.3052 185.689L23.4595 184.396L22.0909 182.292L22.858 182.551L15.9478 171.305L17.3543 170.282C18.9913 172.206 20.6331 174.124 22.2798 176.036C28.9749 178.883 35.672 181.827 42.3711 184.867L39.3257 180.011C38.9189 179.567 38.513 179.121 38.1082 178.671C34.4506 177.245 30.8182 175.755 27.2111 174.199L27.8242 172.569C30.2477 173.344 32.6393 174.216 34.9989 175.184L34.7083 174.87L36.7104 175.908L36.7627 175.931L33.3803 170.535L-12.1638 145.582C-8.88742 155.313 -4.94147 164.806 -0.354245 173.993L0.375133 174.574C2.13417 176.009 3.90386 177.451 5.6842 178.898L8.22686 180.566C9.15093 181.174 10.0769 181.775 11.0049 182.368L7.71833 177.831L9.09281 176.762L16.7644 185.977ZM60.5242 189.301L60.9339 189.554C60.2172 188.349 59.4965 187.145 58.772 185.942L57.8072 185.651C58.7042 186.866 59.6098 188.082 60.5242 189.301ZM54.4218 185.634L54.5497 185.706L53.4193 184.213L53.2479 184.155C53.6392 184.649 54.0315 185.142 54.4247 185.634L54.4218 185.634ZM62.5816 185.291L63.6277 185.605L63.279 185.271C62.8577 185.058 62.4363 184.846 62.0178 184.628L62.5816 185.291ZM-6.91866 183.422C-6.11857 183.986 -5.32332 184.555 -4.53292 185.128C-10.1878 178.613 -15.7613 171.995 -21.2534 165.275C-19.1224 169.682 -16.8772 173.985 -14.5176 178.183C-12.9426 179.235 -11.3734 180.3 -9.81002 181.38L-10.2081 180.386L-7.39232 182.978L-6.91866 183.422ZM67.0334 181.789C67.8587 182.564 68.6811 183.349 69.5005 184.143C68.3866 182.206 67.2514 180.268 66.0948 178.331L65.3218 178.139C65.9108 179.344 66.4823 180.561 67.0363 181.789L67.0334 181.789ZM25.4443 183.44C25.9034 183.6 26.3654 183.768 26.8217 183.937C25.6031 182.538 24.3875 181.142 23.1748 179.749L25.4443 183.44ZM56.0375 183.236L57.3277 183.652L55.6656 182.748L56.0375 183.236ZM84.4339 178.006C86.501 179.387 88.5767 180.743 90.6612 182.074C88.7104 179.761 86.7054 177.54 84.646 175.411L84.0649 175.931C84.3032 176.594 84.4279 177.293 84.4339 177.997L84.4339 178.006ZM51.3067 181.65L51.5973 181.751C51.0859 181.06 50.5754 180.366 50.0659 179.671L49.5632 179.398C50.1444 180.153 50.7255 180.904 51.3067 181.65ZM42.0079 178.305C44.0711 179.08 46.14 179.836 48.2149 180.575L48.0666 180.307C47.3189 179.339 46.5769 178.355 45.8407 177.358L39.8372 174.068C40.5481 175.49 41.2717 176.903 42.0079 178.305ZM76.4107 176.471C78.3906 177.246 80.3744 177.991 82.362 178.706C79.336 176.672 76.3332 174.582 73.3537 172.435L74.5771 174.71L76.4107 176.471ZM67.2252 176.817C69.2419 177.305 71.2634 177.768 73.2898 178.206C72.7086 177.605 72.1478 177.006 71.5724 176.408C69.4957 175.551 67.4247 174.664 65.3596 173.746C65.9834 174.769 66.6033 175.792 67.2194 176.817L67.2252 176.817ZM71.4504 168.896C75.0886 171.569 78.7606 174.161 82.4666 176.672C82.1711 175.753 81.7059 174.897 81.095 174.15C80.6708 173.641 80.2436 173.133 79.8135 172.63L77.0239 169.924C74.5713 168.535 72.1284 167.11 69.6952 165.647L71.4504 168.896ZM64.3106 176.094L64.8307 176.227C64.0694 174.972 63.2945 173.713 62.506 172.45L62.3462 172.377C63.0165 173.601 63.6694 174.84 64.3048 176.094L64.3106 176.094ZM36.5128 172.249L38.8114 175.925C38.2496 174.825 37.6945 173.717 37.1463 172.601L36.5128 172.249ZM59.3241 174.774L59.8907 174.931C58.9357 173.236 57.9777 171.545 57.0168 169.858C55.5639 169.149 54.1167 168.424 52.6754 167.684C53.9153 169.284 55.1919 170.834 56.5054 172.333C57.4508 173.141 58.3903 173.955 59.3241 174.774ZM38.4743 171.337L43.3678 174.019C42.6094 172.979 41.8509 171.927 41.0983 170.875L41.017 170.843C39.8856 170.442 38.7581 170.033 37.6345 169.616C37.9135 170.192 38.1934 170.765 38.4743 171.337ZM63.712 171.096C65.2986 171.82 66.8881 172.525 68.4806 173.211C65.3422 169.991 62.1777 166.822 58.987 163.703C60.6007 166.167 62.1757 168.628 63.712 171.087L63.712 171.096ZM51.0161 170.081C51.7639 170.694 52.5117 171.304 53.2595 171.912L53.1026 171.752C52.3838 171.154 51.6641 170.558 50.9435 169.965C50.9784 170.006 51.0161 170.044 51.0161 170.081ZM69.0327 169.381L70.4856 170.782L70.0991 170.067L68.7828 169.09L69.0327 169.381ZM34.6298 169.221L35.8445 169.887C35.6585 169.503 35.4725 169.117 35.2894 168.724L34.0137 168.236L34.6298 169.221ZM40.4794 166.96C41.016 167.735 41.5555 168.499 42.0979 169.25L41.2698 167.684L40.4794 166.96ZM36.4896 167.196L36.9632 167.367L36.2891 166.772L36.4896 167.196ZM50.2984 164.47C51.9838 165.365 53.677 166.237 55.3779 167.085L45.6025 151.225C44.4401 149.904 43.2613 148.62 42.066 147.375C41.3337 147.115 40.6004 146.866 39.8662 146.628C42.7981 152.875 46.2847 158.846 50.2838 164.47L50.2984 164.47ZM28.2136 159.001L33.1536 166.879L33.418 166.141L34.1736 166.394C33.7551 165.493 33.3377 164.59 32.9211 163.686C31.3229 162.169 29.7518 160.607 28.2078 159.001L28.2136 159.001ZM63.7875 163.101C65.2347 164.227 66.6876 165.34 68.1464 166.44L66.7574 163.854C65.1107 162.839 63.4698 161.809 61.8348 160.765L63.7875 163.101ZM83.1989 160.152L93.2533 165.897C89.8562 161.466 86.1673 157.266 82.2109 153.326C82.9955 154.475 83.7704 155.637 84.5356 156.813L83.1611 157.88C80.4683 154.919 77.7775 151.94 75.0885 148.941C77.0045 151.864 78.9108 154.798 80.8073 157.743L83.1989 160.152ZM34.3799 162.654C35.2865 163.51 36.2009 164.352 37.1231 165.179C36.4005 164.127 35.6817 163.069 34.9669 162.006L33.5139 160.719C33.7784 161.367 34.069 162.009 34.3625 162.66L34.3799 162.654ZM68.0883 162.613C69.3552 163.388 70.627 164.157 71.9037 164.921L67.4519 160.591L66.7254 160.082L68.0883 162.613ZM73.3624 162.82C73.685 163.072 74.0047 163.328 74.3272 163.587C73.1474 161.897 71.9773 160.197 70.8169 158.484C68.5832 156.037 66.3418 153.622 64.0927 151.24L61.0095 149.476L62.4072 152.091C66.1442 155.495 69.7892 159.071 73.3421 162.82L73.3624 162.82ZM58.0455 156.203C60.3876 157.753 62.7443 159.274 65.1155 160.768L63.6161 158.01C61.0066 156.331 58.3506 154.775 55.6481 153.343L58.0455 156.203ZM35.3011 159.37L36.754 160.448L36.7191 160.396L35.0889 157.912L33.6941 156.941C34.2133 157.755 34.7422 158.564 35.2807 159.37L35.3011 159.37ZM28.138 156.392C29.0679 157.386 30.0085 158.364 30.9597 159.327C30.7679 158.894 30.579 158.455 30.3785 158.025L30.0501 157.734C29.4166 157.287 28.7793 156.839 28.138 156.392ZM40.1016 158.772L40.9734 159.283C39.596 157.842 38.2234 156.395 36.8557 154.942L40.1016 158.772ZM56.4211 157.229L57.0197 157.717L56.8512 157.513L56.4211 157.229ZM67.1729 149.859L74.9462 155.064C73.809 153.619 72.6621 152.188 71.5056 150.772L61.1548 140.258C63.1308 143.495 65.1397 146.701 67.1816 149.874L67.1729 149.859ZM52.8265 149.978C55.6045 151.313 58.34 152.779 61.0327 154.375L51.266 144.873C49.6678 143.6 48.0579 142.359 46.4364 141.15L46.8258 140.555L36.9661 130.965L52.8265 149.978ZM50.2519 150.885C51.0965 151.48 51.9441 152.072 52.7945 152.661L51.731 151.388C51.1731 151.12 50.6151 150.861 50.0572 150.609L50.2519 150.885ZM72.8045 149.606L74.7021 151.533C72.3929 148 70.0681 144.48 67.7279 140.976L67.4373 140.77C66.1103 140.107 64.7891 139.42 63.4737 138.709C66.6566 142.243 69.7688 145.875 72.8103 149.606L72.8045 149.606ZM31.7937 149.534L32.6218 150.714L32.3109 150.095C32.1482 149.906 31.9767 149.72 31.8024 149.534L31.7937 149.534ZM94.3343 149.075C95.0336 149.257 95.7339 149.434 96.4352 149.606C96.9496 147.212 96.5834 143.109 90.914 138.358L87.4415 135.452L88.4237 136.481L92.8407 141.11L87.3398 137.835C86.8225 137.527 86.3082 137.219 85.7939 136.905C86.375 137.664 86.9562 138.424 87.5374 139.183C90.1364 142.232 92.5507 145.435 94.7673 148.772L94.3343 149.075ZM56.4937 146.904C57.197 147.501 57.8992 148.101 58.6005 148.706L58.1356 147.834L56.4937 146.904ZM90.5537 148.023C91.1814 148.205 91.811 148.385 92.4426 148.563C90.3774 145.793 88.2968 143.038 86.2007 140.299C85.5711 139.559 84.9337 138.83 84.2886 138.114L79.5026 133.11L79.3341 132.944C83.0323 138.047 86.7751 143.073 90.5624 148.023L90.5537 148.023ZM48.0928 147.84L49.168 148.296L43.0656 140.97C44.7723 143.268 46.4481 145.558 48.0928 147.84ZM57.845 143.6L63.5667 147.433C60.9863 143.349 58.4678 139.207 56.0114 135.007L54.3724 133.342C53.3205 132.674 52.2754 131.99 51.237 131.291L57.845 143.6ZM59.4432 146.573L59.821 146.788L59.2398 146.18L59.4432 146.573ZM81.6617 145.047C83.0914 145.582 84.5269 146.089 85.9682 146.57C82.9887 143.852 79.9908 141.156 76.9745 138.483C78.1078 140.023 79.2275 141.581 80.3337 143.158L81.6617 145.047ZM73.7083 141.793C75.2755 142.49 76.8495 143.157 78.4303 143.795C75.4586 141.338 72.4607 138.934 69.4366 136.582C70.8818 138.289 72.3057 140.028 73.7083 141.798L73.7083 141.793ZM71.6044 131.468C75.9284 135.201 80.2155 138.993 84.4659 142.844C81.3081 138.619 78.1843 134.346 75.0944 130.024C70.9796 127.228 66.924 124.293 62.9274 121.219C65.8933 124.52 68.7857 127.938 71.6044 131.474L71.6044 131.468ZM69.1867 139.674L70.1311 140.133C68.806 138.518 67.4615 136.933 66.0977 135.379C66.8416 136.482 67.5817 137.586 68.3178 138.692L69.1867 139.674ZM63.5434 129.951C67.418 132.791 71.2392 135.724 75.0072 138.75C73.4787 136.693 71.9231 134.67 70.3403 132.683C65.6328 128.614 60.8865 124.626 56.1014 120.719C57.3006 122.463 58.4978 124.206 59.6931 125.95C60.993 127.261 62.2765 128.597 63.5434 129.957L63.5434 129.951ZM57.4411 132.151C59.5352 133.375 61.5868 134.649 63.5957 135.972C60.655 132.619 57.7249 129.251 54.8054 125.868C51.4636 123.561 48.0947 121.325 44.6987 119.161L46.9479 123.317L52.5679 129.027L49.9526 124.441L54.6805 129.277C55.6045 130.222 56.5267 131.179 57.4469 132.148L57.4411 132.151ZM93.3027 127.527L94.2558 128.283C84.5908 113.565 73.3595 100.936 60.8381 90.7011L61.5471 89.7828C58.0968 87.3322 54.6514 84.9164 51.2108 82.5355L59.481 93.5169L60.3063 94.2754C59.6902 93.3571 59.0916 92.4282 58.5104 91.4886L54.4683 84.9503L59.8704 90.4163C67.3211 97.9513 74.6614 105.835 81.807 113.98L86.0641 117.883L85.6428 118.4C88.2213 121.411 90.7746 124.453 93.3027 127.527ZM29.7363 123.924C30.8483 125.29 31.9477 126.652 33.0345 128.01L33.5546 127.638L29.7363 123.924ZM73.6559 124.383L74.1296 124.889L73.8071 124.488L73.6559 124.383ZM52.5359 115.584C56.3078 118.618 60.0631 121.7 63.8021 124.831C59.9837 120.453 56.0375 116.277 51.9635 112.304C50.7682 111.285 49.5806 110.247 48.4008 109.191L47.747 108.764C49.3452 111.033 50.9415 113.306 52.5359 115.584ZM79.2701 119.847C81.6743 121.453 84.1104 122.982 86.5785 124.433L77.0239 116.843L79.2701 119.847ZM72.8685 111.321L86.5697 122.189C85.2137 120.585 83.8459 118.99 82.4666 117.403C76.3903 112.862 70.8534 107.64 65.9641 101.839L65.2056 101.145L72.8685 111.321ZM43.0278 116.052C45.5308 117.602 48.0172 119.199 50.4873 120.844C49.1312 119.259 47.7751 117.672 46.419 116.081C44.4701 114.446 42.4922 112.862 40.4852 111.33L43.0278 116.052ZM47.6569 114.84C49.5942 116.472 51.5092 118.152 53.4019 119.882C52.6832 118.848 51.9654 117.816 51.2486 116.787C49.2745 115.205 47.2985 113.635 45.3206 112.08C46.0965 113.001 46.8781 113.919 47.6569 114.84ZM39.9011 116.165L42.5716 118.882L41.7144 117.284L39.9011 116.165ZM70.413 113.425C71.833 114.529 73.2656 115.606 74.7108 116.654L71.6218 112.548L61.2478 104.321L70.413 113.425ZM63.032 112.754L63.2732 112.957C61.8764 110.877 60.4874 108.789 59.1061 106.695C58.2944 105.742 57.4846 104.795 56.6768 103.853C55.4215 102.656 54.1768 101.433 52.9427 100.183L53.2333 99.8924C50.7149 97.004 48.1868 94.1407 45.6489 91.3026L38.855 84.5522C46.7357 94.1766 54.7909 103.578 63.0204 112.757L63.032 112.754ZM54.9652 97.1115L67.4606 107.026L58.1763 94.6909L47.0757 84.5203C49.662 88.7474 52.2879 92.9454 54.9536 97.1144L54.9652 97.1115ZM67.2426 100.633L67.7395 101.09C67.417 100.744 67.0886 100.398 66.7661 100.055L67.2426 100.633Z"
                  fill="#1D1D1B"/>
        </g>
    </g>
    <g opacity="0.5">
        <path d="M60.9795 14.3102C63.2287 14.0719 65.4342 15.6644 66.0561 17.8932L67.4248 23.705L75.7182 58.8895L89.0069 100.214C89.6403 102.49 88.3908 104.573 86.2172 104.864L46.2641 110.257C44.0178 110.492 41.8122 108.903 41.1875 106.668L28.7212 74.3489L18.2513 24.3385C17.6178 22.0631 18.8644 19.9796 21.038 19.689L27.3932 18.8173C27.7123 18.7925 28.0307 18.872 28.3006 19.0439C28.5706 19.2158 28.7773 19.4708 28.8897 19.7704L29.4099 21.142C29.5196 21.4349 29.7193 21.6855 29.9803 21.8578C30.2414 22.0301 30.5504 22.1152 30.8628 22.1009L53.1133 19.1079C53.2577 19.088 53.3964 19.038 53.5204 18.9612C53.6443 18.8845 53.7508 18.7825 53.833 18.6621C53.9151 18.5416 53.9711 18.4052 53.9973 18.2618C54.0235 18.1183 54.0193 17.971 53.985 17.8293L53.7409 16.4431C53.7076 16.3015 53.7041 16.1544 53.7307 16.0113C53.7573 15.8682 53.8134 15.7322 53.8953 15.6119C53.9773 15.4917 54.0835 15.3898 54.207 15.3128C54.3305 15.2358 54.4686 15.1853 54.6127 15.1646L60.9795 14.3102Z"
              fill="white"/>
    </g>
    <path d="M73.2523 14.2331L72.3881 14.3481L81.1826 80.4355L82.0467 80.3205L73.2523 14.2331Z" fill="#28CE61"/>
    <path d="M77.1448 7.32166L13.885 11.6343L13.9443 12.504L77.2041 8.19141L77.1448 7.32166Z" fill="#28CE61"/>
    <path d="M82.0423 43.3786L81.1896 43.5598L91.9293 94.0862L92.782 93.9049L82.0423 43.3786Z" fill="#28CE61"/>
    <path d="M72.2412 14.2949L72.1221 6.12934L68.9808 2.61902L53.3239 1.3782L53.4139 0.21875L69.5358 1.49734L73.2786 5.67892L73.4036 14.2804L72.2412 14.2949Z"
          fill="#F96432"/>
    <path d="M39.1555 85.1401L39.0509 85.1226L0.748352 79.1336L0.928516 77.9829L39.1236 83.9574L110.87 68.469L76.8769 48.2033L77.4726 47.2065L114 68.9833L39.1555 85.1401Z"
          fill="#F96432"/>
    <path d="M68.3128 27.8423L28.7229 74.3482L33.7966 88.0059L70.9658 38.7452L68.3128 27.8423Z" fill="white"/>
    <path d="M57.5125 34.9571L39.0034 68.5139L39.7668 68.935L58.2759 35.3781L57.5125 34.9571Z" fill="white"/>
    <path d="M57.5125 53.7415L39.0034 87.2983L39.7668 87.7194L58.2759 54.1626L57.5125 53.7415Z" fill="white"/>
    <path d="M56.2355 70.5181L37.7264 104.075L38.4898 104.496L56.9989 70.9392L56.2355 70.5181Z" fill="white"/>
</svg>
