<svg width="106" height="133" viewBox="0 0 106 133" fill="none" xmlns="http://www.w3.org/2000/svg">
    <path d="M79.8496 21.5359C60.4376 19.5376 41.8335 16.2775 24.5797 11.8813L24.8652 10.7737C42.0648 15.1585 60.606 18.3957 79.9609 20.3997L79.8496 21.5359Z"
          fill="#F96432"/>
    <path d="M45.0062 28.8321L43.89 28.5894C45.8883 19.3659 52.2257 9.24025 61.749 0.0766601L62.5398 0.898814C53.1678 9.90825 46.9531 19.8283 45.0062 28.8321Z"
          fill="#F96432"/>
    <path d="M79.3116 91.4271C91.9541 88.9032 99.4051 72.8433 95.954 55.5564C92.5029 38.2694 79.4564 26.3016 66.814 28.8256C54.1715 31.3495 46.7205 47.4093 50.1716 64.6963C53.6228 81.9832 66.6692 93.951 79.3116 91.4271Z"
          fill="#28CE61"/>
    <path d="M95.9081 55.332C95.2656 52.1656 94.2648 49.0827 92.9249 46.1427C85.5027 42.5372 77.5095 41.2355 69.6049 42.8141C61.7002 44.3928 54.8346 48.6577 49.3565 54.841C49.2449 58.0686 49.5035 61.2983 50.1272 64.467C55.751 57.7042 62.9534 53.0254 71.312 51.3582C79.6705 49.6911 88.1176 51.2412 95.9081 55.332Z"
          fill="white"/>
    <mask id="mask0_38_4403" style="mask-type:luminance" maskUnits="userSpaceOnUse" x="49" y="28" width="48"
          height="64">
        <path d="M79.3099 91.4254C91.9524 88.9015 99.4034 72.8416 95.9523 55.5547C92.5011 38.2677 79.4547 26.2999 66.8123 28.8238C54.1698 31.3478 46.7188 47.4076 50.1699 64.6946C53.621 81.9815 66.6675 93.9493 79.3099 91.4254Z"
              fill="white"/>
    </mask>
    <g mask="url(#mask0_38_4403)">
        <path d="M96.7754 34.1081L88.6234 35.7356L95.2875 69.1164L103.44 67.4889L96.7754 34.1081Z" fill="black"/>
    </g>
    <path d="M69.6043 42.815C77.509 41.2363 85.4936 42.5295 92.9244 46.1435C87.4433 34.1538 76.998 26.7944 66.8124 28.8269C56.6268 30.8595 49.8126 41.6731 49.3559 54.8418C54.8341 48.6585 61.7025 44.3908 69.6043 42.815Z"
          fill="#28CE61"/>
    <path d="M95.9536 55.558C95.9393 55.4837 95.9251 55.4067 95.9079 55.3324C88.1174 51.2417 79.6675 49.6887 71.3118 51.3587C62.9561 53.0287 55.7508 57.7047 50.1271 64.4675L50.1699 64.6987C53.6212 81.9839 66.6672 93.9508 79.3078 91.4273C91.9485 88.9037 99.4135 72.846 95.9536 55.558Z"
          fill="#28CE61"/>
    <mask id="mask1_38_4403" style="mask-type:luminance" maskUnits="userSpaceOnUse" x="52" y="32" width="20"
          height="55">
        <path d="M60.1254 32.7695L67.1993 42.23L70.4366 53.8943L71.6584 68.1935L67.8645 78.5875L62.2607 86.5264L52.2978 76.9746L53.4968 36.8204L60.1254 32.7695Z"
              fill="white"/>
    </mask>
    <g mask="url(#mask1_38_4403)">
        <g opacity="0.17">
            <path d="M55.4489 108.462L54.5668 106.997C60.6216 103.023 66.6565 98.9155 72.6142 94.722C66.7026 97.6089 60.5597 99.9962 54.2499 101.859L49.1886 103.352L55.4689 98.9726L56.2026 98.2618C57.8545 96.6574 59.5473 95.1007 61.2811 93.5915L59.2171 94.4108L58.6462 93.2147L53.699 96.5004C49.6367 99.1867 46.3139 99.5264 44.3156 97.4225L43.8274 96.9115L44.2385 96.3406C45.1158 95.1149 46.0122 93.9065 46.9276 92.7151L46.6964 92.2583L47.7955 91.5961C48.4254 90.791 49.0668 89.9946 49.7195 89.2067L47.647 89.9517L50.9185 87.7736C51.6417 86.9191 52.3763 86.076 53.1223 85.2443C47.8326 88.6052 42.207 91.4056 36.3367 93.6001L32.1317 95.1587L41.7007 86.5518C38.0409 87.6823 34.3803 88.7861 30.7186 89.8632L30.2333 88.2589C29.6396 88.5215 29.0429 88.7775 28.4434 89.0268L23.4163 91.1422L27.5585 87.6023C29.6843 85.7867 31.8377 83.9997 34.0187 82.2412C33.9671 82.1222 33.9261 81.999 33.8959 81.8729L33.7932 81.4504L34.0786 81.1193L34.2185 80.9566L32.9339 81.7017L34.484 79.3722C29.4692 81.9281 24.4164 84.3765 19.3255 86.7174L14.6609 88.8584L18.3721 85.3157C22.1688 81.6959 26.1625 78.2874 30.2762 75.0388L26.331 75.9523L29.4711 74.0796C26.9971 75.3223 24.4811 76.4852 21.9233 77.568C17.8753 80.5921 13.756 83.5068 9.5653 86.312L8.54902 84.9389C10.4522 83.3859 12.3991 81.9005 14.3897 80.4827C13.4667 80.8081 12.5408 81.1221 11.6121 81.4247L9.07143 82.2555L10.6558 80.103C13.9787 75.5907 17.4405 71.1887 21.0412 66.8972C19.1514 67.4871 17.2692 68.0933 15.3946 68.7156L14.7808 67.1198L19.6709 64.9674L20.5816 63.8655L20.7643 63.6428C17.7193 64.8227 14.7019 66.0855 11.712 67.431L10.9413 65.9037L11.5664 65.5583L2.53131 68.2817L8.52619 65.0216L9.21131 63.6685C11.7674 58.6337 14.8774 53.8999 18.4834 49.5549L14.1328 51.1934L18.5176 47.7507C20.1981 46.4318 21.9109 45.1539 23.6561 43.9168C24.1757 43.403 24.7038 42.8967 25.2405 42.3981C23.5822 42.9538 21.8503 43.2588 20.102 43.3031L18.4092 43.3402L19.3826 41.9556C22.4205 37.7196 26.0275 33.9223 30.102 30.671L29.9621 30.4426L30.6673 29.9859C29.1447 30.5435 27.6127 31.0649 26.0712 31.5502L22.8083 32.5751L25.2005 30.1315C25.977 29.3436 26.7658 28.5699 27.567 27.8106C26.6631 28.1608 25.7562 28.5052 24.8465 28.844L17.9581 31.3932L24.0757 27.3281C25.4555 26.4127 26.8477 25.5173 28.2522 24.6419L21.5665 27.6564L28.0438 22.8748C32.3684 19.6892 36.9607 16.884 41.7692 14.4905L41.1354 13.1745C45.6268 10.7005 49.9974 8.00276 54.2471 5.08145C55.153 4.07088 56.0551 3.05651 56.9533 2.03833C56.6679 2.08686 56.3824 2.13539 56.1369 2.18963L55.6916 2.28384C51.7692 4.83023 47.4929 6.59444 42.7969 5.42401L40.4617 4.83594L42.6399 3.81681C45.6031 2.42086 49.1115 1.78997 52.5029 1.15338C53.3764 0.990657 54.2157 0.836503 55.0264 0.673785C56.7821 -0.493788 58.4749 -1.8041 60.0992 -3.06302C61.3924 -4.07358 62.6142 -5.02991 63.8246 -5.87205L69.103 -9.55176L64.9694 -4.6274C63.7247 -3.1401 62.4572 -1.65851 61.1812 -0.182626L61.5123 -0.208318C62.5419 -1.05331 63.5886 -1.88022 64.6525 -2.68905L65.7087 -1.3502C65.3918 -1.09328 65.0721 -0.833497 64.7524 -0.579429C67.4786 -0.936267 70.105 -1.46439 71.5066 -2.42928L72.4801 -1.01905C69.6368 0.937369 66.7564 2.85097 63.8389 4.72175L64.7153 5.66666L63.4906 6.80854C64.6991 6.544 65.9124 6.30326 67.1304 6.0863L69.7224 5.63526L68.7204 6.68008C70.6559 6.35845 72.6009 6.09391 74.5554 5.88647L78.0867 5.50109L75.1121 7.44514C71.1555 10.0277 67.1399 12.5427 63.0653 14.9901C65.3091 14.3849 67.57 13.8663 69.848 13.4343L73.1052 12.8177L70.5531 14.9359L69.6225 15.7038C72.7551 15.0187 75.9086 14.4373 79.083 13.9596L85.5689 12.9861L79.5512 15.5925C71.4609 19.0942 63.4192 22.7911 55.4261 26.683C54.7952 27.1397 54.1643 27.5965 53.5277 28.0475L54.2785 27.7678L53.1366 28.864C53.7875 28.7098 54.4384 28.5785 55.0921 28.4301C55.762 27.9124 56.4376 27.4014 57.1189 26.8971L57.8983 27.8877C58.4121 27.7963 58.9231 27.7107 59.4369 27.6307C67.2848 25.7823 75.3022 24.7472 83.3622 24.5419L85.646 24.4849L58.4806 49.6291L68.2722 46.6745C68.9536 46.3661 69.6387 46.0655 70.3276 45.7724L70.4618 46.015L71.9748 45.5583L70.753 46.5517L71.1469 47.2682C69.4056 48.4577 67.6528 49.6348 65.8886 50.7995L67.7698 50.5968L68.041 51.9785C69.9156 51.3105 71.7892 50.6444 73.6619 49.9802L74.3242 51.556C71.3705 53.0195 68.4207 54.5116 65.4746 56.0322L65.743 55.9494L66.2711 57.5794C64.5145 58.1865 62.7541 58.7851 60.9899 59.375C62.6913 58.983 64.4041 58.6566 66.1284 58.3959L68.2665 58.0704L67.7812 58.6899L68.5977 58.2017L69.4969 59.6605C68.5834 60.2429 67.6585 60.8062 66.7221 61.3505C68.0068 60.9946 69.2923 60.6349 70.5788 60.2714C76.6689 57.7821 82.9492 55.0054 89.4199 51.9414L90.2135 53.4601L64.9294 67.9705L61.7892 70.7995L70.9756 68.7128L71.0527 68.6528L71.0813 68.6871L74.2043 67.9791L90.4476 59.0696L84.7724 64.111C84.0264 64.7733 83.2766 65.4327 82.5229 66.0893L88.7062 64.6848L85.5004 67.0941L85.2691 67.2654L85.9742 68.4844C84.7848 69.3389 83.5887 70.1953 82.3859 71.0536L84.0016 70.4627L86.5309 69.5321L86.7307 69.415L86.7507 69.4521L88.749 68.7156L87.119 70.0516L87.6271 70.8681C85.5223 72.2631 83.3841 73.6057 81.2126 74.896C80.0346 75.8476 78.8375 76.8097 77.6214 77.7822C81.1327 75.5269 84.7172 73.4011 88.375 71.4047L89.26 72.8692L85.4518 75.4013C92.0595 72.3068 98.711 69.3484 105.406 66.5261L106.16 68.0619L97.0448 73.1575L97.1875 73.4116C95.6897 74.3632 94.1758 75.2805 92.6457 76.1635C94.2443 75.6935 95.8448 75.2329 97.4473 74.7819L103.442 73.0947L94.5526 78.5187L102.135 75.507L97.413 79.1867C84.1729 89.5207 70.4704 100.206 55.4489 108.462ZM65.0008 96.0608C64.0834 96.489 63.1661 96.9153 62.2488 97.3397C63.2051 96.9743 64.1558 96.6003 65.1035 96.1978L65.0008 96.0608ZM46.0998 96.6888C47.1389 97.2997 48.5177 97.0856 49.8109 96.6089L53.5791 93.3146C51.3919 94.3185 49.1515 95.202 46.8677 95.9609L46.7935 95.7525C46.5565 96.0637 46.3281 96.3777 46.1026 96.6888L46.0998 96.6888ZM68.5292 94.3794L66.4538 95.644C71.9533 93.3037 77.2637 90.5416 82.3374 87.3825C77.7908 89.8014 73.189 92.1337 68.532 94.3794L68.5292 94.3794ZM48.629 93.3117L48.5063 93.4744C50.1049 92.8426 51.7016 92.2032 53.2965 91.5561C53.7161 91.3591 54.1329 91.1621 54.5497 90.9594C52.5704 91.7302 50.5978 92.5143 48.6319 93.3117L48.629 93.3117ZM72.6828 89.0468L69.3827 91.3477C70.9433 90.3219 72.4962 89.376 74.0416 88.5101L72.6828 89.0468ZM44.8466 86.0294L40.2276 90.183C42.1555 89.338 44.0672 88.4159 45.9627 87.4168L45.3918 86.0379C46.5337 85.467 47.6756 84.8961 48.8174 84.3251L46.7878 84.9674L44.8466 86.0294ZM52.9311 88.0591L52.1946 88.9155C52.9558 88.4473 53.7171 87.9715 54.4783 87.4881L54.2557 87.5709L52.9311 88.0591ZM62.9225 84.1738C60.6388 85.6469 58.3474 87.1018 56.0484 88.5387C58.0105 87.7774 59.9784 87.0361 61.9519 86.3148C63.7104 84.9256 65.4899 83.562 67.2902 82.2241C65.8534 82.8959 64.4013 83.5458 62.9339 84.1738L62.9225 84.1738ZM33.6219 86.6831C32.5942 87.1855 31.557 87.6699 30.5102 88.1362C35.7762 86.4804 40.9794 84.6173 46.1198 82.5467L46.3824 82.3354L49.7395 79.3323L49.6767 79.3551C45.7858 81.2963 41.8548 83.1661 37.9153 84.9417L33.265 87.0371L33.6219 86.6831ZM72.4058 86.9943L71.4352 87.7165L71.8834 87.5367L73.562 86.3662L72.4058 86.9943ZM86.4881 85.1473L86.648 85.3728L88.0924 84.2652L87.3274 84.6877L86.4881 85.1473ZM35.3518 83.3574C34.7504 83.8389 34.1509 84.3242 33.5534 84.8133C34.4193 84.3832 35.2757 83.9388 36.1226 83.4801C35.8617 83.4699 35.603 83.4287 35.3518 83.3574ZM85.4918 80.123L78.8318 84.7648L85.1121 82.2697L91.7693 78.2132C89.6739 78.8393 87.5814 79.4759 85.4918 80.123ZM57.0847 83.4801L56.6707 83.9169L57.667 83.2318L57.0847 83.4801ZM66.254 79.1724C64.3508 80.5864 62.4344 81.9748 60.5046 83.3374C61.047 83.1147 61.5875 82.8873 62.1261 82.6551C64.9808 80.8148 67.8155 78.9478 70.6302 77.0542L69.4598 77.4624C68.3979 78.0448 67.3292 78.6148 66.254 79.1724ZM34.2956 74.0882C30.6501 76.8715 27.0875 79.7633 23.659 82.7979C25.6839 81.833 27.7031 80.849 29.7166 79.8461L29.3512 79.9289L31.458 78.9726C33.1309 78.1314 34.7961 77.275 36.4537 76.4033C37.2531 75.231 38.0619 74.0644 38.8802 72.9035C37.3406 73.3202 35.8124 73.7151 34.2956 74.0882ZM91.638 81.5104L90.4076 82.0071L91.3753 81.7216L91.638 81.5104ZM44.1215 76.5832C41.9671 78.1742 39.8432 79.7966 37.7498 81.4504L37.8611 81.4019L39.023 80.8681L41.2411 79.592C42.4229 78.5244 43.6124 77.4662 44.8094 76.4176L44.1215 76.5832ZM81.3325 79.2438C80.478 79.6529 79.6263 80.064 78.7775 80.477L78.7975 80.477L80.9699 79.4379L81.3325 79.2438ZM59.6567 78.4673C58.3683 79.0839 57.0761 79.6881 55.7801 80.28C56.7792 79.9508 57.7765 79.6206 58.7718 79.2894L58.9345 79.1695C59.1743 78.9269 59.4141 78.6899 59.6567 78.4587L59.6567 78.4673ZM55.0664 77.5909L51.8777 80.1458L52.6513 79.8061L58.7718 76.449C57.5367 76.8144 56.3015 77.1922 55.0664 77.5823L55.0664 77.5909ZM19.788 71.1021C17.7041 73.6695 15.6658 76.2749 13.6732 78.9183C14.7237 78.5491 15.7705 78.1685 16.8134 77.7764L18.9658 75.3385C19.0914 75.1958 19.217 75.0531 19.3455 74.9132L17.6013 75.31L19.9821 74.2081C21.2686 72.794 22.6008 71.4162 23.9787 70.0744L19.788 71.1021ZM38.7775 78.296C38.6033 78.493 38.432 78.6899 38.2579 78.8841C38.7603 78.4958 39.2656 78.1047 39.7709 77.7193L38.7775 78.296ZM84.0959 77.9277L84.1158 77.9649C85.2825 77.4072 86.4472 76.8458 87.61 76.2806C86.4377 76.8192 85.2663 77.3654 84.0959 77.9192L84.0959 77.9277ZM55.4489 74.0139C53.2736 75.3461 51.067 76.6241 48.8289 77.8478L49.023 77.7822C50.9432 76.8192 52.8521 75.84 54.7495 74.8447L55.7487 73.9454L55.4489 74.0139ZM76.9677 74.8361C75.6926 75.702 74.4194 76.5699 73.1481 77.4396C74.8476 76.5489 76.5299 75.6268 78.1952 74.6734L79.1686 74.0453L76.9677 74.8361ZM67.0904 74.7276C66.4966 75.2557 65.8971 75.7753 65.2976 76.2863C67.0105 75.4603 68.7328 74.641 70.4647 73.8284C71.6865 72.8768 72.9007 71.911 74.1072 70.9309L69.4027 73.5001C68.6243 73.9036 67.8488 74.3089 67.0761 74.7162L67.0904 74.7276ZM58.3493 73.9112L58.8089 74.6077L58.7061 74.6876C60.969 74.0139 63.2404 73.3716 65.5203 72.7607L66.8335 72.0385L67.8555 71.1963L59.16 73.1575L58.3493 73.9112ZM41.5066 72.1983C40.9356 72.9977 40.3647 73.8008 39.7937 74.6077C40.5911 73.7323 41.3962 72.8625 42.2088 71.9985L41.5066 72.1983ZM54.7895 70.2828C53.5905 71.2477 52.3991 72.224 51.2154 73.2118L51.5009 73.1432C52.6427 72.2069 53.7561 71.2439 54.8409 70.2543L54.7895 70.2828ZM27.3843 69.2323C26.3015 70.2124 25.2462 71.2163 24.2185 72.244L25.76 71.5303L28.3293 68.984L27.3843 69.2323ZM45.4889 71.0422C45.132 71.4105 44.778 71.7816 44.4212 72.1555C45.4717 71.5846 46.5185 71.0032 47.5614 70.4113C46.8534 70.6226 46.1626 70.8309 45.4746 71.0393L45.4889 71.0422ZM39.0058 71.0993L38.9744 71.1193L39.0943 71.0879L39.0058 71.0993ZM74.8152 69.6063L72.246 71.0194L74.7895 70.3742C75.2177 70.0259 75.644 69.6758 76.0684 69.3237L74.8152 69.6063ZM79.7139 68.4872C78.8232 69.2485 77.9268 69.9974 77.0248 70.7339L78.0353 70.2629C79.063 69.5796 80.0812 68.8831 81.0899 68.1732L79.7139 68.4872ZM59.554 68.1104C58.7528 68.9154 57.9373 69.7071 57.1075 70.4855L61.9919 67.6794C62.8788 67.0646 63.759 66.4404 64.6325 65.8067L59.554 68.1104ZM24.0815 65.958C22.97 67.254 21.8729 68.5605 20.79 69.8775L23.5362 68.4501C25.1919 67.5842 26.8591 66.7373 28.5376 65.9094C29.2989 65.2529 30.0744 64.6058 30.8642 63.9682C28.6033 64.6096 26.3424 65.2728 24.0815 65.958ZM47.1218 66.0436C46.6907 66.3291 46.2653 66.6145 45.8314 66.88L47.6071 66.4319C47.9924 66.0465 48.3835 65.6611 48.7718 65.29C48.218 65.5317 47.668 65.7829 47.1218 66.0436ZM65.5089 65.4099L65.6488 65.584L67.6099 64.4593L65.5089 65.4099ZM53.0538 63.5315C52.3801 64.1671 51.714 64.8075 51.0555 65.4527L60.6388 62.6465C61.6493 62.1593 62.6494 61.6502 63.6391 61.1192C63.8218 60.9051 64.0016 60.6882 64.1815 60.4684C60.3921 61.1722 56.6695 62.1969 53.0538 63.5315ZM21.8462 48.2902C17.89 52.6691 14.4698 57.5038 11.6578 62.6922C12.6474 62.3991 13.6285 62.0813 14.601 61.7387C19.7395 58.9925 24.9112 56.2881 30.1163 53.6257L32.3144 50.8566C32.7141 50.3542 33.1166 49.8574 33.522 49.3607C28.2979 51.359 23.1413 53.4791 18.0523 55.721L17.233 54.2251C21.8291 51.1678 26.4908 48.0676 31.0698 44.8218L21.8462 48.2902ZM37.6641 58.9268L29.14 62.6751C30.9099 62.1669 32.6846 61.6712 34.464 61.1878C35.5126 60.4132 36.5793 59.6595 37.6641 58.9268ZM24.4868 59.395C23.8902 59.6805 23.2878 59.9831 22.6855 60.2685C23.2051 60.0573 23.7275 59.8518 24.247 59.6519L24.4868 59.395ZM40.6587 59.0011L39.9365 59.7433L41.5037 59.3465C42.4762 58.4748 43.443 57.5984 44.4041 56.7173C43.1404 57.4481 41.8919 58.2094 40.6587 59.0011ZM29.4968 56.7173C28.943 57.2559 28.3959 57.8011 27.8554 58.353L28.8288 58.0276C29.4435 57.3596 30.0592 56.6935 30.6758 56.0293C30.2857 56.2539 29.8927 56.4794 29.4968 56.7059L29.4968 56.7173ZM48.6918 55.3328C47.9382 56.1892 47.1874 57.0741 46.4423 57.9534L47.3501 57.5937L50.1135 55.0387L48.6918 55.3328ZM53.1223 54.5877L51.6465 55.9522L52.1061 55.781L52.1289 55.7553C52.46 55.3527 52.7883 54.9645 53.1223 54.5763L53.1223 54.5877ZM41.3124 49.9288C39.2723 51.792 37.2892 53.718 35.3632 55.7067C38.475 53.5327 41.4207 51.13 44.1757 48.5186L41.3124 49.9288ZM44.5325 52.5466C43.3107 53.3611 42.0632 54.1319 40.79 54.8589L41.8177 54.6591L42.7798 54.3736C43.3659 53.7646 43.9502 53.1518 44.5325 52.5352L44.5325 52.5466ZM56.077 42.7978C52.7998 46.3338 49.4826 49.8546 46.1255 53.3602L48.1009 52.7635L49.1115 52.2554C50.9804 50.1391 52.8749 48.0542 54.7952 46.0007L56.0855 47.1226C55.2957 48.1085 54.485 49.0743 53.6533 50.0202L54.3013 49.7004L52.4857 51.4418L54.7267 50.7681L81.1098 26.3404C75.4371 26.5914 69.7905 27.2593 64.2157 28.3387L63.7276 28.6756C62.4525 29.5453 61.1716 30.416 59.8851 31.2876L58.2437 32.6208L57.9582 32.8663L59.2057 32.3952L59.888 34.0167L62.1575 32.8748L60.1592 34.4592L60.6245 35.1986C57.6899 37.0484 54.8352 39.0067 52.0604 41.0735L53.719 40.5397L53.3079 41.0421L59.9194 39.1152L60.5189 40.7138C59.0306 41.4085 57.55 42.0993 56.077 42.7864L56.077 42.7978ZM57.2188 51.8015L57.413 51.9671L58.3579 51.8186C58.7889 51.5646 59.2143 51.3162 59.6539 51.0678L57.2188 51.8015ZM48.8146 46.2605C47.5109 47.665 46.1559 49.0191 44.7495 50.3228C47.0695 48.7074 49.28 46.9402 51.3667 45.033L48.8146 46.2605ZM36.6364 45.6953L35.7515 46.152L36.3824 45.9693L36.6364 45.6953ZM36.1483 43.814C35.3147 44.3079 34.4811 44.7904 33.6419 45.2699L32.8397 45.7238C33.9816 45.1529 35.1082 44.5696 36.2197 43.9739L36.1483 43.814ZM47.6499 44.4706C47.2064 44.8284 46.7668 45.1881 46.331 45.5497L47.784 44.8474C47.9553 44.659 48.1295 44.4706 48.2979 44.2765L47.6499 44.4706ZM24.7609 45.2385L24.561 45.4355L27.901 44.1794L27.2759 44.3621L27.8639 43.1146C26.8191 43.8055 25.7848 44.5134 24.7609 45.2385ZM41.3495 43.0861C40.7272 43.737 40.1116 44.3955 39.5026 45.0616L41.6236 44.4449C42.3068 43.9691 42.9939 43.5 43.6847 43.0376C44.9236 41.8805 46.1749 40.7386 47.4386 39.6119L46.4138 40.0772C44.7409 41.103 43.0529 42.106 41.3495 43.0861ZM30.613 41.3362C30.5645 41.4361 30.516 41.5331 30.4703 41.6216C32.6151 40.9708 34.7504 40.2799 36.8762 39.5491C37.8107 38.6128 38.7489 37.6812 39.691 36.7544C37.5804 38.0866 35.427 39.3512 33.2308 40.5483L32.8425 39.9602C32.0946 40.415 31.3514 40.8737 30.613 41.3362ZM32.3829 31.0592C27.3558 34.9045 24.2128 38.3501 21.8776 41.4475C24.3498 41.0964 26.6535 40.16 28.903 38.9182L28.7146 38.5871C29.3598 38.2103 30.0078 37.8392 30.6615 37.4795L30.8157 37.194L30.653 36.8229L31.1354 36.5916C31.6036 35.7257 32.0794 34.8693 32.5628 34.0224L31.9776 34.3336L31.0184 32.9234L33.2593 31.0935L33.0167 30.6881L32.3829 31.0592ZM52.8055 37.1854C52.3687 37.5622 51.9319 37.9391 51.4952 38.3273C52.5571 37.7449 53.6276 37.1816 54.7067 36.6373L56.7364 35.6182L57.9668 34.8531L52.8055 37.1854ZM49.6396 32.1954C48.4749 33.2783 47.2892 34.3383 46.0826 35.3755C47.4814 34.3935 48.865 33.3887 50.2334 32.361L50.9299 31.7729L49.6396 32.1954ZM35.5745 32.2953C34.9731 33.2907 34.3841 34.2974 33.8074 35.3156L34.9151 34.7732C36.5251 33.6979 38.177 32.6855 39.8708 31.7358C41.0811 30.9757 42.3335 30.2847 43.6219 29.6661C45.6259 27.8753 47.5975 26.0521 49.5368 24.1965C48.9259 24.3564 48.3179 24.5277 47.7127 24.7047C43.7351 27.3443 39.6891 29.8698 35.5745 32.281L35.5745 32.2953ZM51.301 33.6998L50.6901 34.2251C51.8967 33.7017 53.0985 33.167 54.2956 32.6208C55.6088 31.7377 56.9067 30.8309 58.1894 29.9002C57.2226 30.1286 56.2568 30.3646 55.2919 30.6082C53.9787 31.6492 52.6485 32.675 51.301 33.6856L51.301 33.6998ZM45.3062 33.7398L44.8608 34.1623L45.3832 33.7084L45.3062 33.7398ZM32.2516 25.9236C31.1763 26.8371 30.122 27.7754 29.0886 28.7384C31.0755 28.0342 33.0395 27.2682 34.9807 26.4403L37.4814 23.6399C35.7572 24.4278 34.0139 25.189 32.2516 25.9236ZM52.8055 23.3886C51.2525 24.9112 49.6777 26.4156 48.0809 27.9019C48.9316 27.4338 49.7804 26.9637 50.6273 26.4917C51.9234 25.327 53.228 24.1737 54.5411 23.0318C53.9683 23.1441 53.3926 23.263 52.814 23.3886L52.8055 23.3886ZM38.649 24.4163L35.3233 26.289C36.0712 25.9674 36.8163 25.6362 37.5585 25.2956C37.844 25.11 38.1294 24.9273 38.4149 24.7446L38.649 24.4163ZM55.6916 22.8177L56.1597 23.3287C56.6251 23.0432 57.0932 22.7835 57.5585 22.5065C56.9419 22.6036 56.3225 22.7073 55.7001 22.8177L55.6916 22.8177ZM42.2745 22.3296L42.1517 22.4951L42.2316 22.4495L44.3613 21.0621C43.678 21.4903 42.9862 21.9175 42.2859 22.3438L42.2745 22.3296ZM41.321 19.2208C40.1277 19.982 38.9535 20.7766 37.7983 21.6045C38.6623 21.2048 39.5244 20.7985 40.3847 20.3855L41.5265 19.1152L41.321 19.2208ZM65.1549 19.9402L63.4706 20.9622C66.4357 19.5786 69.4094 18.2197 72.3916 16.8856C70.4447 17.2777 68.5082 17.7097 66.5823 18.1817C65.8077 18.7983 65.0312 19.413 64.2528 20.0258L65.1549 19.9402ZM62.4629 19.2636C60.7063 19.7527 58.9602 20.2742 57.2245 20.828C58.5034 20.6377 59.7871 20.474 61.0755 20.337L62.4629 19.2636ZM57.7298 18.4072L57.1046 19.0581C59.9784 18.1446 62.8826 17.3243 65.8172 16.5973L66.765 15.8323C63.7118 16.5387 60.697 17.4019 57.7327 18.4186L57.7298 18.4072ZM51.9148 18.1845L52.1774 18.6413C54.3204 17.1663 56.4005 15.602 58.4178 13.9482L51.9148 18.1845ZM46.9276 16.5031C46.6422 16.8457 46.3567 17.1854 46.0712 17.5308C47.0989 16.9903 48.1218 16.4422 49.14 15.8865C49.4997 15.6381 49.8594 15.3898 50.2162 15.1357L46.9276 16.5031ZM66.6793 8.76972C64.5859 10.8632 62.4153 12.8491 60.1677 14.7275C63.8294 12.5731 67.4501 10.3484 71.0299 8.05319C69.574 8.26444 68.1181 8.50709 66.6736 8.78114L66.6793 8.76972ZM60.2134 11.3561L61.2268 11.5559C62.0185 10.8556 62.7979 10.1419 63.5648 9.41488L63.0396 9.53193C62.5086 9.8802 61.9748 10.2285 61.4409 10.571L61.4409 10.5967L61.3125 10.6481L60.2134 11.3561ZM49.7281 10.0943C49.1572 10.454 48.5862 10.808 48.0153 11.1591C48.3007 11.1106 48.6033 11.062 48.8974 11.0192L49.7281 10.0943ZM62.2003 1.43599C59.4198 3.71975 56.7478 6.13388 54.1843 8.67837C58.3864 6.17955 62.5238 3.58082 66.5965 0.882178C65.172 1.11626 63.6676 1.28469 62.2003 1.43599ZM61.6607 6.10628C60.6216 6.76286 59.5749 7.41183 58.5206 8.05319C58.9488 7.93615 59.377 7.8191 59.8052 7.70777C60.4313 7.18822 61.0498 6.65439 61.6607 6.10628ZM49.2713 3.53705C48.7004 3.65695 48.1295 3.78541 47.5899 3.92815C48.1582 3.82895 48.7198 3.69452 49.2713 3.52563L49.2713 3.53705Z"
                  fill="#1D1D1B"/>
        </g>
    </g>
    <path d="M49.9229 89.3841C62.5654 86.8602 70.0164 70.8003 66.5653 53.5134C63.1141 36.2265 50.0677 24.2587 37.4252 26.7826C24.7828 29.3065 17.3318 45.3664 20.7829 62.6533C24.234 79.9402 37.2804 91.908 49.9229 89.3841Z"
          fill="#28CE61"/>
    <path d="M66.5194 53.2887C65.8773 50.1231 64.8765 47.0411 63.5362 44.1023C56.114 40.4968 48.1208 39.1922 40.2161 40.7708C32.3115 42.3495 25.4459 46.6087 19.9677 52.7977C19.8562 56.0253 20.1148 59.255 20.7385 62.4238C26.3623 55.661 33.5647 50.9821 41.9232 49.315C50.2818 47.6478 58.7289 49.2008 66.5194 53.2887Z"
          fill="white"/>
    <mask id="mask2_38_4403" style="mask-type:luminance" maskUnits="userSpaceOnUse" x="19" y="26" width="49"
          height="64">
        <path d="M49.9211 89.3824C62.5635 86.8585 70.0146 70.7986 66.5634 53.5117C63.1123 36.2247 50.0659 24.257 37.4234 26.7809C24.781 29.3048 17.3299 45.3647 20.7811 62.6516C24.2322 79.9385 37.2786 91.9063 49.9211 89.3824Z"
              fill="white"/>
    </mask>
    <g mask="url(#mask2_38_4403)">
        <path d="M67.3892 32.0629L57.2188 34.0933L63.8828 67.474L74.0533 65.4436L67.3892 32.0629Z" fill="black"/>
    </g>
    <path d="M40.2155 40.7703C48.1202 39.1917 56.1048 40.4849 63.5356 44.1018C60.227 36.868 55.1056 31.3127 49.3277 28.498C45.5367 26.6481 41.4602 25.9773 37.4236 26.7852C27.2409 28.8177 20.4267 39.6313 19.9671 52.7972C25.4453 46.6082 32.328 42.3461 40.2155 40.7703Z"
          fill="#28CE61"/>
    <path d="M66.5677 53.5128C66.5506 53.4386 66.5363 53.3644 66.5192 53.2873C58.7287 49.1994 50.2817 47.6436 41.9231 49.3136C33.5645 50.9836 26.3621 55.6596 20.7383 62.4224L20.7812 62.6536C24.2325 79.9388 37.2785 91.9057 49.922 89.3822C62.5654 86.8586 70.0105 70.8009 66.5677 53.5128Z"
          fill="#28CE61"/>
    <path d="M33.724 92.7206L12.0054 58.0987L22.5964 30.665L23.3957 30.9733L12.9589 58.0074L34.4491 92.2638L33.724 92.7206Z"
          fill="#28CE61"/>
    <path d="M74.4431 95.6667C71.2801 95.6667 66.9039 94.5248 61.4314 92.2582C57.3749 90.5796 54.1919 88.8782 54.1605 88.8611L54.5658 88.1074C54.6886 88.1731 67.1494 94.8103 74.4431 94.8103C81.6227 94.8103 90.4295 82.2496 90.5208 82.1125L91.2259 82.6007C89.5738 84.9008 87.7501 87.0728 85.7706 89.098C81.4771 93.4571 77.6661 95.6667 74.4431 95.6667Z"
          fill="#28CE61"/>
    <mask id="mask3_38_4403" style="mask-type:luminance" maskUnits="userSpaceOnUse" x="19" y="41" width="47"
          height="49">
        <path d="M65.3829 74.2633C65.2715 74.5802 65.1574 74.8914 65.0375 75.1997L65.0203 75.2396C65.0216 75.2453 65.0216 75.2511 65.0203 75.2568L64.9861 75.3453C64.949 75.4338 64.9147 75.5251 64.8776 75.6136C64.7977 75.8106 64.7177 76.0047 64.6349 76.1845L64.5836 76.3044L64.438 76.6356C64.4273 76.655 64.4178 76.675 64.4094 76.6955C64.3352 76.8582 64.261 77.021 64.1839 77.1837L64.1496 77.255L64.124 77.3093L64.0897 77.3778C63.9527 77.6633 63.8042 77.9487 63.6672 78.2342L63.5873 78.3798C63.4531 78.6339 63.3161 78.8851 63.1733 79.1306C63.1476 79.1791 63.1219 79.2276 63.0934 79.2733C63.0163 79.4075 62.9364 79.5388 62.8565 79.6701L62.8565 79.6873L62.6309 80.0527C62.611 80.0812 62.5938 80.1097 62.5767 80.1383L62.5596 80.1611C62.5424 80.1897 62.5253 80.2211 62.5053 80.2496C62.4283 80.3695 62.3512 80.4894 62.2712 80.6093L62.0143 80.989L61.9144 81.1289C61.7631 81.3487 61.6061 81.5628 61.4462 81.774L61.3321 81.9282C61.1579 82.1594 60.9781 82.385 60.7954 82.6048C60.7697 82.6333 60.7468 82.6647 60.724 82.6933L60.6441 82.7875C60.4614 83.0073 60.273 83.2242 60.0731 83.4326L59.9589 83.5582C59.7877 83.7438 59.6135 83.9265 59.4394 84.1035L59.2909 84.2548C59.094 84.4489 58.8941 84.6402 58.6943 84.8257L58.5116 84.9884C58.3061 85.174 58.0977 85.3567 57.8864 85.5308L57.758 85.6336C57.5696 85.7878 57.3811 85.9362 57.187 86.0789L57.0072 86.216C56.7931 86.373 56.5733 86.5271 56.3535 86.6756L56.1479 86.8126C55.9224 86.9582 55.6969 87.0981 55.4656 87.2379L55.3258 87.3179C55.1202 87.4378 54.9118 87.5548 54.7034 87.6633L54.495 87.7746C54.261 87.8945 54.024 88.0087 53.7842 88.12L53.5587 88.22C53.3275 88.3227 53.0905 88.4226 52.8536 88.5054L52.6823 88.5711C52.4568 88.6567 52.2284 88.7367 51.9972 88.8137L51.7688 88.888C51.5147 88.9679 51.2607 89.0421 51.0037 89.1106L50.7639 89.1706C50.5203 89.2334 50.2748 89.2905 50.0274 89.3419L49.9361 89.3618L49.839 89.379C49.5992 89.4246 49.3594 89.4646 49.1196 89.5017L48.8599 89.5388C48.6058 89.5731 48.3489 89.6016 48.0948 89.6273L47.835 89.6445C47.6266 89.6616 47.4182 89.673 47.2098 89.6816C47.1328 89.6816 47.0557 89.6816 46.9758 89.6816C46.7274 89.6816 46.479 89.6816 46.2307 89.6816L45.9224 89.6816C45.6797 89.6816 45.4342 89.6616 45.1916 89.6416L44.9061 89.6159C44.7262 89.5988 44.5435 89.5816 44.3637 89.5588L44.0497 89.5189C43.8156 89.4846 43.5815 89.4475 43.3474 89.4047L43.0163 89.3419C42.825 89.3047 42.6366 89.2648 42.4453 89.2191L42.2541 89.1791C41.9001 89.0935 41.5461 88.9936 41.1921 88.8937L41.0894 88.8623L40.7068 88.7395L40.4756 88.6624C40.37 88.6282 40.2672 88.5882 40.1644 88.5511L39.879 88.4426L39.6135 88.3399L39.2709 88.2L39.0397 88.1029L38.6629 87.9373L38.463 87.8489L38.0548 87.6519L37.8864 87.5719L37.4468 87.3464L37.3097 87.2751L36.8301 87.0124L36.7388 86.9582C36.5561 86.8554 36.3762 86.7498 36.1993 86.6442L36.1679 86.6242C35.3789 86.1475 34.6165 85.6281 33.8841 85.0684L33.8299 85.0255C33.67 84.9028 33.5073 84.7772 33.3474 84.6487L33.2275 84.5488C33.0905 84.4375 32.942 84.3261 32.8193 84.212L32.7679 84.1691C32.7365 84.1406 32.7051 84.112 32.6708 84.0864L32.274 83.7381L32.1028 83.5868C31.9772 83.4726 31.8515 83.3584 31.7288 83.2414L31.6289 83.15L31.5604 83.0844C31.1436 82.6866 30.7344 82.2755 30.3328 81.8511L30.3043 81.8197C30.1016 81.6056 29.9018 81.3858 29.7048 81.1631L29.6791 81.1346C29.268 80.6721 28.8684 80.1964 28.4801 79.7072L28.4373 79.6501C27.855 78.9136 27.2964 78.1419 26.7616 77.335L26.7188 77.2693C25.9823 76.1542 25.3048 75.0012 24.6891 73.8151C24.0531 72.5789 23.4814 71.3107 22.9763 70.0155C22.9774 70.007 22.9774 69.9984 22.9763 69.9898C22.7222 69.3361 22.4767 68.671 22.2512 67.9915C22.2512 67.9915 22.2512 67.963 22.2369 67.9487C22.137 67.6632 22.0428 67.3549 21.9514 67.0552C21.9286 66.9838 21.9086 66.9125 21.8858 66.844C21.8001 66.5585 21.7174 66.273 21.6346 65.9875L21.6003 65.8676C21.5118 65.5508 21.4262 65.2339 21.3462 64.9113L21.2806 64.6487C21.2206 64.4032 21.1607 64.1605 21.1036 63.9122C21.0836 63.818 21.0608 63.7238 21.0379 63.6267C20.9666 63.3013 20.8952 62.973 20.8295 62.6418C20.5764 61.3686 20.3861 60.105 20.2586 58.8508C20.2586 58.8365 20.2586 58.8194 20.2586 58.8051C20.2272 58.5196 20.2015 58.2542 20.1758 57.9801C20.1758 57.9401 20.1758 57.903 20.1758 57.8659C20.1772 57.8584 20.1772 57.8506 20.1758 57.8431C19.7241 53.2114 20.103 48.5362 21.2949 44.0377C21.2949 44.0377 21.2949 44.0206 21.2949 44.012L21.3377 43.8607C21.4404 43.5039 21.5461 43.1528 21.6603 42.8017L21.6774 42.7446C21.6774 42.7446 21.6774 42.7446 21.6774 42.7274C21.7231 42.5876 21.7687 42.442 21.8173 42.3078C21.8226 42.2855 21.8293 42.2636 21.8372 42.2421C21.8372 42.2136 21.8572 42.185 21.8687 42.1536L21.9714 41.8682C21.9714 41.9253 22.5995 51.5742 22.5995 51.5742C24.8383 53.9813 26.6512 56.7518 27.9606 59.7671C29.2909 62.8474 35.7111 67.7603 35.7111 67.7603C35.7111 67.7603 36.4933 74.2976 38.7828 76.1731C40.4328 77.5262 46.6418 78.0315 46.6418 78.0315C46.6418 78.0315 50.5898 79.9242 53.2076 79.673C61.2093 78.9079 65.2487 74.4175 65.3829 74.2633Z"
              fill="white"/>
    </mask>
    <g mask="url(#mask3_38_4403)">
        <g opacity="0.42">
            <path d="M51.5455 140.609L50.218 139.53C54.5658 133.735 58.8478 127.825 63.0242 121.848C58.4441 126.566 53.4787 130.894 48.1798 134.788L43.9263 137.911L48.3482 131.659L48.7964 130.74C49.807 128.671 50.8708 126.632 51.988 124.622L50.3123 126.095L49.3702 125.162L45.8361 129.935C42.9271 133.857 39.904 135.308 37.3262 134.017L36.6953 133.7L36.8866 133.018C37.2958 131.568 37.7278 130.127 38.1826 128.696L37.8115 128.342L38.6194 127.349C38.941 126.378 39.2731 125.411 39.6157 124.448L37.92 125.853L40.258 122.695C40.65 121.645 41.0554 120.598 41.4741 119.555C37.6382 124.511 33.2976 129.054 28.5223 133.112L25.0967 136.007L31.1857 124.674C28.1293 126.98 25.0615 129.264 21.9822 131.525L20.9802 130.18C20.5101 130.63 20.0343 131.072 19.5528 131.508L15.5306 135.182L18.2225 130.449C19.6061 128.017 21.0249 125.604 22.4789 123.212C22.3905 123.117 22.3103 123.015 22.2391 122.907L21.9993 122.541L22.1506 122.133C22.1763 122.067 22.1991 122.002 22.2248 121.933L21.2714 123.075L21.9365 120.357C18.0979 124.478 14.1803 128.499 10.1837 132.421L6.52398 136.024L8.80774 131.431C11.1515 126.735 13.7492 122.173 16.5154 117.728L13.1183 119.926L15.4478 117.095C13.5332 119.108 11.5549 121.059 9.51285 122.947C6.73618 127.156 3.85388 131.293 0.865962 135.356L-0.561389 134.408C0.700389 132.303 2.03258 130.245 3.43519 128.234C2.67584 128.853 1.91364 129.461 1.15143 130.063L-0.955338 131.705L-0.195987 129.136C1.38552 123.769 3.13926 118.455 5.06523 113.195C3.48943 114.394 1.92601 115.606 0.374954 116.832L-0.746945 115.539L3.12118 111.856L3.60362 110.509C3.63502 110.417 3.66928 110.326 3.70068 110.238C1.23802 112.38 -1.17039 114.593 -3.52457 116.875L-4.76922 115.69L-4.30105 115.15L-11.8746 120.783L-7.35272 115.69L-7.16717 114.186C-6.47147 108.581 -5.15302 103.072 -3.23624 97.7596L-6.77322 100.78L-3.8186 96.0582C-2.67672 94.2426 -1.49963 92.4584 -0.287338 90.7056C0.0295345 90.0434 0.35497 89.3896 0.68897 88.7388C-0.682382 89.8231 -2.20727 90.6976 -3.83573 91.3337L-5.41724 91.9417L-4.96905 90.3088C-3.54828 85.2895 -1.44162 80.4902 1.29131 76.0467L1.08292 75.8812L1.59106 75.2132C0.350212 76.2485 -0.918227 77.259 -2.21426 78.2449L-4.93479 80.3145L-3.50744 77.2058C-3.04498 76.2009 -2.56824 75.2075 -2.08009 74.2197C-2.8128 74.8554 -3.55026 75.4863 -4.29248 76.1124L-9.88485 80.8626L-5.5143 74.962C-4.52847 73.6298 -3.52457 72.3147 -2.50259 71.0168L-7.7638 76.121L-3.28763 69.421C-0.301145 64.9567 3.06566 60.7589 6.7752 56.8746L5.73037 55.8497C9.1132 51.9959 12.3162 47.9622 15.3165 43.7858C15.8246 42.5259 16.328 41.266 16.8266 40.0061C16.5697 40.1489 16.3299 40.2916 16.1129 40.4258L15.7247 40.6656C12.9157 44.3824 9.49002 47.4883 4.65701 47.9736L2.26477 48.2163L3.97759 46.5034C6.28704 44.1997 9.36726 42.4012 12.3447 40.6627C13.1126 40.2145 13.8463 39.7863 14.5543 39.3581C15.8132 37.6738 16.9579 35.8554 18.0541 34.1112C18.9277 32.7209 19.7669 31.4078 20.6062 30.2059L24.3173 24.9504L22.1049 30.9938C21.4388 32.8151 20.7547 34.6374 20.0524 36.4606L20.3379 36.3179C21.023 35.176 21.7253 34.0427 22.4447 32.9179L23.9006 33.8229L23.264 34.8734C25.7047 33.6116 27.997 32.2242 28.9734 30.8368L30.3693 31.8331C28.3691 34.6402 26.3156 37.4236 24.2089 40.1831L25.3507 40.7741L24.5885 42.2756C25.6353 41.6133 26.6944 40.9748 27.7658 40.3601L30.0496 39.0441L29.4729 40.3658C31.1857 39.4143 32.9262 38.5055 34.6942 37.6396L37.8914 36.0895L35.7533 38.9271C32.8986 42.701 29.9754 46.4292 26.9836 50.1118C28.8868 48.7796 30.8365 47.5254 32.8329 46.3493L35.6876 44.6622L34.0062 47.5169C33.8035 47.8651 33.598 48.2106 33.3924 48.556C36.1044 46.8431 38.8735 45.2255 41.6996 43.703L47.4576 40.5885L42.6816 45.0818C36.2624 51.1262 29.9563 57.3342 23.7635 63.7059C23.3239 64.351 22.8843 64.9962 22.4389 65.6357L23.0441 65.0933L22.3419 66.5206C22.9014 66.159 23.4657 65.8022 24.0347 65.4501C24.4877 64.7364 24.9501 64.0266 25.4221 63.3205L26.4898 63.9856C26.9408 63.7287 27.3938 63.4746 27.8486 63.2234C34.6042 58.8233 41.7951 55.1308 49.3074 52.2043L51.4227 51.3821L34.4087 84.254L42.6046 78.1421C43.1412 77.6197 43.6836 77.1058 44.2317 76.5948L44.4401 76.7804L45.7076 75.8355L44.8969 77.1829L45.5164 77.7225C44.2831 79.4353 43.0347 81.1386 41.771 82.8324C42.3419 82.5469 42.9129 82.2757 43.4695 82.0045L44.1946 83.2092C45.7305 81.9455 47.2672 80.6856 48.805 79.4296L49.964 80.6856C47.6802 83.0665 45.4117 85.472 43.1584 87.9023L43.3839 87.7339L44.4344 89.087C42.9899 90.2536 41.5369 91.4146 40.0753 92.5698C41.5426 91.6182 43.047 90.7275 44.5886 89.8978L46.487 88.8558L46.2414 89.6037C46.4413 89.3554 46.644 89.1127 46.8466 88.8672L48.1855 89.932C47.5261 90.7884 46.8438 91.6448 46.1501 92.4641C47.2387 91.6915 48.3254 90.9169 49.4102 90.1404C54.2974 85.7347 59.2608 80.9959 64.3003 75.924L65.5621 77.0802L46.721 99.3154L44.7227 103.044L52.656 97.9594L52.7073 97.8824L52.7445 97.9023L55.4422 96.1753L67.6774 82.29L64.0519 88.9586C63.5761 89.834 63.0947 90.7085 62.6075 91.582L67.9457 88.1564L65.7476 91.5107C65.6962 91.5935 65.642 91.6734 65.5906 91.7533L66.6668 92.6583C65.8371 93.8687 65.0006 95.0771 64.1576 96.2837L65.4793 95.1761L67.5404 93.4433L67.6888 93.2663L67.7202 93.292L69.3531 91.9189L68.2769 93.7288L69.0334 94.3254C67.5261 96.3522 65.9693 98.341 64.3631 100.292C63.5809 101.595 62.7825 102.907 61.968 104.226C64.503 100.91 67.1531 97.694 69.9183 94.5766L71.2458 95.6528L68.5224 99.3268C73.6894 94.175 78.9421 89.1318 84.2803 84.1969L85.5079 85.3873L78.6823 93.2863L78.9049 93.4747C77.8145 94.8735 76.7011 96.2504 75.5649 97.6055C76.9105 96.6215 78.2598 95.6452 79.6129 94.6765L84.6857 91.0511L78.1656 99.1613L84.2832 93.7573L81.0831 98.8187C72.1307 113.038 62.8729 127.74 51.5455 140.609ZM38.7564 132.71C39.9411 132.93 41.1658 132.259 42.2078 131.377L44.6371 126.997C42.9166 128.683 41.106 130.275 39.2132 131.765L39.0733 131.596C38.9705 131.962 38.862 132.336 38.7564 132.71ZM23.6265 127.531C22.8329 128.353 22.0222 129.164 21.1943 129.964C25.5848 126.614 29.8469 123.093 33.9805 119.401L34.1546 119.116L36.2757 115.156L36.2243 115.196C33.2269 118.336 30.1638 121.439 27.0607 124.445L23.3981 127.991L23.6265 127.531ZM39.9868 128.673C39.964 128.739 39.944 128.804 39.924 128.867C41.2105 127.725 42.4951 126.584 43.7778 125.442C44.1061 125.116 44.4316 124.785 44.7541 124.454C43.1555 125.843 41.5673 127.25 39.9897 128.673L39.9868 128.673ZM33.9548 123.112L31.023 128.588C32.5455 127.137 34.03 125.62 35.4764 124.034L34.4744 122.932L37.1007 120.166L35.4136 121.459L33.9548 123.112ZM56.3071 125.699C55.5915 126.414 54.8741 127.127 54.1547 127.837C54.9312 127.169 55.6981 126.491 56.4556 125.804L56.3071 125.699ZM19.9753 115.462C17.4917 119.318 15.1223 123.246 12.9271 127.263C14.5067 125.666 16.072 124.055 17.6231 122.43L17.309 122.63L18.9648 121.017C20.2532 119.658 21.5302 118.29 22.7958 116.912C23.1479 115.54 23.5114 114.168 23.8863 112.798C22.5807 113.706 21.2771 114.594 19.9753 115.462ZM5.31644 117.577C4.22595 120.696 3.1935 123.836 2.21909 126.997C3.08121 126.295 3.93762 125.581 4.78832 124.854L5.98444 121.83C6.05581 121.653 6.12718 121.476 6.19569 121.299L4.69126 122.264L6.55538 120.42C7.28999 118.654 8.07694 116.906 8.91622 115.176L5.31644 117.577ZM24.1147 123.82C23.715 124.477 23.3163 125.136 22.9185 125.798C23.5865 125.098 24.2422 124.389 24.8854 123.672C24.6353 123.752 24.3766 123.801 24.1147 123.82ZM59.0676 122.921L57.5461 124.825C61.9236 120.755 65.9807 116.353 69.6814 111.659C66.2253 115.471 62.6874 119.225 59.0676 122.921ZM42.2477 122.273C42.1135 122.624 41.9822 122.978 41.8481 123.329C42.4076 122.631 42.9633 121.929 43.5152 121.225L43.3325 121.377L42.2477 122.273ZM50.3351 115.222C48.687 117.384 47.0255 119.531 45.3508 121.662C46.9399 120.286 48.5395 118.921 50.1495 117.566C51.3314 115.662 52.5427 113.774 53.7836 111.902C52.6512 113.027 51.5017 114.133 50.3351 115.222ZM30.0667 114.462C28.5899 116.691 27.1444 118.941 25.7304 121.211L25.8189 121.128C26.1234 120.831 26.427 120.532 26.7296 120.229L28.3824 118.279C29.1304 116.875 29.8916 115.475 30.6662 114.08L30.0667 114.462ZM61.183 116.495L58.8621 119.778C59.9811 118.284 61.123 116.866 62.2877 115.524L61.183 116.495ZM25.6162 117.888C25.5192 118.131 25.4221 118.376 25.3308 118.619C25.6695 118.08 26.0121 117.543 26.3584 117.006L25.6162 117.888ZM11.8109 113.241C11.1334 114.527 10.4873 115.829 9.87255 117.146L11.0801 115.953L12.6302 112.687L11.8109 113.241ZM44.6028 116.546C44.5229 116.729 44.4401 116.915 44.3602 117.1L45.0653 116.115L44.6028 116.546ZM7.60591 111.279C7.00452 112.874 6.41645 114.477 5.84171 116.087L7.93706 113.803C9.20264 112.427 10.4835 111.065 11.7795 109.718C12.2762 108.839 12.7862 107.967 13.3096 107.103C11.3951 108.477 9.49382 109.869 7.60591 111.279ZM60.2124 114.654L59.5187 115.661L59.8812 115.345L61.0631 113.672L60.2124 114.654ZM51.7624 109.39C50.455 111.361 49.1228 113.318 47.7659 115.259C48.196 114.865 48.627 114.468 49.059 114.069C51.1144 111.368 53.147 108.649 55.1567 105.913L54.1918 106.692C53.3944 107.604 52.5846 108.503 51.7624 109.39ZM40.6976 111.693L38.5652 115.179L39.1789 114.608L43.7978 109.373C42.7587 110.134 41.7253 110.907 40.6976 111.693ZM26.1015 111.234C25.8332 112.185 25.5706 113.137 25.3136 114.089C25.7647 112.994 26.2262 111.904 26.6982 110.817L26.1015 111.234ZM39.8298 108.202C38.2331 110.193 36.5907 112.144 34.9026 114.054L35.0624 113.926C36.545 112.369 38.0085 110.8 39.453 109.218L40.0867 108.037L39.8298 108.202ZM45.3108 110.957C44.3117 111.975 43.3021 112.983 42.282 113.98C43.1098 113.335 43.9358 112.686 44.7599 112.033L44.8712 111.865L45.3108 110.957ZM-0.50144 95.4216C-2.73579 100.884 -4.31035 106.594 -5.19172 112.43C-4.36195 111.817 -3.54741 111.184 -2.74809 110.532C1.14572 106.204 5.09187 101.905 9.09036 97.634L10.2237 94.2797C10.4264 93.6717 10.6376 93.0665 10.8489 92.4613C6.61628 96.1172 2.48172 99.8635 -1.55482 103.7L-2.83373 102.558C0.45203 98.1393 3.78061 93.6403 6.9893 89.0328L-0.50144 95.4216ZM23.3696 111.051C23.3636 111.062 23.3559 111.071 23.3467 111.08L23.4495 111.011L23.3696 111.051ZM70.1867 103.752L65.4907 110.38L70.5521 105.898L75.4336 99.8236C73.6751 101.12 71.9233 102.429 70.1781 103.752L70.1867 103.752ZM29.4529 108.796L28.8278 110.206C29.6195 109.306 30.4064 108.403 31.1886 107.497C30.6148 107.934 30.0439 108.368 29.4529 108.796ZM37.9428 104.922C37.1435 106.239 36.3556 107.562 35.5791 108.89L35.8332 108.727C36.583 107.46 37.3034 106.176 37.9942 104.876L37.9428 104.922ZM72.8187 108.136L73.0471 108.293L74.032 106.76L73.461 107.417C73.2441 107.657 73.03 107.897 72.8187 108.136ZM42.5218 107.126L43.1898 107.623L43.1213 107.734C45.0244 106.331 46.9428 104.955 48.8763 103.606L49.8669 102.481C50.0896 102.101 50.3151 101.72 50.5435 101.339L43.047 106.144L42.5218 107.126ZM51.0231 104.925C50.6424 105.625 50.2561 106.316 49.8641 106.997C51.1963 105.639 52.538 104.284 53.8892 102.932C54.7132 101.619 55.5268 100.298 56.33 98.97L52.773 102.967C52.1945 103.623 51.6111 104.274 51.0231 104.919L51.0231 104.925ZM17.9942 100.072L11.2514 106.475C12.7415 105.386 14.2421 104.317 15.7532 103.266C16.4783 102.182 17.2253 101.111 17.9942 100.055L17.9942 100.072ZM5.75892 104.971C5.29646 105.453 4.834 105.93 4.36012 106.398C4.78071 106.017 5.2013 105.647 5.6219 105.287L5.75892 104.971ZM65.9646 104.331C65.2985 105.005 64.6324 105.679 63.9663 106.355L63.9806 106.355C64.5515 105.784 65.1224 105.219 65.6934 104.659L65.9646 104.331ZM60.3494 101.668C59.453 102.918 58.5519 104.167 57.646 105.413C58.942 103.997 60.2114 102.558 61.4542 101.097L62.1593 100.172L60.3494 101.668ZM29.3074 103.54C28.999 103.95 28.6888 104.357 28.3767 104.762L29.8954 103.737C30.1267 103.243 30.3636 102.75 30.6005 102.259C30.1647 102.679 29.7337 103.106 29.3074 103.54ZM41.7053 101.257C41.2257 102.288 40.7271 103.309 40.2095 104.32L43.8521 100.038C44.4763 99.1565 45.092 98.2697 45.6991 97.3771L41.7053 101.257ZM76.4328 102.969L75.4336 103.857L76.2444 103.261C76.3157 103.166 76.3757 103.075 76.4328 102.981L76.4328 102.969ZM9.55853 100.737C9.22167 101.434 8.89148 102.133 8.56795 102.835L9.37583 102.196C9.7241 101.36 10.0771 100.526 10.4349 99.6922C10.1437 100.044 9.85161 100.393 9.55853 100.737ZM68.117 102.164L68.1484 102.193C69.0543 101.274 69.9564 100.353 70.8547 99.4296C69.9393 100.33 69.0267 101.238 68.117 102.153L68.117 102.164ZM34.0405 99.1613C33.6218 99.9891 33.2097 100.819 32.8044 101.651L40.8632 95.7556C41.6435 94.962 42.4142 94.1437 43.1755 93.3006C43.2726 93.0351 43.3696 92.7696 43.461 92.5041C40.1378 94.4521 36.9862 96.6792 34.0405 99.1613ZM20.8432 99.107L20.415 100.052C20.8603 99.7493 21.3066 99.4477 21.7538 99.147C22.3723 98.0051 22.9842 96.8518 23.5894 95.6871C22.6473 96.8061 21.73 97.9461 20.8375 99.107L20.8432 99.107ZM56.5555 97.4884L54.5943 99.7037L56.7667 98.2335L57.6231 96.8061L56.5555 97.4884ZM18.3681 90.3402C17.0816 92.7858 15.8703 95.2713 14.7341 97.7967C16.9219 94.6955 18.8761 91.436 20.5805 88.0451L18.3681 90.3402ZM60.7947 94.7679C60.2124 95.7803 59.6233 96.789 59.0277 97.7939L59.8184 97.0088C60.5549 96.0173 61.2772 95.0162 61.9851 94.0057L60.7947 94.7679ZM46.387 96.6977L46.5783 96.8119L48.0399 95.099L46.387 96.6977ZM27.1435 92.918C26.7296 93.9943 26.3213 95.0676 25.916 96.1467L26.6496 95.5015L28.3796 92.1587C27.9666 92.4099 27.5546 92.663 27.1435 92.918ZM22.2905 91.7105C21.417 92.8885 20.5054 94.038 19.5557 95.159C19.8554 94.9763 20.1523 94.7964 20.4549 94.6194L21.26 94.02C21.5968 93.2511 21.9384 92.4813 22.2848 91.7105L22.2905 91.7105ZM31.063 90.7113L30.1381 92.4984L30.512 92.1815C30.5125 92.1711 30.5125 92.1606 30.512 92.1501C30.6947 91.6667 30.8765 91.1871 31.0573 90.7113L31.063 90.7113ZM29.8383 78.6217C27.9542 83.0579 26.0244 87.496 24.049 91.936L25.7047 90.7028C25.9616 90.4173 26.2214 90.1547 26.4812 89.8835C27.5222 87.261 28.5956 84.6565 29.7013 82.0702L31.2999 82.6868C30.8889 83.8801 30.454 85.0638 29.9953 86.238L30.4949 85.7185L29.3816 87.9708L31.2571 86.5749L47.783 54.6479C42.5331 56.8135 37.4494 59.362 32.5731 62.2728L32.2277 62.7524C31.3237 64.0028 30.414 65.256 29.4986 66.512L28.4081 68.3248C28.3425 68.4361 28.2768 68.5474 28.2083 68.6588L29.2246 67.8024L30.415 69.0956L32.1621 67.2514L30.8261 69.4181L31.514 69.9548C29.392 72.6877 27.3709 75.4977 25.4507 78.3848L26.8323 77.3199L26.6182 77.9309L32.182 73.8743L33.2897 75.1732C32.1345 76.317 30.9821 77.4665 29.8326 78.6217L29.8383 78.6217ZM1.21138 91.5621L1.09148 91.8161L3.80631 89.501L3.27819 89.8835L3.40665 88.5104C2.65871 89.5171 1.92696 90.5344 1.21138 91.5621ZM24.186 84.3425C23.4362 86.1067 22.6216 87.8405 21.7424 89.5438C23.3751 87.236 24.8542 84.8233 26.17 82.3214L24.186 84.3425ZM11.4398 86.3579C10.826 87.1002 10.2037 87.8424 9.57566 88.576L8.97903 89.2726C9.85256 88.3572 10.7137 87.4265 11.5625 86.4807L11.4398 86.3579ZM3.5608 75.6271C0.143722 80.9654 -1.64332 85.2703 -2.7852 88.9757C-0.578517 87.8053 1.27133 86.141 2.96417 84.2112L2.6787 83.9628C3.15829 83.3919 3.64073 82.821 4.1346 82.25C4.1346 82.1444 4.166 82.0359 4.18027 81.9303L3.8948 81.6448L4.27162 81.2651C4.41721 80.2917 4.57422 79.3182 4.74265 78.3505L4.30017 78.8643L2.9242 77.8652C3.42473 77.0411 3.92049 76.2133 4.4115 75.3816L4.04895 75.0961C3.87767 75.2646 3.71781 75.4387 3.55795 75.6271L3.5608 75.6271ZM12.536 87.9566C12.3162 88.2021 12.0964 88.4447 11.8737 88.6845L12.4018 88.2991C12.4446 88.1849 12.4903 88.0708 12.5331 87.9566L12.536 87.9566ZM33.9719 86.7005L34.2117 86.789L35.0482 86.3294C35.3679 85.944 35.6905 85.5643 36.0159 85.1875L33.9719 86.7005ZM16.0844 83.9029C15.7209 84.7288 15.3659 85.5577 15.0196 86.3893L16.8038 85.0876C17.2834 84.4082 17.7706 83.7335 18.2654 83.0636C19.0399 81.5563 19.8278 80.0557 20.6291 78.5617L19.824 79.3468C18.5984 80.8826 17.3509 82.4013 16.0815 83.9029L16.0844 83.9029ZM5.39352 85.9012C5.39352 86.0097 5.36783 86.121 5.35641 86.2266C7.15487 84.8849 8.92954 83.5099 10.6804 82.1016C11.2399 80.9064 11.8109 79.7122 12.3932 78.5189C10.8707 80.4906 9.27401 82.4108 7.60306 84.2797L7.03212 83.8572C6.4764 84.5366 5.92925 85.2189 5.39066 85.904L5.39352 85.9012ZM22.4818 83.0636C22.1963 83.5518 21.9108 84.0371 21.6082 84.5281L22.7501 83.3719L23.0356 82.6668L22.4818 83.0636ZM6.98359 75.6985C6.7514 76.8461 6.54016 77.9965 6.34984 79.1498C6.63532 78.8643 6.92078 78.5589 7.20625 78.262C8.34814 76.6995 9.55758 75.1875 10.8346 73.7259C11.7151 72.6008 12.6576 71.5258 13.6579 70.5058C14.933 68.144 16.17 65.7603 17.369 63.3547C16.8494 63.7144 16.3346 64.0798 15.8246 64.4509C12.9832 68.2858 10.0353 72.0359 6.98073 75.7013L6.98359 75.6985ZM24.8512 74.4481L23.9948 75.9583C24.7979 75.0543 25.6143 74.1626 26.4441 73.2834L28.0056 71.6334L28.902 70.4915L24.8512 74.4481ZM20.178 70.8312C19.451 72.2471 18.6955 73.6469 17.9114 75.0305C18.8934 73.6317 19.8526 72.2176 20.7889 70.7884L21.2485 69.9976C20.8888 70.2745 20.5349 70.5514 20.178 70.8312ZM1.69953 70.8512C0.993471 72.073 0.318811 73.3167 -0.324449 74.5823C1.30844 73.2501 2.89661 71.8618 4.44005 70.4173L5.83885 66.9374C4.48001 68.2601 3.10024 69.5647 1.69953 70.8512ZM16.6268 73.7516C16.5354 73.9371 16.4412 74.1198 16.3413 74.3025C16.4555 74.1027 16.5668 73.9 16.681 73.6973L16.6268 73.7516ZM22.2448 71.6848L21.848 72.3842C22.7996 71.4821 23.7512 70.5714 24.7027 69.6522C25.6391 68.3752 26.5516 67.0811 27.4404 65.7698C26.6087 66.316 25.7808 66.866 24.9568 67.4198C24.0756 68.8567 23.1736 70.2784 22.2505 71.6848L22.2448 71.6848ZM7.20625 67.26L4.7141 70.1489C5.30788 69.5932 5.89595 69.0289 6.47831 68.4561C6.68384 68.1706 6.89224 67.9137 7.10348 67.6454L7.20625 67.26ZM20.1723 61.4849C19.2207 63.447 18.2492 65.3968 17.2577 67.3342C17.9009 66.6053 18.5404 65.8745 19.176 65.1418C20.0001 63.606 20.8356 62.0777 21.6824 60.5571C21.1943 60.8597 20.6776 61.1652 20.178 61.4849L20.1723 61.4849ZM7.96275 61.4507C7.10063 62.5754 6.26611 63.722 5.45918 64.8906C6.13669 64.2283 6.81421 63.5574 7.49172 62.878C7.70678 62.3508 7.92183 61.8227 8.13689 61.2936L7.96275 61.4507ZM9.91537 64.0513L9.85542 64.2511L9.91537 64.1769L11.4455 62.1529C10.9393 62.7962 10.4292 63.4328 9.91537 64.0627L9.91537 64.0513ZM22.6987 59.9662L23.3096 60.2916L24.3487 59.0413C23.7949 59.3439 23.2449 59.6522 22.6987 59.9662ZM12.3019 57.0202C12.1449 57.4369 11.9907 57.8594 11.8394 58.2762C12.6254 57.4217 13.4019 56.5596 14.1689 55.6899C14.4229 55.333 14.677 54.9762 14.9254 54.6194C14.0499 55.4168 13.1754 56.217 12.3019 57.0202ZM27.8457 54.3282C26.3594 55.3844 24.8949 56.4683 23.4524 57.5797C24.5942 56.9612 25.7447 56.3721 26.9037 55.8126C27.2215 55.3197 27.5355 54.8249 27.8457 54.3282ZM17.5688 56.8974L17.9713 57.2371C19.4938 55.1189 20.9212 52.9408 22.2534 50.7027L17.5688 56.8974ZM23.1127 55.1332L22.7444 55.9554C25.1423 54.1207 27.5955 52.3632 30.1038 50.6827L30.7376 49.6408C28.1008 51.3425 25.5538 53.1796 23.1069 55.1446L23.1127 55.1332ZM30.6148 54.0513L29.3759 55.5871C31.6958 53.2748 34.0309 50.9863 36.3813 48.7215C34.6875 49.7492 33.0166 50.8112 31.3685 51.9074C30.8508 52.7524 30.3303 53.5955 29.8069 54.4367L30.6148 54.0513ZM12.7586 50.0319C12.3419 50.5666 11.9222 51.0957 11.4997 51.6191C11.7595 51.4706 12.0193 51.3336 12.2819 51.188L12.7586 50.0319ZM28.2511 43.0321C27.0008 45.6965 25.6334 48.3 24.1489 50.8426C26.8609 47.5597 29.5129 44.2292 32.105 40.8511C30.807 41.561 29.5224 42.2908 28.2511 43.0407L28.2511 43.0321ZM23.852 46.6262L23.047 47.6653L24.0718 47.5111C24.5762 46.5843 25.0662 45.648 25.542 44.7021L25.0881 44.9876C24.7084 45.4986 24.323 46.0039 23.9462 46.5091L23.9634 46.532L23.852 46.6262ZM21.5483 37.6482C19.7156 40.7484 18.0227 43.9247 16.4698 47.1771C19.5719 43.3956 22.5817 39.5456 25.4992 35.627C24.2374 36.3293 22.8786 37.0087 21.5483 37.6482ZM22.6302 42.2157C21.869 43.1863 21.1077 44.1521 20.3464 45.1132C20.7061 44.8563 21.0715 44.6022 21.4341 44.351C21.8452 43.6487 22.241 42.9398 22.6216 42.2242L22.6302 42.2157ZM10.0981 43.9942C9.60706 44.3025 9.12176 44.6136 8.65073 44.9334C9.15251 44.6543 9.63594 44.3435 10.0981 44.0027L10.0981 43.9942Z"
                  fill="#1D1D1B"/>
        </g>
    </g>
    <path d="M41.3399 132.821L41.0744 132.31L0.640442 54.5362L105.816 0.759277L104.435 71.5131L41.3399 132.821ZM1.7966 54.9073L41.5683 131.393L103.584 71.1591L104.931 2.18948L1.7966 54.9073Z"
          fill="#F96432"/>
    <path d="M58.0454 110.996C56.68 113.319 55.1538 115.543 53.4778 117.653C57.0473 117.136 60.6455 116.842 64.2515 116.771C62.0027 115.132 59.8637 113.348 57.8484 111.43"
          fill="#28CE61"/>
</svg>
