<svg width="76" height="78" viewBox="0 0 76 78" fill="none" xmlns="http://www.w3.org/2000/svg">
    <path d="M5.82362 33.3766L5.82325 33.3757C4.88918 31.1519 4.62496 28.6451 5.55736 26.6594L5.65174 26.4694L5.65583 26.4614C6.88546 24.033 9.89452 22.7288 12.8656 22.7725C15.8605 22.8423 18.728 24.0025 21.7271 25.2287L23.2894 25.868L23.0976 24.1778C22.7754 21.3369 22.5405 18.598 23.3457 16.175L23.5201 15.6951C24.8251 12.4508 28.4819 10.2492 31.9499 10.6277C35.4303 11.0322 38.4837 13.9968 38.9935 17.4819L39.3388 19.8459L40.7729 17.9295C43.3172 14.5286 47.9651 12.8632 52.0422 13.8506L52.4348 13.9547C56.4741 15.1148 59.6569 18.9046 60.1768 23.1126L60.2188 23.5207C60.5762 27.8867 58.0061 32.3977 54.0853 34.3143L51.7438 35.4594L54.233 36.1809C58.0904 37.3 61.6155 39.6229 63.8541 42.8797L64.0672 43.198C66.2237 46.5179 66.9672 50.7851 65.7906 54.5077L65.6711 54.8661C64.3694 58.554 61.0199 61.4832 57.2589 61.9903L56.8929 62.0317L56.8911 62.0324C52.7251 62.4286 48.7807 60.0739 44.8577 57.5485L43.7277 56.8209L43.3584 58.1261C42.1772 62.2984 39.01 65.8721 35.0107 67.497C33.4008 68.1451 31.7072 68.467 30.1158 68.2282C28.3013 67.9518 26.6274 66.9574 25.1172 65.6679L25.1178 65.6666C18.9683 60.3795 16.8159 50.841 20.0682 43.3503L20.6957 41.9049L19.1334 41.9508C13.723 42.1088 8.34104 38.78 6.03687 33.858L5.82362 33.3766ZM30.5312 41.2166C30.7568 42.1392 31.0641 43.1883 31.5694 44.1179C32.0476 44.9976 32.7329 45.825 33.7424 46.3214L33.9487 46.4159L33.958 46.4205C35.2993 46.9784 36.7617 46.7797 37.9587 46.3517L38.1947 46.2632L38.1956 46.2628C40.8321 45.2222 43.0174 42.8884 43.7362 40.0647C44.4593 37.2238 43.5264 34.0026 41.2856 32.0987L41.2778 32.0925L41.2712 32.0867C40.6423 31.5722 39.8492 31.0576 38.8725 30.9068L38.8719 30.9081C37.6575 30.7144 36.4895 31.0586 35.5261 31.5714L35.1261 31.8008L35.1243 31.8016L34.71 32.0708C32.6936 33.4489 31.5649 35.2843 30.9794 36.9562C30.3697 38.6978 30.3196 40.3516 30.5316 41.2175L30.5312 41.2166Z"
          fill="#8E54D3" stroke="black" stroke-width="2"/>
</svg>
