<svg width="26" height="26" viewBox="0 0 26 26" fill="none" xmlns="http://www.w3.org/2000/svg">
    <path fill-rule="evenodd" clip-rule="evenodd"
          d="M10.3546 0.35966C5.36984 1.44381 1.34687 5.55112 0.387591 10.5359C0.126597 11.8923 0.12575 14.2911 0.385897 15.55C1.22962 19.6327 3.85167 22.9751 7.60106 24.7474C11.1356 26.418 15.0416 26.418 18.5761 24.7474C23.485 22.4271 26.3575 17.4831 25.9642 12.0317C25.9216 11.4419 25.8212 10.6463 25.7409 10.2637L25.5948 9.56792H24.3793C23.1766 9.56792 23.1645 9.57082 23.2408 9.84017C23.5296 10.8616 23.676 11.9344 23.676 13.0295C23.676 15.9288 22.6974 18.3633 20.7115 20.4035C18.5916 22.5813 16.0986 23.6398 13.0886 23.6398C10.1096 23.6398 7.71807 22.6426 5.59066 20.5135C3.49726 18.4185 2.5012 16.0054 2.5012 13.0295C2.5012 10.1141 3.59539 7.47742 5.64342 5.45771C8.37993 2.75895 12.4623 1.76143 16.2648 2.8624C16.5343 2.94045 16.5371 2.92883 16.5371 1.72695V0.512602L15.9623 0.371518C15.6462 0.293957 14.4892 0.208653 13.3911 0.181912C11.7604 0.142346 11.204 0.174894 10.3546 0.35966ZM20.772 2.30798V3.51797H19.5015H18.2311V4.42546V5.33296H19.5015H20.772V6.60345V7.87393H21.6795H22.587V6.60345V5.33296H23.797H25.007V4.42546V3.51797H23.797H22.587V2.30798V1.09799H21.6795H20.772V2.30798ZM14.6079 8.66418C13.4942 8.9766 12.8194 9.63241 12.7007 10.5172C12.6136 11.167 12.8477 11.7995 13.3684 12.32C13.6577 12.6095 13.7519 12.7751 13.6471 12.8101C13.3745 12.901 12.6604 13.5822 12.4878 13.9158C11.459 15.9052 13.2541 17.6756 16.1524 17.5299C18.2342 17.4252 19.441 16.4794 19.441 14.9524C19.441 14.1779 19.1926 13.6688 18.5548 13.1356L18.0048 12.6758L18.3001 12.4435C19.1043 11.811 19.2294 10.4531 18.5662 9.55618C17.9273 8.69201 16.0312 8.26476 14.6079 8.66418ZM6.73616 9.50742V10.4149H7.52265H8.30915V13.9239V17.4328H9.45864H10.6081V13.0164V8.59993H8.67214H6.73616V9.50742ZM14.8981 10.349C14.3495 10.8976 14.6117 11.7435 15.3911 11.9391C15.9116 12.0697 16.5757 11.9003 16.8698 11.5617C17.1763 11.2089 17.201 11.0396 17.0078 10.6154C16.7216 9.98742 15.4235 9.82347 14.8981 10.349ZM14.7262 14.0221C14.4726 14.2757 14.3591 14.5072 14.3591 14.7709C14.3591 15.0345 14.4726 15.266 14.7262 15.5196C15.0772 15.8706 15.1303 15.8847 15.9368 15.839C16.9844 15.7799 17.2961 15.535 17.2961 14.7709C17.2961 14.0068 16.9844 13.7619 15.9368 13.7027C15.1303 13.6571 15.0772 13.6711 14.7262 14.0221Z"
          fill="#4C545D"/>
</svg>
