<svg width="185" height="33" viewBox="0 0 185 33" fill="none" xmlns="http://www.w3.org/2000/svg">
    <path d="M57.7271 21.3059C57.7271 22.0562 57.6297 22.7334 57.4348 23.3376C57.2497 23.932 57.0012 24.4582 56.6894 24.9161C56.3775 25.3741 56.0121 25.7639 55.5931 26.0854C55.1741 26.407 54.7405 26.6701 54.2923 26.8747C53.8441 27.0793 53.3861 27.2304 52.9184 27.3278C52.4604 27.4253 52.0268 27.474 51.6175 27.474H36.9574V23.6737H51.6175C52.3483 23.6737 52.9135 23.4594 53.313 23.0306C53.7223 22.6019 53.9269 22.027 53.9269 21.3059C53.9269 20.9551 53.8733 20.6336 53.7661 20.3412C53.6589 20.0489 53.503 19.7956 53.2984 19.5812C53.1035 19.3668 52.8599 19.2012 52.5676 19.0842C52.285 18.9673 51.9683 18.9088 51.6175 18.9088H42.877C42.2631 18.9088 41.6005 18.8017 40.8892 18.5873C40.1778 18.3632 39.5152 18.0075 38.9013 17.5203C38.2972 17.0331 37.7905 16.3948 37.3813 15.6056C36.9817 14.8163 36.782 13.8516 36.782 12.7115C36.782 11.5715 36.9817 10.6117 37.3813 9.83213C37.7905 9.04285 38.2972 8.40461 38.9013 7.9174C39.5152 7.42044 40.1778 7.06478 40.8892 6.85041C41.6005 6.62629 42.2631 6.51423 42.877 6.51423H55.8124V10.3145H42.877C42.1559 10.3145 41.5907 10.5337 41.1815 10.9722C40.782 11.4107 40.5822 11.9905 40.5822 12.7115C40.5822 13.4424 40.782 14.0221 41.1815 14.4509C41.5907 14.8699 42.1559 15.0794 42.877 15.0794H51.6467C52.056 15.0891 52.4896 15.1476 52.9476 15.2548C53.4056 15.3522 53.8587 15.5081 54.3069 15.7225C54.7649 15.9369 55.1985 16.2097 55.6078 16.541C56.017 16.8626 56.3775 17.2523 56.6894 17.7103C57.0109 18.1683 57.2643 18.6945 57.4494 19.2889C57.6345 19.8833 57.7271 20.5556 57.7271 21.3059Z"
          fill="white"/>
    <path d="M74.6557 32.4143H70.8555V16.9941C70.8555 16.4972 70.7288 16.122 70.4754 15.8687C70.2221 15.6056 69.8372 15.474 69.3208 15.474H62.4657C61.998 15.474 61.6277 15.6202 61.3549 15.9125C61.082 16.1951 60.9456 16.5556 60.9456 16.9941V22.139C60.9456 22.636 61.0772 23.016 61.3403 23.2791C61.6034 23.5422 61.9882 23.6737 62.4949 23.6737H69.3208V27.474H62.4657C61.9395 27.474 61.3646 27.3814 60.741 27.1963C60.1174 27.0111 59.5376 26.7091 59.0017 26.2901C58.4755 25.8613 58.0321 25.3108 57.6716 24.6384C57.3208 23.9563 57.1454 23.1232 57.1454 22.139V16.9941C57.1454 16.6336 57.1844 16.2535 57.2623 15.854C57.35 15.4545 57.4816 15.0599 57.657 14.6701C57.8324 14.2706 58.0565 13.8906 58.3293 13.53C58.6119 13.1695 58.9481 12.8528 59.3378 12.58C59.7373 12.3072 60.1953 12.0879 60.7118 11.9223C61.2282 11.7566 61.8129 11.6738 62.4657 11.6738H69.3208C69.6813 11.6738 70.0613 11.7176 70.4608 11.8053C70.8701 11.8833 71.2696 12.01 71.6594 12.1854C72.0589 12.3607 72.4389 12.5897 72.7994 12.8723C73.16 13.1452 73.4766 13.4813 73.7495 13.8808C74.0223 14.2706 74.2416 14.7237 74.4072 15.2402C74.5729 15.7566 74.6557 16.3412 74.6557 16.9941V32.4143Z"
          fill="white"/>
    <path d="M92.4174 25.5592C92.4174 25.8321 92.3687 26.0854 92.2712 26.3193C92.1738 26.5532 92.0374 26.7578 91.862 26.9332C91.6963 27.0988 91.4966 27.2304 91.2627 27.3278C91.0386 27.4253 90.795 27.474 90.5319 27.474H81.9375C81.4698 27.474 80.968 27.4204 80.432 27.3132C79.9059 27.206 79.3846 27.0355 78.8681 26.8016C78.3517 26.558 77.8498 26.256 77.3626 25.8954C76.8852 25.5251 76.4662 25.0818 76.1056 24.5653C75.7451 24.0392 75.4528 23.435 75.2287 22.7529C75.0143 22.0708 74.9071 21.301 74.9071 20.4436V11.6738H78.7073V20.4436C78.7073 20.9405 78.7902 21.3887 78.9558 21.7882C79.1312 22.178 79.3651 22.5142 79.6574 22.7968C79.9497 23.0794 80.2908 23.2986 80.6805 23.4545C81.08 23.6007 81.5088 23.6737 81.9668 23.6737H88.6172V11.6738H92.4174V25.5592Z"
          fill="white"/>
    <path d="M109.302 22.2414C109.302 22.7675 109.21 23.3376 109.024 23.9515C108.839 24.5556 108.537 25.1208 108.118 25.6469C107.709 26.1634 107.168 26.597 106.496 26.9478C105.833 27.2986 105.024 27.474 104.07 27.474H97.2145C96.6883 27.474 96.1182 27.3814 95.5044 27.1963C94.9002 27.0111 94.3351 26.7139 93.8089 26.3047C93.2924 25.8857 92.8588 25.3449 92.508 24.6823C92.1572 24.0099 91.9818 23.1963 91.9818 22.2414C91.9818 21.7152 92.0744 21.1451 92.2595 20.5312C92.4447 19.9174 92.7419 19.3522 93.1511 18.8358C93.5701 18.3096 94.1109 17.8711 94.7735 17.5203C95.4459 17.1695 96.2595 16.9941 97.2145 16.9941H104.07V20.6189H97.2145C96.698 20.6189 96.2985 20.7797 96.0159 21.1013C95.7334 21.4131 95.5921 21.8029 95.5921 22.2706C95.5921 22.7675 95.7528 23.1573 96.0744 23.4399C96.4057 23.7127 96.7955 23.8491 97.2437 23.8491H104.07C104.586 23.8491 104.985 23.6932 105.268 23.3814C105.551 23.0696 105.692 22.6798 105.692 22.2121V16.9064C105.692 16.4095 105.536 16.0148 105.224 15.7225C104.922 15.4302 104.537 15.284 104.07 15.284H95.7236V11.6738H104.07C104.596 11.6738 105.161 11.7664 105.765 11.9515C106.379 12.1366 106.944 12.4387 107.46 12.8577C107.987 13.267 108.425 13.8078 108.776 14.4801C109.127 15.1427 109.302 15.9515 109.302 16.9064V22.2414Z"
          fill="white"/>
    <path d="M126.888 22.139C126.888 22.7919 126.806 23.3814 126.64 23.9076C126.474 24.4241 126.255 24.882 125.982 25.2815C125.709 25.6713 125.393 26.0075 125.032 26.2901C124.672 26.5629 124.292 26.787 123.892 26.9624C123.502 27.1378 123.103 27.2694 122.694 27.3571C122.294 27.435 121.914 27.474 121.553 27.474H114.698C114.046 27.474 113.461 27.3912 112.945 27.2255C112.428 27.0599 111.97 26.8406 111.571 26.5678C111.181 26.2852 110.845 25.9636 110.562 25.6031C110.289 25.2426 110.065 24.8674 109.89 24.4776C109.714 24.0781 109.583 23.6786 109.495 23.2791C109.417 22.8699 109.378 22.4898 109.378 22.139V16.9941C109.378 16.0197 109.554 15.1963 109.904 14.524C110.265 13.8419 110.708 13.2913 111.234 12.8723C111.77 12.4436 112.35 12.1366 112.974 11.9515C113.597 11.7664 114.172 11.6738 114.698 11.6738H121.553V15.474H114.728C114.221 15.474 113.836 15.6056 113.573 15.8687C113.31 16.122 113.178 16.4972 113.178 16.9941V22.1098C113.178 22.6262 113.305 23.016 113.558 23.2791C113.821 23.5422 114.202 23.6737 114.698 23.6737H121.553C122.07 23.6737 122.455 23.5422 122.708 23.2791C122.962 23.016 123.088 22.636 123.088 22.139V4.99414H126.888V22.139Z"
          fill="white"/>
    <path d="M142.794 22.139C142.794 22.7919 142.711 23.3814 142.545 23.9076C142.38 24.4241 142.161 24.882 141.888 25.2815C141.615 25.6713 141.298 26.0075 140.938 26.2901C140.577 26.5629 140.197 26.787 139.798 26.9624C139.408 27.1378 139.008 27.2694 138.599 27.3571C138.2 27.435 137.819 27.474 137.459 27.474H127.169V23.6737H137.43C137.946 23.6737 138.336 23.5422 138.599 23.2791C138.862 23.016 138.994 22.636 138.994 22.139C138.945 21.1256 138.433 20.6189 137.459 20.6189H131.569C130.731 20.6189 130.019 20.4728 129.435 20.1805C128.85 19.8881 128.372 19.5227 128.002 19.0842C127.642 18.6457 127.379 18.1732 127.213 17.6665C127.057 17.1598 126.979 16.6872 126.979 16.2487C126.979 15.4009 127.13 14.6896 127.432 14.1147C127.734 13.53 128.114 13.0575 128.572 12.6969C129.03 12.3364 129.527 12.0782 130.063 11.9223C130.599 11.7566 131.101 11.6738 131.569 11.6738H140.908V15.474H131.598C131.403 15.474 131.247 15.4984 131.13 15.5471C131.023 15.5861 130.94 15.6445 130.882 15.7225C130.833 15.7907 130.804 15.8687 130.794 15.9564C130.784 16.0343 130.779 16.1123 130.779 16.1902C130.789 16.3461 130.818 16.4679 130.867 16.5556C130.916 16.6433 130.974 16.7067 131.042 16.7456C131.12 16.7846 131.203 16.809 131.291 16.8187C131.388 16.8187 131.481 16.8187 131.569 16.8187H137.459C138.433 16.8187 139.262 16.9941 139.944 17.3449C140.626 17.6957 141.176 18.1391 141.595 18.675C142.014 19.2012 142.316 19.7761 142.502 20.3997C142.696 21.0233 142.794 21.6031 142.794 22.139Z"
          fill="white"/>
    <path d="M15.4938 0.294283C16.0093 -0.12589 16.7702 -0.0962864 17.2506 0.384127L32.2594 15.3939L32.3502 15.4935C32.7425 15.9746 32.7424 16.6696 32.3502 17.1507L32.2594 17.2513L17.2506 32.2611L17.151 32.3509C16.67 32.7434 15.975 32.743 15.4938 32.3509L15.3932 32.2601L0.38441 17.2503C-0.0961989 16.7697 -0.126146 16.009 0.294566 15.4935L0.38441 15.3949L15.3932 0.385104L15.4938 0.294283ZM5.02406 16.3226L6.66761 17.9652C6.69129 17.9643 6.71502 17.9623 6.7389 17.9623H16.1071L16.3082 17.972C17.3008 18.0729 18.0756 18.9119 18.0758 19.931C18.0758 20.9503 17.3009 21.7891 16.3082 21.89L16.1071 21.8998H10.6012L16.3219 27.6195L27.6188 16.3226L25.9411 14.6449L25.8864 14.6478H16.5182C15.4311 14.6477 14.5497 13.7662 14.5494 12.679C14.5494 11.5918 15.4309 10.7104 16.5182 10.7103H22.0065L16.3219 5.02573L5.02406 16.3226Z"
          fill="white"/>
    <rect x="146.944" y="11.3135" width="37.2685" height="15.9722" rx="7.98611" fill="white"/>
    <path d="M155.268 16.1602H158.278C158.98 16.1602 159.533 16.3391 159.935 16.6969C160.338 17.0547 160.539 17.5466 160.539 18.1727C160.539 18.6838 160.348 19.1119 159.964 19.4569C160.539 19.8274 160.827 20.3801 160.827 21.1148C160.827 21.7984 160.6 22.3351 160.146 22.7248C159.699 23.1081 159.076 23.2998 158.278 23.2998H155.268V16.1602ZM158.412 22.1498C158.744 22.1498 159.012 22.0572 159.217 21.8719C159.421 21.6802 159.523 21.4279 159.523 21.1148C159.523 20.8017 159.421 20.5494 159.217 20.3577C159.019 20.1661 158.75 20.0702 158.412 20.0702H156.572V22.1498H158.412ZM158.345 18.9298C158.613 18.9298 158.827 18.8531 158.987 18.6998C159.146 18.5401 159.226 18.3356 159.226 18.0865C159.226 17.8373 159.146 17.6392 158.987 17.4923C158.827 17.3454 158.613 17.2719 158.345 17.2719H156.572V18.9298H158.345ZM164.261 23.4148C163.738 23.4148 163.271 23.2934 162.862 23.0506C162.46 22.8079 162.144 22.4788 161.914 22.0636C161.69 21.6483 161.578 21.1883 161.578 20.6836C161.578 20.1724 161.69 19.7124 161.914 19.3036C162.144 18.8883 162.453 18.5624 162.843 18.3261C163.239 18.0897 163.68 17.9715 164.166 17.9715C164.689 17.9715 165.143 18.0865 165.526 18.3165C165.91 18.5401 166.2 18.8467 166.399 19.2365C166.603 19.6262 166.705 20.0542 166.705 20.5206C166.705 20.7379 166.683 20.9136 166.638 21.0477H162.881C162.92 21.4311 163.067 21.7377 163.322 21.9677C163.578 22.1977 163.894 22.3127 164.271 22.3127C164.552 22.3127 164.792 22.2552 164.99 22.1402C165.194 22.0188 165.357 21.8527 165.479 21.6419L166.494 22.1402C166.335 22.5236 166.054 22.8334 165.651 23.0698C165.249 23.2998 164.785 23.4148 164.261 23.4148ZM165.364 20.0894C165.332 19.7699 165.207 19.5112 164.99 19.3131C164.773 19.1087 164.498 19.0065 164.166 19.0065C163.846 19.0065 163.575 19.1023 163.351 19.294C163.127 19.4792 162.98 19.7444 162.91 20.0894H165.364ZM170.034 23.3573C169.446 23.3573 168.989 23.1976 168.663 22.8781C168.344 22.5523 168.184 22.0955 168.184 21.5077V19.2077H167.283V18.0865H167.379C167.634 18.0865 167.833 18.0194 167.973 17.8852C168.114 17.7511 168.184 17.5562 168.184 17.3006V16.8981H169.439V18.0865H170.637V19.2077H169.439V21.4406C169.439 21.9837 169.733 22.2552 170.321 22.2552C170.423 22.2552 170.535 22.2456 170.656 22.2265V23.3094C170.452 23.3413 170.244 23.3573 170.034 23.3573ZM173.169 23.4148C172.619 23.4148 172.182 23.2806 171.856 23.0123C171.536 22.744 171.377 22.3798 171.377 21.9198C171.377 21.479 171.527 21.1148 171.827 20.8273C172.127 20.5398 172.578 20.3481 173.178 20.2523L174.731 20.0031V19.8306C174.731 19.6006 174.641 19.4122 174.463 19.2652C174.29 19.1183 174.06 19.0448 173.773 19.0448C173.504 19.0448 173.265 19.1183 173.054 19.2652C172.849 19.4058 172.699 19.5942 172.603 19.8306L171.578 19.3323C171.731 18.9234 172.012 18.5944 172.421 18.3452C172.83 18.0961 173.297 17.9715 173.82 17.9715C174.242 17.9715 174.616 18.0513 174.942 18.2111C175.274 18.3644 175.529 18.5848 175.708 18.8723C175.894 19.1534 175.986 19.4729 175.986 19.8306V23.2998H174.798V22.744C174.389 23.1912 173.846 23.4148 173.169 23.4148ZM172.68 21.8719C172.68 22.0508 172.747 22.1945 172.881 22.3031C173.015 22.4054 173.188 22.4565 173.399 22.4565C173.788 22.4565 174.108 22.3351 174.357 22.0923C174.606 21.8431 174.731 21.5365 174.731 21.1723V20.9615L173.418 21.1819C173.169 21.233 172.983 21.3161 172.862 21.4311C172.741 21.5397 172.68 21.6866 172.68 21.8719Z"
          fill="#232D39"/>
</svg>
