<svg width="430" height="1918" viewBox="0 0 430 1918" fill="none" xmlns="http://www.w3.org/2000/svg">
    <g clip-path="url(#clip0_342_88)">
        <path d="M1707.85 1846.3C1677.57 1865.1 1649.11 1797.45 1610.94 1797.45C1572.77 1797.45 1572.7 1851.91 1534.53 1851.91C1496.36 1851.91 1496.29 1797.45 1458.12 1797.45C1419.95 1797.45 1419.88 1851.91 1381.71 1851.91C1343.54 1851.91 1343.47 1797.45 1305.3 1797.45C1267.13 1797.45 1267.06 1851.91 1228.89 1851.91C1190.72 1851.91 1190.65 1797.45 1152.48 1797.45C1114.31 1797.45 1114.24 1851.91 1076.07 1851.91C1037.9 1851.91 1037.83 1797.45 999.66 1797.45C961.489 1797.45 961.421 1851.91 923.25 1851.91C885.079 1851.91 885.011 1797.45 846.84 1797.45C808.669 1797.45 808.602 1851.91 770.43 1851.91C732.259 1851.91 732.192 1797.45 694.021 1797.45C655.85 1797.45 655.782 1851.91 617.611 1851.91C579.44 1851.91 579.372 1797.45 541.201 1797.45C503.03 1797.45 502.963 1851.91 464.792 1851.91C426.62 1851.91 426.553 1797.45 388.382 1797.45C350.211 1797.45 350.211 1851.91 311.972 1851.91C273.734 1851.91 273.801 1797.45 235.562 1797.45C197.324 1797.45 197.324 1851.91 159.153 1851.91C120.981 1851.91 120.981 1797.45 82.7429 1797.45C44.5043 1797.45 44.5043 1851.91 6.33313 1851.91C-31.838 1851.91 -31.9055 1797.45 -70.0767 1797.45C-108.248 1797.45 -108.315 1851.91 -146.486 1851.91C-184.657 1851.91 -184.725 1797.45 -222.896 1797.45C-261.067 1797.45 -261.135 1851.91 -299.306 1851.91C-337.477 1851.91 -337.544 1797.45 -375.783 1797.45C-414.022 1797.45 -414.022 1851.91 -452.193 1851.91C-490.364 1851.91 -490.431 1797.45 -528.67 1797.45C-566.909 1797.45 -566.909 1851.91 -605.147 1851.91C-643.386 1851.91 -643.386 1797.45 -681.557 1797.45C-719.728 1797.45 -719.795 1851.91 -757.966 1851.91C-796.138 1851.91 -796.205 1797.45 -834.444 1797.45C-872.682 1797.45 -872.682 1851.91 -910.921 1851.91C-949.159 1851.91 -949.159 1797.45 -987.398 1797.45C-1025.64 1797.45 -1054.03 1865.1 -1084.38 1846.3C-1107.64 1831.92 -1030.16 1801.04 -1030.16 1777.4C-1030.16 1753.76 -1097.93 1753.76 -1098 1730.13C-1098.07 1706.49 -1030.56 1706.49 -1030.56 1682.79C-1030.56 1659.1 -1097.93 1659.15 -1098 1635.52C-1098.07 1611.88 -1030.56 1611.88 -1030.56 1588.18C-1030.56 1564.49 -1097.93 1564.54 -1098 1540.91C-1098.07 1517.27 -1030.56 1517.27 -1030.56 1493.57C-1030.56 1469.88 -1097.93 1469.93 -1098 1446.24C-1098.07 1422.55 -1030.56 1422.6 -1030.56 1398.91C-1030.56 1375.22 -1097.93 1375.27 -1098 1351.63C-1098.07 1327.99 -1030.56 1327.99 -1030.56 1304.3C-1030.56 1280.61 -1097.93 1280.66 -1098 1257.02C-1098.07 1233.38 -1030.56 1233.38 -1030.56 1209.74C-1030.56 1186.11 -1097.93 1186.05 -1098 1162.41C-1098.07 1138.77 -1030.56 1138.77 -1030.56 1115.13C-1030.56 1091.5 -1097.93 1091.5 -1098 1067.8C-1098.07 1044.11 -1030.56 1044.16 -1030.56 1020.52C-1030.56 996.89 -1097.93 996.89 -1098 973.19C-1098.07 949.5 -1030.56 949.55 -1030.56 925.92C-1030.56 902.28 -1097.93 902.28 -1098 878.58C-1098.07 854.89 -1030.56 854.94 -1030.56 831.31C-1030.56 807.67 -1097.93 807.61 -1098 783.97C-1098.07 760.33 -1030.56 760.33 -1030.56 736.64C-1030.56 712.95 -1097.93 713 -1098 689.36C-1098.07 665.72 -1030.56 665.72 -1030.56 642.03C-1030.56 618.34 -1097.93 618.34 -1098 594.7C-1098.07 571.06 -1030.56 571.06 -1030.56 547.37C-1030.56 523.67 -1097.93 523.67 -1098 500.03C-1098.07 476.4 -1030.56 476.4 -1030.56 452.7C-1030.56 429.01 -1097.93 429.06 -1098 405.425C-1098.07 381.786 -1030.56 381.786 -1030.56 358.093C-1030.56 334.4 -1097.93 334.4 -1098 310.761C-1098.07 287.122 -1030.56 287.068 -1030.56 263.429C-1030.56 239.79 -1097.93 239.736 -1098 216.097C-1098.07 192.458 -1030.56 192.403 -1030.56 168.71C-1030.56 145.017 -1108.05 114.188 -1084.78 99.7538C-1054.5 80.9628 -1026.04 148.612 -987.87 148.612C-949.699 148.612 -949.632 94.0898 -911.393 94.0898C-873.154 94.0898 -873.154 148.557 -834.983 148.557C-796.812 148.557 -796.812 94.0898 -758.573 94.0898C-720.335 94.0898 -720.335 148.557 -682.164 148.557C-643.993 148.557 -643.925 94.0898 -605.754 94.0898C-567.583 94.0898 -567.515 148.557 -529.344 148.557C-491.173 148.557 -491.106 94.0898 -452.867 94.0898C-414.629 94.0898 -414.629 148.557 -376.457 148.557C-338.286 148.557 -338.286 94.0898 -300.048 94.0898C-261.809 94.0898 -261.809 148.557 -223.638 148.557C-185.467 148.557 -185.399 94.0898 -147.161 94.0898C-108.922 94.0898 -108.922 148.557 -70.751 148.557C-32.5798 148.557 -32.5798 94.0898 5.65869 94.0898C43.8973 94.0898 43.8974 148.557 82.0686 148.557C120.24 148.557 120.307 94.0898 158.546 94.0898C196.784 94.0898 196.784 148.557 234.955 148.557C273.127 148.557 273.127 94.0898 311.365 94.0898C349.604 94.0898 349.536 148.557 387.775 148.557C426.013 148.557 425.946 94.0898 464.184 94.0898C502.423 94.0898 502.356 148.557 540.594 148.557C578.833 148.557 578.833 94.0898 617.004 94.0898C655.175 94.0898 655.243 148.557 693.414 148.557C731.585 148.557 731.652 94.0898 769.891 94.0898C808.13 94.0898 808.13 148.557 846.301 148.557C884.472 148.557 884.539 94.0898 922.778 94.0898C961.016 94.0898 961.016 148.557 999.255 148.557C1037.49 148.557 1037.43 94.0898 1075.66 94.0898C1113.9 94.0898 1113.9 148.557 1152.14 148.557C1190.38 148.557 1190.31 94.0898 1228.55 94.0898C1266.79 94.0898 1266.79 148.557 1304.96 148.557C1343.13 148.557 1343.2 94.0898 1381.44 94.0898C1419.68 94.0898 1419.68 148.557 1457.92 148.557C1496.15 148.557 1496.09 94.0898 1534.33 94.0898C1572.56 94.0898 1572.56 148.557 1610.8 148.557C1649.04 148.557 1677.43 80.9088 1707.78 99.6998C1731.05 114.079 1653.56 144.962 1653.56 168.601C1653.56 192.24 1721 192.24 1721 215.933C1721 239.627 1653.56 239.572 1653.56 263.265C1653.56 286.959 1721 286.904 1721 310.543C1721 334.182 1653.56 334.182 1653.56 357.875C1653.56 381.568 1721 381.514 1721 405.153C1721 428.79 1653.56 428.79 1653.56 452.48C1653.56 476.18 1721 476.12 1721 499.82C1721 523.51 1653.56 523.46 1653.56 547.15C1653.56 570.84 1721 570.79 1721 594.48C1721 618.17 1653.56 618.12 1653.56 641.81C1653.56 665.51 1721 665.45 1721 689.15C1721 712.84 1653.56 712.78 1653.56 736.42C1653.56 760.06 1721 760.06 1721 783.76C1721 807.45 1653.56 807.39 1653.56 831.03C1653.56 854.67 1721 854.67 1721 878.37C1721 902.06 1653.56 902 1653.56 925.64C1653.56 949.28 1721 949.28 1721 972.97C1721 996.67 1653.56 996.61 1653.56 1020.25C1653.56 1043.89 1721 1043.89 1721 1067.58C1721 1091.28 1653.56 1091.22 1653.56 1114.86C1653.56 1138.5 1721 1138.5 1721 1162.19C1721 1185.89 1653.56 1185.83 1653.56 1209.53C1653.56 1233.22 1721 1233.17 1721 1256.86C1721 1280.55 1653.56 1280.5 1653.56 1304.19C1653.56 1327.88 1721 1327.83 1721 1351.52C1721 1375.22 1653.56 1375.16 1653.56 1398.86C1653.56 1422.55 1721 1422.49 1721 1446.19C1721 1469.88 1653.56 1469.83 1653.56 1493.52C1653.56 1517.21 1721 1517.16 1721 1540.85C1721 1564.54 1653.56 1564.49 1653.56 1588.18C1653.56 1611.88 1721 1611.82 1721 1635.52C1721 1659.21 1653.56 1659.21 1653.56 1682.85C1653.56 1706.49 1721 1706.49 1721 1730.18C1721 1753.87 1645.8 1764.11 1655.45 1786.5C1670.76 1822.18 1731.12 1832.14 1707.85 1846.52V1846.3Z"
              fill="#E8D4FF"/>
        <g opacity="0.03">
            <path fill-rule="evenodd" clip-rule="evenodd"
                  d="M-157.099 65.6653L-65.2774 158.058L116.109 -24.4547L89.2197 -51.5107C88.9094 -51.5027 88.5976 -51.4977 88.2859 -51.4977H-62.1184C-79.5762 -51.4977 -93.7291 -65.7387 -93.7291 -83.3047C-93.7291 -100.871 -79.5762 -115.111 -62.1184 -115.111H26.0131L-65.2774 -206.969L-246.662 -24.4547L-220.297 2.07428C-219.906 2.06028 -219.513 2.05231 -219.119 2.05231H-68.7146C-51.2569 2.05231 -37.1039 16.2933 -37.1039 33.8593C-37.1039 51.4263 -51.2569 65.6653 -68.7146 65.6653H-157.099ZM-321.168 -39.4497C-329.397 -31.1687 -329.397 -17.7417 -321.168 -9.46069L-80.1783 233.027C-71.9484 241.308 -58.605 241.308 -50.3751 233.027L190.615 -9.46069C198.844 -17.7417 198.844 -31.1687 190.615 -39.4497L-50.3751 -281.938C-58.605 -290.219 -71.9484 -290.219 -80.1783 -281.938L-321.168 -39.4497Z"
                  fill="#271437"/>
            <path fill-rule="evenodd" clip-rule="evenodd"
                  d="M422.28 66.1946L514.102 158.588L695.488 -23.9254L668.599 -50.9814C668.288 -50.9734 667.977 -50.9684 667.665 -50.9684H517.261C499.803 -50.9684 485.65 -65.2094 485.65 -82.7754C485.65 -100.342 499.803 -114.581 517.261 -114.581H605.392L514.102 -206.439L332.717 -23.9254L359.082 2.60263C359.473 2.58963 359.866 2.58157 360.26 2.58157H510.664C528.122 2.58157 542.275 16.8226 542.275 34.3886C542.275 51.9546 528.122 66.1946 510.664 66.1946H422.28ZM258.211 -38.9204C249.982 -30.6394 249.982 -17.2134 258.211 -8.9324L499.201 233.557C507.431 241.838 520.774 241.838 529.004 233.557L769.994 -8.9324C778.223 -17.2134 778.223 -30.6394 769.994 -38.9204L529.004 -281.408C520.774 -289.689 507.431 -289.689 499.201 -281.408L258.211 -38.9204Z"
                  fill="#271437"/>
            <path fill-rule="evenodd" clip-rule="evenodd"
                  d="M422.28 642.59L514.102 734.98L695.488 552.47L668.599 525.41C668.288 525.42 667.977 525.43 667.665 525.43H517.261C499.803 525.43 485.65 511.19 485.65 493.62C485.65 476.05 499.803 461.81 517.261 461.81H605.392L514.102 369.955L332.717 552.47L359.082 579C359.473 578.98 359.866 578.98 360.26 578.98H510.664C528.122 578.98 542.275 593.22 542.275 610.78C542.275 628.35 528.122 642.59 510.664 642.59H422.28ZM258.211 537.47C249.982 545.75 249.982 559.18 258.211 567.46L499.201 809.95C507.431 818.23 520.774 818.23 529.004 809.95L769.994 567.46C778.223 559.18 778.223 545.75 769.994 537.47L529.004 294.986C520.774 286.705 507.431 286.705 499.201 294.986L258.211 537.47Z"
                  fill="#271437"/>
            <path fill-rule="evenodd" clip-rule="evenodd"
                  d="M135.249 353.325L227.07 445.72L408.457 263.205L381.568 236.149C381.257 236.157 380.945 236.162 380.634 236.162H230.229C212.772 236.162 198.619 221.921 198.619 204.355C198.619 186.789 212.772 172.549 230.229 172.549H318.361L227.07 80.6907L45.6854 263.205L72.0509 289.734C72.4419 289.72 72.8346 289.712 73.229 289.712H223.633C241.091 289.712 255.244 303.953 255.244 321.519C255.244 339.086 241.091 353.325 223.633 353.325H135.249ZM-28.82 248.21C-37.0496 256.491 -37.0496 269.918 -28.82 278.199L212.169 520.69C220.399 528.97 233.743 528.97 241.973 520.69L482.962 278.199C491.192 269.918 491.192 256.491 482.962 248.21L241.973 5.72172C233.743 -2.55828 220.399 -2.55828 212.169 5.72172L-28.82 248.21Z"
                  fill="#271437"/>
            <path fill-rule="evenodd" clip-rule="evenodd"
                  d="M422.28 1228.59L514.102 1320.98L695.488 1138.47L668.599 1111.41C668.288 1111.42 667.977 1111.43 667.665 1111.43H517.261C499.803 1111.43 485.65 1097.19 485.65 1079.62C485.65 1062.05 499.803 1047.81 517.261 1047.81H605.392L514.102 955.959L332.717 1138.47L359.082 1165C359.473 1164.99 359.866 1164.98 360.26 1164.98H510.664C528.122 1164.98 542.275 1179.22 542.275 1196.78C542.275 1214.35 528.122 1228.59 510.664 1228.59H422.28ZM258.211 1123.48C249.982 1131.76 249.982 1145.18 258.211 1153.46L499.201 1395.95C507.431 1404.23 520.774 1404.23 529.004 1395.95L769.994 1153.46C778.223 1145.18 778.223 1131.76 769.994 1123.48L529.004 880.989C520.774 872.709 507.431 872.709 499.201 880.989L258.211 1123.48Z"
                  fill="#271437"/>
            <path fill-rule="evenodd" clip-rule="evenodd"
                  d="M422.28 1812.46L514.102 1904.85L695.488 1722.34L668.599 1695.28C668.288 1695.29 667.977 1695.29 667.665 1695.29H517.261C499.803 1695.29 485.65 1681.05 485.65 1663.49C485.65 1645.92 499.803 1631.68 517.261 1631.68H605.392L514.102 1539.82L332.717 1722.34L359.082 1748.87C359.473 1748.85 359.866 1748.84 360.26 1748.84H510.664C528.122 1748.84 542.275 1763.08 542.275 1780.65C542.275 1798.22 528.122 1812.46 510.664 1812.46H422.28ZM258.211 1707.34C249.982 1715.62 249.982 1729.05 258.211 1737.33L499.201 1979.82C507.431 1988.1 520.774 1988.1 529.004 1979.82L769.994 1737.33C778.223 1729.05 778.223 1715.62 769.994 1707.34L529.004 1464.85C520.774 1456.57 507.431 1456.57 499.201 1464.85L258.211 1707.34Z"
                  fill="#271437"/>
            <path fill-rule="evenodd" clip-rule="evenodd"
                  d="M135.249 935.05L227.07 1027.45L408.457 844.93L381.568 817.88C381.257 817.89 380.945 817.89 380.634 817.89H230.229C212.772 817.89 198.619 803.65 198.619 786.08C198.619 768.52 212.772 754.28 230.229 754.28H318.361L227.07 662.42L45.6854 844.93L72.0509 871.46C72.4419 871.45 72.8346 871.44 73.229 871.44H223.633C241.091 871.44 255.244 885.68 255.244 903.25C255.244 920.81 241.091 935.05 223.633 935.05H135.249ZM-28.82 829.94C-37.0496 838.22 -37.0496 851.65 -28.82 859.93L212.169 1102.42C220.399 1110.7 233.743 1110.7 241.973 1102.42L482.962 859.93C491.192 851.65 491.192 838.22 482.962 829.94L241.973 587.45C233.743 579.17 220.399 579.17 212.169 587.45L-28.82 829.94Z"
                  fill="#271437"/>
            <path fill-rule="evenodd" clip-rule="evenodd"
                  d="M135.249 1524.26L227.07 1616.65L408.457 1434.14L381.568 1407.08C381.257 1407.09 380.945 1407.09 380.634 1407.09H230.229C212.772 1407.09 198.619 1392.85 198.619 1375.29C198.619 1357.72 212.772 1343.48 230.229 1343.48H318.361L227.07 1251.62L45.6854 1434.14L72.0509 1460.66C72.4419 1460.65 72.8346 1460.64 73.229 1460.64H223.633C241.091 1460.64 255.244 1474.88 255.244 1492.45C255.244 1510.02 241.091 1524.26 223.633 1524.26H135.249ZM-28.82 1419.14C-37.0496 1427.42 -37.0496 1440.85 -28.82 1449.13L212.169 1691.62C220.399 1699.9 233.743 1699.9 241.973 1691.62L482.962 1449.13C491.192 1440.85 491.192 1427.42 482.962 1419.14L241.973 1176.65C233.743 1168.37 220.399 1168.37 212.169 1176.65L-28.82 1419.14Z"
                  fill="#271437"/>
            <path fill-rule="evenodd" clip-rule="evenodd"
                  d="M135.249 2108.12L227.07 2200.52L408.457 2018L381.568 1990.95C381.257 1990.96 380.945 1990.96 380.634 1990.96H230.229C212.772 1990.96 198.619 1976.72 198.619 1959.15C198.619 1941.59 212.772 1927.35 230.229 1927.35H318.361L227.07 1835.49L45.6854 2018L72.0509 2044.53C72.4419 2044.52 72.8346 2044.51 73.229 2044.51H223.633C241.091 2044.51 255.244 2058.75 255.244 2076.32C255.244 2093.88 241.091 2108.12 223.633 2108.12H135.249ZM-28.82 2003.01C-37.0496 2011.29 -37.0496 2024.72 -28.82 2033L212.169 2275.49C220.399 2283.77 233.743 2283.77 241.973 2275.49L482.962 2033C491.192 2024.72 491.192 2011.29 482.962 2003.01L241.973 1760.52C233.743 1752.24 220.399 1752.24 212.169 1760.52L-28.82 2003.01Z"
                  fill="#271437"/>
            <path fill-rule="evenodd" clip-rule="evenodd"
                  d="M-157.099 1228.59L-65.2774 1320.98L116.109 1138.47L89.2197 1111.41C88.9094 1111.42 88.5976 1111.43 88.2859 1111.43H-62.1184C-79.5762 1111.43 -93.7291 1097.19 -93.7291 1079.62C-93.7291 1062.05 -79.5762 1047.81 -62.1184 1047.81H26.0131L-65.2774 955.959L-246.662 1138.47L-220.297 1165C-219.906 1164.99 -219.513 1164.98 -219.119 1164.98H-68.7146C-51.2569 1164.98 -37.1039 1179.22 -37.1039 1196.78C-37.1039 1214.35 -51.2569 1228.59 -68.7146 1228.59H-157.099ZM-321.168 1123.48C-329.397 1131.76 -329.397 1145.18 -321.168 1153.46L-80.1783 1395.95C-71.9484 1404.23 -58.605 1404.23 -50.3751 1395.95L190.615 1153.46C198.844 1145.18 198.844 1131.76 190.615 1123.48L-50.3751 880.989C-58.605 872.709 -71.9484 872.709 -80.1783 880.989L-321.168 1123.48Z"
                  fill="#271437"/>
            <path fill-rule="evenodd" clip-rule="evenodd"
                  d="M-157.099 642.59L-65.2774 734.98L116.109 552.47L89.2197 525.41C88.9094 525.42 88.5976 525.43 88.2859 525.43H-62.1184C-79.5762 525.43 -93.7291 511.19 -93.7291 493.62C-93.7291 476.05 -79.5762 461.81 -62.1184 461.81H26.0131L-65.2774 369.955L-246.662 552.47L-220.297 579C-219.906 578.98 -219.513 578.98 -219.119 578.98H-68.7146C-51.2569 578.98 -37.1039 593.22 -37.1039 610.78C-37.1039 628.35 -51.2569 642.59 -68.7146 642.59H-157.099ZM-321.168 537.47C-329.397 545.75 -329.397 559.18 -321.168 567.46L-80.1783 809.95C-71.9484 818.23 -58.605 818.23 -50.3751 809.95L190.615 567.46C198.844 559.18 198.844 545.75 190.615 537.47L-50.3751 294.986C-58.605 286.705 -71.9484 286.705 -80.1783 294.986L-321.168 537.47Z"
                  fill="#271437"/>
            <path fill-rule="evenodd" clip-rule="evenodd"
                  d="M-157.099 1812.46L-65.2774 1904.85L116.109 1722.34L89.2197 1695.28C88.9094 1695.29 88.5976 1695.29 88.2859 1695.29H-62.1184C-79.5762 1695.29 -93.7291 1681.05 -93.7291 1663.49C-93.7291 1645.92 -79.5762 1631.68 -62.1184 1631.68H26.0131L-65.2774 1539.82L-246.662 1722.34L-220.297 1748.87C-219.906 1748.85 -219.513 1748.84 -219.119 1748.84H-68.7146C-51.2569 1748.84 -37.1039 1763.08 -37.1039 1780.65C-37.1039 1798.22 -51.2569 1812.46 -68.7146 1812.46H-157.099ZM-321.168 1707.34C-329.397 1715.62 -329.397 1729.05 -321.168 1737.33L-80.1783 1979.82C-71.9484 1988.1 -58.605 1988.1 -50.3751 1979.82L190.615 1737.33C198.844 1729.05 198.844 1715.62 190.615 1707.34L-50.3751 1464.85C-58.605 1456.57 -71.9484 1456.57 -80.1783 1464.85L-321.168 1707.34Z"
                  fill="#271437"/>
        </g>
    </g>
    <defs>
        <clipPath id="clip0_342_88">
            <rect width="430" height="1918" fill="white"/>
        </clipPath>
    </defs>
</svg>
