<svg width="430" height="1749" viewBox="0 0 430 1749" fill="none" xmlns="http://www.w3.org/2000/svg">
    <g clip-path="url(#clip0_344_3)">
        <path d="M1707.85 1732.35C1677.57 1750.87 1649.11 1684.21 1610.94 1684.21C1572.77 1684.21 1572.7 1737.88 1534.53 1737.88C1496.36 1737.88 1496.29 1684.21 1458.12 1684.21C1419.95 1684.21 1419.88 1737.88 1381.71 1737.88C1343.54 1737.88 1343.47 1684.21 1305.3 1684.21C1267.13 1684.21 1267.06 1737.88 1228.89 1737.88C1190.72 1737.88 1190.65 1684.21 1152.48 1684.21C1114.31 1684.21 1114.24 1737.88 1076.07 1737.88C1037.9 1737.88 1037.83 1684.21 999.66 1684.21C961.489 1684.21 961.421 1737.88 923.25 1737.88C885.079 1737.88 885.011 1684.21 846.84 1684.21C808.669 1684.21 808.602 1737.88 770.43 1737.88C732.259 1737.88 732.192 1684.21 694.021 1684.21C655.85 1684.21 655.782 1737.88 617.611 1737.88C579.44 1737.88 579.372 1684.21 541.201 1684.21C503.03 1684.21 502.963 1737.88 464.792 1737.88C426.62 1737.88 426.553 1684.21 388.382 1684.21C350.211 1684.21 350.211 1737.88 311.972 1737.88C273.734 1737.88 273.801 1684.21 235.562 1684.21C197.324 1684.21 197.324 1737.88 159.153 1737.88C120.981 1737.88 120.981 1684.21 82.7429 1684.21C44.5043 1684.21 44.5043 1737.88 6.33313 1737.88C-31.838 1737.88 -31.9055 1684.21 -70.0767 1684.21C-108.248 1684.21 -108.315 1737.88 -146.486 1737.88C-184.657 1737.88 -184.725 1684.21 -222.896 1684.21C-261.067 1684.21 -261.135 1737.88 -299.306 1737.88C-337.477 1737.88 -337.544 1684.21 -375.783 1684.21C-414.022 1684.21 -414.022 1737.88 -452.193 1737.88C-490.364 1737.88 -490.431 1684.21 -528.67 1684.21C-566.909 1684.21 -566.909 1737.88 -605.147 1737.88C-643.386 1737.88 -643.386 1684.21 -681.557 1684.21C-719.728 1684.21 -719.795 1737.88 -757.966 1737.88C-796.138 1737.88 -796.205 1684.21 -834.444 1684.21C-872.682 1684.21 -872.682 1737.88 -910.921 1737.88C-949.159 1737.88 -949.159 1684.21 -987.398 1684.21C-1025.64 1684.21 -1054.03 1750.87 -1084.38 1732.35C-1107.64 1718.18 -1030.16 1687.75 -1030.16 1664.45C-1030.16 1641.16 -1097.93 1641.16 -1098 1617.87C-1098.07 1594.58 -1030.56 1594.58 -1030.56 1571.22C-1030.56 1547.88 -1097.93 1547.93 -1098 1524.64C-1098.07 1501.35 -1030.56 1501.35 -1030.56 1478C-1030.56 1454.65 -1097.93 1454.7 -1098 1431.42C-1098.07 1408.12 -1030.56 1408.12 -1030.56 1384.77C-1030.56 1361.42 -1097.93 1361.47 -1098 1338.13C-1098.07 1314.78 -1030.56 1314.83 -1030.56 1291.49C-1030.56 1268.14 -1097.93 1268.19 -1098 1244.9C-1098.07 1221.6 -1030.56 1221.6 -1030.56 1198.26C-1030.56 1174.92 -1097.93 1174.96 -1098 1151.67C-1098.07 1128.37 -1030.56 1128.37 -1030.56 1105.08C-1030.56 1081.79 -1097.93 1081.74 -1098 1058.44C-1098.07 1035.15 -1030.56 1035.15 -1030.56 1011.85C-1030.56 988.566 -1097.93 988.566 -1098 965.212C-1098.07 941.868 -1030.56 941.917 -1030.56 918.622C-1030.56 895.337 -1097.93 895.337 -1098 871.983C-1098.07 848.639 -1030.56 848.688 -1030.56 825.403C-1030.56 802.108 -1097.93 802.108 -1098 778.754C-1098.07 755.41 -1030.56 755.46 -1030.56 732.174C-1030.56 708.88 -1097.93 708.82 -1098 685.525C-1098.07 662.231 -1030.56 662.231 -1030.56 638.886C-1030.56 615.542 -1097.93 615.592 -1098 592.297C-1098.07 569.002 -1030.56 569.002 -1030.56 545.658C-1030.56 522.314 -1097.93 522.313 -1098 499.019C-1098.07 475.724 -1030.56 475.724 -1030.56 452.38C-1030.56 429.026 -1097.93 429.026 -1098 405.731C-1098.07 382.446 -1030.56 382.446 -1030.56 359.092C-1030.56 335.747 -1097.93 335.797 -1098 312.507C-1098.07 289.213 -1030.56 289.213 -1030.56 265.866C-1030.56 242.519 -1097.93 242.519 -1098 219.225C-1098.07 195.931 -1030.56 195.878 -1030.56 172.584C-1030.56 149.29 -1097.93 149.237 -1098 125.943C-1098.07 102.649 -1030.56 102.595 -1030.56 79.2474C-1030.56 55.9003 -1108.05 25.5214 -1084.78 11.2981C-1054.5 -7.21857 -1026.04 59.4428 -987.87 59.4428C-949.699 59.4428 -949.632 5.7168 -911.393 5.7168C-873.154 5.7168 -873.154 59.3886 -834.983 59.3886C-796.812 59.3886 -796.812 5.7168 -758.573 5.7168C-720.335 5.7168 -720.335 59.3886 -682.164 59.3886C-643.993 59.3886 -643.925 5.7168 -605.754 5.7168C-567.583 5.7168 -567.515 59.3886 -529.344 59.3886C-491.173 59.3886 -491.106 5.7168 -452.867 5.7168C-414.629 5.7168 -414.629 59.3886 -376.457 59.3886C-338.286 59.3886 -338.286 5.7168 -300.048 5.7168C-261.809 5.7168 -261.809 59.3886 -223.638 59.3886C-185.467 59.3886 -185.399 5.7168 -147.161 5.7168C-108.922 5.7168 -108.922 59.3886 -70.751 59.3886C-32.5798 59.3886 -32.5798 5.7168 5.65869 5.7168C43.8973 5.7168 43.8974 59.3886 82.0686 59.3886C120.24 59.3886 120.307 5.7168 158.546 5.7168C196.784 5.7168 196.784 59.3886 234.955 59.3886C273.127 59.3886 273.127 5.7168 311.365 5.7168C349.604 5.7168 349.536 59.3886 387.775 59.3886C426.013 59.3886 425.946 5.7168 464.184 5.7168C502.423 5.7168 502.356 59.3886 540.594 59.3886C578.833 59.3886 578.833 5.7168 617.004 5.7168C655.175 5.7168 655.243 59.3886 693.414 59.3886C731.585 59.3886 731.652 5.7168 769.891 5.7168C808.13 5.7168 808.13 59.3886 846.301 59.3886C884.472 59.3886 884.539 5.7168 922.778 5.7168C961.016 5.7168 961.016 59.3886 999.255 59.3886C1037.49 59.3886 1037.43 5.7168 1075.66 5.7168C1113.9 5.7168 1113.9 59.3886 1152.14 59.3886C1190.38 59.3886 1190.31 5.7168 1228.55 5.7168C1266.79 5.7168 1266.79 59.3886 1304.96 59.3886C1343.13 59.3886 1343.2 5.7168 1381.44 5.7168C1419.68 5.7168 1419.68 59.3886 1457.92 59.3886C1496.15 59.3886 1496.09 5.7168 1534.33 5.7168C1572.56 5.7168 1572.56 59.3886 1610.8 59.3886C1649.04 59.3886 1677.43 -7.27179 1707.78 11.2449C1731.05 25.414 1653.56 55.8461 1653.56 79.14C1653.56 102.434 1721 102.434 1721 125.781C1721 149.129 1653.56 149.075 1653.56 172.422C1653.56 195.77 1721 195.716 1721 219.01C1721 242.304 1653.56 242.304 1653.56 265.651C1653.56 288.998 1721 288.945 1721 312.239C1721 335.531 1653.56 335.531 1653.56 358.875C1653.56 382.229 1721 382.17 1721 405.524C1721 428.868 1653.56 428.819 1653.56 452.163C1653.56 475.507 1721 475.458 1721 498.802C1721 522.146 1653.56 522.097 1653.56 545.441C1653.56 568.795 1721 568.736 1721 592.09C1721 615.434 1653.56 615.375 1653.56 638.67C1653.56 661.965 1721 661.965 1721 685.319C1721 708.663 1653.56 708.604 1653.56 731.899C1653.56 755.193 1721 755.193 1721 778.547C1721 801.892 1653.56 801.832 1653.56 825.127C1653.56 848.422 1721 848.422 1721 871.766C1721 895.12 1653.56 895.061 1653.56 918.356C1653.56 941.651 1721 941.651 1721 964.995C1721 988.349 1653.56 988.29 1653.56 1011.58C1653.56 1034.88 1721 1034.88 1721 1058.22C1721 1081.58 1653.56 1081.52 1653.56 1104.87C1653.56 1128.22 1721 1128.17 1721 1151.51C1721 1174.86 1653.56 1174.81 1653.56 1198.15C1653.56 1221.5 1721 1221.45 1721 1244.79C1721 1268.14 1653.56 1268.09 1653.56 1291.44C1653.56 1314.78 1721 1314.72 1721 1338.08C1721 1361.42 1653.56 1361.37 1653.56 1384.72C1653.56 1408.06 1721 1408.01 1721 1431.36C1721 1454.7 1653.56 1454.65 1653.56 1478C1653.56 1501.35 1721 1501.29 1721 1524.64C1721 1547.99 1653.56 1547.99 1653.56 1571.28C1653.56 1594.58 1721 1594.58 1721 1617.92C1721 1641.27 1645.8 1651.36 1655.45 1673.42C1670.76 1708.58 1731.12 1718.39 1707.85 1732.56V1732.35Z"
              fill="#E8D4FF"/>
        <g opacity="0.03">
            <path fill-rule="evenodd" clip-rule="evenodd"
                  d="M-157.099 -22.2928L-65.2774 68.7514L116.109 -111.097L89.2197 -137.758C88.9094 -137.75 88.5976 -137.745 88.2859 -137.745H-62.1184C-79.5762 -137.745 -93.7291 -151.779 -93.7291 -169.088C-93.7291 -186.398 -79.5762 -200.43 -62.1184 -200.43H26.0131L-65.2774 -290.947L-246.662 -111.097L-220.297 -84.9555C-219.906 -84.9693 -219.513 -84.9772 -219.119 -84.9772H-68.7146C-51.2569 -84.9772 -37.1039 -70.944 -37.1039 -53.6345C-37.1039 -36.3239 -51.2569 -22.2928 -68.7146 -22.2928H-157.099ZM-321.168 -125.873C-329.397 -117.713 -329.397 -104.482 -321.168 -96.3221L-80.1783 142.626C-71.9484 150.786 -58.605 150.786 -50.3751 142.626L190.615 -96.3221C198.844 -104.482 198.844 -117.713 190.615 -125.873L-50.3751 -364.821C-58.605 -372.981 -71.9484 -372.981 -80.1783 -364.821L-321.168 -125.873Z"
                  fill="#271437"/>
            <path fill-rule="evenodd" clip-rule="evenodd"
                  d="M422.28 -21.7713L514.102 69.2729L695.488 -110.576L668.599 -137.237C668.288 -137.229 667.977 -137.224 667.665 -137.224H517.261C499.803 -137.224 485.65 -151.257 485.65 -168.567C485.65 -185.877 499.803 -199.908 517.261 -199.908H605.392L514.102 -290.425L332.717 -110.576L359.082 -84.4349C359.473 -84.4478 359.866 -84.4557 360.26 -84.4557H510.664C528.122 -84.4557 542.275 -70.4226 542.275 -53.113C542.275 -35.8035 528.122 -21.7713 510.664 -21.7713H422.28ZM258.211 -125.352C249.982 -117.192 249.982 -103.962 258.211 -95.8016L499.201 143.147C507.431 151.308 520.774 151.308 529.004 143.147L769.994 -95.8016C778.223 -103.962 778.223 -117.192 769.994 -125.352L529.004 -364.3C520.774 -372.46 507.431 -372.46 499.201 -364.3L258.211 -125.352Z"
                  fill="#271437"/>
            <path fill-rule="evenodd" clip-rule="evenodd"
                  d="M422.28 546.21L514.102 637.251L695.488 457.406L668.599 430.741C668.288 430.751 667.977 430.761 667.665 430.761H517.261C499.803 430.761 485.65 416.728 485.65 399.415C485.65 382.101 499.803 368.069 517.261 368.069H605.392L514.102 277.555L332.717 457.406L359.082 483.548C359.473 483.529 359.866 483.529 360.26 483.529H510.664C528.122 483.529 542.275 497.561 542.275 514.865C542.275 532.178 528.122 546.21 510.664 546.21H422.28ZM258.211 442.625C249.982 450.784 249.982 464.018 258.211 472.177L499.201 711.127C507.431 719.286 520.774 719.286 529.004 711.127L769.994 472.177C778.223 464.018 778.223 450.784 769.994 442.625L529.004 203.681C520.774 195.521 507.431 195.521 499.201 203.681L258.211 442.625Z"
                  fill="#271437"/>
            <path fill-rule="evenodd" clip-rule="evenodd"
                  d="M135.249 261.167L227.07 352.214L408.457 172.363L381.568 145.702C381.257 145.71 380.945 145.715 380.634 145.715H230.229C212.772 145.715 198.619 131.682 198.619 114.372C198.619 97.0626 212.772 83.0305 230.229 83.0305H318.361L227.07 -7.48657L45.6854 172.363L72.0509 198.505C72.4419 198.491 72.8346 198.483 73.229 198.483H223.633C241.091 198.483 255.244 212.516 255.244 229.826C255.244 247.136 241.091 261.167 223.633 261.167H135.249ZM-28.82 157.587C-37.0496 165.747 -37.0496 178.978 -28.82 187.138L212.169 426.089C220.399 434.248 233.743 434.248 241.973 426.089L482.962 187.138C491.192 178.978 491.192 165.747 482.962 157.587L241.973 -81.3611C233.743 -89.5202 220.399 -89.5202 212.169 -81.3611L-28.82 157.587Z"
                  fill="#271437"/>
            <path fill-rule="evenodd" clip-rule="evenodd"
                  d="M422.28 1123.65L514.102 1214.7L695.488 1034.85L668.599 1008.19C668.288 1008.2 667.977 1008.21 667.665 1008.21H517.261C499.803 1008.21 485.65 994.173 485.65 976.859C485.65 959.546 499.803 945.514 517.261 945.514H605.392L514.102 855.005L332.717 1034.85L359.082 1060.99C359.473 1060.98 359.866 1060.97 360.26 1060.97H510.664C528.122 1060.97 542.275 1075.01 542.275 1092.31C542.275 1109.62 528.122 1123.65 510.664 1123.65H422.28ZM258.211 1020.08C249.982 1028.24 249.982 1041.46 258.211 1049.62L499.201 1288.57C507.431 1296.73 520.774 1296.73 529.004 1288.57L769.994 1049.62C778.223 1041.46 778.223 1028.24 769.994 1020.08L529.004 781.129C520.774 772.97 507.431 772.97 499.201 781.129L258.211 1020.08Z"
                  fill="#271437"/>
            <path fill-rule="evenodd" clip-rule="evenodd"
                  d="M422.28 1699L514.102 1790.04L695.488 1610.2L668.599 1583.53C668.288 1583.54 667.977 1583.54 667.665 1583.54H517.261C499.803 1583.54 485.65 1569.51 485.65 1552.21C485.65 1534.89 499.803 1520.86 517.261 1520.86H605.392L514.102 1430.34L332.717 1610.2L359.082 1636.34C359.473 1636.32 359.866 1636.31 360.26 1636.31H510.664C528.122 1636.31 542.275 1650.34 542.275 1667.65C542.275 1684.97 528.122 1699 510.664 1699H422.28ZM258.211 1595.42C249.982 1603.57 249.982 1616.81 258.211 1624.97L499.201 1863.92C507.431 1872.08 520.774 1872.08 529.004 1863.92L769.994 1624.97C778.223 1616.81 778.223 1603.57 769.994 1595.42L529.004 1356.47C520.774 1348.31 507.431 1348.31 499.201 1356.47L258.211 1595.42Z"
                  fill="#271437"/>
            <path fill-rule="evenodd" clip-rule="evenodd"
                  d="M135.249 834.401L227.07 925.452L408.457 745.596L381.568 718.941C381.257 718.951 380.945 718.951 380.634 718.951H230.229C212.772 718.951 198.619 704.919 198.619 687.605C198.619 670.302 212.772 656.27 230.229 656.27H318.361L227.07 565.751L45.6854 745.596L72.0509 771.739C72.4419 771.729 72.8346 771.719 73.229 771.719H223.633C241.091 771.719 255.244 785.751 255.244 803.065C255.244 820.369 241.091 834.401 223.633 834.401H135.249ZM-28.82 730.825C-37.0496 738.984 -37.0496 752.218 -28.82 760.377L212.169 999.327C220.399 1007.49 233.743 1007.49 241.973 999.327L482.962 760.377C491.192 752.218 491.192 738.984 482.962 730.825L241.973 491.875C233.743 483.716 220.399 483.716 212.169 491.875L-28.82 730.825Z"
                  fill="#271437"/>
            <path fill-rule="evenodd" clip-rule="evenodd"
                  d="M135.249 1415.01L227.07 1506.05L408.457 1326.2L381.568 1299.54C381.257 1299.55 380.945 1299.55 380.634 1299.55H230.229C212.772 1299.55 198.619 1285.52 198.619 1268.21C198.619 1250.9 212.772 1236.87 230.229 1236.87H318.361L227.07 1146.35L45.6854 1326.2L72.0509 1352.34C72.4419 1352.33 72.8346 1352.32 73.229 1352.32H223.633C241.091 1352.32 255.244 1366.35 255.244 1383.66C255.244 1400.98 241.091 1415.01 223.633 1415.01H135.249ZM-28.82 1311.42C-37.0496 1319.58 -37.0496 1332.82 -28.82 1340.98L212.169 1579.93C220.399 1588.08 233.743 1588.08 241.973 1579.93L482.962 1340.98C491.192 1332.82 491.192 1319.58 482.962 1311.42L241.973 1072.47C233.743 1064.31 220.399 1064.31 212.169 1072.47L-28.82 1311.42Z"
                  fill="#271437"/>
            <path fill-rule="evenodd" clip-rule="evenodd"
                  d="M135.249 1990.34L227.07 2081.4L408.457 1901.54L381.568 1874.88C381.257 1874.89 380.945 1874.89 380.634 1874.89H230.229C212.772 1874.89 198.619 1860.86 198.619 1843.55C198.619 1826.25 212.772 1812.21 230.229 1812.21H318.361L227.07 1721.69L45.6854 1901.54L72.0509 1927.68C72.4419 1927.67 72.8346 1927.66 73.229 1927.66H223.633C241.091 1927.66 255.244 1941.69 255.244 1959.01C255.244 1976.31 241.091 1990.34 223.633 1990.34H135.249ZM-28.82 1886.77C-37.0496 1894.93 -37.0496 1908.16 -28.82 1916.32L212.169 2155.27C220.399 2163.43 233.743 2163.43 241.973 2155.27L482.962 1916.32C491.192 1908.16 491.192 1894.93 482.962 1886.77L241.973 1647.82C233.743 1639.66 220.399 1639.66 212.169 1647.82L-28.82 1886.77Z"
                  fill="#271437"/>
            <path fill-rule="evenodd" clip-rule="evenodd"
                  d="M-157.099 1123.65L-65.2774 1214.7L116.109 1034.85L89.2197 1008.19C88.9094 1008.2 88.5976 1008.21 88.2859 1008.21H-62.1184C-79.5762 1008.21 -93.7291 994.173 -93.7291 976.859C-93.7291 959.546 -79.5762 945.514 -62.1184 945.514H26.0131L-65.2774 855.005L-246.662 1034.85L-220.297 1060.99C-219.906 1060.98 -219.513 1060.97 -219.119 1060.97H-68.7146C-51.2569 1060.97 -37.1039 1075.01 -37.1039 1092.31C-37.1039 1109.62 -51.2569 1123.65 -68.7146 1123.65H-157.099ZM-321.168 1020.08C-329.397 1028.24 -329.397 1041.46 -321.168 1049.62L-80.1783 1288.57C-71.9484 1296.73 -58.605 1296.73 -50.3751 1288.57L190.615 1049.62C198.844 1041.46 198.844 1028.24 190.615 1020.08L-50.3751 781.129C-58.605 772.97 -71.9484 772.97 -80.1783 781.129L-321.168 1020.08Z"
                  fill="#271437"/>
            <path fill-rule="evenodd" clip-rule="evenodd"
                  d="M-157.099 546.21L-65.2774 637.251L116.109 457.406L89.2197 430.741C88.9094 430.751 88.5976 430.761 88.2859 430.761H-62.1184C-79.5762 430.761 -93.7291 416.728 -93.7291 399.415C-93.7291 382.101 -79.5762 368.069 -62.1184 368.069H26.0131L-65.2774 277.555L-246.662 457.406L-220.297 483.548C-219.906 483.529 -219.513 483.529 -219.119 483.529H-68.7146C-51.2569 483.529 -37.1039 497.561 -37.1039 514.865C-37.1039 532.178 -51.2569 546.21 -68.7146 546.21H-157.099ZM-321.168 442.625C-329.397 450.784 -329.397 464.018 -321.168 472.177L-80.1783 711.127C-71.9484 719.286 -58.605 719.286 -50.3751 711.127L190.615 472.177C198.844 464.018 198.844 450.784 190.615 442.625L-50.3751 203.681C-58.605 195.521 -71.9484 195.521 -80.1783 203.681L-321.168 442.625Z"
                  fill="#271437"/>
            <path fill-rule="evenodd" clip-rule="evenodd"
                  d="M-157.099 1699L-65.2774 1790.04L116.109 1610.2L89.2197 1583.53C88.9094 1583.54 88.5976 1583.54 88.2859 1583.54H-62.1184C-79.5762 1583.54 -93.7291 1569.51 -93.7291 1552.21C-93.7291 1534.89 -79.5762 1520.86 -62.1184 1520.86H26.0131L-65.2774 1430.34L-246.662 1610.2L-220.297 1636.34C-219.906 1636.32 -219.513 1636.31 -219.119 1636.31H-68.7146C-51.2569 1636.31 -37.1039 1650.34 -37.1039 1667.65C-37.1039 1684.97 -51.2569 1699 -68.7146 1699H-157.099ZM-321.168 1595.42C-329.397 1603.57 -329.397 1616.81 -321.168 1624.97L-80.1783 1863.92C-71.9484 1872.08 -58.605 1872.08 -50.3751 1863.92L190.615 1624.97C198.844 1616.81 198.844 1603.57 190.615 1595.42L-50.3751 1356.47C-58.605 1348.31 -71.9484 1348.31 -80.1783 1356.47L-321.168 1595.42Z"
                  fill="#271437"/>
        </g>
    </g>
    <defs>
        <clipPath id="clip0_344_3">
            <rect width="430" height="1749" fill="white"/>
        </clipPath>
    </defs>
</svg>
