<svg width="91" height="94" viewBox="0 0 91 94" fill="none" xmlns="http://www.w3.org/2000/svg">
    <path d="M45.5039 2.00098C47.391 2.00867 48.9402 3.07467 50.1279 4.43359C51.3276 5.8061 52.3652 7.69785 53.2637 9.91016C54.8326 13.7734 56.1106 18.9524 57.0137 24.96C62.4827 22.3881 67.4713 20.5929 71.5332 19.7695C73.8606 19.2978 76.0011 19.1203 77.8027 19.3672C79.4848 19.5978 81.1196 20.2414 82.1777 21.623L82.3818 21.9092L82.3877 21.918L82.5527 22.1885C83.3292 23.5571 83.3769 25.1302 83.0625 26.6299C82.7282 28.2244 81.9495 29.9352 80.8838 31.6865C79.1126 34.5972 76.3826 37.8827 72.9365 41.3281C77.3968 43.2319 81.1421 45.2556 83.8643 47.2832C85.5027 48.5036 86.8615 49.7916 87.7666 51.1348C88.673 52.48 89.2402 54.0649 88.9023 55.7354L88.8994 55.748C88.5842 57.2549 87.6322 58.4172 86.4463 59.2773C85.2748 60.127 83.7772 60.76 82.1006 61.2354C79.4791 61.9786 76.1642 62.4044 72.3682 62.5469C74.0902 65.9642 75.3306 69.0974 75.96 71.7705C76.3618 73.477 76.5398 75.0997 76.376 76.5381C76.2106 77.9898 75.6753 79.3961 74.5195 80.4102L74.5137 80.415C73.2884 81.4819 71.7312 81.8002 70.1924 81.7148C68.6669 81.6302 66.9953 81.1459 65.2656 80.4062C62.4864 79.2177 59.2909 77.2526 55.8711 74.6904C54.9381 78.8927 53.791 82.4913 52.458 85.2236C51.6298 86.9212 50.6824 88.3858 49.5889 89.4521C48.4878 90.5258 47.1065 91.3154 45.4834 91.3154C43.587 91.3154 42.0309 90.2457 40.8389 88.8818C39.6392 87.5093 38.6016 85.6176 37.7031 83.4053C36.1342 79.542 34.8552 74.3632 33.9521 68.3555C28.4834 70.9271 23.4954 72.7226 19.4336 73.5459C17.1062 74.0176 14.9657 74.1952 13.1641 73.9482C11.3699 73.7023 9.62908 72.9866 8.58496 71.4062L8.5791 71.3975C7.64583 69.9681 7.56899 68.285 7.9043 66.6855C8.23859 65.0911 9.01737 63.3811 10.083 61.6299C11.8542 58.7192 14.5822 55.4318 18.0283 51.9863C13.571 50.0859 9.82567 48.0705 7.10645 46.042C5.4688 44.8203 4.11002 43.5263 3.20898 42.1699C2.30333 40.8064 1.75591 39.2101 2.10547 37.5303C2.41149 36.0262 3.36542 34.8689 4.54297 34.0156C5.71178 33.1688 7.20935 32.5369 8.88574 32.0615C11.5032 31.3194 14.8115 30.8916 18.5928 30.7578C16.8736 27.3447 15.6356 24.2152 15.0068 21.5449C14.6051 19.8386 14.4271 18.2165 14.5908 16.7783C14.7562 15.3266 15.2917 13.9204 16.4473 12.9062L16.4531 12.9014L16.6865 12.71C17.8703 11.7976 19.3261 11.5182 20.7686 11.5938C22.2939 11.6737 23.9657 12.1529 25.6963 12.8877C28.4767 14.0683 31.6732 16.0253 35.0938 18.585C36.0267 14.3831 37.1755 10.7855 38.5088 8.05664C39.3372 6.36118 40.2863 4.8981 41.3828 3.83594C42.4831 2.77013 43.8637 1.99076 45.4834 2.00098V2C45.4857 2 45.488 2.00097 45.4902 2.00098C45.495 2.00101 45.5002 1.99995 45.5049 2L45.5039 2.00098Z"
          fill="#16DD12" stroke="#262F3B" stroke-width="4"/>
</svg>
