<svg width="99" height="101" viewBox="0 0 99 101" fill="none" xmlns="http://www.w3.org/2000/svg">
    <path d="M92.1647 34.5039C96.8664 37.9773 97.7035 44.8335 96.322 52.076C94.9062 59.4988 91.0436 68.1716 85.1432 76.4112C79.2429 84.6506 72.3092 91.0545 65.789 94.7072C59.425 98.2724 52.7403 99.5679 48.0286 96.0874C45.2572 94.04 43.8363 90.7883 43.4103 87.0902C43.1367 84.7149 43.2622 82.0796 43.7343 79.2869C41.266 80.6058 38.8355 81.5387 36.5241 82.0046C32.9252 82.73 29.4363 82.3531 26.6657 80.3065C22.7026 77.3787 21.4741 72.064 22.0129 66.1147C16.6063 68.4679 11.2502 68.9189 7.28698 65.9912C2.57538 62.5107 1.73047 55.6529 3.10944 48.4054C4.52234 40.98 8.38416 32.3068 14.2844 24.0673C20.1847 15.8278 27.1197 9.42387 33.6399 5.77114C40.0038 2.20615 46.6879 0.909939 51.3995 4.39039C55.3625 7.31788 56.5906 12.632 56.0521 18.5808C61.4585 16.2277 66.8151 15.7782 70.7782 18.7056C73.5488 20.7522 74.9765 24.0076 75.4087 27.7093C75.6864 30.0883 75.5638 32.7276 75.0935 35.5239C77.5626 34.2044 79.9943 33.2718 82.3063 32.8058C85.9052 32.0804 89.3942 32.4573 92.1647 34.5039Z"
          fill="#F9CC00" stroke="#262F3B" stroke-width="4"/>
</svg>
