<svg width="32" height="34" viewBox="0 0 32 34" fill="none" xmlns="http://www.w3.org/2000/svg">
    <path d="M26.5059 2.28346L27.2539 3.87428V3.87526L27.457 4.32643C28.9165 7.73024 28.9655 11.448 27.8428 14.7356L28.25 15.2659L28.9688 16.2014L28.9727 16.2073L29.2627 16.6116C32.1477 20.8488 31.3789 26.763 27.4033 30.0305L27.4004 30.0325C23.2402 33.4241 17.2646 32.6429 14.0264 28.3635V28.3626L13.3125 27.4339L12.7227 26.6653L13.4717 26.051L15.8027 24.138C10.4919 24.4509 5.29607 21.4808 2.84277 16.2356L2.84375 16.2346L2.09473 14.6467L1.68262 13.7698L2.5459 13.3303L25.1465 1.81862L26.0664 1.34987L26.5059 2.28346Z"
          fill="#8E54D3" stroke="black" stroke-width="2"/>
</svg>
