<svg width="1440" height="1028" viewBox="0 0 1440 1028" fill="none" xmlns="http://www.w3.org/2000/svg">
    <g opacity="0.25">
        <path d="M-389.155 747.252C-325.743 689.855 -260.53 634.687 -193.875 581.376C-200 586.206 -205.945 591.035 -212.07 595.865C-66.6915 480.142 86.2532 372.22 249.286 284.36C286.937 264.113 325.308 244.981 364.4 227.892C357.194 231.049 349.988 234.207 342.963 237.179C397.187 213.589 453.753 192.413 512.301 184.24C504.374 185.354 496.268 186.469 488.341 187.583C508.338 184.983 528.514 183.868 548.51 186.469C540.584 185.354 532.477 184.24 524.551 183.125C535.179 184.611 545.628 187.212 555.716 191.484C548.51 188.326 541.304 185.169 534.279 182.197C540.764 185.169 546.889 188.698 552.654 193.156C546.529 188.327 540.584 183.497 534.459 178.667C541.124 184.054 546.709 190.37 551.933 197.243C547.249 190.927 542.565 184.797 537.882 178.482C543.106 185.54 547.429 193.156 551.032 201.329C547.97 193.899 544.907 186.469 542.025 179.225C545.988 188.884 548.51 198.729 549.952 208.945C548.871 200.772 547.79 192.413 546.709 184.24C548.33 197.614 547.97 210.802 546.349 223.991C547.429 215.818 548.51 207.459 549.591 199.286C546.168 224.362 538.242 248.324 528.874 271.729C531.937 264.299 534.999 256.869 537.882 249.624C517.885 298.477 492.485 344.729 471.407 393.21C443.305 458.037 417.724 524.35 396.466 591.964C377.01 653.819 352.15 724.219 370.885 789.603C384.937 838.827 422.407 879.507 471.768 891.209C512.661 901.054 553.735 892.324 592.646 878.95C709.742 839.013 811.705 769.171 914.749 701.186C979.782 658.277 1043.37 613.697 1107.69 569.674C1182.63 518.592 1259.19 467.325 1342.06 430.918C1334.85 434.075 1327.65 437.233 1320.62 440.205C1348 428.317 1376.65 417.915 1406.19 413.643C1398.26 414.757 1390.16 415.872 1382.23 416.986C1394.48 415.314 1406.91 414.757 1419.34 416.429C1411.41 415.314 1403.31 414.2 1395.38 413.085C1402.59 414.2 1409.61 415.872 1416.46 418.844C1409.25 415.686 1402.05 412.528 1395.02 409.556C1400.61 411.971 1405.83 415.129 1410.69 419.03C1404.57 414.2 1398.62 409.37 1392.5 404.541C1397 408.256 1400.97 412.528 1404.57 417.172C1399.88 410.856 1395.2 404.727 1390.52 398.411C1393.94 403.055 1396.64 407.884 1398.98 413.271C1395.92 405.841 1392.86 398.411 1389.98 391.167C1391.96 396.368 1393.4 401.755 1394.3 407.513C1393.22 399.34 1392.14 390.981 1391.06 382.808C1391.96 390.238 1391.78 397.482 1391.06 404.727C1392.14 396.554 1393.22 388.195 1394.3 380.022C1392.5 393.21 1388.54 405.841 1383.67 418.101C1386.73 410.671 1389.8 403.241 1392.68 395.996C1377.73 431.846 1355.21 463.796 1332.33 494.445C1337.01 488.129 1341.7 481.999 1346.38 475.684C1311.07 522.864 1271.98 567.259 1240.45 617.226C1203.16 676.295 1174.34 746.695 1174.7 818.209C1175.24 904.212 1221.18 1002.1 1309.27 1022.54C1386.19 1040.55 1459.51 1003.96 1519.86 957.522C1549.95 934.489 1578.77 910.156 1604.71 882.293C1631.19 853.687 1655.15 822.11 1676.41 789.232C1689.02 769.914 1691.36 739.45 1685.42 717.717C1679.65 696.17 1663.44 672.766 1643.98 662.178C1623.09 650.847 1597.69 645.089 1574.63 652.89C1551.57 660.692 1534.45 674.623 1520.76 695.613C1513.74 706.387 1506.53 716.789 1498.79 727.191C1503.47 720.875 1508.15 714.745 1512.84 708.43C1485.45 744.651 1453.93 777.158 1418.8 805.392C1424.93 800.562 1430.87 795.733 1436.99 790.903C1411.77 810.965 1384.93 829.911 1355.75 842.914C1362.95 839.756 1370.16 836.598 1377.19 833.626C1365.66 838.642 1353.77 842.357 1341.34 844.4C1349.26 843.285 1357.37 842.171 1365.3 841.056C1356.65 842.171 1348 842.542 1339.36 841.428C1347.28 842.542 1355.39 843.657 1363.31 844.771C1356.83 843.657 1350.7 841.985 1344.76 839.57C1351.97 842.728 1359.17 845.886 1366.2 848.858C1360.43 846.072 1355.03 842.914 1349.98 838.827C1356.11 843.657 1362.05 848.486 1368.18 853.316C1363.32 849.229 1359.17 844.771 1355.21 839.756C1359.89 846.072 1364.58 852.201 1369.26 858.517C1362.77 849.972 1357.91 840.685 1353.77 830.654C1356.83 838.084 1359.89 845.514 1362.77 852.759C1357.91 840.128 1354.49 827.125 1352.69 813.565C1353.77 821.738 1354.85 830.097 1355.93 838.27C1354.13 822.667 1354.49 807.25 1356.47 791.646C1355.39 799.82 1354.31 808.178 1353.23 816.351C1356.29 794.618 1362.59 773.814 1370.7 753.567C1367.64 760.997 1364.58 768.428 1361.69 775.672C1377.73 737.036 1400.25 701.743 1425.11 668.493C1420.42 674.809 1415.74 680.939 1411.05 687.254C1446.18 640.816 1484.19 596.422 1516.26 547.569C1550.31 495.559 1577.69 434.447 1569.4 370.363C1564.9 335.813 1550.49 306.093 1527.61 280.645C1509.59 260.584 1487.08 248.51 1462.58 239.222C1444.2 232.164 1423.48 229.935 1404.03 229.935C1382.41 229.935 1360.61 233.464 1339.54 238.479C1298.28 248.138 1258.47 266.528 1220.46 285.289C1181.91 304.421 1144.8 326.34 1108.23 349.373C1035.63 395.068 965.911 445.406 894.933 494.073C855.301 521.193 815.128 547.012 775.135 573.575C723.433 607.753 671.19 641.559 616.065 669.794C602.194 676.852 587.963 683.539 573.731 689.855C580.937 686.697 588.143 683.539 595.168 680.567C564.183 693.941 531.396 707.873 497.889 712.888C505.815 711.773 513.922 710.659 521.849 709.544C514.102 710.473 506.536 710.659 498.79 709.73C506.716 710.845 514.823 711.959 522.749 713.074C518.426 712.331 514.463 711.216 510.319 709.73C517.525 712.888 524.731 716.046 531.757 719.018C527.974 717.346 524.371 715.303 520.948 712.888C527.073 717.717 533.018 722.547 539.143 727.377C535.72 724.59 532.838 721.618 529.955 718.089C534.639 724.404 539.323 730.534 544.007 736.85C541.485 733.321 539.503 729.791 537.702 725.705C540.764 733.135 543.827 740.565 546.709 747.809C544.367 742.051 542.926 736.107 541.845 729.977C542.926 738.15 544.007 746.509 545.088 754.682C543.646 743.165 544.007 731.835 545.448 720.504C544.367 728.677 543.286 737.036 542.205 745.209C547.79 704.901 562.021 664.964 574.632 626.514C588.503 583.605 603.996 541.44 621.11 499.831C618.047 507.261 614.985 514.691 612.102 521.936C638.404 457.666 671.551 396.739 697.852 332.655C728.657 257.24 743.609 169.38 699.834 95.2651C673.713 51.0563 631.738 16.8781 582.018 6.29031C536.621 -3.36876 494.286 -0.0252356 448.889 8.14782C409.077 15.0206 370.345 27.8374 332.694 42.6975C279.551 63.5017 227.669 87.6493 177.047 114.212C68.2386 171.052 -35.5261 238.108 -135.868 309.436C-254.224 393.767 -368.257 484.6 -477.607 581.005C-490.757 592.521 -503.728 604.223 -516.699 615.926C-533.272 630.972 -543 659.206 -543 681.496C-543 704.343 -533.272 731.463 -516.699 747.252C-499.585 763.412 -477.066 775.486 -452.927 774.372C-428.246 773.257 -407.89 764.155 -389.155 747.252Z"
              fill="#232D39"/>
    </g>
</svg>
