<svg width="1440" height="2717" viewBox="0 0 1440 2717" fill="none" xmlns="http://www.w3.org/2000/svg">
    <g opacity="0.05">
        <path fill-rule="evenodd" clip-rule="evenodd"
              d="M359.385 617.705L445.222 705.075L614.787 532.485L589.651 506.9C589.361 506.908 589.069 506.913 588.778 506.913H448.175C431.855 506.913 418.625 493.446 418.625 476.835C418.625 460.224 431.855 446.758 448.175 446.758H530.563L445.222 359.895L275.658 532.485L300.305 557.571C300.671 557.559 301.038 557.551 301.407 557.551H442.009C458.329 557.551 471.56 571.018 471.56 587.629C471.56 604.24 458.329 617.705 442.009 617.705H359.385ZM206.008 518.306C198.315 526.136 198.315 538.833 206.008 546.663L431.292 775.967C438.986 783.798 451.46 783.798 459.153 775.967L684.438 546.663C692.131 538.833 692.131 526.136 684.438 518.306L459.153 289.002C451.46 281.171 438.986 281.171 431.292 289.002L206.008 518.306Z"
              fill="#2C3B4D"/>
        <path fill-rule="evenodd" clip-rule="evenodd"
              d="M901.006 618.206L986.843 705.575L1156.41 532.986L1131.27 507.401C1130.98 507.409 1130.69 507.414 1130.4 507.414H989.796C973.476 507.414 960.246 493.947 960.246 477.336C960.246 460.725 973.476 447.259 989.796 447.259H1072.18L986.843 360.396L817.279 532.986L841.926 558.072C842.292 558.059 842.659 558.052 843.028 558.052H983.63C999.95 558.052 1013.18 571.518 1013.18 588.13C1013.18 604.741 999.95 618.206 983.63 618.206H901.006ZM747.629 518.806C739.936 526.637 739.936 539.334 747.629 547.164L972.913 776.468C980.607 784.299 993.081 784.299 1000.77 776.468L1226.06 547.164C1233.75 539.334 1233.75 526.637 1226.06 518.806L1000.77 289.503C993.081 281.672 980.607 281.672 972.913 289.503L747.629 518.806Z"
              fill="#2C3B4D"/>
        <path fill-rule="evenodd" clip-rule="evenodd"
              d="M1446.6 618.206L1532.44 705.575L1702.01 532.986L1676.87 507.401C1676.58 507.409 1676.29 507.414 1676 507.414H1535.39C1519.07 507.414 1505.84 493.947 1505.84 477.336C1505.84 460.725 1519.07 447.259 1535.39 447.259H1617.78L1532.44 360.396L1362.88 532.986L1387.52 558.072C1387.89 558.059 1388.26 558.052 1388.63 558.052H1529.23C1545.55 558.052 1558.78 571.518 1558.78 588.13C1558.78 604.741 1545.55 618.206 1529.23 618.206H1446.6ZM1293.23 518.806C1285.53 526.637 1285.53 539.334 1293.23 547.164L1518.51 776.468C1526.2 784.299 1538.68 784.299 1546.37 776.468L1771.66 547.164C1779.35 539.334 1779.35 526.637 1771.66 518.806L1546.37 289.503C1538.68 281.672 1526.2 281.672 1518.51 289.503L1293.23 518.806Z"
              fill="#2C3B4D"/>
        <path fill-rule="evenodd" clip-rule="evenodd"
              d="M1176.29 889.724L1262.12 977.093L1431.69 804.504L1406.55 778.918C1406.26 778.926 1405.97 778.931 1405.68 778.931H1265.08C1248.76 778.931 1235.53 765.464 1235.53 748.853C1235.53 732.242 1248.76 718.777 1265.08 718.777H1347.47L1262.12 631.913L1092.56 804.504L1117.21 829.59C1117.57 829.577 1117.94 829.569 1118.31 829.569H1258.91C1275.23 829.569 1288.46 843.036 1288.46 859.647C1288.46 876.258 1275.23 889.724 1258.91 889.724H1176.29ZM1022.91 790.324C1015.22 798.155 1015.22 810.851 1022.91 818.682L1248.19 1047.99C1255.89 1055.82 1268.36 1055.82 1276.06 1047.99L1501.34 818.682C1509.03 810.851 1509.03 798.155 1501.34 790.324L1276.06 561.02C1268.36 553.19 1255.89 553.19 1248.19 561.02L1022.91 790.324Z"
              fill="#2C3B4D"/>
        <path fill-rule="evenodd" clip-rule="evenodd"
              d="M901.006 1163.26L986.843 1250.63L1156.41 1078.04L1131.27 1052.45C1130.98 1052.46 1130.69 1052.47 1130.4 1052.47H989.796C973.476 1052.47 960.246 1039 960.246 1022.39C960.246 1005.78 973.476 992.313 989.796 992.313H1072.18L986.843 905.449L817.279 1078.04L841.926 1103.13C842.292 1103.11 842.659 1103.11 843.028 1103.11H983.63C999.95 1103.11 1013.18 1116.57 1013.18 1133.18C1013.18 1149.79 999.95 1163.26 983.63 1163.26H901.006ZM747.629 1063.86C739.936 1071.69 739.936 1084.39 747.629 1092.22L972.913 1321.52C980.607 1329.35 993.081 1329.35 1000.77 1321.52L1226.06 1092.22C1233.75 1084.39 1233.75 1071.69 1226.06 1063.86L1000.77 834.556C993.081 826.726 980.607 826.726 972.913 834.556L747.629 1063.86Z"
              fill="#2C3B4D"/>
        <path fill-rule="evenodd" clip-rule="evenodd"
              d="M632.681 889.724L718.519 977.093L888.084 804.504L862.948 778.918C862.657 778.926 862.366 778.931 862.075 778.931H721.472C705.152 778.931 691.921 765.464 691.921 748.853C691.921 732.242 705.152 718.777 721.472 718.777H803.86L718.519 631.913L548.955 804.504L573.602 829.59C573.968 829.577 574.335 829.569 574.704 829.569H715.306C731.626 829.569 744.856 843.036 744.856 859.647C744.856 876.258 731.626 889.724 715.306 889.724H632.681ZM479.305 790.324C471.612 798.155 471.612 810.851 479.305 818.682L704.589 1047.99C712.283 1055.82 724.757 1055.82 732.45 1047.99L957.734 818.682C965.428 810.851 965.428 798.155 957.734 790.324L732.45 561.02C724.757 553.19 712.283 553.19 704.589 561.02L479.305 790.324Z"
              fill="#2C3B4D"/>
        <path fill-rule="evenodd" clip-rule="evenodd"
              d="M1176.29 1439.82L1262.12 1527.19L1431.69 1354.6L1406.55 1329.02C1406.26 1329.03 1405.97 1329.03 1405.68 1329.03H1265.08C1248.76 1329.03 1235.53 1315.57 1235.53 1298.95C1235.53 1282.34 1248.76 1268.88 1265.08 1268.88H1347.47L1262.12 1182.01L1092.56 1354.6L1117.21 1379.69C1117.57 1379.68 1117.94 1379.67 1118.31 1379.67H1258.91C1275.23 1379.67 1288.46 1393.14 1288.46 1409.75C1288.46 1426.36 1275.23 1439.82 1258.91 1439.82H1176.29ZM1022.91 1340.43C1015.22 1348.26 1015.22 1360.95 1022.91 1368.78L1248.19 1598.09C1255.89 1605.92 1268.36 1605.92 1276.06 1598.09L1501.34 1368.78C1509.03 1360.95 1509.03 1348.26 1501.34 1340.43L1276.06 1111.12C1268.36 1103.29 1255.89 1103.29 1248.19 1111.12L1022.91 1340.43Z"
              fill="#2C3B4D"/>
        <path fill-rule="evenodd" clip-rule="evenodd"
              d="M901.006 1717.4L986.843 1804.77L1156.41 1632.18L1131.27 1606.59C1130.98 1606.6 1130.69 1606.61 1130.4 1606.61H989.796C973.476 1606.61 960.246 1593.14 960.246 1576.53C960.246 1559.92 973.476 1546.45 989.796 1546.45H1072.18L986.843 1459.59L817.279 1632.18L841.926 1657.27C842.292 1657.25 842.659 1657.25 843.028 1657.25H983.63C999.95 1657.25 1013.18 1670.71 1013.18 1687.32C1013.18 1703.93 999.95 1717.4 983.63 1717.4H901.006ZM747.629 1618C739.936 1625.83 739.936 1638.53 747.629 1646.36L972.913 1875.66C980.607 1883.49 993.081 1883.49 1000.77 1875.66L1226.06 1646.36C1233.75 1638.53 1233.75 1625.83 1226.06 1618L1000.77 1388.7C993.081 1380.87 980.607 1380.87 972.913 1388.7L747.629 1618Z"
              fill="#2C3B4D"/>
        <path fill-rule="evenodd" clip-rule="evenodd"
              d="M901.006 2269.52L986.843 2356.89L1156.41 2184.3L1131.27 2158.71C1130.98 2158.72 1130.69 2158.73 1130.4 2158.73H989.796C973.476 2158.73 960.246 2145.26 960.246 2128.65C960.246 2112.04 973.476 2098.57 989.796 2098.57H1072.18L986.843 2011.71L817.279 2184.3L841.926 2209.39C842.292 2209.37 842.659 2209.37 843.028 2209.37H983.63C999.95 2209.37 1013.18 2222.83 1013.18 2239.44C1013.18 2256.05 999.95 2269.52 983.63 2269.52H901.006ZM747.629 2170.12C739.936 2177.95 739.936 2190.65 747.629 2198.48L972.913 2427.78C980.607 2435.61 993.081 2435.61 1000.77 2427.78L1226.06 2198.48C1233.75 2190.65 1233.75 2177.95 1226.06 2170.12L1000.77 1940.82C993.081 1932.99 980.607 1932.99 972.913 1940.82L747.629 2170.12Z"
              fill="#2C3B4D"/>
        <path fill-rule="evenodd" clip-rule="evenodd"
              d="M1446.6 1163.26L1532.44 1250.63L1702.01 1078.04L1676.87 1052.45C1676.58 1052.46 1676.29 1052.47 1676 1052.47H1535.39C1519.07 1052.47 1505.84 1039 1505.84 1022.39C1505.84 1005.78 1519.07 992.313 1535.39 992.313H1617.78L1532.44 905.449L1362.88 1078.04L1387.52 1103.13C1387.89 1103.11 1388.26 1103.11 1388.63 1103.11H1529.23C1545.55 1103.11 1558.78 1116.57 1558.78 1133.18C1558.78 1149.79 1545.55 1163.26 1529.23 1163.26H1446.6ZM1293.23 1063.86C1285.53 1071.69 1285.53 1084.39 1293.23 1092.22L1518.51 1321.52C1526.2 1329.35 1538.68 1329.35 1546.37 1321.52L1771.66 1092.22C1779.35 1084.39 1779.35 1071.69 1771.66 1063.86L1546.37 834.556C1538.68 826.726 1526.2 826.726 1518.51 834.556L1293.23 1063.86Z"
              fill="#2C3B4D"/>
        <path fill-rule="evenodd" clip-rule="evenodd"
              d="M632.681 1439.82L718.519 1527.19L888.084 1354.6L862.948 1329.02C862.657 1329.03 862.366 1329.03 862.075 1329.03H721.472C705.152 1329.03 691.921 1315.57 691.921 1298.95C691.921 1282.34 705.152 1268.88 721.472 1268.88H803.86L718.519 1182.01L548.955 1354.6L573.602 1379.69C573.968 1379.68 574.335 1379.67 574.704 1379.67H715.306C731.626 1379.67 744.856 1393.14 744.856 1409.75C744.856 1426.36 731.626 1439.82 715.306 1439.82H632.681ZM479.305 1340.43C471.612 1348.26 471.612 1360.95 479.305 1368.78L704.589 1598.09C712.283 1605.92 724.757 1605.92 732.45 1598.09L957.734 1368.78C965.428 1360.95 965.428 1348.26 957.734 1340.43L732.45 1111.12C724.757 1103.29 712.283 1103.29 704.589 1111.12L479.305 1340.43Z"
              fill="#2C3B4D"/>
        <path fill-rule="evenodd" clip-rule="evenodd"
              d="M1446.6 1717.4L1532.44 1804.77L1702.01 1632.18L1676.87 1606.59C1676.58 1606.6 1676.29 1606.61 1676 1606.61H1535.39C1519.07 1606.61 1505.84 1593.14 1505.84 1576.53C1505.84 1559.92 1519.07 1546.45 1535.39 1546.45H1617.78L1532.44 1459.59L1362.88 1632.18L1387.52 1657.27C1387.89 1657.25 1388.26 1657.25 1388.63 1657.25H1529.23C1545.55 1657.25 1558.78 1670.71 1558.78 1687.32C1558.78 1703.93 1545.55 1717.4 1529.23 1717.4H1446.6ZM1293.23 1618C1285.53 1625.83 1285.53 1638.53 1293.23 1646.36L1518.51 1875.66C1526.2 1883.49 1538.68 1883.49 1546.37 1875.66L1771.66 1646.36C1779.35 1638.53 1779.35 1625.83 1771.66 1618L1546.37 1388.7C1538.68 1380.87 1526.2 1380.87 1518.51 1388.7L1293.23 1618Z"
              fill="#2C3B4D"/>
        <path fill-rule="evenodd" clip-rule="evenodd"
              d="M1446.6 2269.52L1532.44 2356.89L1702.01 2184.3L1676.87 2158.71C1676.58 2158.72 1676.29 2158.73 1676 2158.73H1535.39C1519.07 2158.73 1505.84 2145.26 1505.84 2128.65C1505.84 2112.04 1519.07 2098.57 1535.39 2098.57H1617.78L1532.44 2011.71L1362.88 2184.3L1387.52 2209.39C1387.89 2209.37 1388.26 2209.37 1388.63 2209.37H1529.23C1545.55 2209.37 1558.78 2222.83 1558.78 2239.44C1558.78 2256.05 1545.55 2269.52 1529.23 2269.52H1446.6ZM1293.23 2170.12C1285.53 2177.95 1285.53 2190.65 1293.23 2198.48L1518.51 2427.78C1526.2 2435.61 1538.68 2435.61 1546.37 2427.78L1771.66 2198.48C1779.35 2190.65 1779.35 2177.95 1771.66 2170.12L1546.37 1940.82C1538.68 1932.99 1526.2 1932.99 1518.51 1940.82L1293.23 2170.12Z"
              fill="#2C3B4D"/>
        <path fill-rule="evenodd" clip-rule="evenodd"
              d="M1176.29 1991.95L1262.12 2079.31L1431.69 1906.73L1406.55 1881.14C1406.26 1881.15 1405.97 1881.15 1405.68 1881.15H1265.08C1248.76 1881.15 1235.53 1867.69 1235.53 1851.07C1235.53 1834.46 1248.76 1821 1265.08 1821H1347.47L1262.12 1734.13L1092.56 1906.73L1117.21 1931.81C1117.57 1931.8 1117.94 1931.79 1118.31 1931.79H1258.91C1275.23 1931.79 1288.46 1945.26 1288.46 1961.87C1288.46 1978.48 1275.23 1991.95 1258.91 1991.95H1176.29ZM1022.91 1892.55C1015.22 1900.38 1015.22 1913.07 1022.91 1920.9L1248.19 2150.21C1255.89 2158.04 1268.36 2158.04 1276.06 2150.21L1501.34 1920.9C1509.03 1913.07 1509.03 1900.38 1501.34 1892.55L1276.06 1663.24C1268.36 1655.41 1255.89 1655.41 1248.19 1663.24L1022.91 1892.55Z"
              fill="#2C3B4D"/>
        <path fill-rule="evenodd" clip-rule="evenodd"
              d="M-186.209 1163.26L-100.372 1250.63L69.1936 1078.04L44.0569 1052.45C43.7668 1052.46 43.4753 1052.47 43.1839 1052.47H-97.4185C-113.739 1052.47 -126.969 1039 -126.969 1022.39C-126.969 1005.78 -113.739 992.313 -97.4185 992.313H-15.0305L-100.372 905.449L-269.936 1078.04L-245.288 1103.13C-244.923 1103.11 -244.556 1103.11 -244.187 1103.11H-103.585C-87.2648 1103.11 -74.0342 1116.57 -74.0342 1133.18C-74.0342 1149.79 -87.2648 1163.26 -103.585 1163.26H-186.209ZM-339.585 1063.86C-347.279 1071.69 -347.279 1084.39 -339.585 1092.22L-114.301 1321.52C-106.608 1329.35 -94.134 1329.35 -86.4405 1321.52L138.844 1092.22C146.537 1084.39 146.537 1071.69 138.844 1063.86L-86.4405 834.556C-94.134 826.726 -106.608 826.726 -114.301 834.556L-339.585 1063.86Z"
              fill="#2C3B4D"/>
        <path fill-rule="evenodd" clip-rule="evenodd"
              d="M89.076 889.724L174.914 977.093L344.479 804.504L319.342 778.918C319.052 778.926 318.76 778.931 318.469 778.931H177.867C161.547 778.931 148.316 765.464 148.316 748.853C148.316 732.242 161.547 718.777 177.867 718.777H260.255L174.914 631.913L5.34953 804.504L29.9968 829.59C30.3622 829.577 30.7293 829.569 31.0981 829.569H171.7C188.02 829.569 201.251 843.036 201.251 859.647C201.251 876.258 188.02 889.724 171.7 889.724H89.076ZM-64.3003 790.324C-71.9936 798.155 -71.9936 810.851 -64.3003 818.682L160.984 1047.99C168.677 1055.82 181.151 1055.82 188.845 1047.99L414.129 818.682C421.822 810.851 421.822 798.155 414.129 790.324L188.845 561.02C181.151 553.19 168.677 553.19 160.984 561.02L-64.3003 790.324Z"
              fill="#2C3B4D"/>
        <path fill-rule="evenodd" clip-rule="evenodd"
              d="M1176.29 2544.07L1262.12 2631.44L1431.69 2458.85L1406.55 2433.26C1406.26 2433.27 1405.97 2433.27 1405.68 2433.27H1265.08C1248.76 2433.27 1235.53 2419.81 1235.53 2403.2C1235.53 2386.58 1248.76 2373.12 1265.08 2373.12H1347.47L1262.12 2286.26L1092.56 2458.85L1117.21 2483.93C1117.57 2483.92 1117.94 2483.91 1118.31 2483.91H1258.91C1275.23 2483.91 1288.46 2497.38 1288.46 2513.99C1288.46 2530.6 1275.23 2544.07 1258.91 2544.07H1176.29ZM1022.91 2444.67C1015.22 2452.5 1015.22 2465.19 1022.91 2473.02L1248.19 2702.33C1255.89 2710.16 1268.36 2710.16 1276.06 2702.33L1501.34 2473.02C1509.03 2465.19 1509.03 2452.5 1501.34 2444.67L1276.06 2215.36C1268.36 2207.53 1255.89 2207.53 1248.19 2215.36L1022.91 2444.67Z"
              fill="#2C3B4D"/>
        <path fill-rule="evenodd" clip-rule="evenodd"
              d="M89.076 1995.24L174.914 2082.61L344.479 1910.02L319.342 1884.43C319.052 1884.44 318.76 1884.44 318.469 1884.44H177.867C161.547 1884.44 148.316 1870.98 148.316 1854.37C148.316 1837.75 161.547 1824.29 177.867 1824.29H260.255L174.914 1737.43L5.34953 1910.02L29.9968 1935.1C30.3622 1935.09 30.7293 1935.08 31.0981 1935.08H171.7C188.02 1935.08 201.251 1948.55 201.251 1965.16C201.251 1981.77 188.02 1995.24 171.7 1995.24H89.076ZM-64.3003 1895.84C-71.9936 1903.67 -71.9936 1916.36 -64.3003 1924.19L160.984 2153.5C168.677 2161.33 181.151 2161.33 188.845 2153.5L414.129 1924.19C421.822 1916.36 421.822 1903.67 414.129 1895.84L188.845 1666.53C181.151 1658.7 168.677 1658.7 160.984 1666.53L-64.3003 1895.84Z"
              fill="#2C3B4D"/>
        <path fill-rule="evenodd" clip-rule="evenodd"
              d="M632.681 1996.99L718.519 2084.36L888.084 1911.77L862.948 1886.19C862.657 1886.19 862.366 1886.2 862.075 1886.2H721.472C705.152 1886.2 691.921 1872.73 691.921 1856.12C691.921 1839.51 705.152 1826.04 721.472 1826.04H803.86L718.519 1739.18L548.955 1911.77L573.602 1936.86C573.968 1936.85 574.335 1936.84 574.704 1936.84H715.306C731.626 1936.84 744.856 1950.3 744.856 1966.92C744.856 1983.53 731.626 1996.99 715.306 1996.99H632.681ZM479.305 1897.59C471.612 1905.42 471.612 1918.12 479.305 1925.95L704.589 2155.25C712.283 2163.08 724.757 2163.08 732.45 2155.25L957.734 1925.95C965.428 1918.12 965.428 1905.42 957.734 1897.59L732.45 1668.29C724.757 1660.46 712.283 1660.46 704.589 1668.29L479.305 1897.59Z"
              fill="#2C3B4D"/>
        <path fill-rule="evenodd" clip-rule="evenodd"
              d="M1176.29 344.669L1262.12 432.038L1431.69 259.449L1406.55 233.864C1406.26 233.872 1405.97 233.877 1405.68 233.877H1265.08C1248.76 233.877 1235.53 220.41 1235.53 203.799C1235.53 187.188 1248.76 173.722 1265.08 173.722H1347.47L1262.12 86.8585L1092.56 259.449L1117.21 284.535C1117.57 284.522 1117.94 284.515 1118.31 284.515H1258.91C1275.23 284.515 1288.46 297.981 1288.46 314.593C1288.46 331.204 1275.23 344.669 1258.91 344.669H1176.29ZM1022.91 245.269C1015.22 253.1 1015.22 265.797 1022.91 273.627L1248.19 502.931C1255.89 510.762 1268.36 510.762 1276.06 502.931L1501.34 273.627C1509.03 265.797 1509.03 253.1 1501.34 245.269L1276.06 15.9659C1268.36 8.13526 1255.89 8.13526 1248.19 15.9659L1022.91 245.269Z"
              fill="#2C3B4D"/>
        <path fill-rule="evenodd" clip-rule="evenodd"
              d="M89.076 2547.36L174.914 2634.73L344.479 2462.14L319.342 2436.55C319.052 2436.56 318.76 2436.56 318.469 2436.56H177.867C161.547 2436.56 148.316 2423.1 148.316 2406.49C148.316 2389.88 161.547 2376.41 177.867 2376.41H260.255L174.914 2289.55L5.34953 2462.14L29.9968 2487.22C30.3622 2487.21 30.7293 2487.2 31.0981 2487.2H171.7C188.02 2487.2 201.251 2500.67 201.251 2517.28C201.251 2533.89 188.02 2547.36 171.7 2547.36H89.076ZM-64.3003 2447.96C-71.9936 2455.79 -71.9936 2468.48 -64.3003 2476.31L160.984 2705.62C168.677 2713.45 181.151 2713.45 188.845 2705.62L414.129 2476.31C421.822 2468.48 421.822 2455.79 414.129 2447.96L188.845 2218.65C181.151 2210.82 168.677 2210.82 160.984 2218.65L-64.3003 2447.96Z"
              fill="#2C3B4D"/>
        <path fill-rule="evenodd" clip-rule="evenodd"
              d="M632.681 2549.11L718.519 2636.48L888.084 2463.89L862.948 2438.31C862.657 2438.31 862.366 2438.32 862.075 2438.32H721.472C705.152 2438.32 691.921 2424.85 691.921 2408.24C691.921 2391.63 705.152 2378.17 721.472 2378.17H803.86L718.519 2291.3L548.955 2463.89L573.602 2488.98C573.968 2488.97 574.335 2488.96 574.704 2488.96H715.306C731.626 2488.96 744.856 2502.42 744.856 2519.04C744.856 2535.65 731.626 2549.11 715.306 2549.11H632.681ZM479.305 2449.71C471.612 2457.54 471.612 2470.24 479.305 2478.07L704.589 2707.37C712.283 2715.21 724.757 2715.21 732.45 2707.37L957.734 2478.07C965.428 2470.24 965.428 2457.54 957.734 2449.71L732.45 2220.41C724.757 2212.58 712.283 2212.58 704.589 2220.41L479.305 2449.71Z"
              fill="#2C3B4D"/>
        <path fill-rule="evenodd" clip-rule="evenodd"
              d="M89.076 335.586L174.914 422.955L344.479 250.366L319.342 224.78C319.052 224.788 318.76 224.793 318.469 224.793H177.867C161.547 224.793 148.316 211.327 148.316 194.715C148.316 178.104 161.547 164.639 177.867 164.639H260.255L174.914 77.7751L5.34953 250.366L29.9968 275.452C30.3622 275.439 30.7293 275.431 31.0981 275.431H171.7C188.02 275.431 201.251 288.898 201.251 305.509C201.251 322.12 188.02 335.586 171.7 335.586H89.076ZM-64.3003 236.186C-71.9936 244.017 -71.9936 256.713 -64.3003 264.544L160.984 493.848C168.677 501.679 181.151 501.679 188.845 493.848L414.129 264.544C421.822 256.713 421.822 244.017 414.129 236.186L188.845 6.88245C181.151 -0.948161 168.677 -0.948161 160.984 6.88245L-64.3003 236.186Z"
              fill="#2C3B4D"/>
        <path fill-rule="evenodd" clip-rule="evenodd"
              d="M-186.209 1717.4L-100.372 1804.77L69.1936 1632.18L44.0569 1606.59C43.7668 1606.6 43.4753 1606.61 43.1839 1606.61H-97.4185C-113.739 1606.61 -126.969 1593.14 -126.969 1576.53C-126.969 1559.92 -113.739 1546.45 -97.4185 1546.45H-15.0305L-100.372 1459.59L-269.936 1632.18L-245.288 1657.27C-244.923 1657.25 -244.556 1657.25 -244.187 1657.25H-103.585C-87.2648 1657.25 -74.0342 1670.71 -74.0342 1687.32C-74.0342 1703.93 -87.2648 1717.4 -103.585 1717.4H-186.209ZM-339.585 1618C-347.279 1625.83 -347.279 1638.53 -339.585 1646.36L-114.301 1875.66C-106.608 1883.49 -94.134 1883.49 -86.4405 1875.66L138.844 1646.36C146.537 1638.53 146.537 1625.83 138.844 1618L-86.4405 1388.7C-94.134 1380.87 -106.608 1380.87 -114.301 1388.7L-339.585 1618Z"
              fill="#2C3B4D"/>
        <path fill-rule="evenodd" clip-rule="evenodd"
              d="M359.385 1717.4L445.222 1804.77L614.787 1632.18L589.651 1606.59C589.361 1606.6 589.069 1606.61 588.778 1606.61H448.175C431.855 1606.61 418.625 1593.14 418.625 1576.53C418.625 1559.92 431.855 1546.45 448.175 1546.45H530.563L445.222 1459.59L275.658 1632.18L300.305 1657.27C300.671 1657.25 301.038 1657.25 301.407 1657.25H442.009C458.329 1657.25 471.56 1670.71 471.56 1687.32C471.56 1703.93 458.329 1717.4 442.009 1717.4H359.385ZM206.008 1618C198.315 1625.83 198.315 1638.53 206.008 1646.36L431.292 1875.66C438.986 1883.49 451.46 1883.49 459.153 1875.66L684.438 1646.36C692.131 1638.53 692.131 1625.83 684.438 1618L459.153 1388.7C451.46 1380.87 438.986 1380.87 431.292 1388.7L206.008 1618Z"
              fill="#2C3B4D"/>
        <path fill-rule="evenodd" clip-rule="evenodd"
              d="M632.681 343.661L718.519 431.03L888.084 258.44L862.948 232.855C862.657 232.863 862.366 232.868 862.075 232.868H721.472C705.152 232.868 691.921 219.401 691.921 202.79C691.921 186.179 705.152 172.713 721.472 172.713H803.86L718.519 85.8498L548.955 258.44L573.602 283.526C573.968 283.514 574.335 283.506 574.704 283.506H715.306C731.626 283.506 744.856 296.973 744.856 313.584C744.856 330.195 731.626 343.661 715.306 343.661H632.681ZM479.305 244.261C471.612 252.091 471.612 264.788 479.305 272.619L704.589 501.923C712.283 509.753 724.757 509.753 732.45 501.923L957.734 272.619C965.428 264.788 965.428 252.091 957.734 244.261L732.45 14.9571C724.757 7.12653 712.283 7.12653 704.589 14.9571L479.305 244.261Z"
              fill="#2C3B4D"/>
        <path fill-rule="evenodd" clip-rule="evenodd"
              d="M359.385 1163.26L445.222 1250.63L614.787 1078.04L589.651 1052.45C589.361 1052.46 589.069 1052.47 588.778 1052.47H448.175C431.855 1052.47 418.625 1039 418.625 1022.39C418.625 1005.78 431.855 992.313 448.175 992.313H530.563L445.222 905.449L275.658 1078.04L300.305 1103.13C300.671 1103.11 301.038 1103.11 301.407 1103.11H442.009C458.329 1103.11 471.56 1116.57 471.56 1133.18C471.56 1149.79 458.329 1163.26 442.009 1163.26H359.385ZM206.008 1063.86C198.315 1071.69 198.315 1084.39 206.008 1092.22L431.292 1321.52C438.986 1329.35 451.46 1329.35 459.153 1321.52L684.438 1092.22C692.131 1084.39 692.131 1071.69 684.438 1063.86L459.153 834.556C451.46 826.726 438.986 826.726 431.292 834.556L206.008 1063.86Z"
              fill="#2C3B4D"/>
        <path fill-rule="evenodd" clip-rule="evenodd"
              d="M89.076 1442.02L174.914 1529.39L344.479 1356.8L319.342 1331.21C319.052 1331.22 318.76 1331.23 318.469 1331.23H177.867C161.547 1331.23 148.316 1317.76 148.316 1301.15C148.316 1284.54 161.547 1271.07 177.867 1271.07H260.255L174.914 1184.21L5.34953 1356.8L29.9968 1381.88C30.3622 1381.87 30.7293 1381.86 31.0981 1381.86H171.7C188.02 1381.86 201.251 1395.33 201.251 1411.94C201.251 1428.55 188.02 1442.02 171.7 1442.02H89.076ZM-64.3003 1342.62C-71.9936 1350.45 -71.9936 1363.15 -64.3003 1370.98L160.984 1600.28C168.677 1608.11 181.151 1608.11 188.845 1600.28L414.129 1370.98C421.822 1363.15 421.822 1350.45 414.129 1342.62L188.845 1113.32C181.151 1105.48 168.677 1105.48 160.984 1113.32L-64.3003 1342.62Z"
              fill="#2C3B4D"/>
        <path fill-rule="evenodd" clip-rule="evenodd"
              d="M-186.209 2269.52L-100.372 2356.89L69.1936 2184.3L44.0569 2158.71C43.7668 2158.72 43.4753 2158.73 43.1839 2158.73H-97.4185C-113.739 2158.73 -126.969 2145.26 -126.969 2128.65C-126.969 2112.04 -113.739 2098.57 -97.4185 2098.57H-15.0305L-100.372 2011.71L-269.936 2184.3L-245.288 2209.39C-244.923 2209.37 -244.556 2209.37 -244.187 2209.37H-103.585C-87.2648 2209.37 -74.0342 2222.83 -74.0342 2239.44C-74.0342 2256.05 -87.2648 2269.52 -103.585 2269.52H-186.209ZM-339.585 2170.12C-347.279 2177.95 -347.279 2190.65 -339.585 2198.48L-114.301 2427.78C-106.608 2435.61 -94.134 2435.61 -86.4405 2427.78L138.844 2198.48C146.537 2190.65 146.537 2177.95 138.844 2170.12L-86.4405 1940.82C-94.134 1932.99 -106.608 1932.99 -114.301 1940.82L-339.585 2170.12Z"
              fill="#2C3B4D"/>
        <path fill-rule="evenodd" clip-rule="evenodd"
              d="M-186.209 620.225L-100.372 707.594L69.1936 535.004L44.0569 509.419C43.7668 509.427 43.4753 509.432 43.1839 509.432H-97.4185C-113.739 509.432 -126.969 495.965 -126.969 479.354C-126.969 462.743 -113.739 449.278 -97.4185 449.278H-15.0305L-100.372 362.414L-269.936 535.004L-245.288 560.091C-244.923 560.078 -244.556 560.07 -244.187 560.07H-103.585C-87.2648 560.07 -74.0342 573.537 -74.0342 590.148C-74.0342 606.759 -87.2648 620.225 -103.585 620.225H-186.209ZM-339.585 520.825C-347.279 528.656 -347.279 541.352 -339.585 549.183L-114.301 778.487C-106.608 786.318 -94.134 786.318 -86.4405 778.487L138.844 549.183C146.537 541.352 146.537 528.656 138.844 520.825L-86.4405 291.521C-94.134 283.691 -106.608 283.691 -114.301 291.521L-339.585 520.825Z"
              fill="#2C3B4D"/>
        <path fill-rule="evenodd" clip-rule="evenodd"
              d="M359.385 2269.52L445.222 2356.89L614.787 2184.3L589.651 2158.71C589.361 2158.72 589.069 2158.73 588.778 2158.73H448.175C431.855 2158.73 418.625 2145.26 418.625 2128.65C418.625 2112.04 431.855 2098.57 448.175 2098.57H530.563L445.222 2011.71L275.658 2184.3L300.305 2209.39C300.671 2209.37 301.038 2209.37 301.407 2209.37H442.009C458.329 2209.37 471.56 2222.83 471.56 2239.44C471.56 2256.05 458.329 2269.52 442.009 2269.52H359.385ZM206.008 2170.12C198.315 2177.95 198.315 2190.65 206.008 2198.48L431.292 2427.78C438.986 2435.61 451.46 2435.61 459.153 2427.78L684.438 2198.48C692.131 2190.65 692.131 2177.95 684.438 2170.12L459.153 1940.82C451.46 1932.99 438.986 1932.99 431.292 1940.82L206.008 2170.12Z"
              fill="#2C3B4D"/>
    </g>
</svg>
