<svg width="1440" height="1234" viewBox="0 0 1440 1234" fill="none" xmlns="http://www.w3.org/2000/svg">
    <path d="M1999.41 1229.57C1971.67 1242.75 1945.6 1195.3 1910.63 1195.3C1875.66 1195.3 1875.6 1233.5 1840.63 1233.5C1805.66 1233.5 1805.6 1195.3 1770.63 1195.3C1735.66 1195.3 1735.6 1233.5 1700.63 1233.5C1665.67 1233.5 1665.6 1195.3 1630.64 1195.3C1595.67 1195.3 1595.61 1233.5 1560.64 1233.5C1525.67 1233.5 1525.61 1195.3 1490.64 1195.3C1455.67 1195.3 1455.61 1233.5 1420.64 1233.5C1385.67 1233.5 1385.61 1195.3 1350.64 1195.3C1315.68 1195.3 1315.61 1233.5 1280.65 1233.5C1245.68 1233.5 1245.62 1195.3 1210.65 1195.3C1175.68 1195.3 1175.62 1233.5 1140.65 1233.5C1105.68 1233.5 1105.62 1195.3 1070.65 1195.3C1035.68 1195.3 1035.62 1233.5 1000.65 1233.5C965.685 1233.5 965.623 1195.3 930.655 1195.3C895.687 1195.3 895.625 1233.5 860.657 1233.5C825.688 1233.5 825.627 1195.3 790.658 1195.3C755.69 1195.3 755.69 1233.5 720.66 1233.5C685.63 1233.5 685.692 1195.3 650.662 1195.3C615.632 1195.3 615.632 1233.5 580.664 1233.5C545.696 1233.5 545.696 1195.3 510.666 1195.3C475.636 1195.3 475.636 1233.5 440.668 1233.5C405.7 1233.5 405.638 1195.3 370.67 1195.3C335.701 1195.3 335.64 1233.5 300.672 1233.5C265.703 1233.5 265.642 1195.3 230.673 1195.3C195.705 1195.3 195.643 1233.5 160.675 1233.5C125.707 1233.5 125.645 1195.3 90.6153 1195.3C55.5853 1195.3 55.5853 1233.5 20.6171 1233.5C-14.3511 1233.5 -14.4128 1195.3 -49.4428 1195.3C-84.4728 1195.3 -84.4727 1233.5 -119.503 1233.5C-154.533 1233.5 -154.533 1195.3 -189.501 1195.3C-224.469 1195.3 -224.531 1233.5 -259.499 1233.5C-294.467 1233.5 -294.529 1195.3 -329.559 1195.3C-364.589 1195.3 -364.589 1233.5 -399.619 1233.5C-434.649 1233.5 -434.649 1195.3 -469.679 1195.3C-504.709 1195.3 -530.719 1242.75 -558.52 1229.57C-579.835 1219.48 -508.848 1197.82 -508.848 1181.24C-508.848 1164.66 -570.938 1164.66 -571 1148.07C-571.062 1131.49 -509.219 1131.49 -509.219 1114.87C-509.219 1098.25 -570.938 1098.29 -571 1081.71C-571.062 1065.13 -509.219 1065.13 -509.219 1048.51C-509.219 1031.89 -570.938 1031.93 -571 1015.34C-571.062 998.762 -509.219 998.762 -509.219 982.142C-509.219 965.522 -570.938 965.56 -571 948.94C-571.062 932.32 -509.219 932.359 -509.219 915.739C-509.219 899.119 -570.938 899.157 -571 882.575C-571.062 865.994 -509.219 865.994 -509.219 849.374C-509.219 832.754 -570.938 832.792 -571 816.21C-571.062 799.629 -509.219 799.629 -509.219 783.047C-509.219 766.465 -570.938 766.427 -571 749.845C-571.062 733.263 -509.219 733.263 -509.219 716.682C-509.219 700.1 -570.938 700.1 -571 683.48C-571.062 666.86 -509.219 666.898 -509.219 650.317C-509.219 633.735 -570.938 633.735 -571 617.115C-571.062 600.495 -509.219 600.533 -509.219 583.952C-509.219 567.37 -570.938 567.37 -571 550.75C-571.062 534.13 -509.219 534.168 -509.219 517.587C-509.219 501.005 -570.938 500.967 -571 484.385C-571.062 467.803 -509.219 467.803 -509.219 451.183C-509.219 434.563 -570.938 434.602 -571 418.02C-571.062 401.438 -509.219 401.438 -509.219 384.818C-509.219 368.198 -570.938 368.198 -571 351.617C-571.062 335.035 -509.219 335.035 -509.219 318.415C-509.219 301.795 -570.938 301.795 -571 285.214C-571.062 268.632 -509.219 268.632 -509.219 252.012C-509.219 235.392 -570.938 235.43 -571 218.848C-571.062 202.267 -509.219 202.267 -509.219 185.647C-509.219 169.027 -570.938 169.027 -571 152.445C-571.062 135.864 -509.219 135.825 -509.219 119.244C-509.219 102.662 -570.938 102.624 -571 86.042C-571.062 69.4603 -509.219 69.4221 -509.219 52.8022C-509.219 36.1823 -580.205 14.5573 -558.891 4.43248C-531.151 -8.74883 -505.079 38.7039 -470.111 38.7039C-435.143 38.7039 -435.081 0.458984 -400.051 0.458984C-365.021 0.458984 -365.021 38.6657 -330.053 38.6657C-295.085 38.6657 -295.085 0.458984 -260.055 0.458984C-225.025 0.458984 -225.025 38.6657 -190.057 38.6657C-155.089 38.6657 -155.027 0.458984 -120.059 0.458984C-85.0906 0.458984 -85.0288 38.6657 -50.0606 38.6657C-15.0924 38.6657 -15.0306 0.458984 19.9993 0.458984C55.0293 0.458984 55.0292 38.6657 89.9974 38.6657C124.966 38.6657 124.966 0.458984 159.996 0.458984C195.026 0.458984 195.026 38.6657 229.994 38.6657C264.962 38.6657 265.024 0.458984 300.054 0.458984C335.084 0.458984 335.084 38.6657 370.052 38.6657C405.02 38.6657 405.02 0.458984 440.05 0.458984C475.08 0.458984 475.08 38.6657 510.048 38.6657C545.016 38.6657 545.078 0.458984 580.108 0.458984C615.138 0.458984 615.138 38.6657 650.106 38.6657C685.074 38.6657 685.074 0.458984 720.104 0.458984C755.134 0.458984 755.073 38.6657 790.102 38.6657C825.132 38.6657 825.071 0.458984 860.1 0.458984C895.13 0.458984 895.069 38.6657 930.099 38.6657C965.129 38.6657 965.129 0.458984 1000.1 0.458984C1035.06 0.458984 1035.13 38.6657 1070.09 38.6657C1105.06 38.6657 1105.12 0.458984 1140.15 0.458984C1175.18 0.458984 1175.18 38.6657 1210.15 38.6657C1245.12 38.6657 1245.18 0.458984 1280.21 0.458984C1315.24 0.458984 1315.24 38.6657 1350.27 38.6657C1385.3 38.6657 1385.24 0.458984 1420.27 0.458984C1455.3 0.458984 1455.3 38.6657 1490.33 38.6657C1525.36 38.6657 1525.3 0.458984 1560.33 0.458984C1595.36 0.458984 1595.36 38.6657 1630.33 38.6657C1665.3 38.6657 1665.36 0.458984 1700.39 0.458984C1735.42 0.458984 1735.42 38.6657 1770.45 38.6657C1805.48 38.6657 1805.42 0.458984 1840.45 0.458984C1875.48 0.458984 1875.48 38.6657 1910.51 38.6657C1945.54 38.6657 1971.54 -8.78704 1999.35 4.39427C2020.66 14.4808 1949.67 36.144 1949.67 52.7257C1949.67 69.3075 2011.46 69.3075 2011.46 85.9274C2011.46 102.547 1949.67 102.509 1949.67 119.129C1949.67 135.749 2011.46 135.711 2011.46 152.292C2011.46 168.874 1949.67 168.874 1949.67 185.494C1949.67 202.114 2011.46 202.076 2011.46 218.657C2011.46 235.239 1949.67 235.239 1949.67 251.859C1949.67 268.479 2011.46 268.441 2011.46 285.061C2011.46 301.681 1949.67 301.642 1949.67 318.262C1949.67 334.882 2011.46 334.844 2011.46 351.464C2011.46 368.084 1949.67 368.046 1949.67 384.666C1949.67 401.285 2011.46 401.247 2011.46 417.867C2011.46 434.487 1949.67 434.449 1949.67 451.031C1949.67 467.612 2011.46 467.612 2011.46 484.232C2011.46 500.852 1949.67 500.814 1949.67 517.396C1949.67 533.977 2011.46 533.977 2011.46 550.597C2011.46 567.217 1949.67 567.179 1949.67 583.761C1949.67 600.342 2011.46 600.342 2011.46 616.962C2011.46 633.582 1949.67 633.544 1949.67 650.126C1949.67 666.707 2011.46 666.707 2011.46 683.327C2011.46 699.947 1949.67 699.909 1949.67 716.491C1949.67 733.072 2011.46 733.072 2011.46 749.692C2011.46 766.312 1949.67 766.274 1949.67 782.894C1949.67 799.514 2011.46 799.476 2011.46 816.096C2011.46 832.716 1949.67 832.677 1949.67 849.297C1949.67 865.917 2011.46 865.879 2011.46 882.499C2011.46 899.119 1949.67 899.081 1949.67 915.7C1949.67 932.32 2011.46 932.282 2011.46 948.902C2011.46 965.522 1949.67 965.484 1949.67 982.104C1949.67 998.724 2011.46 998.685 2011.46 1015.31C2011.46 1031.93 1949.67 1031.89 1949.67 1048.51C1949.67 1065.13 2011.46 1065.09 2011.46 1081.71C2011.46 1098.33 1949.67 1098.33 1949.67 1114.91C1949.67 1131.49 2011.46 1131.49 2011.46 1148.11C2011.46 1164.73 1942.57 1171.91 1951.4 1187.62C1965.43 1212.64 2020.72 1219.63 1999.41 1229.72V1229.57Z"
          fill="#FBFFF4"/>
</svg>
