<svg width="50" height="48" viewBox="0 0 50 48" fill="none" xmlns="http://www.w3.org/2000/svg">
    <g clip-path="url(#clip0_38_4330)">
        <path d="M30.3887 37.2765C27.4331 37.2729 24.5207 36.567 21.8923 35.2171C19.2639 33.8673 16.9948 31.9122 15.2726 29.5135C13.5503 27.1147 12.4243 24.3412 11.9877 21.422C11.551 18.5028 11.8161 15.5217 12.7612 12.725C13.858 9.48408 15.8288 6.6081 18.4567 4.41347C21.0845 2.21884 24.2677 0.790618 27.6559 0.285941C31.0441 -0.218736 34.506 0.219688 37.6608 1.55298C40.8156 2.88627 43.541 5.06275 45.5372 7.84297C47.5333 10.6232 48.7228 13.8994 48.9749 17.3112C49.2269 20.7229 48.5317 24.138 46.9658 27.1807C45.3998 30.2233 43.0238 32.7757 40.0991 34.5569C37.1744 36.3381 33.8143 37.2792 30.3887 37.2765ZM14.212 13.2263C13.1291 16.4237 13.0199 19.87 13.8983 23.1293C14.7766 26.3887 16.6031 29.3147 19.1468 31.5374C21.6904 33.7601 24.8369 35.1796 28.1884 35.6164C31.5399 36.0532 34.9458 35.4877 37.9755 33.9913C41.0051 32.495 43.5224 30.1351 45.209 27.2101C46.8956 24.285 47.6757 20.9262 47.4508 17.5583C47.2258 14.1905 46.0058 10.9649 43.9451 8.2895C41.8844 5.61409 39.0756 3.60901 35.8737 2.52783C31.5804 1.08405 26.889 1.39953 22.8282 3.40509C18.7675 5.41065 15.6689 8.94257 14.212 13.2263Z"
              fill="#141B23"/>
        <path d="M41.7759 11.7582L42.4004 20.4305L35.5499 24.9088L27.8974 20.1615L27.2852 11.4922L34.6775 7.39301L41.7759 11.7582Z"
              fill="#141B23"/>
        <path d="M35.5618 25.8127L27.1628 20.6163L26.4863 11.058L34.6986 6.50043L42.5099 11.3025L43.1956 20.815L35.5618 25.8127ZM28.632 19.6993L35.5404 23.9787L41.6039 20.005L41.0346 12.2042L34.6588 8.27943L28.0841 11.923L28.632 19.6993Z"
              fill="#141B23"/>
        <path d="M19.6596 24.365L20.7371 29.9193L20.0667 32.9761C15.613 29.5402 12.7969 24.4934 12.6836 19.2875L15.7997 19.8103L19.6596 24.365Z"
              fill="#141B23"/>
        <path d="M20.5538 34.3164L19.6111 33.5736C14.9032 29.9573 12.032 24.6231 11.9188 19.3042L11.9004 18.3871L16.1858 19.1055L20.3579 24.027L21.5028 29.9329L20.5538 34.3164ZM13.4891 20.1968C13.8564 24.3847 16.0695 28.5175 19.5774 31.5866L19.9478 29.9084L18.9376 24.7118L15.3961 20.5147L13.4891 20.1968Z"
              fill="#141B23"/>
        <path d="M41.5255 32.6502C36.6435 18.7727 30.4085 9.55674 21.9023 3.62673L22.7778 2.37347C31.5594 8.48689 37.9749 17.9627 42.9794 32.1458L41.5255 32.6502Z"
              fill="#141B23"/>
        <path d="M24.4341 1.06443L2.5625 8.17816L3.03644 9.63138L24.908 2.51765L24.4341 1.06443Z" fill="#141B23"/>
        <path d="M43.9469 29.0989L29.8125 46.7114L31.0067 47.6672L45.1412 30.0547L43.9469 29.0989Z" fill="#141B23"/>
        <path d="M27.0388 10.6725L0.0195312 26.4399L0.791676 27.7595L27.811 11.9921L27.0388 10.6725Z" fill="#141B23"/>
    </g>
    <defs>
        <clipPath id="clip0_38_4330">
            <rect width="49.0105" height="47.5899" fill="white" transform="translate(0.00976562 0.0824585)"/>
        </clipPath>
    </defs>
</svg>
