<svg width="86" height="89" viewBox="0 0 86 89" fill="none" xmlns="http://www.w3.org/2000/svg">
    <path d="M7.32709 37.9707L7.32672 37.9698C6.27008 35.4542 5.97496 32.625 7.0253 30.3883L7.13105 30.1745L7.13567 30.1651C8.47794 27.5143 11.709 26.0467 14.9663 26.0048L15.2724 26.0055C18.2359 26.0745 21.0902 27.0877 24.0364 28.2718L25.3057 28.7874L27.1414 29.5386L26.9163 27.552C26.5264 24.115 26.2513 20.8214 27.3933 17.9545L27.3924 17.9548C28.8649 14.2939 32.9933 11.8081 36.907 12.235C40.8349 12.6915 44.282 16.0392 44.8571 19.9721L45.2638 22.7499L46.9496 20.4969C49.9173 16.5305 55.4184 14.6532 60.1273 16.0055C64.6908 17.3161 68.288 21.5994 68.8759 26.3537L68.9231 26.8158C69.3269 31.7489 66.4223 36.8472 61.9921 39.0128L59.2406 40.3576L62.166 41.2073C66.532 42.474 70.52 45.1021 73.0519 48.7858L73.2926 49.1455C75.7318 52.9004 76.5719 57.7255 75.2423 61.9329L75.1071 62.3382C73.6359 66.5065 69.8502 69.8164 65.6027 70.389L65.1905 70.436L65.1875 70.4362C60.4801 70.8839 56.0195 68.2233 51.5692 65.3584L50.2418 64.5039L49.8076 66.0376C48.4718 70.7559 44.8896 74.7965 40.3673 76.6341C38.5465 77.3671 36.6339 77.7311 34.8389 77.4618C32.7911 77.1498 30.9002 76.025 29.1903 74.5643L29.1897 74.5656C22.2328 68.5825 19.7978 57.7875 23.4776 49.3121L24.2155 47.6128L22.3801 47.6664C16.2619 47.8451 10.174 44.0811 7.56833 38.5155L7.32709 37.9707ZM35.2634 46.8868C35.5194 47.934 35.8695 49.1275 36.4451 50.1864C36.9898 51.1885 37.772 52.1334 38.9264 52.701L39.1617 52.8098L39.1732 52.8146C40.707 53.4525 42.3762 53.2246 43.739 52.7373L44.0068 52.6365L44.0087 52.6357C46.9156 51.4882 49.3411 48.9603 50.234 45.88L50.3152 45.5801C51.1388 42.3443 50.0768 38.676 47.5235 36.5066L47.5071 36.4923C46.7932 35.9081 45.8892 35.3215 44.7743 35.1476L44.7748 35.1463C43.2843 34.9063 41.8567 35.378 40.7159 36.0317L40.4918 36.165L40.4909 36.1653L40.018 36.4719C37.7235 38.0402 36.439 40.1295 35.7728 42.032C35.1227 43.8888 35.0305 45.6604 35.2216 46.6914L35.2634 46.8868Z"
          fill="#6DE0E7" stroke="black" stroke-width="2.35056"/>
</svg>
