<svg width="49" height="44" viewBox="0 0 49 44" fill="none" xmlns="http://www.w3.org/2000/svg">
    <g clip-path="url(#clip0_38_4355)">
        <path d="M27.4267 43.9391C25.8174 43.9391 24.2081 43.3242 23.4462 43.036C20.4335 41.8761 17.709 40.0882 15.4579 37.7939L13.8214 36.1452L15.5823 31.7641L19.6445 28.5551L21.0283 18.6706L30.2217 10.7576L33.2459 9.98897L42.1982 0.961487L44.1418 1.24588C45.0347 1.38036 45.8516 1.82012 46.4504 2.48861C47.0491 3.15711 47.3918 4.01201 47.4188 4.90453C47.5665 9.31258 45.0204 15.0465 42.4043 20.5345L42.3304 20.6652L35.5433 30.5535L30.9563 42.0829L30.9136 42.152C30.0817 43.524 28.7484 43.9391 27.4267 43.9391ZM16.0877 35.6956L16.8379 36.4642C18.8946 38.5619 21.3846 40.1965 24.1381 41.2566C27.695 42.6132 28.7484 41.9253 29.1915 41.2566L33.8096 29.635L40.6628 19.6429C43.1662 14.3817 45.5918 8.92443 45.4596 4.96217C45.4478 4.51958 45.2796 4.09504 44.9842 3.76228C44.6888 3.42951 44.2849 3.20953 43.8425 3.14054L42.9096 3.00603L34.2566 11.7222L31.1468 12.5101L22.8553 19.6467L21.4637 29.5773L17.1878 32.9478L16.0877 35.6956Z"
              fill="#141B23"/>
        <path d="M34.6674 10.5351L32.8331 11.1705L37.6419 24.7388L39.4762 24.1033L34.6674 10.5351Z" fill="#141B23"/>
        <path d="M19.9903 40.413L18.5792 39.091L23.8114 33.6453L32.9853 33.2994L33.0592 35.2209L24.6744 35.5361L19.9903 40.413Z"
              fill="#141B23"/>
        <path d="M30.0851 41.6639L32.7945 40.2535L34.0539 37.7362L32.4874 35.3189L30.0851 41.6639Z" fill="#141B23"/>
        <path d="M28.2804 43.6855L32.2648 33.1861L35.1725 37.6787L33.5282 40.9607L28.2804 43.6855ZM32.7196 37.4712L31.8916 39.6541L32.0666 39.5657L32.9451 37.8132L32.7196 37.4712Z"
              fill="#141B23"/>
        <path d="M46.2251 7.61578L47.6983 10.4943L46.1201 13.6456L44.0988 14.3989" fill="#141B23"/>
        <path d="M44.4411 15.2969L43.757 13.4983L45.4207 12.8796L46.6141 10.4968L45.3585 8.04878L47.0922 7.18024L48.787 10.4892L46.824 14.4091L44.4411 15.2969Z"
              fill="#141B23"/>
        <path d="M35.2999 16.1916L15.7804 31.608L16.9935 33.1093L36.513 17.6929L35.2999 16.1916Z" fill="#141B23"/>
        <path d="M29.1908 13.854L27.2472 13.9693L27.5306 18.6387L29.4742 18.5234L29.1908 13.854Z" fill="#141B23"/>
        <path d="M35.9142 16.938L38.5692 24.4244L34.682 30.0854L33.026 34.259L24.2525 34.5895L19.2846 39.7508C18.161 38.9713 17.1122 38.0914 16.1515 37.1221L14.962 35.9346L16.3925 32.3682L20.5597 29.0631L35.9142 16.938Z"
              fill="#141B23"/>
        <path d="M19.4112 41.0143L18.727 40.5454C17.555 39.7326 16.4607 38.8154 15.4579 37.8053L13.8214 36.1566L15.5823 31.7639L36.3712 15.3384L39.6404 24.5619L35.5238 30.5533L33.6968 35.1919L24.6745 35.5493L19.4112 41.0143ZM16.0876 35.6954L16.834 36.464C17.5619 37.194 18.3413 37.8721 19.1663 38.4932L23.8115 33.6278L32.3635 33.305L33.8212 29.6194L37.4674 24.2852L35.4266 18.5205L17.1994 32.9476L16.0876 35.6954Z"
              fill="#141B23"/>
        <path d="M14.5391 36.7883L3.13782 31.3503L8.71989 16.9732L10.5313 17.6611L5.59455 30.3857L15.3826 35.0589L14.5391 36.7883Z"
              fill="#141B23"/>
        <path d="M9.77416 16.3623L9.48352 18.2623L21.802 20.1041L22.0927 18.2042L9.77416 16.3623Z" fill="#141B23"/>
        <path d="M18.889 42.022H4.36633V43.9436H18.889V42.022Z" fill="#141B23"/>
        <path d="M8.2019 37.5298H0.540161V39.4514H8.2019V37.5298Z" fill="#141B23"/>
    </g>
    <defs>
        <clipPath id="clip0_38_4355">
            <rect width="48.2445" height="42.9814" fill="white" transform="translate(0.544067 0.961487)"/>
        </clipPath>
    </defs>
</svg>
