<svg width="42" height="31" viewBox="0 0 42 31" fill="none" xmlns="http://www.w3.org/2000/svg">
    <path d="M38.8086 23.8775L20.6654 30.2147L2.5155 23.8775L10.6253 21.0472L9.81449 23.6417C16.8149 26.2064 24.9018 26.4982 32.049 23.2821L31.2747 21.2466L38.8086 23.8775Z"
          fill="#1F2935"/>
    <path d="M20.6662 30.9944L0.285645 23.8769L11.7718 19.8695L10.7295 23.1848C17.6282 25.5443 24.978 25.4358 31.11 22.8863L30.0236 20.0281L41.0424 23.8778L20.6662 30.9944ZM4.75273 23.8778L20.6662 29.4355L36.577 23.8778L32.5238 22.4614L32.9827 23.6691L32.35 23.9541C25.5539 27.0116 17.2474 27.1498 9.56077 24.3332L8.90092 24.0915L9.48698 22.2256L4.75273 23.8778Z"
          fill="#1F2935"/>
    <path d="M20.7755 26.3511C16.9479 26.3405 13.152 25.6576 9.56072 24.3334L8.90088 24.0917L16.439 0.126953L24.0179 0.126953L32.9826 23.6693L32.3499 23.9543C28.8022 25.5504 24.8431 26.3511 20.7755 26.3511ZM10.7294 23.185C17.6281 25.5445 24.978 25.4359 31.11 22.8865L23.0036 1.59846L17.5187 1.59846L10.7294 23.185Z"
          fill="#1F2935"/>
    <path d="M20.7755 26.3511C16.9479 26.34 13.152 25.6567 9.56072 24.3325L8.90088 24.0908L16.4407 0.126953L24.0188 0.126953L32.9843 23.6701L32.3516 23.9551C28.8022 25.5504 24.8431 26.3511 20.7755 26.3511ZM10.7277 23.1841C17.6273 25.5436 24.9763 25.4359 31.1091 22.8873L23.0019 1.59929L17.5196 1.59929L10.7277 23.1841Z"
          fill="#1F2935"/>
    <path d="M22.7476 17.1167C22.5604 17.1181 22.3791 17.0506 22.2384 16.927C22.0976 16.8035 22.0072 16.6325 21.9843 16.4466C21.9199 15.7758 22.5721 15.6426 22.8511 15.5858C23.0343 15.5485 23.3015 15.501 23.6305 15.434C30.7879 14.0609 32.6724 13.2161 33.1126 12.7921C32.8955 12.5054 31.8887 11.7879 27.2334 11.5037C27.1368 11.4979 27.0423 11.4731 26.9553 11.4307C26.8683 11.3883 26.7905 11.3292 26.7264 11.2567C26.6623 11.1843 26.6131 11.0999 26.5816 11.0084C26.5502 10.9169 26.537 10.82 26.543 10.7235C26.5481 10.6266 26.5724 10.5318 26.6145 10.4445C26.6566 10.3572 26.7158 10.2791 26.7884 10.2149C26.8611 10.1507 26.9458 10.1017 27.0376 10.0706C27.1295 10.0395 27.2266 10.0271 27.3233 10.034C32.105 10.3257 34.2847 11.0907 34.6095 12.5927C34.6426 12.7503 34.6431 12.9129 34.6108 13.0706C34.5786 13.2283 34.5144 13.3777 34.4221 13.5096C33.6851 14.6249 30.737 15.5697 23.9053 16.88C23.5584 16.947 23.2268 17.0106 23.0572 17.0497C22.9601 17.0943 22.8545 17.1172 22.7476 17.1167Z"
          fill="#1F2935"/>
    <path d="M6.35799 11.4252C6.2438 11.4255 6.13111 11.3991 6.02891 11.3482C5.92672 11.2972 5.83785 11.2231 5.76939 11.1317C5.68669 11.0215 5.63631 10.8905 5.62388 10.7533C5.61145 10.6161 5.63745 10.4781 5.69899 10.3549C5.84572 10.0631 5.94241 9.86972 8.43336 9.50672C10.1914 9.25644 11.9652 9.1337 13.7409 9.13948C13.9362 9.13948 14.1234 9.21703 14.2615 9.35509C14.3996 9.49315 14.4771 9.6804 14.4771 9.87565C14.4771 10.0709 14.3996 10.2581 14.2615 10.3962C14.1234 10.5343 13.9362 10.6118 13.7409 10.6118C13.6901 10.6118 13.6341 10.6118 13.5815 10.6118C10.0957 10.6118 7.25531 11.1674 6.72184 11.3277C6.6112 11.3915 6.48572 11.4251 6.35799 11.4252Z"
          fill="#1F2935"/>
</svg>
