<svg width="140" height="150" viewBox="0 0 140 150" fill="none" xmlns="http://www.w3.org/2000/svg">
    <path d="M33.2491 34.7325C33.7258 34.6131 34.2666 34.4861 34.8664 34.361C37.4723 33.8173 41.1859 33.2878 45.5974 33.3484C54.2749 33.4676 65.6499 35.8695 76.6398 44.9606L77.1624 45.3991C81.841 49.3642 84.9112 53.7471 87.9024 56.9639C89.3514 58.5221 90.8197 59.8375 92.4298 60.4742C94.1216 61.1432 95.8777 61.0287 97.7551 59.9445L97.7557 59.9454C99.5704 58.9019 100.44 57.4086 100.63 55.7646C100.813 54.1902 100.363 52.571 99.765 51.184C99.475 50.5115 99.1391 49.8704 98.7981 49.2849C99.5329 49.7339 100.34 50.2761 101.198 50.9155C103.626 52.7271 106.386 55.2518 108.968 58.4119C113.974 64.5374 118.271 72.9959 118.287 83.2551L118.276 84.2539C117.72 106.066 108.131 116.865 98.7855 122.268C94.0827 124.988 89.406 126.36 85.8998 127.051C84.1486 127.396 82.6945 127.57 81.6832 127.657C81.1781 127.701 80.784 127.723 80.5188 127.735C80.3862 127.74 80.285 127.743 80.2194 127.745C80.1869 127.745 80.163 127.746 80.1478 127.746C80.1402 127.746 80.1342 127.746 80.1311 127.746L80.129 127.746L80.0612 127.747L79.9923 127.756L79.1113 127.873C60.7149 130.129 48.821 119.067 41.4223 107.106C37.6675 101.036 35.1052 94.7811 33.482 90.0362C33.0146 88.6696 32.628 87.4292 32.3112 86.3576C35.1326 88.7257 38.5688 89.5525 41.5315 89.7293C43.5931 89.8523 45.4641 89.6655 46.8167 89.4497C47.4947 89.3416 48.0471 89.226 48.4327 89.136C48.6256 89.091 48.7772 89.052 48.8824 89.0242C48.9349 89.0103 48.9759 88.9993 49.0047 88.9912C49.0192 88.9872 49.0306 88.9832 49.0389 88.9808C49.0429 88.9797 49.0466 88.9793 49.0491 88.9786C49.0502 88.9782 49.0512 88.9779 49.052 88.9777L49.0529 88.9772C49.0533 88.977 49.0546 88.9767 48.7837 88.0097L49.0542 88.9774L50.3713 88.5916L49.6084 87.4441C49.2678 86.9317 48.5334 85.3371 47.6664 82.9459C46.8139 80.5946 45.8649 77.5653 45.0778 74.2544C43.4912 67.5804 42.6093 59.9623 44.3006 54.4154L44.302 54.4157C46.4332 47.4332 42.8798 42.145 39.0403 38.7329C37.1132 37.0203 35.0687 35.7319 33.5134 34.8744C33.424 34.8251 33.3353 34.779 33.2491 34.7325Z"
          fill="#232D39" stroke="#171F27" stroke-width="2"/>
    <path d="M99.9524 122.76C65.5391 143.618 53.4903 103.777 57.4077 92.7732C57.4077 92.7732 65.5029 103.639 71.7954 96.6682C76.3413 91.6248 66.2124 82.8755 64.2112 79.3475C57.7402 67.9111 62.1264 51.3437 62.1264 51.3437C72.6782 67.5846 89.4042 63.702 100.999 71.9427C118.154 84.1294 122.138 109.308 99.9524 122.76Z"
          fill="#27323E"/>
</svg>
