<svg width="43" height="31" viewBox="0 0 43 31" fill="none" xmlns="http://www.w3.org/2000/svg">
    <path d="M32.9915 10.6029L21.6477 16.455C20.239 15.1183 18.8913 13.8411 17.7905 12.7953L29.1113 6.92627L32.9915 10.6029Z"
          fill="#1F2935"/>
    <path d="M21.9859 17.1086L21.1378 16.9882L17.2805 13.3285L17.4501 12.1412L28.7718 6.27124L29.6199 6.39084L33.4993 10.0683L33.3296 11.2557L21.9859 17.1086ZM19.0506 12.9723L21.7781 15.5599L31.7352 10.4237C30.7479 9.49075 29.8091 8.5985 28.9881 7.81992L19.0506 12.9723Z"
          fill="#1F2935"/>
    <path d="M16.0483 29.6443C15.884 29.644 15.7246 29.5889 15.5952 29.4876C15.4659 29.3863 15.3741 29.2447 15.3344 29.0852C15.2947 28.9258 15.3095 28.7577 15.3763 28.6076C15.4431 28.4575 15.5581 28.334 15.7032 28.2568C15.7608 28.2263 15.8126 28.2 15.8643 28.172L16.0339 28.077C16.1086 28.032 16.1917 27.9777 16.2739 27.9209C16.3562 27.8641 16.4342 27.8107 16.5055 27.7513C17.0732 27.318 17.5592 26.787 17.9405 26.1831C18.0253 26.0542 18.0974 25.9338 18.167 25.8142C18.7096 24.8328 19.0532 23.754 19.1779 22.6396C19.1945 22.5057 19.2476 22.3789 19.3314 22.273C19.4152 22.1672 19.5265 22.0865 19.6531 22.0396C19.7797 21.9928 19.9167 21.9817 20.0492 22.0075C20.1817 22.0333 20.3045 22.095 20.4043 22.1859L23.3397 24.8592C23.4275 24.9392 23.4946 25.0392 23.5353 25.1508C23.576 25.2624 23.5892 25.3821 23.5736 25.4998C23.558 25.6176 23.5142 25.7298 23.4458 25.8269C23.3775 25.924 23.2867 26.0032 23.1811 26.0576L16.3884 29.5604C16.2836 29.6156 16.1669 29.6444 16.0483 29.6443ZM20.3865 24.1663C20.2072 24.8871 19.9448 25.5847 19.6045 26.245L21.562 25.2366L20.3865 24.1663Z"
          fill="#1F2935"/>
    <path d="M12.9999 30.3645C10.5013 30.3645 7.8153 29.2127 5.53638 27.0483C0.79365 22.5481 -0.888194 15.032 1.78765 10.2935C2.55096 8.94838 3.58145 7.93317 4.85873 7.27587C4.86975 7.26993 4.88502 7.2623 4.89944 7.25636C4.99188 7.20717 5.09704 7.15629 5.20221 7.11049C5.23529 7.09607 5.26413 7.08335 5.29467 7.07233C5.41256 7.01805 5.53977 6.96716 5.6653 6.9239C5.79761 6.87471 5.93415 6.82919 6.07494 6.78735C6.17078 6.75681 6.28782 6.72459 6.40486 6.70253C6.5219 6.68048 6.64827 6.64401 6.78143 6.61772L6.79415 6.61772C6.89423 6.59652 6.99346 6.57955 7.09269 6.56683C7.18023 6.55046 7.26855 6.53857 7.35731 6.53121C7.47774 6.51594 7.61683 6.50323 7.75847 6.4956C7.91283 6.48287 8.085 6.47949 8.25462 6.47864C10.7905 6.47864 13.4282 7.65838 15.6944 9.80245C16.1838 10.2655 21.5465 15.3475 25.8253 19.4066L25.8864 19.4643C26.8939 20.421 27.837 21.3149 28.6402 22.0757L30.4807 23.8237C30.8369 24.163 31.0744 24.3852 31.1507 24.4598C31.2798 24.581 31.361 24.7446 31.3794 24.9208C31.3978 25.0969 31.3521 25.2738 31.2508 25.419L28.0406 30.0133C27.9806 30.0996 27.9029 30.1721 27.8126 30.2259C27.7223 30.2796 27.6215 30.3134 27.5171 30.325C27.4126 30.3366 27.3069 30.3256 27.207 30.2929C27.1072 30.2602 27.0154 30.2066 26.938 30.1355L20.3871 24.1663C20.1805 24.9995 19.8621 25.8009 19.4406 26.5487C19.3498 26.7048 19.2633 26.8532 19.1675 26.994C18.6969 27.7361 18.0982 28.3885 17.3991 28.9209C17.3084 28.9922 17.2032 29.0668 17.0981 29.1364C16.9929 29.2059 16.8869 29.2788 16.7715 29.3467L16.6019 29.4425C16.54 29.479 16.4687 29.5172 16.3967 29.5553C15.3464 30.0956 14.1809 30.3732 12.9999 30.3645ZM5.50415 8.59726C4.50845 9.11292 3.68237 9.93052 3.06663 11.0187C0.7029 15.2042 2.2643 21.9163 6.54396 25.9805C9.45558 28.7428 13.0516 29.6351 15.7037 28.2552C15.7563 28.2263 15.8081 28.2 15.8598 28.1704L16.0294 28.0754C16.1041 28.0304 16.1872 27.9761 16.2694 27.9193C16.3517 27.8625 16.4297 27.809 16.501 27.7497C17.0687 27.3164 17.5547 26.7854 17.936 26.1815C18.0208 26.0526 18.0929 25.9321 18.1625 25.8126C18.7051 24.8312 19.0486 23.7524 19.1734 22.638C19.19 22.5041 19.2431 22.3772 19.3269 22.2714C19.4107 22.1656 19.522 22.0849 19.6486 22.038C19.7752 21.9912 19.9122 21.98 20.0447 22.0058C20.1772 22.0316 20.3 22.0934 20.3998 22.1843L27.3087 28.4791L29.6834 25.0866L29.4697 24.883C29.0244 24.4589 28.39 23.8568 27.631 23.1367C26.8261 22.3734 25.8838 21.4812 24.8762 20.5236L24.8152 20.466C20.5364 16.4077 15.1745 11.3257 14.6851 10.8635C12.6971 8.97891 10.4148 7.94336 8.25632 7.94336C8.1291 7.94336 7.99425 7.94335 7.86364 7.95607C7.73303 7.96879 7.62956 7.97304 7.52439 7.98661C7.47233 7.99021 7.42051 7.99672 7.36918 8.00612L7.31151 8.01543C7.24026 8.02476 7.16987 8.03663 7.09863 8.05105L7.09269 8.05105L7.06555 8.05699C6.96292 8.07565 6.8603 8.09855 6.76107 8.124C6.66184 8.14944 6.59145 8.16726 6.51343 8.191C6.38705 8.22832 6.28103 8.26395 6.17841 8.30211L6.14703 8.31313C6.06047 8.34252 5.97554 8.37649 5.89259 8.4149C5.87478 8.42338 5.85612 8.43102 5.83746 8.4378L5.79082 8.45731C5.72042 8.48784 5.64578 8.52346 5.57454 8.56247C5.55249 8.57519 5.5262 8.58793 5.50415 8.59726Z"
          fill="#1F2935"/>
    <path d="M5.21897 8.65546C5.08633 8.65548 4.95615 8.61963 4.84222 8.5517C4.7283 8.48376 4.63488 8.38626 4.57185 8.26955C4.51452 8.16211 4.48534 8.04191 4.48704 7.92013C4.48669 7.78742 4.52231 7.65709 4.5901 7.54299C4.6579 7.4289 4.75535 7.33529 4.87208 7.27215L4.96199 7.22298L4.9993 7.2043L5.04002 7.18479C5.10024 7.15596 5.1596 7.12882 5.22066 7.09998C5.40061 7.02384 5.60344 7.02231 5.78452 7.09572C5.96561 7.16912 6.11011 7.31144 6.18626 7.49139C6.2624 7.67134 6.26394 7.87418 6.19053 8.05526C6.11713 8.23635 5.9748 8.38084 5.79485 8.45699C5.72021 8.48921 5.64558 8.52484 5.57433 8.56385C5.46546 8.62375 5.34324 8.65526 5.21897 8.65546Z"
          fill="#1F2935"/>
    <path d="M27.4325 30.327C27.2977 30.3274 27.1655 30.2907 27.0501 30.221C26.9348 30.1513 26.8409 30.0512 26.7786 29.9318C26.7162 29.8123 26.6879 29.678 26.6968 29.5435C26.7056 29.4091 26.7512 29.2796 26.8286 29.1693L30.0438 24.5691C30.112 24.4711 30.2032 24.3913 30.3093 24.3367L41.653 18.4846C41.7993 18.4088 41.9667 18.3843 42.1286 18.4149C42.2904 18.4456 42.4373 18.5296 42.5458 18.6536C42.6542 18.7776 42.7179 18.9343 42.7268 19.0988C42.7356 19.2633 42.689 19.426 42.5944 19.5609L39.38 24.1603C39.3114 24.2584 39.22 24.3384 39.1137 24.3935L27.77 30.2456C27.6656 30.2992 27.5498 30.3271 27.4325 30.327ZM31.1464 25.5614L29.7419 27.5715L38.2775 23.1688L39.6811 21.1596L31.1464 25.5614Z"
          fill="#1F2935"/>
    <path d="M30.6478 25.727C30.4608 25.7272 30.2807 25.6562 30.144 25.5286L29.4655 24.8857C29.0203 24.4616 28.3859 23.8595 27.6268 23.1394C26.8219 22.3761 25.8796 21.4838 24.8721 20.5263L24.811 20.4686C20.5322 16.4104 15.1703 11.3284 14.681 10.8661C12.6929 8.9816 10.4106 7.94602 8.25215 7.94602C8.12493 7.94602 7.99008 7.94604 7.85946 7.95876C7.72885 7.97148 7.62538 7.97571 7.52021 7.98928C7.46815 7.99288 7.41633 7.99939 7.365 8.00878L7.30733 8.01812C7.23609 8.02745 7.16569 8.03932 7.09445 8.05374L7.08851 8.05374C7.07256 8.05766 7.05643 8.06079 7.04017 8.06308C6.952 8.07694 6.86476 8.09619 6.77895 8.12074L6.73738 8.13178C6.6602 8.14959 6.58303 8.16994 6.50924 8.19369C6.38287 8.23101 6.27686 8.26663 6.17423 8.3048L6.14285 8.31582C6.0563 8.34521 5.97136 8.37918 5.88842 8.41759C5.8706 8.42607 5.85194 8.4337 5.83329 8.44049L5.78663 8.45999C5.73914 8.4795 5.70182 8.49563 5.67129 8.51259L5.6221 8.53549C5.44699 8.62186 5.24473 8.63513 5.05982 8.57239C4.87492 8.50964 4.72253 8.37601 4.63615 8.2009C4.54978 8.02578 4.5365 7.82352 4.59924 7.63862C4.66199 7.45372 4.79562 7.30132 4.97074 7.21495L16.1991 1.42478C19.4177 -0.23416 23.6728 0.756455 27.0399 3.94966L29.1907 5.98941C33.3254 9.90861 41.9288 18.0659 42.5004 18.6112C42.5852 18.6922 42.6495 18.7923 42.6879 18.9032C42.7263 19.014 42.7377 19.1324 42.7211 19.2486C42.7045 19.3647 42.6604 19.4752 42.5925 19.5709C42.5247 19.6665 42.4349 19.7446 42.3308 19.7986L30.9862 25.6507C30.8811 25.7028 30.7651 25.729 30.6478 25.727ZM9.45394 6.55935C11.6099 6.86637 13.787 7.98844 15.6953 9.79664C16.1847 10.2597 21.5474 15.3417 25.8262 19.4008L25.8873 19.4585C26.8948 20.4152 27.838 21.3091 28.6411 22.0699L30.4816 23.8179L30.775 24.0969L40.7337 18.9607C38.4438 16.7895 31.6944 10.3878 28.1772 7.05381L26.0264 5.01831C23.1207 2.26189 19.528 1.3654 16.8742 2.73343L9.45394 6.55935Z"
          fill="#1F2935"/>
    <path d="M5.21897 8.65546C5.08633 8.65548 4.95615 8.61963 4.84222 8.5517C4.7283 8.48376 4.63488 8.38626 4.57185 8.26955C4.51452 8.16211 4.48534 8.04191 4.48704 7.92013C4.48669 7.78742 4.52231 7.65709 4.5901 7.54299C4.6579 7.4289 4.75535 7.33529 4.87208 7.27215L4.96199 7.22298L4.9993 7.2043L5.04002 7.18479C5.10024 7.15596 5.1596 7.12882 5.22066 7.09998C5.40061 7.02384 5.60344 7.02231 5.78452 7.09572C5.96561 7.16912 6.11011 7.31144 6.18626 7.49139C6.2624 7.67134 6.26394 7.87418 6.19053 8.05526C6.11713 8.23635 5.9748 8.38084 5.79485 8.45699C5.72021 8.48921 5.64558 8.52484 5.57433 8.56385C5.46546 8.62375 5.34324 8.65526 5.21897 8.65546Z"
          fill="#1F2935"/>
    <path d="M17.7905 13.5309C17.6013 13.5316 17.419 13.4593 17.2816 13.3291L14.6796 10.8653C12.6907 8.98072 10.4076 7.94431 8.24908 7.94431C8.12186 7.94431 7.98616 7.9443 7.8564 7.95703C7.72663 7.96975 7.62231 7.97482 7.51715 7.98755C7.46566 7.99124 7.41441 7.99777 7.36363 8.00707C7.34412 8.00707 7.32377 8.0147 7.30427 8.01724C7.23302 8.02572 7.16263 8.03759 7.09223 8.05201L7.08291 8.05201L7.0371 8.06134C6.94826 8.07458 6.86041 8.09384 6.77419 8.11901L6.73518 8.1292C6.658 8.14701 6.57996 8.16736 6.50617 8.19111C6.3798 8.22843 6.27379 8.2649 6.16692 8.30307C6.1573 8.30721 6.14738 8.31061 6.13724 8.31324C6.05076 8.34316 5.96584 8.37741 5.8828 8.41586C5.86641 8.42377 5.8503 8.43056 5.83446 8.43621L5.77679 8.45911C5.73692 8.47607 5.70385 8.49219 5.66992 8.50831L5.61564 8.53376C5.44142 8.61309 5.24314 8.62144 5.06287 8.55703C4.88259 8.49262 4.73449 8.36052 4.64998 8.18875C4.56548 8.01698 4.55121 7.81905 4.6102 7.63693C4.66919 7.45481 4.7968 7.30282 4.96597 7.21322L16.1943 1.41795C19.4172 -0.241834 23.668 0.749629 27.0351 3.94283C27.231 4.12772 28.2225 5.06576 29.6151 6.38884C29.7001 6.46975 29.7646 6.56981 29.8031 6.68069C29.8416 6.79157 29.853 6.91007 29.8364 7.02626C29.8198 7.14245 29.7757 7.25299 29.7077 7.34866C29.6397 7.44432 29.5498 7.52235 29.4455 7.57622L18.1238 13.4461C18.0211 13.5006 17.9068 13.5297 17.7905 13.5309ZM9.45257 6.55762C11.6085 6.86549 13.7857 7.98755 15.6939 9.79576L17.916 11.9L27.8552 6.74675C26.8646 5.80787 26.187 5.16584 26.0267 5.01488C23.1185 2.25676 19.5266 1.36029 16.8728 2.72493L9.45257 6.55762Z"
          fill="#1F2935"/>
    <path d="M30.6466 25.7268C30.4595 25.7268 30.2793 25.6555 30.1428 25.5275C30.0648 25.4545 29.8401 25.2399 29.4974 24.9151C29.0513 24.491 28.405 23.8762 27.6315 23.1391C26.886 22.4343 26.0201 21.6125 25.0982 20.7372L24.8157 20.4684L22.3485 18.1284L21.1459 16.9885C21.0607 16.9077 20.9961 16.8076 20.9575 16.6967C20.9189 16.5858 20.9074 16.4673 20.924 16.351C20.9406 16.2347 20.9848 16.1242 21.0529 16.0285C21.1211 15.9328 21.2111 15.8549 21.3155 15.8011L32.6592 9.94905C32.7954 9.87802 32.9504 9.85137 33.1025 9.87281C33.2546 9.89426 33.3961 9.96272 33.5074 10.0686L36.0272 12.4595C39.25 15.517 42.1812 18.2955 42.5077 18.6067C42.5927 18.6877 42.6572 18.7877 42.6957 18.8986C42.7342 19.0095 42.7456 19.128 42.729 19.2442C42.7124 19.3604 42.6682 19.4709 42.6002 19.5666C42.5322 19.6622 42.4423 19.7403 42.3381 19.7941L30.9944 25.6462C30.8868 25.7012 30.7674 25.7288 30.6466 25.7268ZM22.9066 16.6332L23.357 17.0572C24.1907 17.8477 25.0269 18.6398 25.825 19.398L26.1083 19.6669C27.0311 20.5439 27.8894 21.3631 28.6391 22.0671C29.4185 22.8058 30.0657 23.4241 30.5118 23.8482C30.609 23.9398 30.6964 24.0226 30.7738 24.0967L40.7326 18.9596L35.0052 13.5315L32.8645 11.5011L22.9066 16.6332Z"
          fill="#1F2935"/>
    <path d="M5.21836 8.65558C5.08572 8.6556 4.95554 8.61975 4.84161 8.55182C4.72769 8.48388 4.63427 8.38638 4.57124 8.26967C4.51391 8.16223 4.48473 8.04203 4.48643 7.92026C4.48608 7.78754 4.52169 7.65721 4.58949 7.54311C4.65729 7.42902 4.75474 7.33542 4.87147 7.27228L4.96138 7.2231L4.99869 7.20442L5.03941 7.18492C5.09963 7.15608 5.15899 7.12894 5.22005 7.1001C5.4 7.02396 5.60283 7.02243 5.78391 7.09584C5.965 7.16924 6.1095 7.31156 6.18565 7.49151C6.26179 7.67146 6.26332 7.8743 6.18992 8.05539C6.11652 8.23647 5.97419 8.38097 5.79424 8.45711C5.7196 8.48934 5.64497 8.52496 5.57372 8.56397C5.46485 8.62388 5.34263 8.65539 5.21836 8.65558Z"
          fill="#1F2935"/>
    <path d="M41.9911 19.1399L38.7767 23.7401L27.4329 29.5914L30.6474 24.9911L41.9911 19.1399Z" fill="#1F2935"/>
    <path d="M27.4332 30.3279C27.2984 30.3282 27.1662 30.2915 27.0509 30.2218C26.9355 30.1521 26.8416 30.0521 26.7793 29.9326C26.717 29.8131 26.6887 29.6789 26.6975 29.5444C26.7063 29.4099 26.7519 29.2805 26.8293 29.1702L30.0446 24.5699C30.1127 24.4719 30.2039 24.3921 30.31 24.3375L41.6538 18.4855C41.8 18.4097 41.9675 18.3852 42.1293 18.4158C42.2911 18.4464 42.438 18.5305 42.5465 18.6545C42.6549 18.7784 42.7187 18.9352 42.7275 19.0997C42.7363 19.2642 42.6897 19.4269 42.5952 19.5617L39.3808 24.1611C39.3121 24.2592 39.2207 24.3393 39.1144 24.3944L27.7707 30.2465C27.6663 30.3 27.5506 30.3279 27.4332 30.3279ZM31.1471 25.5623L29.7426 27.5723L38.2782 23.1697L39.6819 21.1605L31.1471 25.5623Z"
          fill="#1F2935"/>
    <path d="M22.8401 25.4061L16.0483 28.9089C16.1119 28.875 16.1747 28.841 16.2383 28.8037L16.3952 28.7189C16.4961 28.6587 16.5937 28.5959 16.6904 28.5281C16.7871 28.4602 16.8693 28.4051 16.955 28.3381C17.589 27.8543 18.1316 27.2612 18.5571 26.5867C18.6419 26.4595 18.7216 26.3255 18.7997 26.1906C19.3906 25.1231 19.7652 23.9495 19.9022 22.7371L22.8401 25.4061Z"
          fill="#1F2935"/>
    <path d="M16.0477 29.6451C15.8834 29.6448 15.7239 29.5896 15.5946 29.4883C15.4652 29.387 15.3734 29.2454 15.3338 29.086C15.2941 28.9265 15.3089 28.7584 15.3757 28.6083C15.4425 28.4582 15.5575 28.3348 15.7025 28.2575C15.7602 28.227 15.812 28.2007 15.8637 28.1727L16.0333 28.0777C16.108 28.0328 16.1911 27.9785 16.2733 27.9216C16.3556 27.8648 16.4336 27.8114 16.5049 27.752C17.0726 27.3188 17.5586 26.7877 17.9399 26.1838C18.0247 26.0549 18.0968 25.9345 18.1664 25.8149C18.709 24.8336 19.0525 23.7548 19.1773 22.6404C19.1939 22.5064 19.247 22.3796 19.3308 22.2738C19.4146 22.168 19.5259 22.0872 19.6525 22.0404C19.7791 21.9935 19.9161 21.9824 20.0486 22.0082C20.1811 22.034 20.3039 22.0957 20.4037 22.1866L23.3391 24.8599C23.4269 24.9399 23.494 25.04 23.5347 25.1515C23.5754 25.2631 23.5886 25.3828 23.573 25.5006C23.5574 25.6183 23.5136 25.7305 23.4452 25.8276C23.3769 25.9247 23.286 26.0039 23.1805 26.0583L16.3878 29.5611C16.283 29.6163 16.1662 29.6451 16.0477 29.6451ZM20.3859 24.167C20.2066 24.8878 19.9442 25.5854 19.6039 26.2457L21.5614 25.2373L20.3859 24.167Z"
          fill="#1F2935"/>
    <path d="M9.3046 5.8083L5.49481 7.78529L9.3046 3.09769L13.1449 1.31152L16.5357 2.07569L9.3046 5.8083Z"
          fill="#1F2935"/>
    <path d="M5.49511 8.5214C5.35599 8.5212 5.21976 8.48164 5.10218 8.40727C4.9846 8.3329 4.89047 8.22677 4.83068 8.10115C4.77088 7.97553 4.74786 7.83555 4.76428 7.69739C4.7807 7.55924 4.83589 7.42856 4.92346 7.32046L8.73326 2.63285C8.80362 2.54614 8.893 2.47679 8.99448 2.43016L12.8348 0.643998C12.9823 0.57535 13.1484 0.557449 13.3072 0.593102L16.6997 1.35642C16.8471 1.38968 16.9806 1.46747 17.0822 1.57922C17.1839 1.69097 17.2487 1.83127 17.2678 1.9811C17.287 2.13093 17.2596 2.28305 17.1894 2.41678C17.1192 2.55052 17.0095 2.65942 16.8753 2.7287L5.8352 8.43744C5.73035 8.49267 5.61362 8.52149 5.49511 8.5214ZM9.76882 3.69301L8.30156 5.49868L8.96564 5.15434L14.3996 2.34957L13.2266 2.08497L9.76882 3.69301Z"
          fill="#1F2935"/>
</svg>
