<svg width="45" height="45" viewBox="0 0 45 45" fill="none" xmlns="http://www.w3.org/2000/svg">
    <g clip-path="url(#clip0_38_4343)">
        <path d="M25.2021 39.1211L24.4488 38.9408L15.5047 31.6447L2.65976 25.2788C1.63414 24.7801 0.951577 21.8483 1.55634 20.4655C1.70626 20.0688 1.94279 19.7106 2.2487 19.4169C2.55461 19.1232 2.92219 18.9015 3.32464 18.7679L2.0161 17.9368C1.05767 17.378 0.124009 15.0686 0.863161 13.3816C1.02837 12.9431 1.28231 12.5433 1.6091 12.2074C1.93589 11.8715 2.32848 11.6067 2.76232 11.4294C3.02911 11.3322 3.31332 11.2921 3.59659 11.3116C3.87986 11.3311 4.15589 11.4098 4.40685 11.5426L5.95589 12.3171L3.1655 10.0997C2.66737 9.70682 2.34349 9.13401 2.26366 8.50465C2.18707 7.87671 2.23812 7.23976 2.41375 6.63203C2.58939 6.0243 2.88598 5.45831 3.28574 4.96804C3.81977 4.32791 4.84185 3.59583 6.56418 3.56754H6.58894C7.6959 3.56754 9.77189 4.82657 10.2776 5.21206L10.8541 5.67536C10.4532 5.01864 10.3218 4.23238 10.4872 3.48099C10.6527 2.7296 11.1022 2.07125 11.7418 1.64362L12.8028 0.936295C13.3224 0.589908 13.9381 0.416112 14.5622 0.439603C15.1863 0.463094 15.7871 0.682677 16.2793 1.06715L16.8062 1.4774C16.9317 1.57344 17.0499 1.67865 17.1599 1.79216L27.1225 12.4621L27.3559 5.71426C27.3686 5.30952 27.5098 4.91932 27.7591 4.60023L28.1588 4.08742C28.6944 3.38821 29.4431 2.88234 30.2917 2.64627C31.1403 2.41019 32.0427 2.45674 32.8624 2.77887C33.6325 3.07892 34.2994 3.595 34.7832 4.26506C35.2669 4.93512 35.5468 5.73064 35.5892 6.55598L36.4663 23.8854L38.6802 25.9402L38.7438 27.1709L29.2445 38.0495L28.7706 38.3289L25.2021 39.1211ZM3.55806 23.7581L16.3783 30.1028L16.5445 30.2089L25.2375 37.2821L28.0951 36.649L36.8482 26.6546L35.0021 24.9393L34.7192 24.3381L33.8421 6.64439C33.8176 6.15957 33.6533 5.69221 33.369 5.29873C33.0847 4.90525 32.6926 4.60246 32.24 4.42693C31.7767 4.24397 31.2666 4.21643 30.7863 4.34846C30.306 4.48049 29.8816 4.76495 29.5769 5.15901L29.1596 5.67182C29.1387 5.6965 29.1274 5.7279 29.1278 5.76024L28.8201 14.6371L27.2923 15.2136L15.8655 3.00168C15.823 2.95564 15.7768 2.91306 15.7276 2.87436L15.1971 2.46058C14.997 2.30375 14.7524 2.21417 14.4983 2.20465C14.2443 2.19512 13.9937 2.26613 13.7824 2.40753L12.7214 3.11485C12.5816 3.20849 12.4628 3.33029 12.3728 3.47244C12.2827 3.6146 12.2233 3.77399 12.1983 3.94043C12.1733 4.10686 12.1834 4.27667 12.2278 4.439C12.2722 4.60133 12.35 4.75261 12.4562 4.88316L12.4951 4.93267L15.8407 9.66466L14.5746 10.8706L9.17774 6.59842C8.6331 6.16695 7.01687 5.34999 6.58894 5.33584C6.2245 5.31639 5.86015 5.37583 5.52078 5.51011C5.18142 5.64439 4.87504 5.85034 4.62258 6.1139C4.14285 6.72982 3.92553 7.51015 4.01782 8.28538C4.03972 8.45359 4.12749 8.60623 4.26185 8.70977L13.6834 16.2074L12.7391 17.6928L3.59343 13.1129C3.55402 13.0927 3.51038 13.0822 3.46611 13.0822C3.42184 13.0822 3.3782 13.0927 3.33879 13.1129C3.22208 13.1518 2.81891 13.3392 2.48293 14.1031C2.12927 14.9448 2.65622 16.1826 2.92854 16.4267H2.95684L11.2431 21.6891L10.4226 23.2488L3.90465 20.4513C3.79855 20.4513 3.43428 20.5716 3.19733 21.1587C2.89671 21.8235 3.29282 23.3443 3.55806 23.7581Z"
              fill="#141B23"/>
        <path d="M33.9244 44.0672L27.6398 38.6704L27.5479 37.4219L37.4044 26.0128L38.6175 25.8926L44.6297 30.5715L44.7818 31.8164L35.194 43.9364L33.9244 44.0672ZM29.4647 37.9241L34.3771 42.1433L42.8296 31.4345L38.1931 27.8059L29.4647 37.9241Z"
              fill="#141B23"/>
        <path d="M23.7411 10.6321L15.1826 30.543L16.8072 31.2413L25.3657 11.3304L23.7411 10.6321Z" fill="#141B23"/>
        <path d="M34.7235 19.7751L19.0811 32.6973L20.2073 34.0606L35.8497 21.1384L34.7235 19.7751Z" fill="#141B23"/>
        <path d="M28.8256 14.5915L27.0576 14.627L27.2942 26.4121L29.0621 26.3766L28.8256 14.5915Z" fill="#141B23"/>
        <path d="M37.3937 32.1236L32.71 37.6484L34.0588 38.7919L38.7425 33.2671L37.3937 32.1236Z" fill="#141B23"/>
        <path d="M27.9391 14.6059L28.1725 26.3934L19.6493 33.3853L15.9854 30.8955L24.5475 10.9844L27.9391 14.6059Z"
              fill="#141B23"/>
        <path d="M19.1551 34.1135L15.4911 31.6379L15.1729 30.5557L23.735 10.6374L25.1921 10.3828L28.5837 14.0043L28.8242 14.5843L29.0576 26.3718L28.7358 27.0792L20.2125 34.0675L19.1551 34.1135ZM17.0862 30.5769L19.6007 32.2674L27.2822 25.9828L27.063 14.9627L24.8278 12.5755L17.0862 30.5769Z"
              fill="#141B23"/>
    </g>
    <defs>
        <clipPath id="clip0_38_4343">
            <rect width="44.1759" height="43.6312" fill="white" transform="translate(0.59668 0.4375)"/>
        </clipPath>
    </defs>
</svg>
