<svg width="156" height="34" viewBox="0 0 156 34" fill="none" xmlns="http://www.w3.org/2000/svg">
    <path d="M50.856 21.1604C50.856 21.8099 50.7716 22.3962 50.6029 22.9192C50.4426 23.4337 50.2275 23.8892 49.9576 24.2857C49.6877 24.6822 49.3713 25.0196 49.0086 25.298C48.6459 25.5763 48.2705 25.8041 47.8825 25.9812C47.4945 26.1584 47.098 26.2891 46.6931 26.3735C46.2966 26.4578 45.9213 26.5 45.567 26.5H32.8759V23.2102H45.567C46.1996 23.2102 46.6889 23.0246 47.0347 22.6535C47.389 22.2823 47.5662 21.7846 47.5662 21.1604C47.5662 20.8567 47.5198 20.5784 47.427 20.3253C47.3342 20.0722 47.1992 19.8529 47.0221 19.6673C46.8534 19.4818 46.6425 19.3383 46.3894 19.2371C46.1448 19.1359 45.8707 19.0853 45.567 19.0853H38.0004C37.469 19.0853 36.8954 18.9925 36.2796 18.8069C35.6638 18.6129 35.0902 18.305 34.5588 17.8832C34.0358 17.4615 33.5972 16.909 33.2429 16.2257C32.897 15.5424 32.7241 14.7073 32.7241 13.7204C32.7241 12.7334 32.897 11.9025 33.2429 11.2277C33.5972 10.5445 34.0358 9.99193 34.5588 9.57016C35.0902 9.13996 35.6638 8.83207 36.2796 8.64649C36.8954 8.45247 37.469 8.35547 38.0004 8.35547H49.1984V11.6453H38.0004C37.3762 11.6453 36.887 11.8351 36.5327 12.2147C36.1868 12.5943 36.0139 13.0962 36.0139 13.7204C36.0139 14.353 36.1868 14.8549 36.5327 15.2261C36.887 15.5888 37.3762 15.7702 38.0004 15.7702H45.567H45.5923C45.9466 15.7786 46.322 15.8292 46.7184 15.922C47.1149 16.0064 47.5071 16.1413 47.8952 16.3269C48.2916 16.5125 48.667 16.7487 49.0213 17.0355C49.3756 17.3139 49.6877 17.6513 49.9576 18.0477C50.236 18.4442 50.4553 18.8997 50.6156 19.4143C50.7758 19.9288 50.856 20.5109 50.856 21.1604ZM64.9925 30.7767H61.7027V17.4277C61.7027 16.9975 61.5931 16.6728 61.3737 16.4534C61.1544 16.2257 60.8212 16.1118 60.3741 16.1118H54.4398C54.0349 16.1118 53.7144 16.2383 53.4782 16.4914C53.242 16.736 53.1239 17.0481 53.1239 17.4277V21.8816C53.1239 22.3118 53.2378 22.6408 53.4656 22.8686C53.6933 23.0963 54.0265 23.2102 54.4651 23.2102H60.3741V26.5H54.4398C53.9843 26.5 53.4866 26.4199 52.9468 26.2596C52.4069 26.0993 51.905 25.8378 51.4411 25.4751C50.9855 25.1039 50.6017 24.6273 50.2896 24.0453C49.986 23.4548 49.8341 22.7336 49.8341 21.8816V17.4277C49.8341 17.1156 49.8679 16.7866 49.9353 16.4408C50.0113 16.0949 50.1251 15.7533 50.277 15.4159C50.4288 15.07 50.6228 14.7411 50.859 14.429C51.1036 14.1168 51.3947 13.8427 51.7321 13.6065C52.0779 13.3703 52.4744 13.1805 52.9215 13.0371C53.3685 12.8937 53.8747 12.822 54.4398 12.822H60.3741C60.6863 12.822 61.0152 12.86 61.3611 12.9359C61.7154 13.0034 62.0612 13.113 62.3986 13.2649C62.7445 13.4167 63.0735 13.6149 63.3856 13.8596C63.6977 14.0958 63.9718 14.3868 64.208 14.7326C64.4442 15.07 64.634 15.4623 64.7774 15.9094C64.9208 16.3564 64.9925 16.8626 64.9925 17.4277V30.7767ZM79.8503 24.8424C79.8503 25.0786 79.8081 25.298 79.7238 25.5004C79.6394 25.7029 79.5213 25.88 79.3695 26.0318C79.2261 26.1752 79.0531 26.2891 78.8507 26.3735C78.6567 26.4578 78.4458 26.5 78.218 26.5H70.778C70.3731 26.5 69.9387 26.4536 69.4747 26.3608C69.0192 26.268 68.5679 26.1204 68.1209 25.918C67.6738 25.7071 67.2394 25.4456 66.8176 25.1335C66.4043 24.8129 66.0415 24.4291 65.7294 23.982C65.4173 23.5265 65.1643 23.0035 64.9702 22.4131C64.7847 21.8226 64.6919 21.1562 64.6919 20.4139V12.822H67.9817V20.4139C67.9817 20.8441 68.0534 21.2321 68.1968 21.5779C68.3486 21.9154 68.5511 22.2064 68.8041 22.451C69.0572 22.6956 69.3524 22.8854 69.6899 23.0204C70.0357 23.1469 70.4069 23.2102 70.8033 23.2102H76.5605V12.822H79.8503V24.8424ZM93.9489 21.9702C93.9489 22.4257 93.8687 22.9192 93.7085 23.4506C93.5482 23.9736 93.2867 24.4629 92.924 24.9184C92.5697 25.3654 92.1015 25.7408 91.5195 26.0445C90.9459 26.3482 90.2457 26.5 89.4191 26.5H83.4848C83.0292 26.5 82.5358 26.4199 82.0043 26.2596C81.4814 26.0993 80.9921 25.842 80.5366 25.4878C80.0895 25.125 79.7141 24.6569 79.4105 24.0833C79.1068 23.5012 78.9549 22.7969 78.9549 21.9702C78.9549 21.5147 79.0351 21.0212 79.1954 20.4898C79.3556 19.9584 79.6129 19.4691 79.9672 19.022C80.3299 18.5665 80.7981 18.1869 81.3717 17.8832C81.9537 17.5796 82.6581 17.4277 83.4848 17.4277H89.4191V20.5657H83.4848C83.0377 20.5657 82.6918 20.7049 82.4472 20.9833C82.2026 21.2532 82.0803 21.5906 82.0803 21.9955C82.0803 22.4257 82.2194 22.7631 82.4978 23.0077C82.7846 23.2439 83.122 23.362 83.5101 23.362H89.4191C89.8661 23.362 90.212 23.2271 90.4566 22.9571C90.7012 22.6872 90.8236 22.3498 90.8236 21.9449V17.3518C90.8236 16.9216 90.6886 16.58 90.4187 16.3269C90.1572 16.0739 89.824 15.9473 89.4191 15.9473H82.1941V12.822H89.4191C89.8746 12.822 90.3638 12.9021 90.8868 13.0624C91.4182 13.2227 91.9075 13.4842 92.3546 13.8469C92.8101 14.2012 93.1897 14.6694 93.4934 15.2514C93.797 15.825 93.9489 16.5251 93.9489 17.3518V21.9702ZM108.655 21.8816C108.655 22.4468 108.583 22.9571 108.44 23.4126C108.296 23.8597 108.106 24.2562 107.87 24.602C107.634 24.9395 107.36 25.2305 107.048 25.4751C106.736 25.7113 106.407 25.9053 106.061 26.0571C105.723 26.209 105.378 26.3229 105.023 26.3988C104.678 26.4663 104.349 26.5 104.036 26.5H98.1021C97.5369 26.5 97.0308 26.4283 96.5837 26.2849C96.1367 26.1415 95.7402 25.9517 95.3944 25.7155C95.0569 25.4709 94.7659 25.1925 94.5213 24.8804C94.2851 24.5683 94.0911 24.2435 93.9392 23.9061C93.7874 23.5603 93.6735 23.2144 93.5976 22.8686C93.5301 22.5143 93.4964 22.1853 93.4964 21.8816V17.4277C93.4964 16.5842 93.6482 15.8714 93.9519 15.2894C94.264 14.6989 94.6478 14.2223 95.1033 13.8596C95.5673 13.4884 96.0692 13.2227 96.6091 13.0624C97.1489 12.9021 97.6466 12.822 98.1021 12.822H104.036V16.1118H98.1274C97.6888 16.1118 97.3556 16.2257 97.1278 16.4534C96.9001 16.6728 96.7862 16.9975 96.7862 17.4277V21.8563C96.7862 22.3034 96.8959 22.6408 97.1152 22.8686C97.3429 23.0963 97.6719 23.2102 98.1021 23.2102H104.036C104.483 23.2102 104.817 23.0963 105.036 22.8686C105.255 22.6408 105.365 22.3118 105.365 21.8816V7.03954H108.655V21.8816ZM121.906 21.8816C121.906 22.4468 121.834 22.9571 121.691 23.4126C121.547 23.8597 121.357 24.2562 121.121 24.602C120.885 24.9395 120.611 25.2305 120.299 25.4751C119.987 25.7113 119.658 25.9053 119.312 26.0571C118.974 26.209 118.628 26.3229 118.274 26.3988C117.928 26.4663 117.599 26.5 117.287 26.5H108.379V23.2102H117.262C117.709 23.2102 118.046 23.0963 118.274 22.8686C118.502 22.6408 118.616 22.3118 118.616 21.8816C118.574 21.0043 118.131 20.5657 117.287 20.5657H112.188C111.463 20.5657 110.847 20.4392 110.341 20.1861C109.835 19.933 109.421 19.6167 109.101 19.2371C108.789 18.8575 108.561 18.4484 108.417 18.0098C108.282 17.5711 108.215 17.162 108.215 16.7824C108.215 16.0485 108.346 15.4328 108.607 14.9351C108.869 14.429 109.198 14.0198 109.594 13.7077C109.991 13.3956 110.421 13.1721 110.885 13.0371C111.349 12.8937 111.783 12.822 112.188 12.822H120.273V16.1118H112.213C112.045 16.1118 111.91 16.1329 111.808 16.1751C111.716 16.2088 111.644 16.2594 111.593 16.3269C111.551 16.386 111.526 16.4534 111.517 16.5294C111.509 16.5968 111.505 16.6643 111.505 16.7318C111.513 16.8668 111.539 16.9722 111.581 17.0481C111.623 17.1241 111.673 17.1789 111.733 17.2126C111.8 17.2464 111.872 17.2675 111.948 17.2759C112.032 17.2759 112.112 17.2759 112.188 17.2759H117.287C118.131 17.2759 118.848 17.4277 119.438 17.7314C120.029 18.0351 120.505 18.4189 120.868 18.8828C121.231 19.3383 121.492 19.836 121.653 20.3759C121.821 20.9158 121.906 21.4177 121.906 21.8816Z"
          fill="url(#paint0_linear_38_4242)"/>
    <rect x="124.491" y="10.345" width="30.6291" height="14.2207" rx="7.11033" fill="white"/>
    <path d="M131.595 14.5571H134C134.372 14.5571 134.694 14.6235 134.965 14.7562C135.235 14.8838 135.442 15.0676 135.585 15.3075C135.733 15.5475 135.807 15.8333 135.807 16.1652C135.807 16.4408 135.733 16.691 135.585 16.9156C135.442 17.1351 135.222 17.3163 134.926 17.4592V16.9768C135.325 17.13 135.608 17.3367 135.776 17.5971C135.95 17.8574 136.037 18.1637 136.037 18.5159C136.037 19.0622 135.855 19.491 135.493 19.8024C135.136 20.1087 134.638 20.2618 134 20.2618H131.595V14.5571ZM134.107 19.3429C134.372 19.3429 134.587 19.2689 134.75 19.1209C134.914 18.9677 134.995 18.7661 134.995 18.5159C134.995 18.2658 134.914 18.0642 134.75 17.911C134.592 17.7579 134.378 17.6813 134.107 17.6813H132.637V19.3429H134.107ZM134.053 16.7701C134.268 16.7701 134.439 16.7088 134.566 16.5863C134.694 16.4587 134.758 16.2953 134.758 16.0962C134.758 15.8972 134.694 15.7389 134.566 15.6215C134.439 15.5041 134.268 15.4454 134.053 15.4454H132.637V16.7701H134.053Z"
          fill="#232D39"/>
    <path d="M138.774 20.3537C138.355 20.3537 137.982 20.2592 137.656 20.0704C137.329 19.8764 137.076 19.6135 136.898 19.2817C136.719 18.9447 136.63 18.5746 136.63 18.1714C136.63 17.763 136.719 17.3954 136.898 17.0687C137.076 16.7369 137.324 16.4766 137.64 16.2877C137.957 16.0988 138.309 16.0044 138.697 16.0044C139.116 16.0044 139.476 16.0962 139.777 16.28C140.083 16.4587 140.318 16.7037 140.481 17.0151C140.645 17.3265 140.726 17.6685 140.726 18.0412C140.726 18.2148 140.708 18.3551 140.673 18.4623H137.457V17.6966H140.106L139.631 18.0565C139.677 17.8268 139.664 17.62 139.593 17.4363C139.527 17.2474 139.414 17.0993 139.256 16.9921C139.098 16.8849 138.911 16.8313 138.697 16.8313C138.488 16.8313 138.299 16.8849 138.13 16.9921C137.967 17.0993 137.845 17.255 137.763 17.4592C137.681 17.6634 137.651 17.9034 137.671 18.179C137.651 18.4343 137.684 18.6589 137.771 18.8529C137.862 19.0468 137.995 19.2 138.169 19.3123C138.347 19.4195 138.552 19.4731 138.781 19.4731C139.001 19.4731 139.192 19.4272 139.356 19.3353C139.519 19.2383 139.649 19.1056 139.746 18.9371L140.558 19.3353C140.43 19.6365 140.206 19.8815 139.884 20.0704C139.562 20.2592 139.192 20.3537 138.774 20.3537Z"
          fill="#232D39"/>
    <path d="M143.386 20.3077C142.916 20.3077 142.551 20.1801 142.291 19.9249C142.035 19.6645 141.908 19.2995 141.908 18.8299V16.9921H141.188V16.0962H141.265C141.469 16.0962 141.627 16.0426 141.739 15.9354C141.852 15.8282 141.908 15.6725 141.908 15.4683V15.0166H142.911V16.0962H143.868V16.9921H142.911V18.7763C142.911 18.9907 142.967 19.154 143.079 19.2664C143.192 19.3736 143.37 19.4272 143.615 19.4272C143.697 19.4272 143.786 19.4195 143.883 19.4042V20.2695C143.735 20.295 143.569 20.3077 143.386 20.3077Z"
          fill="#232D39"/>
    <path d="M145.764 20.3537C145.473 20.3537 145.22 20.3052 145.006 20.2082C144.791 20.1112 144.625 19.9734 144.508 19.7947C144.39 19.6109 144.332 19.3991 144.332 19.1592C144.332 18.8069 144.452 18.5185 144.692 18.2939C144.932 18.0642 145.291 17.9085 145.771 17.8268L147.134 17.6047V18.3705L145.963 18.5695C145.764 18.6053 145.616 18.6691 145.519 18.761C145.422 18.8529 145.373 18.9728 145.373 19.1209C145.373 19.2638 145.427 19.3787 145.534 19.4654C145.641 19.5471 145.779 19.588 145.947 19.588C146.152 19.588 146.335 19.5446 146.499 19.4578C146.662 19.3659 146.787 19.2408 146.874 19.0826C146.966 18.9243 147.012 18.7508 147.012 18.5619V17.4899C147.012 17.3112 146.94 17.1632 146.797 17.0457C146.66 16.9232 146.476 16.862 146.246 16.862C146.032 16.862 145.843 16.9181 145.679 17.0304C145.516 17.1427 145.394 17.2959 145.312 17.4899L144.493 17.0917C144.615 16.765 144.84 16.5021 145.166 16.303C145.493 16.1039 145.866 16.0044 146.284 16.0044C146.621 16.0044 146.92 16.0682 147.18 16.1958C147.446 16.3183 147.65 16.4919 147.793 16.7165C147.941 16.9411 148.015 17.1989 148.015 17.4899V20.2618H147.065V19.5497L147.28 19.5344C147.116 19.8049 146.907 20.0091 146.652 20.1469C146.402 20.2848 146.106 20.3537 145.764 20.3537Z"
          fill="#232D39"/>
    <path d="M14.2924 2.94264C14.7387 2.57842 15.3978 2.60476 15.8139 3.02076L28.807 16.0139L28.8852 16.0999C29.2252 16.5165 29.2252 17.1188 28.8852 17.5354L28.807 17.6213L15.8139 30.6145L15.7279 30.6926C15.3113 31.0327 14.7091 31.0327 14.2924 30.6926L14.2065 30.6145L1.21329 17.6213C0.797269 17.2052 0.770902 16.5461 1.13517 16.0999L1.21329 16.0139L14.2065 3.02076L14.2924 2.94264ZM5.23087 16.8176L6.6547 18.2415C6.67482 18.2408 6.69495 18.2385 6.71525 18.2385H14.8246L14.9994 18.2473C15.8587 18.3348 16.5287 19.0603 16.5287 19.9426C16.5285 20.8248 15.8585 21.5505 14.9994 21.6379L14.8246 21.6467H10.06L15.0102 26.5969L24.7895 16.8176L23.3373 15.3655L23.2904 15.3684H15.1811C14.2398 15.3684 13.477 14.6056 13.477 13.6643C13.4771 12.7231 14.2398 11.9602 15.1811 11.9602H19.932L15.0102 7.03834L5.23087 16.8176Z"
          fill="url(#paint1_linear_38_4242)"/>
    <defs>
        <linearGradient id="paint0_linear_38_4242" x1="31.5094" y1="17" x2="123.509" y2="17"
                        gradientUnits="userSpaceOnUse">
            <stop stop-color="#D0F091"/>
            <stop offset="0.5" stop-color="#88C80C"/>
            <stop offset="1" stop-color="#218208"/>
        </linearGradient>
        <linearGradient id="paint1_linear_38_4242" x1="15.0103" y1="2.68781" x2="15.0103" y2="30.9477"
                        gradientUnits="userSpaceOnUse">
            <stop stop-color="#D0F091"/>
            <stop offset="1" stop-color="#268609"/>
        </linearGradient>
    </defs>
</svg>
