<svg width="52" height="44" viewBox="0 0 52 44" fill="none" xmlns="http://www.w3.org/2000/svg">
    <path d="M0.837746 2.13823C-0.373901 8.66737 -0.575842 15.6409 2.31865 21.7598C4.40537 26.1354 8.17494 29.3486 12.6513 30.8869C16.5892 32.2543 21.0655 32.2885 25.0707 31.1262C26.9218 30.6135 28.7393 29.8272 30.3211 28.6992C33.5859 26.443 36.6823 23.3323 37.793 19.3669C38.6007 16.4613 38.1632 13.1796 36.413 10.7526C34.5956 8.25716 32.004 6.6847 28.9412 6.30867C22.3445 5.52244 17.9354 12.2225 16.8248 18.0338C15.5458 24.5971 16.9257 32.0834 21.4694 37.1426C23.8927 39.8431 27.1911 41.3814 30.725 41.689C33.8551 41.9625 37.1198 41.1079 39.8797 39.6038C42.2357 38.3048 44.5243 36.3905 45.4667 33.7584C45.9379 32.4594 45.8706 31.0237 45.2311 29.793C44.5917 28.5624 43.2117 27.5369 41.8991 27.2634C40.6538 26.99 39.4758 27.2976 38.5334 28.1864C37.8939 28.7675 37.4901 29.5879 37.2208 30.4083C36.9515 31.1946 36.8506 32.0834 36.7833 32.9038C36.7496 33.5875 36.7496 34.2711 36.8169 34.9548C36.9852 36.5956 37.2881 38.2023 38.2978 39.5355C39.6441 41.3472 41.4616 42.7146 43.6156 43.3641C46.0052 44.0819 48.5632 43.7059 50.7509 42.5095C51.9288 41.86 52.3664 40.1508 51.6596 38.9885C50.8855 37.7921 49.4382 37.3819 48.1929 38.0656C47.9573 38.2023 47.7554 38.3048 47.5198 38.4074C47.7217 38.3048 47.9237 38.2365 48.1256 38.1339C47.5535 38.3732 46.9813 38.5441 46.3755 38.6125C46.6111 38.5783 46.813 38.5441 47.0486 38.5099C46.4764 38.5783 45.9379 38.5783 45.3658 38.5099C45.6014 38.5441 45.8033 38.5783 46.0389 38.6125C45.3994 38.5099 44.7599 38.339 44.1541 38.0997C44.3561 38.2023 44.558 38.2707 44.7599 38.3732C44.3224 38.1681 43.9185 37.963 43.5146 37.6895C43.4137 37.6212 43.3127 37.5528 43.2454 37.4844C42.9088 37.2451 43.6493 37.8263 43.4473 37.6553C43.279 37.5186 43.1108 37.3819 42.9761 37.211C42.8415 37.0742 42.7069 36.9375 42.5722 36.8007C42.5049 36.7324 42.4376 36.6298 42.3703 36.5615C42.1011 36.2538 42.7405 37.1084 42.5386 36.7666C42.3366 36.4589 42.1684 36.1854 42.0337 35.8436C42.1347 36.0487 42.202 36.2538 42.303 36.4589C42.0674 35.8778 41.9328 35.2283 41.8318 34.5788C41.8655 34.8181 41.8991 35.0232 41.9328 35.2625C41.7981 34.2711 41.7981 33.2456 41.9328 32.2201C41.8991 32.4594 41.8655 32.6645 41.8318 32.9038C41.8991 32.391 42.0001 31.9124 42.202 31.4339C42.1011 31.639 42.0337 31.8441 41.9328 32.0492C41.9664 31.9466 42.0337 31.8441 42.0674 31.7415C42.2693 31.3655 42.1684 31.6732 41.8991 31.9124C42.0001 31.8099 42.303 31.5706 41.8655 31.8783C41.4279 32.2201 41.7645 31.9808 41.8991 31.9124C41.6972 32.015 41.4952 32.0834 41.2933 32.1859C41.3943 32.1517 41.4616 32.1175 41.5625 32.1175C41.3269 32.1517 41.125 32.1859 40.8894 32.2201C40.9904 32.2201 41.0913 32.2201 41.1587 32.2201C40.9231 32.1859 40.7211 32.1517 40.4855 32.1175C40.6538 32.1517 40.7884 32.1859 40.9231 32.2543C40.7211 32.1517 40.5192 32.0834 40.3172 31.9808C40.4855 32.0492 40.6538 32.1517 40.8221 32.2543C40.8894 32.2885 40.9567 32.3568 41.024 32.391C41.1923 32.4936 40.5192 31.9466 40.6538 32.0834C40.6875 32.1175 40.7211 32.1517 40.7548 32.1859C40.7884 32.2201 40.8557 32.2885 40.8894 32.3226C40.9231 32.3568 40.9567 32.391 40.9567 32.4252C41.0577 32.5278 40.5865 31.9124 40.6538 32.015C40.7211 32.1517 40.8221 32.2543 40.8894 32.4252C40.7884 32.2201 40.7211 32.015 40.6201 31.8099C40.6875 31.9808 40.7211 32.1175 40.7548 32.2885C40.7211 32.0492 40.6875 31.8441 40.6538 31.6048C40.6875 31.8099 40.6875 32.015 40.6538 32.2201C40.6875 31.9808 40.7211 31.7757 40.7548 31.5364C40.7211 31.8441 40.6201 32.1175 40.5192 32.391C40.6201 32.1859 40.6875 31.9808 40.7884 31.7757C40.6875 31.9808 40.5865 32.1859 40.4519 32.391C40.3845 32.4936 40.3172 32.5961 40.2499 32.6987C40.2163 32.767 40.1826 32.8012 40.149 32.8696C39.947 33.1431 40.5865 32.2885 40.3845 32.5619C40.0143 33.0063 39.6104 33.4507 39.1392 33.8267C39.0383 33.8951 38.5671 34.3053 39.0046 33.9635C39.4422 33.6216 38.9373 33.9977 38.8363 34.066C38.5671 34.2711 38.2978 34.4421 37.9949 34.613C37.3891 34.989 36.7496 35.3308 36.0765 35.6043C36.2784 35.5018 36.4804 35.4334 36.6823 35.3308C35.4706 35.8436 34.1917 36.2196 32.9127 36.3905C33.1483 36.3564 33.3503 36.3222 33.5859 36.288C32.4415 36.4247 31.3309 36.4589 30.1865 36.3222C30.4221 36.3564 30.6241 36.3905 30.8597 36.4247C29.85 36.288 28.8739 36.0145 27.9315 35.6385C28.1335 35.741 28.3354 35.8094 28.5373 35.912C27.6959 35.5359 26.9555 35.0915 26.215 34.5446C25.8784 34.3053 26.7535 34.989 26.417 34.7155C26.3496 34.6472 26.2823 34.613 26.215 34.5446C26.0467 34.4079 25.8784 34.2711 25.7102 34.1002C25.4072 33.8267 25.138 33.5533 24.9024 33.2456C24.7678 33.0747 24.6331 32.938 24.4985 32.767C24.4312 32.6987 24.3639 32.6303 24.3302 32.5278C24.8687 33.2114 24.5995 32.9038 24.4985 32.7329C24.2629 32.391 24.0273 32.0492 23.7917 31.6732C23.3542 30.9211 22.9503 30.1691 22.6137 29.3486C22.7147 29.5538 22.782 29.7589 22.883 29.964C22.1762 28.2889 21.7387 26.5114 21.4694 24.6996C21.5031 24.9389 21.5367 25.144 21.5704 25.3833C21.3348 23.5032 21.3011 21.5889 21.5704 19.6746C21.5367 19.9139 21.5031 20.119 21.4694 20.3583C21.6713 18.7858 22.0752 17.2475 22.6474 15.8118C22.5464 16.0169 22.4791 16.222 22.3781 16.4271C22.6474 15.7776 22.9503 15.1281 23.3205 14.5128C23.4888 14.2393 23.6571 13.9317 23.859 13.6924C23.8927 13.624 23.96 13.5557 23.9937 13.4873C24.2293 13.1455 23.5561 14.0342 23.8254 13.6924C23.9263 13.5557 24.0273 13.4189 24.1619 13.2822C24.3639 13.0429 24.5995 12.8036 24.8351 12.5643C24.9697 12.4276 25.0707 12.325 25.2053 12.2225C25.2726 12.1541 25.5082 11.9148 25.5755 11.9148C25.5755 11.9148 24.9697 12.3592 25.3063 12.1541C25.3736 12.1199 25.4072 12.0858 25.4746 12.0516C25.6092 11.949 25.7438 11.8807 25.8784 11.7781C26.114 11.6414 26.3833 11.5046 26.6526 11.4021C26.4506 11.5046 26.2487 11.573 26.0467 11.6756C26.6189 11.4363 27.1911 11.2653 27.7969 11.197C27.5613 11.2312 27.3593 11.2653 27.1237 11.2995C27.7296 11.2312 28.3354 11.2312 28.9749 11.2995C28.7393 11.2653 28.5373 11.2312 28.3017 11.197C28.9749 11.2995 29.6144 11.4704 30.2202 11.7439C30.0182 11.6414 29.8163 11.573 29.6144 11.4704C30.0856 11.6756 30.5231 11.9148 30.927 12.1883C31.0279 12.2567 31.0953 12.325 31.1962 12.3934C31.2299 12.4276 31.2972 12.4618 31.3309 12.496C31.3309 12.496 30.725 12.0174 31.0279 12.2567C31.2299 12.4276 31.3982 12.5985 31.6001 12.7694C31.7684 12.9404 31.9367 13.1113 32.0713 13.2822C32.105 13.3164 32.1386 13.3847 32.2059 13.4189C32.4415 13.8633 31.9703 13.2822 31.9703 13.2822C32.0377 13.3847 32.105 13.4873 32.2059 13.5899C32.4752 14.0001 32.7444 14.4786 32.9127 14.923C32.8118 14.7179 32.7444 14.5128 32.6435 14.3077C32.8791 14.8888 33.0474 15.5042 33.1483 16.1195C33.1147 15.8802 33.081 15.6751 33.0474 15.4358C33.1483 16.1195 33.1483 16.8373 33.0474 17.521C33.081 17.2817 33.1147 17.0766 33.1483 16.8373C33.0474 17.6236 32.8118 18.3414 32.5425 19.0593C32.6435 18.8542 32.7108 18.6491 32.8118 18.444C32.6098 18.9567 32.3406 19.4353 32.0376 19.9139C31.8694 20.1874 31.7011 20.4266 31.5328 20.6659C31.4655 20.7685 31.3982 20.8368 31.3309 20.9394C31.8357 20.2215 31.4991 20.7343 31.3645 20.9052C30.927 21.4522 30.4558 21.9307 29.9509 22.4093C29.7153 22.6486 29.4797 22.8537 29.2105 23.0588C29.0758 23.1955 28.9076 23.2981 28.7729 23.4348C28.6383 23.5716 28.0661 23.8792 28.7056 23.5032C28.3017 23.7425 27.9315 24.0843 27.5276 24.3578C27.292 24.5287 27.0228 24.6654 26.7535 24.8364C26.2487 25.144 25.7102 25.4175 25.138 25.6226C25.3399 25.52 25.5419 25.4517 25.7438 25.3491C24.2629 25.9986 22.681 26.4088 21.0992 26.6139C21.3348 26.5797 21.5367 26.5456 21.7723 26.5114C20.0895 26.7507 18.373 26.7507 16.6565 26.5114C16.8921 26.5456 17.094 26.5797 17.3296 26.6139C15.815 26.4088 14.3341 25.9986 12.9542 25.4175C13.1562 25.52 13.3581 25.5884 13.56 25.691C12.8869 25.4175 12.2474 25.0757 11.6416 24.6996C11.3387 24.4945 11.0021 24.3236 10.7329 24.0843C10.5982 23.9818 10.4299 23.8792 10.2953 23.7767C9.95875 23.5032 10.7329 24.1185 10.5646 23.9818C10.4973 23.9134 10.3963 23.845 10.329 23.7767C9.75681 23.2981 9.2183 22.7853 8.71345 22.2042C8.57882 22.0675 8.47785 21.9307 8.34322 21.7598C8.27591 21.6914 8.24225 21.6231 8.17494 21.5547C8.14128 21.5205 8.10763 21.4863 8.07397 21.4522C7.83837 21.1787 8.51151 22.0333 8.30957 21.7256C8.07397 21.418 7.83837 21.0761 7.63643 20.7685C7.13158 19.9481 6.69404 19.0935 6.32381 18.2047C6.42478 18.4098 6.4921 18.6149 6.59307 18.82C5.88627 17.1108 5.44873 15.299 5.17948 13.4531C5.21314 13.6924 5.24679 13.8975 5.28045 14.1368C4.87657 11.1628 5.0112 8.18879 5.38142 5.21479C5.34776 5.45407 5.31411 5.65918 5.28045 5.89847C5.38142 5.04387 5.54971 4.18927 5.68433 3.33467C5.81896 2.65099 5.7853 1.96731 5.41508 1.352C5.11217 0.805059 4.50634 0.326484 3.90052 0.189749C2.68887 0.0871967 1.107 0.736692 0.837746 2.13823Z"
          fill="#FA6432"/>
</svg>
