<svg width="39" height="38" viewBox="0 0 39 38" fill="none" xmlns="http://www.w3.org/2000/svg">
    <path d="M27.6721 31.2021L26.4542 30.3752L31.621 22.7641L28.343 23.6868L33.8024 12.4593L27.3575 13.455L34.0144 4.28589L20.8566 11.2363L23.9989 3.84318L9.22621 10.8809L8.59351 9.55192L26.8749 0.842499L23.8318 7.99899L38.9268 0.0249023L30.6253 11.4602L36.357 10.5748L31.102 21.3799L35.106 20.2527L27.6721 31.2021Z"
          fill="#1F2935"/>
    <path d="M15.6326 37.3589C12.2463 37.3535 8.96429 36.1872 6.33398 34.0545C3.70368 31.9219 1.88416 28.9518 1.17897 25.6398C0.473775 22.3277 0.925553 18.8741 2.45893 15.8549C3.99231 12.8357 6.51457 10.4335 9.60494 9.04919L10.2054 10.3935C8.03865 11.364 6.17034 12.8955 4.79356 14.8298C3.41679 16.764 2.58149 19.0308 2.37398 21.3959C2.16648 23.7611 2.59429 26.1387 3.61322 28.2831C4.63215 30.4276 6.20524 32.261 8.16991 33.594C14.2535 37.7185 22.5584 36.1257 26.6837 30.0421L27.9024 30.8681C26.5439 32.8709 24.715 34.5099 22.5758 35.6415C20.4367 36.7731 18.0526 37.3628 15.6326 37.3589Z"
          fill="#1F2935"/>
    <path d="M8.7747 25.4853L1.16614 20.4305L1.26283 19.9462C1.58681 18.3254 2.20255 16.6792 3.32038 14.4427L3.48153 14.1204L12.2588 12.3682L14.7633 19.9598L8.7747 25.4853ZM2.81151 19.7571L8.62628 23.6194L13.0705 19.5204L11.2716 14.067L4.47893 15.424C3.6308 17.1533 3.11429 18.4934 2.81151 19.7571Z"
          fill="#1F2935"/>
    <path d="M23.0404 29.578L21.3272 22.4681L22.7588 22.1229L24.1667 27.9665L28.337 27.4873L28.5049 28.9504L23.0404 29.578Z"
          fill="#1F2935"/>
    <path d="M24.925 18.046L22.6528 22.709L21.4341 21.8821L24.925 18.046Z" fill="#1F2935"/>
    <path d="M17.4936 36.5487L16.7719 33.2477L10.9071 32.0722L8.28298 34.7209L7.23639 33.6854L10.4186 30.4727L18.0051 31.9934L18.9321 36.2349L17.4936 36.5487Z"
          fill="#1F2935"/>
    <path d="M9.4196 24.3315L8.00635 24.7445L9.96997 31.4639L11.3832 31.0509L9.4196 24.3315Z" fill="#1F2935"/>
    <path d="M23.2118 28.1542L16.9978 32.0026L17.773 33.2543L23.987 29.4059L23.2118 28.1542Z" fill="#1F2935"/>
    <path d="M14.1394 19.0407L13.6976 20.4452L21.8221 23.0006L22.2639 21.5961L14.1394 19.0407Z" fill="#1F2935"/>
    <path d="M11.2165 12.7279L14.3834 10.276L12.3165 13.7067L11.2165 12.7279Z" fill="#1F2935"/>
    <path d="M8.77555 25.4856L1.16614 20.4307L1.26283 19.9464C1.60208 18.24 2.58506 15.9153 3.32038 14.4429L3.48153 14.1206L12.2588 12.3676L14.7625 19.9591L8.77555 25.4856ZM2.8166 19.7598L8.62628 23.6188L13.0688 19.5198L11.2707 14.0672L4.47978 15.4242C3.84623 16.7363 3.15331 18.441 2.8166 19.7598Z"
          fill="#1F2935"/>
    <path d="M23.6027 28.774L17.3901 32.6203L10.6619 31.2734L8.70105 24.552L13.9162 19.7397L22.0438 22.2951L23.6027 28.774Z"
          fill="#1F2935"/>
    <path d="M17.2456 33.3421L10.5174 31.9953L9.95513 31.4796L7.99426 24.7565L8.20121 24.0084L13.4172 19.1962L14.1373 19.035L22.2666 21.593L22.7619 22.1231L24.3207 28.6019L23.9925 29.4L17.78 33.2463L17.2456 33.3421ZM11.2409 30.6391L17.2456 31.8409L22.7585 28.4281L21.4218 22.8728L14.0982 20.5701L9.53192 24.7845L11.2409 30.6391Z"
          fill="#1F2935"/>
    <path d="M28.3263 27.4953L23.5094 28.05L23.6779 29.5127L28.4948 28.958L28.3263 27.4953Z" fill="#1F2935"/>
    <path d="M18.0976 32.4751L16.6592 32.7893L17.4831 36.5619L18.9216 36.2478L18.0976 32.4751Z" fill="#1F2935"/>
    <path d="M10.1369 30.769L7.23438 33.6969L8.28002 34.7335L11.1825 31.8055L10.1369 30.769Z" fill="#1F2935"/>
</svg>
