<svg width="171" height="142" viewBox="0 0 171 142" fill="none" xmlns="http://www.w3.org/2000/svg">
    <path d="M28.4572 14.1187L49.0813 72.24L12.6276 72.4427L40.2259 90.0335L15.5434 109.989L50.1663 106.075L54.8047 133.725L74.995 111.478L100.806 132.816L95.9521 103.885L168.696 111.148L106.323 86.4799L131.387 65.9212L90.3614 70.5589L94.5194 40.6088L71.3298 62.2617L28.4572 14.1187Z"
          fill="#232D39"/>
    <path d="M43.6565 41.6201L56.6427 78.2165L33.6893 78.3441L51.0668 89.4203L35.5253 101.986L57.3258 99.5212L60.2464 116.931L72.9594 102.923L89.2112 116.359L86.1552 98.1419L131.959 102.715L92.685 87.1828L108.467 74.2378L82.635 77.158L85.2531 58.2997L70.6515 71.9336L43.6565 41.6201Z"
          fill="#27323E"/>
</svg>
