<svg width="65" height="37" viewBox="0 0 65 37" fill="none" xmlns="http://www.w3.org/2000/svg">
    <path d="M1.9991 8.06362C7.28782 3.2175 17.1359 0.084672 24.7229 4.77486C28.194 6.92065 31.0307 8.59164 31.5902 12.6488C32.2147 17.1777 30.2779 21.9265 25.7984 22.8909C23.6495 23.3536 21.4544 22.8374 20.0726 20.6568C19.2099 19.2954 19.7638 16.0598 21.2197 13.8777C22.6756 11.6956 28.4961 7.93679 33.8105 9.1042C40.0368 10.4719 47.3457 17.4017 47.5864 24.4776C47.7686 29.8358 44.3273 35.8121 39.6836 34.6665C34.4092 33.3654 36.8704 24.7003 37.529 22.9275C38.1876 21.1547 40.6837 16.828 43.8425 14.6093C47.0013 12.3906 51.0826 13.0235 52.7884 13.5356C54.4942 14.0478 58.8049 16.1369 62.1962 21.9999"
          stroke="#88C80C" stroke-width="4" stroke-linecap="round"/>
</svg>
