<svg width="36" height="33" viewBox="0 0 36 33" fill="none" xmlns="http://www.w3.org/2000/svg">
    <path d="M20.0266 32.492C18.846 32.492 17.6645 32.0357 17.1065 31.8202C14.8996 30.9616 12.9036 29.6376 11.2544 27.9384L10.05 26.7052L11.3468 23.4407L14.3153 21.066L15.3271 13.7568L22.0612 7.892L24.2723 7.32376L30.8232 0.641357L32.2472 0.854238C32.9059 0.954911 33.5085 1.28329 33.9501 1.78225C34.3917 2.28121 34.6445 2.91918 34.6644 3.58521C34.7713 6.85219 32.9096 11.0945 30.9937 15.1596L30.9377 15.2597L25.9864 22.5587L22.6346 31.1061L22.6006 31.1621C21.9773 32.1807 21.0045 32.492 20.0266 32.492ZM11.7683 26.36L12.3052 26.907C13.8072 28.4564 15.6256 29.6636 17.6365 30.4463C20.2149 31.442 20.9782 30.945 21.3098 30.4463L24.676 21.8709L29.6867 14.4828C31.517 10.5967 33.2887 6.56299 33.1921 3.6361C33.1837 3.31443 33.0628 3.00588 32.8503 2.76424C32.6378 2.52261 32.3472 2.36321 32.0293 2.31386L31.3508 2.21124L25.0399 8.65107L22.7677 9.2346L16.7121 14.5074L15.6943 21.8522L12.5715 24.3474L11.7683 26.36Z"
          fill="#1F2935"/>
    <path d="M25.3482 7.75275L23.9587 8.23962L27.4759 18.2776L28.8655 17.7907L25.3482 7.75275Z" fill="#1F2935"/>
    <path d="M14.6078 29.8744L13.5409 28.8608L17.3736 24.8246L24.0924 24.5685L24.1493 26.0391L18.0292 26.2732L14.6078 29.8744Z"
          fill="#1F2935"/>
    <path d="M21.972 30.7816L23.9558 29.7401L24.8769 27.8776L23.7319 26.0889L21.972 30.7816Z" fill="#1F2935"/>
    <path d="M20.6055 32.3319L23.5595 24.4536L25.7222 27.8317L24.5103 30.2802L20.6055 32.3319ZM23.9055 27.7248L23.3407 29.2311L23.4026 29.1989L24.0327 27.9267L23.9055 27.7248Z"
          fill="#1F2935"/>
    <path d="M33.7738 5.59326L34.8526 7.72375L33.6983 10.0553L32.2192 10.6125" fill="#1F2935"/>
    <path d="M32.4782 11.3018L31.9592 9.92363L33.1669 9.46819L34.0286 7.72698L33.1169 5.92556L34.4306 5.26062L35.6757 7.71934L34.2296 10.642L32.4782 11.3018Z"
          fill="#1F2935"/>
    <path d="M25.7738 11.9436L11.4991 23.347L12.4181 24.4974L26.6928 13.0939L25.7738 11.9436Z" fill="#1F2935"/>
    <path d="M21.3404 10.095L19.8711 10.1901L20.0939 13.6356L21.5632 13.5406L21.3404 10.095Z" fill="#1F2935"/>
    <path d="M26.2318 12.4899L28.1732 18.029L25.3311 22.2171L24.1225 25.3034L17.7014 25.5485L14.0748 29.3651C13.2543 28.7873 12.4879 28.1364 11.7848 27.4203L10.9113 26.5357L11.9587 23.8972L15.006 21.4622L26.2318 12.4899Z"
          fill="#1F2935"/>
    <path d="M14.1744 30.3357L13.6553 29.9701C12.7973 29.367 11.9956 28.6875 11.2602 27.9397L10.0499 26.7057L11.3458 23.4404L26.5833 11.2698L28.9903 18.1396L25.9862 22.5677L24.6292 26.0247L18.0266 26.2791L14.1744 30.3357ZM11.7759 26.3614L12.311 26.9084C12.8355 27.4411 13.3967 27.9366 13.9903 28.3909L17.3777 24.8288L23.6166 24.5905L24.6793 21.8765L27.3594 17.9267L25.8785 13.7141L12.5689 24.3496L11.7759 26.3614Z"
          fill="#1F2935"/>
    <path d="M10.5912 27.1982L2.23288 23.1637L6.3217 12.5087L7.69653 13.0362L4.09282 22.4267L11.2315 25.8718L10.5912 27.1982Z"
          fill="#1F2935"/>
    <path d="M7.10768 12.031L6.88751 13.4868L15.8965 14.8493L16.1167 13.3935L7.10768 12.031Z" fill="#1F2935"/>
    <path d="M13.7839 31.0216L3.16275 31.0216L3.16275 32.494L13.7839 32.494L13.7839 31.0216Z" fill="#1F2935"/>
    <path d="M5.96633 27.6993L0.364441 27.6993L0.364441 29.1717L5.96633 29.1717L5.96633 27.6993Z" fill="#1F2935"/>
</svg>
