<svg width="43" height="43" viewBox="0 0 43 43" fill="none" xmlns="http://www.w3.org/2000/svg">
    <g clip-path="url(#clip0_38_4375)">
        <path d="M21.4957 37.4743C17.5955 37.485 13.8261 36.0686 10.898 33.4921C7.96999 30.9155 6.08559 27.3569 5.60008 23.487C5.11456 19.6171 6.06146 15.7032 8.26228 12.4832C10.4631 9.26325 13.7658 6.95956 17.5478 6.00644C21.3298 5.05332 25.3298 5.51661 28.7938 7.30897C32.2578 9.10134 34.9465 12.099 36.3531 15.7368C37.7596 19.3746 37.7868 23.4012 36.4296 27.0577C35.0724 30.7142 32.4244 33.7479 28.985 35.5869C26.6803 36.8186 24.1089 37.4666 21.4957 37.4743ZM21.4957 7.15202C17.868 7.13752 14.3691 8.4958 11.7014 10.9542C9.03364 13.4126 7.39457 16.7891 7.11321 20.4059C6.83185 24.0227 7.92902 27.6121 10.1845 30.4535C12.4399 33.2948 15.6867 35.1779 19.273 35.7246C22.8593 36.2713 26.5197 35.4411 29.5193 33.4008C32.5189 31.3605 34.6357 28.2611 35.4448 24.7247C36.2538 21.1884 35.6953 17.4768 33.8812 14.3353C32.0671 11.1937 29.1318 8.85456 25.6645 7.78751C24.3096 7.3708 22.9006 7.15665 21.483 7.15202H21.4957Z"
              fill="#141B23"/>
        <path d="M18.472 28.681L14.2746 42.4791L15.7945 42.9414L19.992 29.1434L18.472 28.681Z" fill="#141B23"/>
        <path d="M27.1611 0.0927133L22.8703 14.1978L24.3902 14.6602L28.6811 0.555088L27.1611 0.0927133Z"
              fill="#141B23"/>
        <path d="M28.9047 23.1114L28.4426 24.6314L42.3964 28.8736L42.8585 27.3535L28.9047 23.1114Z" fill="#141B23"/>
        <path d="M0.463269 14.4669L0.00115967 15.9869L13.955 20.229L14.4171 18.709L0.463269 14.4669Z" fill="#141B23"/>
        <path d="M21.4796 30.6683C26.5353 30.6683 30.6338 26.5698 30.6338 21.5141C30.6338 16.4584 26.5353 12.3599 21.4796 12.3599C16.4239 12.3599 12.3254 16.4584 12.3254 21.5141C12.3254 26.5698 16.4239 30.6683 21.4796 30.6683Z"
              fill="#141B23"/>
        <path d="M21.4864 31.4704C19.0538 31.4765 16.703 30.5924 14.8771 28.9849C13.0513 27.3774 11.8766 25.1575 11.5744 22.7437C11.2723 20.3299 11.8636 17.8889 13.2368 15.8809C14.6101 13.873 16.6705 12.4367 19.0295 11.843C21.3886 11.2492 23.8834 11.5389 26.0436 12.6575C28.2038 13.7761 29.8802 15.6462 30.7568 17.9155C31.6333 20.1847 31.6495 22.6962 30.8023 24.9765C29.955 27.2568 28.3029 29.1485 26.1572 30.2948C24.7202 31.0637 23.1162 31.4674 21.4864 31.4704ZM21.4642 13.1525C19.3473 13.1505 17.308 13.9491 15.7556 15.3882C14.2032 16.8272 13.2524 18.8002 13.0942 20.9111C12.936 23.022 13.5821 25.1147 14.9027 26.769C16.2233 28.4234 18.1208 29.5171 20.2143 29.8306C22.3078 30.144 24.4424 29.6541 26.1897 28.4591C27.9369 27.2642 29.1676 25.4525 29.6347 23.3879C30.1017 21.3232 29.7706 19.1583 28.7078 17.3276C27.6449 15.4969 25.929 14.136 23.9044 13.5179C23.1136 13.2757 22.2912 13.1526 21.4642 13.1525Z"
              fill="#141B23"/>
        <path d="M23.982 10.5515L17.4523 32.0162L18.9723 32.4785L25.5019 11.0139L23.982 10.5515Z" fill="#F9CC00"/>
        <path d="M10.9711 17.4942L10.509 19.0142L31.9748 25.5401L32.4369 24.0201L10.9711 17.4942Z" fill="#F9CC00"/>
    </g>
    <defs>
        <clipPath id="clip0_38_4375">
            <rect width="42.8541" height="42.8541" fill="white" transform="translate(0.0109253 0.0884399)"/>
        </clipPath>
    </defs>
</svg>
