<svg width="583" height="415" viewBox="0 0 583 415" fill="none" xmlns="http://www.w3.org/2000/svg">
    <g opacity="0.05">
        <path fill-rule="evenodd" clip-rule="evenodd"
              d="M242.284 29.276L324.22 116.894L486.078 -56.1871L462.084 -81.8452C461.807 -81.8375 461.529 -81.8324 461.25 -81.8324H327.039C311.461 -81.8324 298.831 -95.3375 298.831 -111.996C298.831 -128.655 311.461 -142.158 327.039 -142.158H405.682L324.22 -229.27L162.363 -56.1871L185.89 -31.0295C186.239 -31.0423 186.589 -31.0499 186.941 -31.0499H321.153C336.731 -31.0499 349.36 -17.5449 349.36 -0.886353C349.36 15.7722 336.731 29.276 321.153 29.276H242.284ZM95.8789 -70.4071C88.5353 -62.5541 88.5353 -49.8214 95.8789 -41.9684L310.923 187.989C318.267 195.842 330.174 195.842 337.518 187.989L552.562 -41.9684C559.906 -49.8214 559.906 -62.5541 552.562 -70.4071L337.518 -300.364C330.174 -308.217 318.267 -308.217 310.923 -300.364L95.8789 -70.4071Z"
              fill="#4C545D"/>
        <path fill-rule="evenodd" clip-rule="evenodd"
              d="M491.569 350.616L573.505 438.234L735.363 265.153L711.369 239.495C711.092 239.502 710.814 239.507 710.536 239.507H576.324C560.746 239.507 548.116 226.002 548.116 209.344C548.116 192.685 560.746 179.182 576.324 179.182H654.967L573.505 92.0703L411.648 265.153L435.175 290.31C435.524 290.298 435.874 290.29 436.226 290.29H570.438C586.016 290.29 598.645 303.795 598.645 320.453C598.645 337.112 586.016 350.616 570.438 350.616H491.569ZM345.164 250.933C337.82 258.786 337.82 271.518 345.164 279.371L560.208 509.329C567.552 517.182 579.459 517.182 586.803 509.329L801.848 279.371C809.191 271.518 809.191 258.786 801.848 250.933L586.803 20.9756C579.459 13.1227 567.552 13.1227 560.208 20.9756L345.164 250.933Z"
              fill="#4C545D"/>
        <path fill-rule="evenodd" clip-rule="evenodd"
              d="M-283.408 640.549L-201.471 728.168L-39.6135 555.086L-63.6076 529.428C-63.8846 529.436 -64.1628 529.441 -64.4409 529.441H-198.653C-214.231 529.441 -226.86 515.936 -226.86 499.277C-226.86 482.619 -214.231 469.115 -198.653 469.115H-120.009L-201.471 382.004L-363.328 555.086L-339.801 580.244C-339.453 580.231 -339.102 580.224 -338.75 580.224H-204.539C-188.96 580.224 -176.331 593.729 -176.331 610.387C-176.331 627.046 -188.96 640.549 -204.539 640.549H-283.408ZM-429.812 540.866C-437.156 548.719 -437.156 561.452 -429.812 569.305L-214.768 799.263C-207.424 807.116 -195.517 807.116 -188.174 799.263L26.8709 569.305C34.2147 561.452 34.2147 548.719 26.8709 540.866L-188.174 310.909C-195.517 303.056 -207.424 303.056 -214.768 310.909L-429.812 540.866Z"
              fill="#4C545D"/>
        <path fill-rule="evenodd" clip-rule="evenodd"
              d="M-34.8743 319.208L47.0618 406.826L208.92 233.745L184.926 208.086C184.649 208.094 184.37 208.099 184.092 208.099H49.8806C34.3024 208.099 21.6731 194.594 21.6731 177.936C21.6731 161.277 34.3024 147.773 49.8806 147.773H128.524L47.0618 60.6621L-114.795 233.745L-91.2682 258.902C-90.9194 258.889 -90.5689 258.882 -90.217 258.882H43.9946C59.5728 258.882 72.202 272.387 72.202 289.045C72.202 305.704 59.5728 319.208 43.9946 319.208H-34.8743ZM-181.279 219.525C-188.623 227.378 -188.623 240.11 -181.279 247.963L33.7651 477.921C41.1089 485.774 53.0158 485.774 60.3596 477.921L275.404 247.963C282.748 240.11 282.748 227.378 275.404 219.525L60.3596 -10.4326C53.0158 -18.2855 41.1089 -18.2855 33.7651 -10.4326L-181.279 219.525Z"
              fill="#4C545D"/>
        <path fill-rule="evenodd" clip-rule="evenodd"
              d="M214.415 640.549L296.351 728.168L458.209 555.086L434.215 529.428C433.938 529.436 433.66 529.441 433.381 529.441H299.17C283.591 529.441 270.962 515.936 270.962 499.277C270.962 482.619 283.591 469.115 299.17 469.115H377.813L296.351 382.004L134.494 555.086L158.021 580.244C158.37 580.231 158.72 580.224 159.072 580.224H293.284C308.862 580.224 321.491 593.729 321.491 610.387C321.491 627.046 308.862 640.549 293.284 640.549H214.415ZM68.0098 540.866C60.6662 548.719 60.6662 561.452 68.0098 569.305L283.054 799.263C290.398 807.116 302.305 807.116 309.649 799.263L524.693 569.305C532.037 561.452 532.037 548.719 524.693 540.866L309.649 310.909C302.305 303.056 290.398 303.056 283.054 310.909L68.0098 540.866Z"
              fill="#4C545D"/>
        <path fill-rule="evenodd" clip-rule="evenodd"
              d="M-284.408 11.5572L-202.471 99.1754L-40.6135 -73.9059L-64.6076 -99.5639C-64.8846 -99.5563 -65.1628 -99.5512 -65.4409 -99.5512H-199.653C-215.231 -99.5512 -227.86 -113.056 -227.86 -129.715C-227.86 -146.373 -215.231 -159.877 -199.653 -159.877H-121.009L-202.471 -246.988L-364.328 -73.9059L-340.801 -48.7483C-340.453 -48.761 -340.102 -48.7687 -339.75 -48.7687H-205.539C-189.96 -48.7687 -177.331 -35.2636 -177.331 -18.6051C-177.331 -1.94656 -189.96 11.5572 -205.539 11.5572H-284.408ZM-430.812 -88.1259C-438.156 -80.2728 -438.156 -67.5402 -430.812 -59.6871L-215.768 170.27C-208.424 178.123 -196.517 178.123 -189.174 170.27L25.8709 -59.6871C33.2147 -67.5402 33.2147 -80.2728 25.8709 -88.1259L-189.174 -318.083C-196.517 -325.936 -208.424 -325.936 -215.768 -318.083L-430.812 -88.1259Z"
              fill="#1F2935"/>
    </g>
</svg>
