<svg width="63" height="63" viewBox="0 0 63 63" fill="none" xmlns="http://www.w3.org/2000/svg">
    <path d="M4.16449 30.0036C1.85448 33.2202 2.80622 37.6279 4.9097 41.51C7.09738 45.5474 10.9027 49.7952 15.7592 53.3933C20.6156 56.9914 25.7602 59.374 30.2154 60.2551C34.5015 61.1027 38.9254 60.6718 41.2393 57.4501C42.601 55.554 42.8142 53.214 42.3661 50.9132C42.1656 49.8837 41.8276 48.8265 41.3725 47.7587C42.5127 47.8731 43.6072 47.8782 44.6342 47.7569C46.93 47.4856 49.0604 46.5605 50.4214 44.6655C52.134 42.281 52.062 39.2473 51.0483 36.2453C54.1722 36.3089 57.0381 35.4528 58.7507 33.0684C61.0646 29.8466 60.1176 25.4365 58.014 21.5501C55.8274 17.5104 52.0225 13.2624 47.1662 9.66436C42.3097 6.06624 37.1645 3.68315 32.7093 2.80206C28.4233 1.95452 24 2.38595 21.6861 5.60764C19.9739 7.99173 20.0451 11.0245 21.0583 14.026C17.9346 13.9625 15.0692 14.8206 13.3568 17.2048C11.9959 19.0997 11.7788 21.4419 12.2237 23.7455C12.4231 24.7776 12.7616 25.8373 13.2164 26.9078C12.0752 26.7932 10.9789 26.7902 9.95091 26.9117C7.65524 27.183 5.52538 28.1088 4.16449 30.0036Z"
          fill="#F9CC00" stroke="#262F3B" stroke-width="4"/>
</svg>
