<svg width="134" height="138" viewBox="0 0 134 138" fill="none" xmlns="http://www.w3.org/2000/svg">
    <g clip-path="url(#clip0_38_7210)">
        <path d="M49.8359 121.015C77.1417 129.971 106.538 115.096 115.495 87.7904C124.451 60.4846 109.576 31.0881 82.2706 22.1314C54.9648 13.1748 25.5683 28.0498 16.6117 55.3556C7.6551 82.6614 22.5301 112.058 49.8359 121.015Z"
              fill="#141B23" fill-opacity="0.76"/>
        <path d="M47.7164 52.7955C43.6223 49.8167 37.6326 48.7517 33.5056 51.7331C29.8563 54.3804 28.6885 59.4366 29.5209 63.8812C30.3533 68.3257 32.854 72.1723 35.4402 75.8834C38.8676 80.7702 42.5154 85.4838 46.3835 90.0244C51.3393 95.8623 57.2291 101.72 64.7806 103.011C77.3871 105.224 88.0873 94.2974 96.1626 84.3908C104.042 74.7064 111.873 64.9239 118.433 54.2749C121.005 50.0476 123.417 45.5629 123.885 40.6452C124.353 35.7275 122.287 30.3058 117.914 28.0533C114.095 26.1055 109.319 26.9517 105.618 29.1323C101.917 31.3128 99.0946 34.6812 96.3454 37.9509C90.7736 44.589 85.2018 51.227 79.63 57.8651C76.7342 61.3321 73.5932 64.9232 69.3986 66.6146C65.302 68.2563 61.1677 67.1456 57.5477 63.0954C57.5107 63.0833 51.8354 55.8233 47.7164 52.7955Z"
              fill="url(#paint0_linear_38_7210)"/>
    </g>
    <defs>
        <linearGradient id="paint0_linear_38_7210" x1="73.9736" y1="17.29" x2="127.974" y2="78.29"
                        gradientUnits="userSpaceOnUse">
            <stop stop-color="#D0F091"/>
            <stop offset="1" stop-color="#141B23"/>
        </linearGradient>
        <clipPath id="clip0_38_7210">
            <rect width="104.455" height="109.896" fill="white"
                  transform="translate(34.4014 0.498047) rotate(18.1601)"/>
        </clipPath>
    </defs>
</svg>
